<?xml version="1.0" encoding="UTF-8" standalone="no"?>
<!-- Created with Inkscape (http://www.inkscape.org/) -->

<svg
   version="1.1"
   id="svg1"
   width="653.38269"
   height="850.56"
   viewBox="0 0 653.38269 850.56"
   sodipodi:docname="A.pdf"
   xmlns:inkscape="http://www.inkscape.org/namespaces/inkscape"
   xmlns:sodipodi="http://sodipodi.sourceforge.net/DTD/sodipodi-0.dtd"
   xmlns="http://www.w3.org/2000/svg"
   xmlns:svg="http://www.w3.org/2000/svg">
  <defs
     id="defs1">
    <clipPath
       clipPathUnits="userSpaceOnUse"
       id="clipPath2">
      <path
         d="M 0,0 H 490.036 V 637.92 H 0 Z"
         id="path2" />
    </clipPath>
  </defs>
  <sodipodi:namedview
     id="namedview1"
     pagecolor="#ffffff"
     bordercolor="#000000"
     borderopacity="0.25"
     inkscape:showpageshadow="2"
     inkscape:pageopacity="0.0"
     inkscape:pagecheckerboard="0"
     inkscape:deskcolor="#d1d1d1">
    <inkscape:page
       x="0"
       y="0"
       inkscape:label="1"
       id="page1"
       width="653.38269"
       height="850.56"
       margin="0"
       bleed="0" />
  </sodipodi:namedview>
  <g
     id="layer-MC0"
     inkscape:groupmode="layer"
     inkscape:label="Layer 1">
    <path
       id="path1"
       d="M -59.061,714.64 H 549.142 V -78.984 H -59.061 Z"
       style="fill:none;stroke:#000000;stroke-width:0.96;stroke-linecap:round;stroke-linejoin:round;stroke-miterlimit:10;stroke-dasharray:none;stroke-opacity:1"
       transform="matrix(1.3333333,0,0,-1.3333333,0,850.56)"
       clip-path="url(#clipPath2)" />
    <path
       id="path3"
       d="m 0,0 3.601,4.08 9.6,10.56 12.241,13.919 5.52,5.519 4.801,5.279 8.64,9.6 8.16,7.919 4.082,4.32 2.639,3.12 4.08,5.279 2.641,2.88 3.36,3.36 6.96,5.28 5.041,4.079 1.44,1.44 0.72,1.2 v 1.44 l -0.24,1.2 -1.2,3.6 -0.481,1.92 v 2.4 l 0.481,2.879 0.96,2.88 2.16,3.599 2.16,3.121 3.361,3.839 3.839,3.84 0.721,0.48"
       style="fill:none;stroke:#b6fcba;stroke-width:1.92;stroke-linecap:round;stroke-linejoin:round;stroke-miterlimit:10;stroke-dasharray:none;stroke-opacity:1"
       transform="matrix(1.3333333,0,0,-1.3333333,302.39973,509.82427)" />
    <path
       id="path4"
       d="m 0,0 17.041,8.639 16.081,8.88 11.761,7.199 6,3.84"
       style="fill:none;stroke:#ccdafc;stroke-width:1.92;stroke-linecap:round;stroke-linejoin:round;stroke-miterlimit:10;stroke-dasharray:none;stroke-opacity:1"
       transform="matrix(1.3333333,0,0,-1.3333333,360.64453,510.4636)" />
    <path
       id="path5"
       d="m 0,0 7.2,4.56 36.484,22.078 1.199,0.719 v -0.479"
       style="fill:none;stroke:#fcc0dc;stroke-width:1.92;stroke-linecap:round;stroke-linejoin:round;stroke-miterlimit:10;stroke-dasharray:none;stroke-opacity:1"
       transform="matrix(1.3333333,0,0,-1.3333333,368.64453,510.4636)" />
    <path
       id="path6"
       d="m 0,0 h 0.24 l 2.16,2.88 5.281,5.999 4.8,5.76 8.64,9.359 4.32,3.84 10.322,8.399 10.56,10.56 4.08,3.599 1.441,1.44 1.92,0.96 6.48,3.12 0.481,0.479 -0.481,0.241 6.961,5.519 12.961,7.68 11.04,5.279 v 0.24"
       style="fill:none;stroke:#f9b3fc;stroke-width:1.92;stroke-linecap:round;stroke-linejoin:round;stroke-miterlimit:10;stroke-dasharray:none;stroke-opacity:1"
       transform="matrix(1.3333333,0,0,-1.3333333,306.88027,510.4636)" />
    <path
       id="path7"
       d="m 0,0 0.72,3.359 0.96,4.08 1.68,5.04 2.64,4.559 6.241,9.6 6.48,8.639 3.12,3.36 3.841,3.84 7.681,6 4.32,3.839 7.68,7.919 21.601,17.279 6.721,5.76 5.04,4.08 12.961,9.599 0.24,0.24 12.721,10.319 v -0.24"
       style="fill:none;stroke:#fcc6b3;stroke-width:1.92;stroke-linecap:round;stroke-linejoin:round;stroke-miterlimit:10;stroke-dasharray:none;stroke-opacity:1"
       transform="matrix(1.3333333,0,0,-1.3333333,288.95907,509.1836)" />
    <path
       id="path8"
       d="m 0,0 0.48,2.4 1.2,5.28 1.44,4.799 2.16,5.28 1.92,4.08 2.881,5.279 2.88,5.04 2.4,3.36 4.8,5.519 8.161,7.92 1.44,1.68 v 0.96 l -0.24,0.479 -3.12,2.401 -0.72,1.2 -0.24,1.199 v 1.68 l 0.72,2.88 0.48,1.92 1.2,2.16 1.68,2.159 2.88,3.36 7.201,6.96 7.44,7.199 0.96,0.96 0.721,1.2 -0.241,0.72 -0.719,0.24 h -2.401 l -4.08,-0.96 -11.761,-4.08 -3.84,-0.48 h -2.88 l -2.641,0.72 -0.72,0.72 -0.24,0.48 -0.24,2.4 0.96,4.08 2.881,7.2 1.679,3.119 2.401,5.04 8.64,15.119 5.281,8.399 7.921,10.32 5.28,6.239 5.52,5.519 8.161,6.96 1.44,1.92 0.24,0.48 -0.48,0.48 -1.2,0.48 h -1.92 l -4.321,-0.48 -1.2,0.24 -0.24,0.72 0.48,0.96 2.161,2.4 -0.241,0.239 0.241,0.241 1.679,1.199 5.041,2.88 5.52,1.92 5.281,1.2 4.32,0.24 6.481,-0.96 h 4.559 l 11.522,0.48"
       style="fill:none;stroke:#c0fce5;stroke-width:1.92;stroke-linecap:round;stroke-linejoin:round;stroke-miterlimit:10;stroke-dasharray:none;stroke-opacity:1"
       transform="matrix(1.3333333,0,0,-1.3333333,285.4388,509.82427)" />
    <path
       id="path9"
       d="m 0,0 -0.48,5.279 v 5.281 l 0.48,4.559 0.96,3.84 1.44,4.319 1.92,4.32 3.12,4.08 4.801,6.239 0.72,1.44 0.48,0.72 -0.48,0.72 H 12 L 4.32,40.077 H 2.64 l -1.68,0.48 -1.2,0.96 -0.72,1.2 v 1.679 l 0.72,1.92 1.92,3.84 2.64,4.08 3.36,3.84 4.32,3.84 0.241,0.24 3.6,3.119 3.6,2.64 6.721,4.08 5.76,3.12 2.16,1.199 1.2,1.201 v 0.48 h -0.719 l -3.361,-0.48 -14.401,-3.84 -4.801,-1.2 -4.08,-0.24 -2.4,0.48 -1.2,0.96 -0.72,1.199 -0.24,1.44 v 1.92 l 0.72,1.92 0.72,2.64 3.36,6.24 3.601,5.759 4.8,6.72 6.24,8.399 5.521,6.96 4.56,5.279 4.56,4.8 5.04,5.04 4.561,4.32 6.48,5.279 6.001,4.56 5.521,3.839 1.68,1.2 6.24,4.08 7.44,4.32 7.441,3.84 5.52,2.639 6.24,2.4 4.321,1.44 4.801,0.96 6,0.96 h 1.44"
       style="fill:none;stroke:#fcfab3;stroke-width:1.92;stroke-linecap:round;stroke-linejoin:round;stroke-miterlimit:10;stroke-dasharray:none;stroke-opacity:1"
       transform="matrix(1.3333333,0,0,-1.3333333,275.51827,509.504)" />
    <path
       id="path10"
       d="m 0,0 1.92,2.16 6.241,6.719 4.32,4.08 4.8,4.32 21.122,16.558 5.04,4.32 0.48,0.48 2.881,2.88 2.16,2.4 0.72,1.68 0.48,1.2 0.239,1.44 v 0.48 l -0.239,0.959 -0.48,0.72 -2.161,1.68 -3.6,1.44 -3.12,0.72 -3.6,0.48 -3.6,0.24 h -3.361 l -4.56,-0.24 -4.56,-1.2 -3.601,-1.44 -3.6,-2.639 -1.92,-1.92 -3.36,-4.08 -3.12,-4.32 -2.88,-4.559 -5.041,-9.12 -13.921,-26.638 -4.32,-8.159 -1.68,-2.4 -5.041,-9.119 -4.56,-10.08 -1.92,-4.08 -0.96,-3.599 -0.24,-1.44 v -0.96 l 0.24,-0.24 h 0.48 l 0.96,0.72 2.88,3.119 25.922,32.158 4.8,5.76"
       style="fill:none;stroke:#fcfab3;stroke-width:1.92;stroke-linecap:round;stroke-linejoin:round;stroke-miterlimit:10;stroke-dasharray:none;stroke-opacity:1"
       transform="matrix(1.3333333,0,0,-1.3333333,315.20053,344.7156)" />
    <path
       id="path11"
       d="M 0,0 192.253,-120.711"
       style="fill:none;stroke:#559100;stroke-width:1.44;stroke-linecap:round;stroke-linejoin:round;stroke-miterlimit:10;stroke-dasharray:none;stroke-opacity:1"
       transform="matrix(1.3333333,0,0,-1.3333333,147.8288,349.51507)" />
    <path
       id="path12"
       d="M 0,0 183.132,-133.67"
       style="fill:none;stroke:#559100;stroke-width:1.44;stroke-linecap:round;stroke-linejoin:round;stroke-miterlimit:10;stroke-dasharray:none;stroke-opacity:1"
       transform="matrix(1.3333333,0,0,-1.3333333,161.27027,329.9968)" />
    <path
       id="path13"
       d="M 0,0 170.652,-149.27"
       style="fill:none;stroke:#559100;stroke-width:1.44;stroke-linecap:round;stroke-linejoin:round;stroke-miterlimit:10;stroke-dasharray:none;stroke-opacity:1"
       transform="matrix(1.3333333,0,0,-1.3333333,179.83147,306.9584)" />
    <path
       id="path14"
       d="M 0,0 156.491,-163.908"
       style="fill:none;stroke:#006100;stroke-width:1.44;stroke-linecap:round;stroke-linejoin:round;stroke-miterlimit:10;stroke-dasharray:none;stroke-opacity:1"
       transform="matrix(1.3333333,0,0,-1.3333333,200.31253,285.5196)" />
    <path
       id="path15"
       d="M 0,0 141.37,-177.348"
       style="fill:none;stroke:#ffff00;stroke-width:1.44;stroke-linecap:round;stroke-linejoin:round;stroke-miterlimit:10;stroke-dasharray:none;stroke-opacity:1"
       transform="matrix(1.3333333,0,0,-1.3333333,222.39453,266.00133)" />
    <path
       id="path16"
       d="M 0,0 125.049,-189.107"
       style="fill:none;stroke:#ffbb00;stroke-width:1.44;stroke-linecap:round;stroke-linejoin:round;stroke-miterlimit:10;stroke-dasharray:none;stroke-opacity:1"
       transform="matrix(1.3333333,0,0,-1.3333333,246.39587,248.72213)" />
    <path
       id="path17"
       d="M 0,0 107.768,-199.666"
       style="fill:none;stroke:#ff7700;stroke-width:1.44;stroke-linecap:round;stroke-linejoin:round;stroke-miterlimit:10;stroke-dasharray:none;stroke-opacity:1"
       transform="matrix(1.3333333,0,0,-1.3333333,271.67773,233.36333)" />
    <path
       id="path18"
       d="M 0,0 89.767,-208.305"
       style="fill:none;stroke:#ff7700;stroke-width:1.44;stroke-linecap:round;stroke-linejoin:round;stroke-miterlimit:10;stroke-dasharray:none;stroke-opacity:1"
       transform="matrix(1.3333333,0,0,-1.3333333,298.2396,220.56453)" />
    <path
       id="path19"
       d="M 0,0 70.805,-215.265"
       style="fill:none;stroke:#ff7700;stroke-width:1.44;stroke-linecap:round;stroke-linejoin:round;stroke-miterlimit:10;stroke-dasharray:none;stroke-opacity:1"
       transform="matrix(1.3333333,0,0,-1.3333333,325.76173,210.32493)" />
    <path
       id="path20"
       d="M 0,0 51.363,-220.784"
       style="fill:none;stroke:#ff2600;stroke-width:1.44;stroke-linecap:round;stroke-linejoin:round;stroke-miterlimit:10;stroke-dasharray:none;stroke-opacity:1"
       transform="matrix(1.3333333,0,0,-1.3333333,354.24347,202.3256)" />
    <path
       id="path21"
       d="M 0,0 31.442,-224.625"
       style="fill:none;stroke:#ff2600;stroke-width:1.44;stroke-linecap:round;stroke-linejoin:round;stroke-miterlimit:10;stroke-dasharray:none;stroke-opacity:1"
       transform="matrix(1.3333333,0,0,-1.3333333,383.36587,196.88613)" />
    <path
       id="path22"
       d="M 0,0 13.682,-226.544"
       style="fill:none;stroke:#a4c400;stroke-width:1.44;stroke-linecap:round;stroke-linejoin:round;stroke-miterlimit:10;stroke-dasharray:none;stroke-opacity:1"
       transform="matrix(1.3333333,0,0,-1.3333333,409.92707,194.00587)" />
    <path
       id="path23"
       d="m 0,0 v 0.239 l 0.24,0.24 V 0.72 l 0.24,0.24 0.241,0.239 v 0.24 L 0.96,1.68 1.2,1.92 1.44,2.159 v 0.24 L 1.681,2.64 1.921,2.88 2.16,3.119 2.4,3.359 2.641,3.6 2.881,3.84 V 4.079 L 3.12,4.319 3.36,4.56 h 0.241 l 0.24,0.24 0.24,0.239 0.239,0.24 0.241,0.241 0.24,0.24 0.24,0.239 H 5.28 l 0.241,0.24 0.24,0.24 0.24,0.241 h 0.24 l 0.239,0.239 0.241,0.24 h 0.24 l 0.24,0.24 0.239,0.24 h 0.241 l 0.24,0.24 h 0.24 l 0.24,0.24 h 0.24 l 0.24,0.24 h 0.24 l 0.24,0.24 h 0.24 l 0.24,0.24 h 0.24 l 0.24,0.24 h 0.241 l 0.239,0.24 h 0.24 0.24 l 0.24,0.24 h 0.24 0.24 l 0.24,0.24 h 0.24 0.241 l 0.239,0.24 h 0.24 0.24 0.241 l 0.239,0.24 h 0.24 0.24 0.241 0.24 l 0.239,0.24 h 0.24 0.241 0.24 0.239 0.24 0.241 l 0.24,0.24 h 0.24 0.239 0.24 0.241 0.24 0.239 0.24"
       style="fill:none;stroke:#ad2b00;stroke-width:1.92;stroke-linecap:round;stroke-linejoin:round;stroke-miterlimit:10;stroke-dasharray:none;stroke-opacity:1"
       transform="matrix(1.3333333,0,0,-1.3333333,404.16667,510.4636)" />
    <path
       id="path24"
       d="M 43.427,591.048 H 446.656 V 42.926 H 43.427 Z"
       style="fill:none;stroke:#000000;stroke-width:0.96;stroke-linecap:round;stroke-linejoin:round;stroke-miterlimit:10;stroke-dasharray:none;stroke-opacity:1"
       transform="matrix(1.3333333,0,0,-1.3333333,0,850.56)" />
    <path
       id="path25"
       d="M 0,0 V -5.04"
       style="fill:none;stroke:#000000;stroke-width:1.44;stroke-linecap:round;stroke-linejoin:round;stroke-miterlimit:10;stroke-dasharray:none;stroke-opacity:1"
       transform="matrix(1.3333333,0,0,-1.3333333,466.25133,793.32427)" />
    <text
       id="text25"
       xml:space="preserve"
       transform="matrix(1.3333333,0,0,1.3331556,426.7292,815.80733)"><tspan
         id="tspan25"
         style="font-variant:normal;font-weight:normal;font-stretch:normal;font-size:12.0008px;font-family:Arial;writing-mode:lr-tb;fill:#000000;fill-opacity:1;fill-rule:nonzero;stroke:none"
         x="0"
         dx="0 -0.1920128 0 0 0 0 0.1080072 -0.1920128"
         y="0">91°24'20&quot;E</tspan></text>
    <path
       id="path26"
       d="M 0,0 V 5.04"
       style="fill:none;stroke:#000000;stroke-width:1.44;stroke-linecap:round;stroke-linejoin:round;stroke-miterlimit:10;stroke-dasharray:none;stroke-opacity:1"
       transform="matrix(1.3333333,0,0,-1.3333333,474.25267,62.495467)" />
    <text
       id="text26"
       xml:space="preserve"
       transform="matrix(1.3333333,0,0,1.3331556,434.7292,51.1056)"><tspan
         id="tspan26"
         style="font-variant:normal;font-weight:normal;font-stretch:normal;font-size:12.0008px;font-family:Arial;writing-mode:lr-tb;fill:#000000;fill-opacity:1;fill-rule:nonzero;stroke:none"
         x="0"
         dx="0 -0.1920128 0 0 0 0 0.1080072 -0.1920128"
         y="0">91°24'20&quot;E</tspan></text>
    <path
       id="path27"
       d="M 0,0 V -5.04"
       style="fill:none;stroke:#000000;stroke-width:1.44;stroke-linecap:round;stroke-linejoin:round;stroke-miterlimit:10;stroke-dasharray:none;stroke-opacity:1"
       transform="matrix(1.3333333,0,0,-1.3333333,314.88093,793.32427)" />
    <text
       id="text27"
       xml:space="preserve"
       transform="matrix(1.3333333,0,0,1.3331556,279.6784,815.80733)"><tspan
         id="tspan27"
         style="font-variant:normal;font-weight:normal;font-stretch:normal;font-size:12.0008px;font-family:Arial;writing-mode:lr-tb;fill:#000000;fill-opacity:1;fill-rule:nonzero;stroke:none"
         x="0"
         dx="0 -0.1920128 0 0 0 0 0.1080072 -0.1920128"
         y="0">91°22'0&quot;E</tspan></text>
    <path
       id="path28"
       d="M 0,0 V 5.04"
       style="fill:none;stroke:#000000;stroke-width:1.44;stroke-linecap:round;stroke-linejoin:round;stroke-miterlimit:10;stroke-dasharray:none;stroke-opacity:1"
       transform="matrix(1.3333333,0,0,-1.3333333,322.8816,62.495467)" />
    <text
       id="text28"
       xml:space="preserve"
       transform="matrix(1.3333333,0,0,1.3331556,287.67907,51.1056)"><tspan
         id="tspan28"
         style="font-variant:normal;font-weight:normal;font-stretch:normal;font-size:12.0008px;font-family:Arial;writing-mode:lr-tb;fill:#000000;fill-opacity:1;fill-rule:nonzero;stroke:none"
         x="0"
         dx="0 -0.1920128 0 0 0 0 0.1080072 -0.1920128"
         y="0">91°22'0&quot;E</tspan></text>
    <path
       id="path29"
       d="M 0,0 V -5.04"
       style="fill:none;stroke:#000000;stroke-width:1.44;stroke-linecap:round;stroke-linejoin:round;stroke-miterlimit:10;stroke-dasharray:none;stroke-opacity:1"
       transform="matrix(1.3333333,0,0,-1.3333333,163.50987,793.32427)" />
    <text
       id="text29"
       xml:space="preserve"
       transform="matrix(1.3333333,0,0,1.3331556,123.98693,815.80733)"><tspan
         id="tspan29"
         style="font-variant:normal;font-weight:normal;font-stretch:normal;font-size:12.0008px;font-family:Arial;writing-mode:lr-tb;fill:#000000;fill-opacity:1;fill-rule:nonzero;stroke:none"
         x="0"
         dx="0 -0.1920128 0 0 0 0 0.1080072 -0.1920128"
         y="0">91°19'40&quot;E</tspan></text>
    <path
       id="path30"
       d="M 0,0 V 5.04"
       style="fill:none;stroke:#000000;stroke-width:1.44;stroke-linecap:round;stroke-linejoin:round;stroke-miterlimit:10;stroke-dasharray:none;stroke-opacity:1"
       transform="matrix(1.3333333,0,0,-1.3333333,171.8308,62.495467)" />
    <text
       id="text30"
       xml:space="preserve"
       transform="matrix(1.3333333,0,0,1.3331556,132.308,51.1056)"><tspan
         id="tspan30"
         style="font-variant:normal;font-weight:normal;font-stretch:normal;font-size:12.0008px;font-family:Arial;writing-mode:lr-tb;fill:#000000;fill-opacity:1;fill-rule:nonzero;stroke:none"
         x="0"
         dx="0 -0.1920128 0 0 0 0 0.1080072 -0.1920128"
         y="0">91°19'40&quot;E</tspan></text>
    <path
       id="path31"
       d="M 0,0 H -5.04"
       style="fill:none;stroke:#000000;stroke-width:1.44;stroke-linecap:round;stroke-linejoin:round;stroke-miterlimit:10;stroke-dasharray:none;stroke-opacity:1"
       transform="matrix(1.3333333,0,0,-1.3333333,57.9024,160.72853)" />
    <text
       id="text31"
       xml:space="preserve"
       transform="matrix(0,-1.3333333,1.3335111,0,46.261733,196.2456)"><tspan
         id="tspan31"
         style="font-variant:normal;font-weight:normal;font-stretch:normal;font-size:11.9992px;font-family:Arial;writing-mode:lr-tb;fill:#000000;fill-opacity:1;fill-rule:nonzero;stroke:none"
         x="0"
         dx="0 -0.1919872 0 0 0 0 0.1079928 -0.1919872"
         y="0">22°28'0&quot;N</tspan></text>
    <path
       id="path32"
       d="M 0,0 H 5.041"
       style="fill:none;stroke:#000000;stroke-width:1.44;stroke-linecap:round;stroke-linejoin:round;stroke-miterlimit:10;stroke-dasharray:none;stroke-opacity:1"
       transform="matrix(1.3333333,0,0,-1.3333333,595.5404,166.48827)" />
    <text
       id="text32"
       xml:space="preserve"
       transform="matrix(0,-1.3333333,1.3335111,0,618.276,202.00667)"><tspan
         id="tspan32"
         style="font-variant:normal;font-weight:normal;font-stretch:normal;font-size:11.9992px;font-family:Arial;writing-mode:lr-tb;fill:#000000;fill-opacity:1;fill-rule:nonzero;stroke:none"
         x="0"
         dx="0 -0.1919872 0 0 0 0 0.1079928 -0.1919872"
         y="0">22°28'0&quot;N</tspan></text>
    <path
       id="path33"
       d="M 0,0 H -5.04"
       style="fill:none;stroke:#000000;stroke-width:1.44;stroke-linecap:round;stroke-linejoin:round;stroke-miterlimit:10;stroke-dasharray:none;stroke-opacity:1"
       transform="matrix(1.3333333,0,0,-1.3333333,57.9024,323.59707)" />
    <text
       id="text33"
       xml:space="preserve"
       transform="matrix(0,-1.3333333,1.3335111,0,46.261067,363.59453)"><tspan
         id="tspan33"
         style="font-variant:normal;font-weight:normal;font-stretch:normal;font-size:11.9992px;font-family:Arial;writing-mode:lr-tb;fill:#000000;fill-opacity:1;fill-rule:nonzero;stroke:none"
         x="0"
         dx="0 -0.1919872 0 0 0 0 0.1079928 -0.1919872"
         y="0">22°25'40&quot;N</tspan></text>
    <path
       id="path34"
       d="M 0,0 H 5.041"
       style="fill:none;stroke:#000000;stroke-width:1.44;stroke-linecap:round;stroke-linejoin:round;stroke-miterlimit:10;stroke-dasharray:none;stroke-opacity:1"
       transform="matrix(1.3333333,0,0,-1.3333333,595.5404,329.3568)" />
    <text
       id="text34"
       xml:space="preserve"
       transform="matrix(0,-1.3333333,1.3335111,0,618.27667,369.3556)"><tspan
         id="tspan34"
         style="font-variant:normal;font-weight:normal;font-stretch:normal;font-size:11.9992px;font-family:Arial;writing-mode:lr-tb;fill:#000000;fill-opacity:1;fill-rule:nonzero;stroke:none"
         x="0"
         dx="0 -0.1919872 0 0 0 0 0.1079928 -0.1919872"
         y="0">22°25'40&quot;N</tspan></text>
    <path
       id="path35"
       d="M 0,0 H -5.04"
       style="fill:none;stroke:#000000;stroke-width:1.44;stroke-linecap:round;stroke-linejoin:round;stroke-miterlimit:10;stroke-dasharray:none;stroke-opacity:1"
       transform="matrix(1.3333333,0,0,-1.3333333,57.9024,486.14587)" />
    <text
       id="text35"
       xml:space="preserve"
       transform="matrix(0,-1.3333333,1.3335111,0,46.261733,526.14267)"><tspan
         id="tspan35"
         style="font-variant:normal;font-weight:normal;font-stretch:normal;font-size:11.9992px;font-family:Arial;writing-mode:lr-tb;fill:#000000;fill-opacity:1;fill-rule:nonzero;stroke:none"
         x="0"
         dx="0 -0.1919872 0 0 0 0 0.1079928 -0.1919872"
         y="0">22°23'20&quot;N</tspan></text>
    <path
       id="path36"
       d="M 0,0 H 5.041"
       style="fill:none;stroke:#000000;stroke-width:1.44;stroke-linecap:round;stroke-linejoin:round;stroke-miterlimit:10;stroke-dasharray:none;stroke-opacity:1"
       transform="matrix(1.3333333,0,0,-1.3333333,595.5404,491.90507)" />
    <text
       id="text36"
       xml:space="preserve"
       transform="matrix(0,-1.3333333,1.3335111,0,618.27667,531.9024)"><tspan
         id="tspan36"
         style="font-variant:normal;font-weight:normal;font-stretch:normal;font-size:11.9992px;font-family:Arial;writing-mode:lr-tb;fill:#000000;fill-opacity:1;fill-rule:nonzero;stroke:none"
         x="0"
         dx="0 -0.1919872 0 0 0 0 0.1079928 -0.1919872"
         y="0">22°23'20&quot;N</tspan></text>
    <path
       id="path37"
       d="M 0,0 H -5.04"
       style="fill:none;stroke:#000000;stroke-width:1.44;stroke-linecap:round;stroke-linejoin:round;stroke-miterlimit:10;stroke-dasharray:none;stroke-opacity:1"
       transform="matrix(1.3333333,0,0,-1.3333333,57.9024,649.0144)" />
    <text
       id="text37"
       xml:space="preserve"
       transform="matrix(0,-1.3333333,1.3335111,0,46.2604,684.532)"><tspan
         id="tspan37"
         style="font-variant:normal;font-weight:normal;font-stretch:normal;font-size:11.9992px;font-family:Arial;writing-mode:lr-tb;fill:#000000;fill-opacity:1;fill-rule:nonzero;stroke:none"
         x="0"
         dx="0 -0.1919872 0 0 0 0 0.1079928 -0.1919872"
         y="0">22°21'0&quot;N</tspan></text>
    <path
       id="path38"
       d="M 0,0 H 5.041"
       style="fill:none;stroke:#000000;stroke-width:1.44;stroke-linecap:round;stroke-linejoin:round;stroke-miterlimit:10;stroke-dasharray:none;stroke-opacity:1"
       transform="matrix(1.3333333,0,0,-1.3333333,595.5404,654.77347)" />
    <text
       id="text38"
       xml:space="preserve"
       transform="matrix(0,-1.3333333,1.3335111,0,618.27667,690.29307)"><tspan
         id="tspan38"
         style="font-variant:normal;font-weight:normal;font-stretch:normal;font-size:11.9992px;font-family:Arial;writing-mode:lr-tb;fill:#000000;fill-opacity:1;fill-rule:nonzero;stroke:none"
         x="0"
         dx="0 -0.1919872 0 0 0 0 0.1079928 -0.1919872"
         y="0">22°21'0&quot;N</tspan></text>
    <path
       id="path39"
       d="M 43.427,591.048 H 446.656 V 42.926 H 43.427 Z"
       style="fill:none;stroke:#000000;stroke-width:1.44;stroke-linecap:round;stroke-linejoin:round;stroke-miterlimit:10;stroke-dasharray:none;stroke-opacity:1"
       transform="matrix(1.3333333,0,0,-1.3333333,0,850.56)" />
    <text
       id="text39"
       xml:space="preserve"
       transform="matrix(1.3333333,0,0,1.3331456,527.69533,160.72867)"><tspan
         id="tspan39"
         style="font-variant:normal;font-weight:normal;font-stretch:normal;font-size:69.6049px;font-family:'ESRI North';writing-mode:lr-tb;fill:#000000;fill-opacity:1;fill-rule:nonzero;stroke:none"
         x="0"
         y="0">±</tspan></text>
    <text
       id="text40"
       xml:space="preserve"
       transform="matrix(1.3333333,0,0,1.3331482,329.92187,559.1004)"><tspan
         id="tspan40"
         style="font-variant:normal;font-weight:700;font-stretch:normal;font-size:12.9609px;font-family:Arial;writing-mode:lr-tb;fill:#000000;fill-opacity:1;fill-rule:nonzero;stroke:none"
         x="0"
         dx="0 0 0 0 0 0 0.2332962"
         y="0">NSM(meter)</tspan></text>
    <path
       id="path40"
       d="M 0,0 H 30.002"
       style="fill:none;stroke:#559100;stroke-width:1.44;stroke-linecap:round;stroke-linejoin:round;stroke-miterlimit:10;stroke-dasharray:none;stroke-opacity:1"
       transform="matrix(1.3333333,0,0,-1.3333333,329.92187,585.9792)" />
    <text
       id="text41"
       xml:space="preserve"
       transform="matrix(1.3333333,0,0,1.3331556,376.9648,592.05867)"><tspan
         id="tspan41"
         style="font-variant:normal;font-weight:normal;font-stretch:normal;font-size:12.0008px;font-family:Arial;writing-mode:lr-tb;fill:#000000;fill-opacity:1;fill-rule:nonzero;stroke:none"
         x="0"
         dx="0 -0.1920128 0 0 0 0 0 0 -0.1920128 0 0 0 0 0.084005602 -0.2160144 0 0 0 0 0 0 0 -0.1920128"
         y="0">1484.700001 - 1719.060000</tspan></text>
    <path
       id="path41"
       d="M 0,0 H 30.002"
       style="fill:none;stroke:#a4c400;stroke-width:1.44;stroke-linecap:round;stroke-linejoin:round;stroke-miterlimit:10;stroke-dasharray:none;stroke-opacity:1"
       transform="matrix(1.3333333,0,0,-1.3333333,329.92187,613.17707)" />
    <text
       id="text42"
       xml:space="preserve"
       transform="matrix(1.3333333,0,0,1.3331556,376.9648,619.25667)"><tspan
         id="tspan42"
         style="font-variant:normal;font-weight:normal;font-stretch:normal;font-size:12.0008px;font-family:Arial;writing-mode:lr-tb;fill:#000000;fill-opacity:1;fill-rule:nonzero;stroke:none"
         x="0"
         dx="0 -0.1920128 0 0 0 0 0 0 -0.1920128 0 0 0 0 0.084005602 -0.2160144 0 0 0 0 0 0 0 -0.1920128"
         y="0">1719.060001 - 2067.550000</tspan></text>
    <path
       id="path42"
       d="M 0,0 H 30.002"
       style="fill:none;stroke:#ffff00;stroke-width:1.44;stroke-linecap:round;stroke-linejoin:round;stroke-miterlimit:10;stroke-dasharray:none;stroke-opacity:1"
       transform="matrix(1.3333333,0,0,-1.3333333,329.92187,640.37507)" />
    <text
       id="text43"
       xml:space="preserve"
       transform="matrix(1.3333333,0,0,1.3331556,376.9648,646.45453)"><tspan
         id="tspan43"
         style="font-variant:normal;font-weight:normal;font-stretch:normal;font-size:12.0008px;font-family:Arial;writing-mode:lr-tb;fill:#000000;fill-opacity:1;fill-rule:nonzero;stroke:none"
         x="0"
         dx="0 -0.1920128 0 0 0 0 0 0 -0.1920128 0 0 0 0 0.084005602 -0.2160144 0 0 0 0 0 0 0 -0.1920128"
         y="0">2067.550001 - 2565.010000</tspan></text>
    <path
       id="path43"
       d="M 0,0 H 30.002"
       style="fill:none;stroke:#ffbb00;stroke-width:1.44;stroke-linecap:round;stroke-linejoin:round;stroke-miterlimit:10;stroke-dasharray:none;stroke-opacity:1"
       transform="matrix(1.3333333,0,0,-1.3333333,329.92187,667.57293)" />
    <text
       id="text44"
       xml:space="preserve"
       transform="matrix(1.3333333,0,0,1.3331556,376.9648,673.6524)"><tspan
         id="tspan44"
         style="font-variant:normal;font-weight:normal;font-stretch:normal;font-size:12.0008px;font-family:Arial;writing-mode:lr-tb;fill:#000000;fill-opacity:1;fill-rule:nonzero;stroke:none"
         x="0"
         dx="0 -0.1920128 0 0 0 0 0 0 -0.1920128 0 0 0 0 0.084005602 -0.2160144 0 0 0 0 0 0 0 -0.1920128"
         y="0">2565.010001 - 2665.640000</tspan></text>
    <path
       id="path44"
       d="M 0,0 H 30.002"
       style="fill:none;stroke:#ff7700;stroke-width:1.44;stroke-linecap:round;stroke-linejoin:round;stroke-miterlimit:10;stroke-dasharray:none;stroke-opacity:1"
       transform="matrix(1.3333333,0,0,-1.3333333,329.92187,694.45053)" />
    <text
       id="text45"
       xml:space="preserve"
       transform="matrix(1.3333333,0,0,1.3331556,376.9648,700.53)"><tspan
         id="tspan45"
         style="font-variant:normal;font-weight:normal;font-stretch:normal;font-size:12.0008px;font-family:Arial;writing-mode:lr-tb;fill:#000000;fill-opacity:1;fill-rule:nonzero;stroke:none"
         x="0"
         dx="0 -0.1920128 0 0 0 0 0 0 -0.1920128 0 0 0 0 0.084005602 -0.2160144 0 0 0 0 0 0 0 -0.1920128"
         y="0">2665.640001 - 2783.690000</tspan></text>
    <path
       id="path45"
       d="M 0,0 H 30.002"
       style="fill:none;stroke:#ff2600;stroke-width:1.44;stroke-linecap:round;stroke-linejoin:round;stroke-miterlimit:10;stroke-dasharray:none;stroke-opacity:1"
       transform="matrix(1.3333333,0,0,-1.3333333,329.92187,721.64973)" />
    <text
       id="text46"
       xml:space="preserve"
       transform="matrix(1.3333333,0,0,1.3331556,376.9648,727.72933)"><tspan
         id="tspan46"
         style="font-variant:normal;font-weight:normal;font-stretch:normal;font-size:12.0008px;font-family:Arial;writing-mode:lr-tb;fill:#000000;fill-opacity:1;fill-rule:nonzero;stroke:none"
         x="0"
         dx="0 -0.1920128 0 0 0 0 0 0 -0.1920128 0 0 0 0 0.084005602 -0.2160144 0 0 0 0 0 0 0 -0.1920128"
         y="0">2783.690001 - 2833.970000</tspan></text>
    <path
       id="path46"
       d="M 0,0 H 60.964"
       style="fill:none;stroke:#ad2b00;stroke-width:1.92;stroke-linecap:round;stroke-linejoin:round;stroke-miterlimit:10;stroke-dasharray:none;stroke-opacity:1"
       transform="matrix(1.3333333,0,0,-1.3333333,115.18693,566.45973)" />
    <text
       id="text47"
       xml:space="preserve"
       transform="matrix(1.3333333,0,0,1.3331418,117.42707,553.98053)"><tspan
         id="tspan47"
         style="font-variant:normal;font-weight:700;font-stretch:normal;font-size:13.921px;font-family:Arial;writing-mode:lr-tb;fill:#000000;fill-opacity:1;fill-rule:nonzero;stroke:none"
         x="0"
         dx="0 0 0 0.18097299 0 0 0.20881499 -0.111368"
         y="0">Baseline</tspan><tspan
         id="tspan48"
         style="font-variant:normal;font-weight:700;font-stretch:normal;font-size:13.921px;font-family:Arial;writing-mode:lr-tb;fill:#000000;fill-opacity:1;fill-rule:nonzero;stroke:none"
         x="-4.7888241"
         dx="0 0 0.13921 -0.111368 0.111368 0.18097299 0 0 0.13921"
         y="26.644794">shoreline</tspan></text>
    <text
       id="text48"
       xml:space="preserve"
       transform="matrix(1.3333333,0,0,1.3331459,317.12107,121.82307)"><tspan
         id="tspan49"
         style="font-variant:normal;font-weight:700;font-stretch:normal;font-size:19.9214px;font-family:Arial;writing-mode:lr-tb;fill:#000000;fill-opacity:1;fill-rule:nonzero;stroke:none"
         x="0"
         y="0">A</tspan></text>
    <path
       id="path49"
       d="M 0,0 H 30.002"
       style="fill:none;stroke:#b6fcba;stroke-width:1.92;stroke-linecap:round;stroke-linejoin:round;stroke-miterlimit:10;stroke-dasharray:none;stroke-opacity:1"
       transform="matrix(1.3333333,0,0,-1.3333333,114.22667,637.8152)" />
    <text
       id="text49"
       xml:space="preserve"
       transform="matrix(1.3333333,0,0,1.3331556,161.58987,643.89467)"><tspan
         id="tspan50"
         style="font-variant:normal;font-weight:normal;font-stretch:normal;font-size:12.0008px;font-family:Arial;writing-mode:lr-tb;fill:#000000;fill-opacity:1;fill-rule:nonzero;stroke:none"
         x="0"
         dx="0 -0.1920128"
         y="0">2005</tspan></text>
    <path
       id="path50"
       d="M 0,0 H 30.002"
       style="fill:none;stroke:#ccdafc;stroke-width:1.92;stroke-linecap:round;stroke-linejoin:round;stroke-miterlimit:10;stroke-dasharray:none;stroke-opacity:1"
       transform="matrix(1.3333333,0,0,-1.3333333,114.22667,665.01307)" />
    <text
       id="text50"
       xml:space="preserve"
       transform="matrix(1.3333333,0,0,1.3331556,161.58987,671.09253)"><tspan
         id="tspan51"
         style="font-variant:normal;font-weight:normal;font-stretch:normal;font-size:12.0008px;font-family:Arial;writing-mode:lr-tb;fill:#000000;fill-opacity:1;fill-rule:nonzero;stroke:none"
         x="0"
         dx="0 -0.1920128"
         y="0">2008</tspan></text>
    <path
       id="path51"
       d="M 0,0 H 30.002"
       style="fill:none;stroke:#fcc0dc;stroke-width:1.92;stroke-linecap:round;stroke-linejoin:round;stroke-miterlimit:10;stroke-dasharray:none;stroke-opacity:1"
       transform="matrix(1.3333333,0,0,-1.3333333,114.22667,692.21093)" />
    <text
       id="text51"
       xml:space="preserve"
       transform="matrix(1.3333333,0,0,1.3331556,161.58987,698.29053)"><tspan
         id="tspan52"
         style="font-variant:normal;font-weight:normal;font-stretch:normal;font-size:12.0008px;font-family:Arial;writing-mode:lr-tb;fill:#000000;fill-opacity:1;fill-rule:nonzero;stroke:none"
         x="0"
         dx="0 -0.1920128 0 -0.9120608"
         y="0">2011</tspan></text>
    <path
       id="path52"
       d="M 0,0 H 30.002"
       style="fill:none;stroke:#fcfab3;stroke-width:1.92;stroke-linecap:round;stroke-linejoin:round;stroke-miterlimit:10;stroke-dasharray:none;stroke-opacity:1"
       transform="matrix(1.3333333,0,0,-1.3333333,114.22667,719.40893)" />
    <text
       id="text52"
       xml:space="preserve"
       transform="matrix(1.3333333,0,0,1.3331556,161.58987,725.4884)"><tspan
         id="tspan53"
         style="font-variant:normal;font-weight:normal;font-stretch:normal;font-size:12.0008px;font-family:Arial;writing-mode:lr-tb;fill:#000000;fill-opacity:1;fill-rule:nonzero;stroke:none"
         x="0"
         dx="0 -0.1920128"
         y="0">2023</tspan></text>
    <path
       id="path53"
       d="M 0,0 H 30.002"
       style="fill:none;stroke:#c0fce5;stroke-width:1.92;stroke-linecap:round;stroke-linejoin:round;stroke-miterlimit:10;stroke-dasharray:none;stroke-opacity:1"
       transform="matrix(1.3333333,0,0,-1.3333333,114.22667,746.28787)" />
    <text
       id="text53"
       xml:space="preserve"
       transform="matrix(1.3333333,0,0,1.3331556,161.58987,752.36733)"><tspan
         id="tspan54"
         style="font-variant:normal;font-weight:normal;font-stretch:normal;font-size:12.0008px;font-family:Arial;writing-mode:lr-tb;fill:#000000;fill-opacity:1;fill-rule:nonzero;stroke:none"
         x="0"
         dx="0 -0.1920128"
         y="0">2020</tspan></text>
    <path
       id="path54"
       d="M 0,0 H 30.002"
       style="fill:none;stroke:#fcc6b3;stroke-width:1.92;stroke-linecap:round;stroke-linejoin:round;stroke-miterlimit:10;stroke-dasharray:none;stroke-opacity:1"
       transform="matrix(1.3333333,0,0,-1.3333333,114.22667,773.48573)" />
    <text
       id="text54"
       xml:space="preserve"
       transform="matrix(1.3333333,0,0,1.3331556,161.58987,779.5652)"><tspan
         id="tspan55"
         style="font-variant:normal;font-weight:normal;font-stretch:normal;font-size:12.0008px;font-family:Arial;writing-mode:lr-tb;fill:#000000;fill-opacity:1;fill-rule:nonzero;stroke:none"
         x="0"
         dx="0 -0.1920128"
         y="0">2017</tspan></text>
    <path
       id="path55"
       d="M 0,0 H 30.002"
       style="fill:none;stroke:#f9b3fc;stroke-width:1.92;stroke-linecap:round;stroke-linejoin:round;stroke-miterlimit:10;stroke-dasharray:none;stroke-opacity:1"
       transform="matrix(1.3333333,0,0,-1.3333333,114.22667,610.6172)" />
  </g>
</svg>
