<?xml version="1.0" encoding="UTF-8" standalone="no"?>
<!-- Created with Inkscape (http://www.inkscape.org/) -->

<svg
   version="1.1"
   id="svg1"
   width="653.38666"
   height="850.56"
   viewBox="0 0 653.38666 850.56"
   sodipodi:docname="B.pdf"
   xmlns:inkscape="http://www.inkscape.org/namespaces/inkscape"
   xmlns:sodipodi="http://sodipodi.sourceforge.net/DTD/sodipodi-0.dtd"
   xmlns="http://www.w3.org/2000/svg"
   xmlns:svg="http://www.w3.org/2000/svg">
  <defs
     id="defs1" />
  <sodipodi:namedview
     id="namedview1"
     pagecolor="#ffffff"
     bordercolor="#000000"
     borderopacity="0.25"
     inkscape:showpageshadow="2"
     inkscape:pageopacity="0.0"
     inkscape:pagecheckerboard="0"
     inkscape:deskcolor="#d1d1d1">
    <inkscape:page
       x="0"
       y="0"
       inkscape:label="1"
       id="page1"
       width="653.38666"
       height="850.56"
       margin="0"
       bleed="0" />
  </sodipodi:namedview>
  <g
     id="layer-MC0"
     inkscape:groupmode="layer"
     inkscape:label="Layer 1">
    <path
       id="path1"
       d="M 0,0 0.96,0.72 H 1.2 L 1.92,1.2 3.6,2.4 4.08,2.64 7.44,4.56 7.92,4.8 l 0.721,0.48 3.12,1.68 1.44,0.72 0.96,0.479 2.4,0.96 2.16,0.96 0.48,0.24 2.881,1.201 3.12,0.959 2.4,0.96 4.08,0.96 3.84,0.48 3.601,-0.48 1.44,-0.48 1.68,-1.199 1.2,-1.441 0.96,-3.12 0.48,-2.399 V 0.72 0.48 l -0.24,-2.4 -0.48,-2.399 V -4.56 l -0.96,-3.359 -0.48,-1.2 -0.48,-1.441"
       style="fill:none;stroke:#e60000;stroke-width:1.92;stroke-linecap:round;stroke-linejoin:round;stroke-miterlimit:10;stroke-dasharray:none;stroke-opacity:1"
       transform="matrix(1.3333333,0,0,-1.3333333,217.91467,493.39853)" />
    <path
       id="path2"
       d="m 0,0 4.8,3.36 4.321,2.4 4.56,1.44 2.4,0.48 2.161,0.239 9.12,-0.719 1.44,-0.241 1.44,-0.48 2.64,-1.919 0.961,-0.96 0.48,-0.96 0.48,-1.2 v -1.2 l -1.921,-7.679 -0.239,-1.68 0.48,-1.68 1.2,-1.92 7.44,-8.399 3.361,-4.08 2.16,-3.6 0.96,-2.639 0.239,-2.641 -0.48,-7.199 0.241,-4.8 -0.48,-1.92 -1.681,-5.999 v -1.44 -1.44 l 0.24,-0.24 0.72,-0.719 h 0.721 6.24 l 1.68,-0.481 1.44,-0.72 1.44,-1.2 0.96,-0.96 2.161,-4.8 0.239,-1.439 -0.239,-1.44 -0.48,-0.959 -1.201,-1.681 -3.6,-3.84 -0.96,-1.68 -0.24,-1.439 0.24,-1.92 0.72,-1.44 4.8,-6.24 0.721,-1.439 0.239,-1.441 v -0.479 l -1.679,-5.28 -0.961,-3.84 v -5.039 l 0.48,-4.08 -0.24,-4.56 -0.24,-1.439 -1.44,-2.88"
       style="fill:none;stroke:#d7d8fc;stroke-width:1.92;stroke-linecap:round;stroke-linejoin:round;stroke-miterlimit:10;stroke-dasharray:none;stroke-opacity:1"
       transform="matrix(1.3333333,0,0,-1.3333333,218.2344,348.44867)" />
    <path
       id="path3"
       d="m 0,0 12.481,8.16 6.48,3.839 6.241,3.601 8.881,4.319 7.44,2.64 6.48,1.92 6.481,0.719 h 4.56 l 1.92,-0.239 h 1.44 l 3.361,-0.721 4.8,-1.679 2.16,-1.201 2.64,-1.679 2.16,-1.68 3.121,-2.64 2.88,-3.12 2.641,-3.119 3.12,-4.08 2.399,-3.6 3.601,-6.719 1.44,-3.84 0.48,-2.88 -0.48,-2.64 -0.96,-4.559 -0.24,-2.16 0.24,-3.84 0.72,-2.4 0.72,-0.719 0.959,-0.481"
       style="fill:none;stroke:#b6f9fc;stroke-width:1.92;stroke-linecap:round;stroke-linejoin:round;stroke-miterlimit:10;stroke-dasharray:none;stroke-opacity:1"
       transform="matrix(1.3333333,0,0,-1.3333333,218.55467,468.76053)" />
    <path
       id="path4"
       d="m 0,0 14.401,8.159 9.601,4.8 8.161,3.12 5.28,1.44 3.36,0.719 7.2,0.481 6.001,-0.481 3.12,-0.479 3.36,-0.72 6.721,-2.4 6.481,-2.88 7.92,-4.56 10.561,-6.72 0.96,-0.719 13.44,-9.119 8.402,-6.48 3.84,-3.599 4.8,-5.041 1.92,-2.16"
       style="fill:none;stroke:#fafcbd;stroke-width:1.92;stroke-linecap:round;stroke-linejoin:round;stroke-miterlimit:10;stroke-dasharray:none;stroke-opacity:1"
       transform="matrix(1.3333333,0,0,-1.3333333,218.87427,470.67973)" />
    <path
       id="path5"
       d="m 0,0 8.641,4.08 5.52,3.359 3.12,1.44 2.64,0.72 4.08,0.48 2.641,0.24 1.92,-0.24 4.8,-0.96 5.041,-0.72 5.04,-1.92 3.12,-0.719 1.2,-0.48 6.721,-2.4 4.8,-1.92 4.32,-2.4 7.681,-4.56 25.922,-16.318 20.641,-14.4 6.721,-5.76 2.639,-4.319 4.561,-5.519 1.681,-3.121 2.88,-3.838 0.719,-0.481 0.96,-0.24 2.401,0.24 0.48,-0.24 0.24,-0.48 0.24,-1.44 -0.48,-2.159 -0.96,-2.401 -1.2,-1.679 -2.16,-2.64 -4.561,-3.6"
       style="fill:none;stroke:#b3b3fc;stroke-width:1.92;stroke-linecap:round;stroke-linejoin:round;stroke-miterlimit:10;stroke-dasharray:none;stroke-opacity:1"
       transform="matrix(1.3333333,0,0,-1.3333333,218.55467,407.32427)" />
    <path
       id="path6"
       d="m 0,0 3.12,2.64 5.76,4.08 2.641,1.439 9.84,3.84 0.96,0.48 0.721,0.24 0.24,0.48 4.32,3.36 1.68,0.72 0.72,0.24 2.4,0.72 h 2.4 l 2.64,-0.24 2.161,-0.48 3.36,-1.2 3.36,-1.68 5.76,-3.36 6.961,-4.32 5.761,-3.839 8.16,-6.24 8.881,-5.759 4.08,-2.88 3.12,-2.88 4.08,-4.319 5.761,-7.68 2.401,-2.4 2.16,-2.16 2.88,-2.64 5.52,-7.919 2.88,-6.24 1.44,-2.159 1.44,-2.88 2.16,-5.28 2.881,-6.24 3.84,-11.279 1.68,-5.76 0.96,-3.599 0.72,-2.64 0.24,-3.359 v -0.721 l 0.241,-10.799 -0.961,-4.8 v -0.479 l -0.24,-0.721"
       style="fill:none;stroke:#befcb6;stroke-width:1.92;stroke-linecap:round;stroke-linejoin:round;stroke-miterlimit:10;stroke-dasharray:none;stroke-opacity:1"
       transform="matrix(1.3333333,0,0,-1.3333333,218.55467,362.52747)" />
    <path
       id="path7"
       d="m 0,0 6,0.48 h 5.761 l 6.24,-0.24 5.52,-0.48 6.001,-0.96 7.201,-1.44 7.2,-1.68 5.281,-1.68 5.52,-2.399 5.28,-2.4 4.08,-2.4 4.561,-3.6 2.64,-2.639 2.16,-2.4 2.4,-3.84 6.481,-9.36 1.68,-3.599 0.24,-0.48 2.64,-4.32 1.2,-3.84 0.48,-0.72 1.44,-1.68 3.84,-3.599 3.601,-5.04 3.36,-7.439 6.481,-13.919 1.44,-3.36 2.64,-5.76 2.4,-6.959 0.72,-2.4 0.72,-2.16 1.68,-4.32 1.441,-4.079 1.92,-4.56 0.719,-2.16 v -2.4 l -0.719,-6.959 -0.241,-1.44 -0.479,-11.04 -0.24,-4.799 -0.721,-17.998 -0.72,-4.561 -1.2,-7.199 -0.24,-1.68"
       style="fill:none;stroke:#fcdac7;stroke-width:1.92;stroke-linecap:round;stroke-linejoin:round;stroke-miterlimit:10;stroke-dasharray:none;stroke-opacity:1"
       transform="matrix(1.3333333,0,0,-1.3333333,218.55467,275.4936)" />
    <path
       id="path8"
       d="m 0,0 4.08,0.48 h 9.361 15.841 8.64 0.241 l 8.16,-0.24 7.68,-0.48 5.041,-0.48 4.56,-0.48 5.521,-1.2 4.8,-1.2 5.04,-1.92 4.56,-1.919 3.361,-1.44 4.32,-2.4 6.24,-4.32 5.761,-4.32 5.04,-4.319 5.041,-5.28 5.76,-7.68 3.36,-4.559 3.841,-6.72 5.28,-10.319 1.44,-3.6 0.48,-1.68 3.361,-7.199 1.44,-4.56 1.68,-6.239 0.48,-6.24 v -2.64 l -0.721,-4.56 -0.479,-1.44 -0.721,-1.44 -0.239,-0.239 -1.44,-1.68 -4.081,-2.64 -0.72,-0.72 -0.239,-0.48 0.239,-0.72 1.2,-0.72 7.44,-3.119 0.96,-0.721 0.721,-1.199 0.72,-4.08 0.72,-2.4 v -1.92 l -0.24,-1.68 -1.921,-4.319 -0.719,-1.92 v -0.72 l 0.48,-0.721 0.48,-0.479 3.12,-2.4 1.68,-2.4 0.72,-2.88 -0.24,-1.679 -0.72,-1.441 -0.96,-1.199 -0.96,-0.72 -1.68,-1.2 -1.201,-0.481 -3.12,-0.479 h -4.32 l -3.36,0.479 -2.4,0.721 -2.16,1.44 -0.721,0.479 -2.88,2.88 -0.719,0.24 -0.481,-0.24 -0.24,-0.239 -0.479,-0.721 -0.241,-1.68 0.481,-2.88 0.96,-2.639 2.88,-4.319 0.24,-0.96 v -0.96 l -0.96,-1.68 -4.081,-3.6 -1.68,-1.92 -0.96,-1.44 -0.24,-0.24 -0.72,-1.44 -0.721,-1.679 -1.199,-3.361 -0.961,-3.599"
       style="fill:none;stroke:#fcb3d5;stroke-width:1.92;stroke-linecap:round;stroke-linejoin:round;stroke-miterlimit:10;stroke-dasharray:none;stroke-opacity:1"
       transform="matrix(1.3333333,0,0,-1.3333333,219.51493,277.7332)" />
    <path
       id="path9"
       d="M 0,0 75.605,-213.825"
       style="fill:none;stroke:#006100;stroke-width:1.44;stroke-linecap:round;stroke-linejoin:round;stroke-miterlimit:10;stroke-dasharray:none;stroke-opacity:1"
       transform="matrix(1.3333333,0,0,-1.3333333,126.0684,202.8588)" />
    <path
       id="path10"
       d="M 0,0 68.405,-216.465"
       style="fill:none;stroke:#006100;stroke-width:1.44;stroke-linecap:round;stroke-linejoin:round;stroke-miterlimit:10;stroke-dasharray:none;stroke-opacity:1"
       transform="matrix(1.3333333,0,0,-1.3333333,137.9088,198.05867)" />
    <path
       id="path11"
       d="M 0,0 59.524,-218.864"
       style="fill:none;stroke:#006100;stroke-width:1.44;stroke-linecap:round;stroke-linejoin:round;stroke-miterlimit:10;stroke-dasharray:none;stroke-opacity:1"
       transform="matrix(1.3333333,0,0,-1.3333333,151.9896,193.57947)" />
    <path
       id="path12"
       d="M 0,0 50.164,-221.264"
       style="fill:none;stroke:#006100;stroke-width:1.44;stroke-linecap:round;stroke-linejoin:round;stroke-miterlimit:10;stroke-dasharray:none;stroke-opacity:1"
       transform="matrix(1.3333333,0,0,-1.3333333,167.0312,189.09973)" />
    <path
       id="path13"
       d="M 0,0 40.563,-223.184"
       style="fill:none;stroke:#559100;stroke-width:1.44;stroke-linecap:round;stroke-linejoin:round;stroke-miterlimit:10;stroke-dasharray:none;stroke-opacity:1"
       transform="matrix(1.3333333,0,0,-1.3333333,182.07227,185.25987)" />
    <path
       id="path14"
       d="M 0,0 30.722,-224.864"
       style="fill:none;stroke:#006100;stroke-width:1.44;stroke-linecap:round;stroke-linejoin:round;stroke-miterlimit:10;stroke-dasharray:none;stroke-opacity:1"
       transform="matrix(1.3333333,0,0,-1.3333333,197.7532,182.06)" />
    <path
       id="path15"
       d="M 0,0 20.882,-225.824"
       style="fill:none;stroke:#559100;stroke-width:1.44;stroke-linecap:round;stroke-linejoin:round;stroke-miterlimit:10;stroke-dasharray:none;stroke-opacity:1"
       transform="matrix(1.3333333,0,0,-1.3333333,213.11387,179.5)" />
    <path
       id="path16"
       d="M 0,0 10.801,-226.544"
       style="fill:none;stroke:#559100;stroke-width:1.44;stroke-linecap:round;stroke-linejoin:round;stroke-miterlimit:10;stroke-dasharray:none;stroke-opacity:1"
       transform="matrix(1.3333333,0,0,-1.3333333,229.1152,177.58013)" />
    <path
       id="path17"
       d="M 0,0 0.72,-226.784"
       style="fill:none;stroke:#559100;stroke-width:1.44;stroke-linecap:round;stroke-linejoin:round;stroke-miterlimit:10;stroke-dasharray:none;stroke-opacity:1"
       transform="matrix(1.3333333,0,0,-1.3333333,244.79627,176.3008)" />
    <path
       id="path18"
       d="M 0,0 -9.121,-226.544"
       style="fill:none;stroke:#559100;stroke-width:1.44;stroke-linecap:round;stroke-linejoin:round;stroke-miterlimit:10;stroke-dasharray:none;stroke-opacity:1"
       transform="matrix(1.3333333,0,0,-1.3333333,260.47787,175.66027)" />
    <path
       id="path19"
       d="M 0,0 -19.201,-225.824"
       style="fill:none;stroke:#559100;stroke-width:1.44;stroke-linecap:round;stroke-linejoin:round;stroke-miterlimit:10;stroke-dasharray:none;stroke-opacity:1"
       transform="matrix(1.3333333,0,0,-1.3333333,276.47853,175.66027)" />
    <path
       id="path20"
       d="M 0,0 -29.042,-225.104"
       style="fill:none;stroke:#a4c400;stroke-width:1.44;stroke-linecap:round;stroke-linejoin:round;stroke-miterlimit:10;stroke-dasharray:none;stroke-opacity:1"
       transform="matrix(1.3333333,0,0,-1.3333333,292.15947,175.98053)" />
    <path
       id="path21"
       d="M 0,0 -39.123,-223.425"
       style="fill:none;stroke:#a4c400;stroke-width:1.44;stroke-linecap:round;stroke-linejoin:round;stroke-miterlimit:10;stroke-dasharray:none;stroke-opacity:1"
       transform="matrix(1.3333333,0,0,-1.3333333,308.1608,177.26053)" />
    <path
       id="path22"
       d="M 0,0 -49.204,-221.265"
       style="fill:none;stroke:#ffff00;stroke-width:1.44;stroke-linecap:round;stroke-linejoin:round;stroke-miterlimit:10;stroke-dasharray:none;stroke-opacity:1"
       transform="matrix(1.3333333,0,0,-1.3333333,324.16213,179.5)" />
    <path
       id="path23"
       d="M 0,0 -55.684,-219.824"
       style="fill:none;stroke:#ffff00;stroke-width:1.44;stroke-linecap:round;stroke-linejoin:round;stroke-miterlimit:10;stroke-dasharray:none;stroke-opacity:1"
       transform="matrix(1.3333333,0,0,-1.3333333,335.36267,181.10027)" />
    <path
       id="path24"
       d="M 0,0 -63.125,-217.905"
       style="fill:none;stroke:#ffbb00;stroke-width:1.44;stroke-linecap:round;stroke-linejoin:round;stroke-miterlimit:10;stroke-dasharray:none;stroke-opacity:1"
       transform="matrix(1.3333333,0,0,-1.3333333,347.8444,183.33987)" />
    <path
       id="path25"
       d="M 0,0 -71.045,-215.505"
       style="fill:none;stroke:#ff2600;stroke-width:1.44;stroke-linecap:round;stroke-linejoin:round;stroke-miterlimit:10;stroke-dasharray:none;stroke-opacity:1"
       transform="matrix(1.3333333,0,0,-1.3333333,360.96413,186.53973)" />
    <path
       id="path26"
       d="M 0,0 -79.206,-212.386"
       style="fill:none;stroke:#ff7700;stroke-width:1.44;stroke-linecap:round;stroke-linejoin:round;stroke-miterlimit:10;stroke-dasharray:none;stroke-opacity:1"
       transform="matrix(1.3333333,0,0,-1.3333333,374.4056,190.69933)" />
    <path
       id="path27"
       d="M 0,0 -87.606,-209.265"
       style="fill:none;stroke:#ff7700;stroke-width:1.44;stroke-linecap:round;stroke-linejoin:round;stroke-miterlimit:10;stroke-dasharray:none;stroke-opacity:1"
       transform="matrix(1.3333333,0,0,-1.3333333,388.166,195.49947)" />
    <path
       id="path28"
       d="M 0,0 -96.247,-205.426"
       style="fill:none;stroke:#ff7700;stroke-width:1.44;stroke-linecap:round;stroke-linejoin:round;stroke-miterlimit:10;stroke-dasharray:none;stroke-opacity:1"
       transform="matrix(1.3333333,0,0,-1.3333333,401.92773,202.2188)" />
    <path
       id="path29"
       d="M 0,0 -105.127,-200.866"
       style="fill:none;stroke:#ff7700;stroke-width:1.44;stroke-linecap:round;stroke-linejoin:round;stroke-miterlimit:10;stroke-dasharray:none;stroke-opacity:1"
       transform="matrix(1.3333333,0,0,-1.3333333,415.68813,210.21813)" />
    <path
       id="path30"
       d="M 0,0 -114.488,-195.586"
       style="fill:none;stroke:#ff2600;stroke-width:1.44;stroke-linecap:round;stroke-linejoin:round;stroke-miterlimit:10;stroke-dasharray:none;stroke-opacity:1"
       transform="matrix(1.3333333,0,0,-1.3333333,429.12947,219.49747)" />
    <path
       id="path31"
       d="M 0,0 -124.089,-189.826"
       style="fill:none;stroke:#ff2600;stroke-width:1.44;stroke-linecap:round;stroke-linejoin:round;stroke-miterlimit:10;stroke-dasharray:none;stroke-opacity:1"
       transform="matrix(1.3333333,0,0,-1.3333333,442.57093,229.73707)" />
    <path
       id="path32"
       d="M 0,0 -133.689,-183.347"
       style="fill:none;stroke:#ff2600;stroke-width:1.44;stroke-linecap:round;stroke-linejoin:round;stroke-miterlimit:10;stroke-dasharray:none;stroke-opacity:1"
       transform="matrix(1.3333333,0,0,-1.3333333,455.69067,241.25587)" />
    <path
       id="path33"
       d="M 0,0 -143.29,-175.668"
       style="fill:none;stroke:#ff2600;stroke-width:1.44;stroke-linecap:round;stroke-linejoin:round;stroke-miterlimit:10;stroke-dasharray:none;stroke-opacity:1"
       transform="matrix(1.3333333,0,0,-1.3333333,468.81187,254.0548)" />
    <path
       id="path34"
       d="M 0,0 -153.131,-167.269"
       style="fill:none;stroke:#ff7700;stroke-width:1.44;stroke-linecap:round;stroke-linejoin:round;stroke-miterlimit:10;stroke-dasharray:none;stroke-opacity:1"
       transform="matrix(1.3333333,0,0,-1.3333333,481.93293,267.81387)" />
    <path
       id="path35"
       d="M 0,0 -162.971,-157.669"
       style="fill:none;stroke:#ff7700;stroke-width:1.44;stroke-linecap:round;stroke-linejoin:round;stroke-miterlimit:10;stroke-dasharray:none;stroke-opacity:1"
       transform="matrix(1.3333333,0,0,-1.3333333,494.73373,283.1732)" />
    <path
       id="path36"
       d="M 0,0 -172.333,-147.59"
       style="fill:none;stroke:#ff7700;stroke-width:1.44;stroke-linecap:round;stroke-linejoin:round;stroke-miterlimit:10;stroke-dasharray:none;stroke-opacity:1"
       transform="matrix(1.3333333,0,0,-1.3333333,507.21547,299.4916)" />
    <path
       id="path37"
       d="M 0,0 -181.453,-136.31"
       style="fill:none;stroke:#ff7700;stroke-width:1.44;stroke-linecap:round;stroke-linejoin:round;stroke-miterlimit:10;stroke-dasharray:none;stroke-opacity:1"
       transform="matrix(1.3333333,0,0,-1.3333333,518.73627,317.09053)" />
    <path
       id="path38"
       d="M 0,0 -190.093,-123.831"
       style="fill:none;stroke:#ffbb00;stroke-width:1.44;stroke-linecap:round;stroke-linejoin:round;stroke-miterlimit:10;stroke-dasharray:none;stroke-opacity:1"
       transform="matrix(1.3333333,0,0,-1.3333333,529.61653,336.28907)" />
    <path
       id="path39"
       d="M 0,0 -198.014,-110.392"
       style="fill:none;stroke:#ffbb00;stroke-width:1.44;stroke-linecap:round;stroke-linejoin:round;stroke-miterlimit:10;stroke-dasharray:none;stroke-opacity:1"
       transform="matrix(1.3333333,0,0,-1.3333333,539.53707,356.7676)" />
    <path
       id="path40"
       d="M 0,0 -205.455,-95.994"
       style="fill:none;stroke:#ffbb00;stroke-width:1.44;stroke-linecap:round;stroke-linejoin:round;stroke-miterlimit:10;stroke-dasharray:none;stroke-opacity:1"
       transform="matrix(1.3333333,0,0,-1.3333333,548.498,378.2064)" />
    <path
       id="path41"
       d="M 43.427,593.048 H 446.656 V 44.926 H 43.427 Z"
       style="fill:none;stroke:#000000;stroke-width:0.96;stroke-linecap:round;stroke-linejoin:round;stroke-miterlimit:10;stroke-dasharray:none;stroke-opacity:1"
       transform="matrix(1.3333333,0,0,-1.3333333,0,850.56)" />
    <path
       id="path42"
       d="M 0,0 V -5.04"
       style="fill:none;stroke:#000000;stroke-width:1.44;stroke-linecap:round;stroke-linejoin:round;stroke-miterlimit:10;stroke-dasharray:none;stroke-opacity:1"
       transform="matrix(1.3333333,0,0,-1.3333333,558.41853,790.6576)" />
    <text
       id="text42"
       xml:space="preserve"
       transform="matrix(1.3333333,0,0,1.3331556,523.2168,813.14067)"><tspan
         id="tspan42"
         style="font-variant:normal;font-weight:normal;font-stretch:normal;font-size:12.0008px;font-family:Arial;writing-mode:lr-tb;fill:#000000;fill-opacity:1;fill-rule:nonzero;stroke:none"
         x="0"
         dx="0 -0.1920128 0 0 0 0 0.1080072 -0.1920128"
         y="0">91°29'0&quot;E</tspan></text>
    <path
       id="path43"
       d="M 0,0 V 5.04"
       style="fill:none;stroke:#000000;stroke-width:1.44;stroke-linecap:round;stroke-linejoin:round;stroke-miterlimit:10;stroke-dasharray:none;stroke-opacity:1"
       transform="matrix(1.3333333,0,0,-1.3333333,565.7792,59.8288)" />
    <text
       id="text43"
       xml:space="preserve"
       transform="matrix(1.3333333,0,0,1.3331556,530.57613,48.438933)"><tspan
         id="tspan43"
         style="font-variant:normal;font-weight:normal;font-stretch:normal;font-size:12.0008px;font-family:Arial;writing-mode:lr-tb;fill:#000000;fill-opacity:1;fill-rule:nonzero;stroke:none"
         x="0"
         dx="0 -0.1920128 0 0 0 0 0.1080072 -0.1920128"
         y="0">91°29'0&quot;E</tspan></text>
    <path
       id="path44"
       d="M 0,0 V -5.04"
       style="fill:none;stroke:#000000;stroke-width:1.44;stroke-linecap:round;stroke-linejoin:round;stroke-miterlimit:10;stroke-dasharray:none;stroke-opacity:1"
       transform="matrix(1.3333333,0,0,-1.3333333,407.04747,790.6576)" />
    <text
       id="text44"
       xml:space="preserve"
       transform="matrix(1.3333333,0,0,1.3331556,367.52533,813.14067)"><tspan
         id="tspan44"
         style="font-variant:normal;font-weight:normal;font-stretch:normal;font-size:12.0008px;font-family:Arial;writing-mode:lr-tb;fill:#000000;fill-opacity:1;fill-rule:nonzero;stroke:none"
         x="0"
         dx="0 -0.1920128 0 0 0 0 0.1080072 -0.1920128"
         y="0">91°26'40&quot;E</tspan></text>
    <path
       id="path45"
       d="M 0,0 V 5.04"
       style="fill:none;stroke:#000000;stroke-width:1.44;stroke-linecap:round;stroke-linejoin:round;stroke-miterlimit:10;stroke-dasharray:none;stroke-opacity:1"
       transform="matrix(1.3333333,0,0,-1.3333333,414.40813,59.8288)" />
    <text
       id="text45"
       xml:space="preserve"
       transform="matrix(1.3333333,0,0,1.3331556,374.88613,48.438933)"><tspan
         id="tspan45"
         style="font-variant:normal;font-weight:normal;font-stretch:normal;font-size:12.0008px;font-family:Arial;writing-mode:lr-tb;fill:#000000;fill-opacity:1;fill-rule:nonzero;stroke:none"
         x="0"
         dx="0 -0.1920128 0 0 0 0 0.1080072 -0.1920128"
         y="0">91°26'40&quot;E</tspan></text>
    <path
       id="path46"
       d="M 0,0 V -5.04"
       style="fill:none;stroke:#000000;stroke-width:1.44;stroke-linecap:round;stroke-linejoin:round;stroke-miterlimit:10;stroke-dasharray:none;stroke-opacity:1"
       transform="matrix(1.3333333,0,0,-1.3333333,255.35747,790.6576)" />
    <text
       id="text46"
       xml:space="preserve"
       transform="matrix(1.3333333,0,0,1.3331556,215.83467,813.14067)"><tspan
         id="tspan46"
         style="font-variant:normal;font-weight:normal;font-stretch:normal;font-size:12.0008px;font-family:Arial;writing-mode:lr-tb;fill:#000000;fill-opacity:1;fill-rule:nonzero;stroke:none"
         x="0"
         dx="0 -0.1920128 0 0 0 0 0.1080072 -0.1920128"
         y="0">91°24'20&quot;E</tspan></text>
    <path
       id="path47"
       d="M 0,0 V 5.04"
       style="fill:none;stroke:#000000;stroke-width:1.44;stroke-linecap:round;stroke-linejoin:round;stroke-miterlimit:10;stroke-dasharray:none;stroke-opacity:1"
       transform="matrix(1.3333333,0,0,-1.3333333,263.358,59.8288)" />
    <text
       id="text47"
       xml:space="preserve"
       transform="matrix(1.3333333,0,0,1.3331556,223.83533,48.438933)"><tspan
         id="tspan47"
         style="font-variant:normal;font-weight:normal;font-stretch:normal;font-size:12.0008px;font-family:Arial;writing-mode:lr-tb;fill:#000000;fill-opacity:1;fill-rule:nonzero;stroke:none"
         x="0"
         dx="0 -0.1920128 0 0 0 0 0.1080072 -0.1920128"
         y="0">91°24'20&quot;E</tspan></text>
    <path
       id="path48"
       d="M 0,0 V -5.04"
       style="fill:none;stroke:#000000;stroke-width:1.44;stroke-linecap:round;stroke-linejoin:round;stroke-miterlimit:10;stroke-dasharray:none;stroke-opacity:1"
       transform="matrix(1.3333333,0,0,-1.3333333,103.98627,790.6576)" />
    <text
       id="text48"
       xml:space="preserve"
       transform="matrix(1.3333333,0,0,1.3331556,68.783867,813.14067)"><tspan
         id="tspan48"
         style="font-variant:normal;font-weight:normal;font-stretch:normal;font-size:12.0008px;font-family:Arial;writing-mode:lr-tb;fill:#000000;fill-opacity:1;fill-rule:nonzero;stroke:none"
         x="0"
         dx="0 -0.1920128 0 0 0 0 0.1080072 -0.1920128"
         y="0">91°22'0&quot;E</tspan></text>
    <path
       id="path49"
       d="M 0,0 V 5.04"
       style="fill:none;stroke:#000000;stroke-width:1.44;stroke-linecap:round;stroke-linejoin:round;stroke-miterlimit:10;stroke-dasharray:none;stroke-opacity:1"
       transform="matrix(1.3333333,0,0,-1.3333333,111.98693,59.8288)" />
    <text
       id="text49"
       xml:space="preserve"
       transform="matrix(1.3333333,0,0,1.3331556,76.784533,48.438933)"><tspan
         id="tspan49"
         style="font-variant:normal;font-weight:normal;font-stretch:normal;font-size:12.0008px;font-family:Arial;writing-mode:lr-tb;fill:#000000;fill-opacity:1;fill-rule:nonzero;stroke:none"
         x="0"
         dx="0 -0.1920128 0 0 0 0 0.1080072 -0.1920128"
         y="0">91°22'0&quot;E</tspan></text>
    <path
       id="path50"
       d="M 0,0 H -5.04"
       style="fill:none;stroke:#000000;stroke-width:1.44;stroke-linecap:round;stroke-linejoin:round;stroke-miterlimit:10;stroke-dasharray:none;stroke-opacity:1"
       transform="matrix(1.3333333,0,0,-1.3333333,57.902933,160.30147)" />
    <text
       id="text50"
       xml:space="preserve"
       transform="matrix(0,-1.3333333,1.3335111,0,46.261733,195.81973)"><tspan
         id="tspan50"
         style="font-variant:normal;font-weight:normal;font-stretch:normal;font-size:11.9992px;font-family:Arial;writing-mode:lr-tb;fill:#000000;fill-opacity:1;fill-rule:nonzero;stroke:none"
         x="0"
         dx="0 -0.1919872 0 0 0 0 0.1079928 -0.1919872"
         y="0">22°28'0&quot;N</tspan></text>
    <path
       id="path51"
       d="M 0,0 H 5.041"
       style="fill:none;stroke:#000000;stroke-width:1.44;stroke-linecap:round;stroke-linejoin:round;stroke-miterlimit:10;stroke-dasharray:none;stroke-opacity:1"
       transform="matrix(1.3333333,0,0,-1.3333333,595.54093,166.0612)" />
    <text
       id="text51"
       xml:space="preserve"
       transform="matrix(0,-1.3333333,1.3335111,0,618.27733,201.57947)"><tspan
         id="tspan51"
         style="font-variant:normal;font-weight:normal;font-stretch:normal;font-size:11.9992px;font-family:Arial;writing-mode:lr-tb;fill:#000000;fill-opacity:1;fill-rule:nonzero;stroke:none"
         x="0"
         dx="0 -0.1919872 0 0 0 0 0.1079928 -0.1919872"
         y="0">22°28'0&quot;N</tspan></text>
    <path
       id="path52"
       d="M 0,0 H -5.04"
       style="fill:none;stroke:#000000;stroke-width:1.44;stroke-linecap:round;stroke-linejoin:round;stroke-miterlimit:10;stroke-dasharray:none;stroke-opacity:1"
       transform="matrix(1.3333333,0,0,-1.3333333,57.902933,323.17)" />
    <text
       id="text52"
       xml:space="preserve"
       transform="matrix(0,-1.3333333,1.3335111,0,46.261733,363.16747)"><tspan
         id="tspan52"
         style="font-variant:normal;font-weight:normal;font-stretch:normal;font-size:11.9992px;font-family:Arial;writing-mode:lr-tb;fill:#000000;fill-opacity:1;fill-rule:nonzero;stroke:none"
         x="0"
         dx="0 -0.1919872 0 0 0 0 0.1079928 -0.1919872"
         y="0">22°25'40&quot;N</tspan></text>
    <path
       id="path53"
       d="M 0,0 H 5.041"
       style="fill:none;stroke:#000000;stroke-width:1.44;stroke-linecap:round;stroke-linejoin:round;stroke-miterlimit:10;stroke-dasharray:none;stroke-opacity:1"
       transform="matrix(1.3333333,0,0,-1.3333333,595.54093,328.92973)" />
    <text
       id="text53"
       xml:space="preserve"
       transform="matrix(0,-1.3333333,1.3335111,0,618.27733,368.92853)"><tspan
         id="tspan53"
         style="font-variant:normal;font-weight:normal;font-stretch:normal;font-size:11.9992px;font-family:Arial;writing-mode:lr-tb;fill:#000000;fill-opacity:1;fill-rule:nonzero;stroke:none"
         x="0"
         dx="0 -0.1919872 0 0 0 0 0.1079928 -0.1919872"
         y="0">22°25'40&quot;N</tspan></text>
    <path
       id="path54"
       d="M 0,0 H -5.04"
       style="fill:none;stroke:#000000;stroke-width:1.44;stroke-linecap:round;stroke-linejoin:round;stroke-miterlimit:10;stroke-dasharray:none;stroke-opacity:1"
       transform="matrix(1.3333333,0,0,-1.3333333,57.902933,486.03907)" />
    <text
       id="text54"
       xml:space="preserve"
       transform="matrix(0,-1.3333333,1.3335111,0,46.261733,526.03587)"><tspan
         id="tspan54"
         style="font-variant:normal;font-weight:normal;font-stretch:normal;font-size:11.9992px;font-family:Arial;writing-mode:lr-tb;fill:#000000;fill-opacity:1;fill-rule:nonzero;stroke:none"
         x="0"
         dx="0 -0.1919872 0 0 0 0 0.1079928 -0.1919872"
         y="0">22°23'20&quot;N</tspan></text>
    <path
       id="path55"
       d="M 0,0 H 5.041"
       style="fill:none;stroke:#000000;stroke-width:1.44;stroke-linecap:round;stroke-linejoin:round;stroke-miterlimit:10;stroke-dasharray:none;stroke-opacity:1"
       transform="matrix(1.3333333,0,0,-1.3333333,595.54093,491.47787)" />
    <text
       id="text55"
       xml:space="preserve"
       transform="matrix(0,-1.3333333,1.3335111,0,618.27667,531.47533)"><tspan
         id="tspan55"
         style="font-variant:normal;font-weight:normal;font-stretch:normal;font-size:11.9992px;font-family:Arial;writing-mode:lr-tb;fill:#000000;fill-opacity:1;fill-rule:nonzero;stroke:none"
         x="0"
         dx="0 -0.1919872 0 0 0 0 0.1079928 -0.1919872"
         y="0">22°23'20&quot;N</tspan></text>
    <path
       id="path56"
       d="M 0,0 H -5.04"
       style="fill:none;stroke:#000000;stroke-width:1.44;stroke-linecap:round;stroke-linejoin:round;stroke-miterlimit:10;stroke-dasharray:none;stroke-opacity:1"
       transform="matrix(1.3333333,0,0,-1.3333333,57.902933,648.58733)" />
    <text
       id="text56"
       xml:space="preserve"
       transform="matrix(0,-1.3333333,1.3335111,0,46.261733,684.10493)"><tspan
         id="tspan56"
         style="font-variant:normal;font-weight:normal;font-stretch:normal;font-size:11.9992px;font-family:Arial;writing-mode:lr-tb;fill:#000000;fill-opacity:1;fill-rule:nonzero;stroke:none"
         x="0"
         dx="0 -0.1919872 0 0 0 0 0.1079928 -0.1919872"
         y="0">22°21'0&quot;N</tspan></text>
    <path
       id="path57"
       d="M 0,0 H 5.041"
       style="fill:none;stroke:#000000;stroke-width:1.44;stroke-linecap:round;stroke-linejoin:round;stroke-miterlimit:10;stroke-dasharray:none;stroke-opacity:1"
       transform="matrix(1.3333333,0,0,-1.3333333,595.54093,654.3464)" />
    <text
       id="text57"
       xml:space="preserve"
       transform="matrix(0,-1.3333333,1.3335111,0,618.27733,689.866)"><tspan
         id="tspan57"
         style="font-variant:normal;font-weight:normal;font-stretch:normal;font-size:11.9992px;font-family:Arial;writing-mode:lr-tb;fill:#000000;fill-opacity:1;fill-rule:nonzero;stroke:none"
         x="0"
         dx="0 -0.1919872 0 0 0 0 0.1079928 -0.1919872"
         y="0">22°21'0&quot;N</tspan></text>
    <path
       id="path58"
       d="M 43.427,593.048 H 446.656 V 44.926 H 43.427 Z"
       style="fill:none;stroke:#000000;stroke-width:1.44;stroke-linecap:round;stroke-linejoin:round;stroke-miterlimit:10;stroke-dasharray:none;stroke-opacity:1"
       transform="matrix(1.3333333,0,0,-1.3333333,0,850.56)" />
    <text
       id="text58"
       xml:space="preserve"
       transform="matrix(1.3333333,0,0,1.3331456,527.696,158.062)"><tspan
         id="tspan58"
         style="font-variant:normal;font-weight:normal;font-stretch:normal;font-size:69.6049px;font-family:'ESRI North';writing-mode:lr-tb;fill:#000000;fill-opacity:1;fill-rule:nonzero;stroke:none"
         x="0"
         y="0">±</tspan></text>
    <text
       id="text59"
       xml:space="preserve"
       transform="matrix(1.3333333,0,0,1.3331482,329.92253,556.43373)"><tspan
         id="tspan59"
         style="font-variant:normal;font-weight:700;font-stretch:normal;font-size:12.9609px;font-family:Arial;writing-mode:lr-tb;fill:#000000;fill-opacity:1;fill-rule:nonzero;stroke:none"
         x="0"
         dx="0 0 0 0 0 0 0.2332962"
         y="0">NSM(meter)</tspan></text>
    <path
       id="path59"
       d="M 0,0 H 60.964"
       style="fill:none;stroke:#ad2b00;stroke-width:1.92;stroke-linecap:round;stroke-linejoin:round;stroke-miterlimit:10;stroke-dasharray:none;stroke-opacity:1"
       transform="matrix(1.3333333,0,0,-1.3333333,115.18747,563.79307)" />
    <text
       id="text60"
       xml:space="preserve"
       transform="matrix(1.3333333,0,0,1.3331418,117.42773,551.31387)"><tspan
         id="tspan60"
         style="font-variant:normal;font-weight:700;font-stretch:normal;font-size:13.921px;font-family:Arial;writing-mode:lr-tb;fill:#000000;fill-opacity:1;fill-rule:nonzero;stroke:none"
         x="0"
         dx="0 0 0 0.18097299 0 0 0.20881499 -0.111368"
         y="0">Baseline</tspan><tspan
         id="tspan61"
         style="font-variant:normal;font-weight:700;font-stretch:normal;font-size:13.921px;font-family:Arial;writing-mode:lr-tb;fill:#000000;fill-opacity:1;fill-rule:nonzero;stroke:none"
         x="-4.7888241"
         dx="0 0 0.13921 -0.111368 0.111368 0.18097299 0 0 0.13921"
         y="26.644794">shoreline</tspan></text>
    <text
       id="text61"
       xml:space="preserve"
       transform="matrix(1.3333333,0,0,1.3331459,317.12173,119.1564)"><tspan
         id="tspan62"
         style="font-variant:normal;font-weight:700;font-stretch:normal;font-size:19.9214px;font-family:Arial;writing-mode:lr-tb;fill:#000000;fill-opacity:1;fill-rule:nonzero;stroke:none"
         x="0"
         y="0">B</tspan></text>
    <path
       id="path62"
       d="M 0,0 H 30.002"
       style="fill:none;stroke:#006100;stroke-width:1.44;stroke-linecap:round;stroke-linejoin:round;stroke-miterlimit:10;stroke-dasharray:none;stroke-opacity:1"
       transform="matrix(1.3333333,0,0,-1.3333333,331.5228,588.75133)" />
    <text
       id="text62"
       xml:space="preserve"
       transform="matrix(1.3333333,0,0,1.3331556,378.56573,594.8308)"><tspan
         id="tspan63"
         style="font-variant:normal;font-weight:normal;font-stretch:normal;font-size:12.0008px;font-family:Arial;writing-mode:lr-tb;fill:#000000;fill-opacity:1;fill-rule:nonzero;stroke:none"
         x="0"
         dx="0 -0.1560104 0 0 0 0 0 -0.1920128 0 0 0 0 0 -0.1560104 0 0.084005602 0 0 0 -0.1920128"
         y="0">-339.430000 - -49.580000</tspan></text>
    <path
       id="path63"
       d="M 0,0 H 30.002"
       style="fill:none;stroke:#559100;stroke-width:1.44;stroke-linecap:round;stroke-linejoin:round;stroke-miterlimit:10;stroke-dasharray:none;stroke-opacity:1"
       transform="matrix(1.3333333,0,0,-1.3333333,331.5228,615.9492)" />
    <text
       id="text63"
       xml:space="preserve"
       transform="matrix(1.3333333,0,0,1.3331556,378.56573,622.0288)"><tspan
         id="tspan64"
         style="font-variant:normal;font-weight:normal;font-stretch:normal;font-size:12.0008px;font-family:Arial;writing-mode:lr-tb;fill:#000000;fill-opacity:1;fill-rule:nonzero;stroke:none"
         x="0"
         dx="0 -0.1560104 0 0 0 0 0 -0.1920128 0 0 0 0 0.084005602 -0.2160144 0 0 0 0 0 0 0 -0.1920128"
         y="0">-49.579999 - 1738.160000</tspan></text>
    <path
       id="path64"
       d="M 0,0 H 30.002"
       style="fill:none;stroke:#a4c400;stroke-width:1.44;stroke-linecap:round;stroke-linejoin:round;stroke-miterlimit:10;stroke-dasharray:none;stroke-opacity:1"
       transform="matrix(1.3333333,0,0,-1.3333333,331.5228,643.1472)" />
    <text
       id="text64"
       xml:space="preserve"
       transform="matrix(1.3333333,0,0,1.3331556,378.56573,649.228)"><tspan
         id="tspan65"
         style="font-variant:normal;font-weight:normal;font-stretch:normal;font-size:12.0008px;font-family:Arial;writing-mode:lr-tb;fill:#000000;fill-opacity:1;fill-rule:nonzero;stroke:none"
         x="0"
         dx="0 -0.1920128 0 0 0 0 0 0 -0.1920128 0 0 0 0 0.084005602 -0.2160144 0 0 0 0 0 0 0 -0.1920128"
         y="0">1739.160001 - 2632.160000</tspan></text>
    <path
       id="path65"
       d="M 0,0 H 30.002"
       style="fill:none;stroke:#ffff00;stroke-width:1.44;stroke-linecap:round;stroke-linejoin:round;stroke-miterlimit:10;stroke-dasharray:none;stroke-opacity:1"
       transform="matrix(1.3333333,0,0,-1.3333333,331.5228,670.3464)" />
    <text
       id="text65"
       xml:space="preserve"
       transform="matrix(1.3333333,0,0,1.3331556,378.56573,676.42587)"><tspan
         id="tspan66"
         style="font-variant:normal;font-weight:normal;font-stretch:normal;font-size:12.0008px;font-family:Arial;writing-mode:lr-tb;fill:#000000;fill-opacity:1;fill-rule:nonzero;stroke:none"
         x="0"
         dx="0 -0.1920128 0 0 0 0 0 0 -0.1920128 0 0 0 0 0.084005602 -0.2160144 0 0 0 0 0 0 0 -0.1920128"
         y="0">2633.160001 - 2981.690000</tspan></text>
    <path
       id="path66"
       d="M 0,0 H 30.002"
       style="fill:none;stroke:#ffbb00;stroke-width:1.44;stroke-linecap:round;stroke-linejoin:round;stroke-miterlimit:10;stroke-dasharray:none;stroke-opacity:1"
       transform="matrix(1.3333333,0,0,-1.3333333,331.5228,697.54427)" />
    <text
       id="text66"
       xml:space="preserve"
       transform="matrix(1.3333333,0,0,1.3331556,378.56573,703.62387)"><tspan
         id="tspan67"
         style="font-variant:normal;font-weight:normal;font-stretch:normal;font-size:12.0008px;font-family:Arial;writing-mode:lr-tb;fill:#000000;fill-opacity:1;fill-rule:nonzero;stroke:none"
         x="0"
         dx="0 -0.1920128 0 0 0 0 0 0 -0.1920128 0 0 0 0.084005602 0 -0.1920128 0 0 0 0 0 0 0 -0.1920128"
         y="0">2982.69001 - 34739.940000</tspan></text>
    <path
       id="path67"
       d="M 0,0 H 30.002"
       style="fill:none;stroke:#ff7700;stroke-width:1.44;stroke-linecap:round;stroke-linejoin:round;stroke-miterlimit:10;stroke-dasharray:none;stroke-opacity:1"
       transform="matrix(1.3333333,0,0,-1.3333333,331.5228,724.42187)" />
    <text
       id="text67"
       xml:space="preserve"
       transform="matrix(1.3333333,0,0,1.3331556,378.56573,730.50147)"><tspan
         id="tspan68"
         style="font-variant:normal;font-weight:normal;font-stretch:normal;font-size:12.0008px;font-family:Arial;writing-mode:lr-tb;fill:#000000;fill-opacity:1;fill-rule:nonzero;stroke:none"
         x="0"
         dx="0 -0.1920128 0 0 0 0 0 0 -0.1920128 0 0 0 0 0.084005602 -0.2160144 0 0 0 0 0 0 0 -0.1920128"
         y="0">3474.940001 - 3808.10000</tspan></text>
    <path
       id="path68"
       d="M 0,0 H 30.002"
       style="fill:none;stroke:#ff2600;stroke-width:1.44;stroke-linecap:round;stroke-linejoin:round;stroke-miterlimit:10;stroke-dasharray:none;stroke-opacity:1"
       transform="matrix(1.3333333,0,0,-1.3333333,331.5228,751.61987)" />
    <text
       id="text68"
       xml:space="preserve"
       transform="matrix(1.3333333,0,0,1.3331556,378.56573,757.69933)"><tspan
         id="tspan69"
         style="font-variant:normal;font-weight:normal;font-stretch:normal;font-size:12.0008px;font-family:Arial;writing-mode:lr-tb;fill:#000000;fill-opacity:1;fill-rule:nonzero;stroke:none"
         x="0"
         dx="0 -0.1920128 0 0 0 0 0 0 -0.1920128 0 0 0 0 0.084005602 -0.2160144 0 0 0 0 0 0 0 -0.1920128"
         y="0">3809.100001 - 4152.070000</tspan></text>
    <path
       id="path69"
       d="M 0,0 H 30.002"
       style="fill:none;stroke:#d7d8fc;stroke-width:1.92;stroke-linecap:round;stroke-linejoin:round;stroke-miterlimit:10;stroke-dasharray:none;stroke-opacity:1"
       transform="matrix(1.3333333,0,0,-1.3333333,117.42773,607.95053)" />
    <text
       id="text69"
       xml:space="preserve"
       transform="matrix(1.3333333,0,0,1.3331358,164.47067,613.38947)"><tspan
         id="tspan70"
         style="font-variant:normal;font-weight:normal;font-stretch:normal;font-size:10.8008px;font-family:Arial;writing-mode:lr-tb;fill:#000000;fill-opacity:1;fill-rule:nonzero;stroke:none"
         x="0"
         dx="0 0 0.2376176"
         y="0">2005</tspan></text>
    <path
       id="path70"
       d="M 0,0 H 30.002"
       style="fill:none;stroke:#b6f9fc;stroke-width:1.92;stroke-linecap:round;stroke-linejoin:round;stroke-miterlimit:10;stroke-dasharray:none;stroke-opacity:1"
       transform="matrix(1.3333333,0,0,-1.3333333,117.42773,635.14853)" />
    <text
       id="text70"
       xml:space="preserve"
       transform="matrix(1.3333333,0,0,1.3331358,164.47067,640.58867)"><tspan
         id="tspan71"
         style="font-variant:normal;font-weight:normal;font-stretch:normal;font-size:10.8008px;font-family:Arial;writing-mode:lr-tb;fill:#000000;fill-opacity:1;fill-rule:nonzero;stroke:none"
         x="0"
         dx="0 0 0.2376176"
         y="0">2008</tspan></text>
    <path
       id="path71"
       d="M 0,0 H 30.002"
       style="fill:none;stroke:#fafcbd;stroke-width:1.92;stroke-linecap:round;stroke-linejoin:round;stroke-miterlimit:10;stroke-dasharray:none;stroke-opacity:1"
       transform="matrix(1.3333333,0,0,-1.3333333,117.42773,662.3464)" />
    <text
       id="text71"
       xml:space="preserve"
       transform="matrix(1.3333333,0,0,1.3331358,164.47067,667.78653)"><tspan
         id="tspan72"
         style="font-variant:normal;font-weight:normal;font-stretch:normal;font-size:10.8008px;font-family:Arial;writing-mode:lr-tb;fill:#000000;fill-opacity:1;fill-rule:nonzero;stroke:none"
         x="0"
         dx="0 0 0.2376176 -0.72365361"
         y="0">2011</tspan></text>
    <path
       id="path72"
       d="M 0,0 H 30.002"
       style="fill:none;stroke:#b3b3fc;stroke-width:1.92;stroke-linecap:round;stroke-linejoin:round;stroke-miterlimit:10;stroke-dasharray:none;stroke-opacity:1"
       transform="matrix(1.3333333,0,0,-1.3333333,117.42773,689.54427)" />
    <text
       id="text72"
       xml:space="preserve"
       transform="matrix(1.3333333,0,0,1.3331358,164.47067,694.98453)"><tspan
         id="tspan73"
         style="font-variant:normal;font-weight:normal;font-stretch:normal;font-size:10.8008px;font-family:Arial;writing-mode:lr-tb;fill:#000000;fill-opacity:1;fill-rule:nonzero;stroke:none"
         x="0"
         dx="0 0 0.2376176"
         y="0">2014</tspan></text>
    <path
       id="path73"
       d="M 0,0 H 30.002"
       style="fill:none;stroke:#befcb6;stroke-width:1.92;stroke-linecap:round;stroke-linejoin:round;stroke-miterlimit:10;stroke-dasharray:none;stroke-opacity:1"
       transform="matrix(1.3333333,0,0,-1.3333333,117.42773,716.74227)" />
    <text
       id="text73"
       xml:space="preserve"
       transform="matrix(1.3333333,0,0,1.3331358,164.47067,722.1824)"><tspan
         id="tspan74"
         style="font-variant:normal;font-weight:normal;font-stretch:normal;font-size:10.8008px;font-family:Arial;writing-mode:lr-tb;fill:#000000;fill-opacity:1;fill-rule:nonzero;stroke:none"
         x="0"
         dx="0 0 0.2376176"
         y="0">2017</tspan></text>
    <path
       id="path74"
       d="M 0,0 H 30.002"
       style="fill:none;stroke:#fcdac7;stroke-width:1.92;stroke-linecap:round;stroke-linejoin:round;stroke-miterlimit:10;stroke-dasharray:none;stroke-opacity:1"
       transform="matrix(1.3333333,0,0,-1.3333333,117.42773,743.6212)" />
    <text
       id="text74"
       xml:space="preserve"
       transform="matrix(1.3333333,0,0,1.3331358,164.47067,749.06)"><tspan
         id="tspan75"
         style="font-variant:normal;font-weight:normal;font-stretch:normal;font-size:10.8008px;font-family:Arial;writing-mode:lr-tb;fill:#000000;fill-opacity:1;fill-rule:nonzero;stroke:none"
         x="0"
         dx="0 0 0.2376176"
         y="0">2020</tspan></text>
    <path
       id="path75"
       d="M 0,0 H 30.002"
       style="fill:none;stroke:#fcb3d5;stroke-width:1.92;stroke-linecap:round;stroke-linejoin:round;stroke-miterlimit:10;stroke-dasharray:none;stroke-opacity:1"
       transform="matrix(1.3333333,0,0,-1.3333333,117.42773,770.81907)" />
    <text
       id="text75"
       xml:space="preserve"
       transform="matrix(1.3333333,0,0,1.3331358,164.47067,776.2592)"><tspan
         id="tspan76"
         style="font-variant:normal;font-weight:normal;font-stretch:normal;font-size:10.8008px;font-family:Arial;writing-mode:lr-tb;fill:#000000;fill-opacity:1;fill-rule:nonzero;stroke:none"
         x="0"
         dx="0 0 0.2376176"
         y="0">2023</tspan></text>
  </g>
</svg>
