<?xml version="1.0" encoding="UTF-8" standalone="no"?>
<!-- Created with Inkscape (http://www.inkscape.org/) -->

<svg
   version="1.1"
   id="svg1"
   width="653.38666"
   height="850.56"
   viewBox="0 0 653.38666 850.56"
   sodipodi:docname="C.pdf"
   xmlns:inkscape="http://www.inkscape.org/namespaces/inkscape"
   xmlns:sodipodi="http://sodipodi.sourceforge.net/DTD/sodipodi-0.dtd"
   xmlns="http://www.w3.org/2000/svg"
   xmlns:svg="http://www.w3.org/2000/svg">
  <defs
     id="defs1">
    <clipPath
       clipPathUnits="userSpaceOnUse"
       id="clipPath2">
      <path
         d="M 0,0 H 490.04 V 637.92 H 0 Z"
         id="path2" />
    </clipPath>
    <clipPath
       clipPathUnits="userSpaceOnUse"
       id="clipPath38">
      <path
         d="M 43.427,44.687 H 446.656 V 593.049 H 43.427 Z"
         transform="translate(-135.5937,-594.00841)"
         id="path38" />
    </clipPath>
    <clipPath
       clipPathUnits="userSpaceOnUse"
       id="clipPath44">
      <path
         d="M 43.427,44.687 H 446.656 V 593.049 H 43.427 Z"
         transform="translate(-144.2344,-606.24761)"
         id="path44" />
    </clipPath>
  </defs>
  <sodipodi:namedview
     id="namedview1"
     pagecolor="#ffffff"
     bordercolor="#000000"
     borderopacity="0.25"
     inkscape:showpageshadow="2"
     inkscape:pageopacity="0.0"
     inkscape:pagecheckerboard="0"
     inkscape:deskcolor="#d1d1d1">
    <inkscape:page
       x="0"
       y="0"
       inkscape:label="1"
       id="page1"
       width="653.38666"
       height="850.56"
       margin="0"
       bleed="0" />
  </sodipodi:namedview>
  <g
     id="layer-MC0"
     inkscape:groupmode="layer"
     inkscape:label="Layer 1">
    <path
       id="path1"
       d="M -59.06,716.64 H 549.143 V -76.984 H -59.06 Z"
       style="fill:none;stroke:#000000;stroke-width:0.96;stroke-linecap:round;stroke-linejoin:round;stroke-miterlimit:10;stroke-dasharray:none;stroke-opacity:1"
       transform="matrix(1.3333333,0,0,-1.3333333,0,850.56)"
       clip-path="url(#clipPath2)" />
    <path
       id="path3"
       d="m 0,0 h -0.48 l -9.601,-10.799 -7.44,-9.119 -3.6,-4.8 -2.641,-4.08 -3.84,-6.959 -4.8,-10.56 -1.201,-2.16 -0.719,-0.48 0.48,-0.96 1.44,-0.959 3.36,-1.2 3.84,-0.72 4.081,0.24 4.08,0.48 7.44,1.68 8.161,1.919 7.44,1.92 7.921,4.32 2.16,0.96 4.32,1.2 4.561,0.72 5.76,0.48 13.681,0.72 7.681,-0.24 10.32,-0.72 3.12,0.24 6.961,0.72 9.12,-0.24 1.681,0.48 1.2,0.72 0.96,1.199 1.68,2.161 1.44,1.199 2.401,0.96 1.92,0.48 1.2,0.24"
       style="fill:none;stroke:#ffff00;stroke-width:1.92;stroke-linecap:round;stroke-linejoin:round;stroke-miterlimit:10;stroke-dasharray:none;stroke-opacity:1"
       transform="matrix(1.3333333,0,0,-1.3333333,361.6048,200.29893)" />
    <path
       id="path4"
       d="m 0,0 -6.001,-2.88 -9.601,-5.279 -6.72,-3.84 -14.401,-9.6 -11.281,-8.399 -3.6,-2.879 -3.36,-3.36 -5.52,-5.28 -5.281,-6 -4.08,-5.039 -0.24,-0.24 -2.641,-4.08 -0.96,-2.16 -0.959,-2.88 -0.721,-4.559 -0.239,-2.4 0.239,-1.92 0.48,-2.16 0.48,-1.92 0.961,-2.16 1.679,-2.4 1.441,-2.159 2.16,-2.16 4.08,-3.36 4.561,-2.639 4.32,-2.161 4.56,-1.679 5.04,-1.44 6,-1.44 6.242,-1.2 5.759,-0.96 11.522,-0.96 3.359,-0.24 h 2.641 l 2.88,0.48 2.4,0.72 1.2,0.48 1.441,0.72 0.72,0.96 2.16,3.84 1.2,1.199 1.44,0.721 1.44,0.239 1.2,-0.239 1.681,-0.721 0.96,-1.199 0.96,-2.4 0.719,-4.56 0.72,-1.68 0.961,-1.2 0.96,-0.96 1.92,-0.96 2.88,-0.96 2.88,-0.48 0.72,-0.24 1.44,-0.479 20.641,-3.6 7.681,-1.44"
       style="fill:none;stroke:#fcd4b6;stroke-width:1.92;stroke-linecap:round;stroke-linejoin:round;stroke-miterlimit:10;stroke-dasharray:none;stroke-opacity:1"
       transform="matrix(1.3333333,0,0,-1.3333333,419.5292,200.29893)" />
    <path
       id="path5"
       d="m 0,0 h 0.48 l -6.24,-3.84 -13.681,-9.839 -9.601,-7.679 -9.841,-8.88 -7.44,-7.919 -6.24,-7.44 -2.64,-4.079 -1.921,-2.88 -1.68,-3.12 -1.44,-3.6 -1.44,-5.519 -0.48,-3.6 v -2.88 l 0.48,-4.559 1.44,-5.041 1.92,-4.559 2.4,-4.319 2.881,-4.32 0.48,-0.48 3.84,-4.8 12.241,-12.959 20.641,-17.759 9.601,-7.439 7.44,-5.52 6.481,-4.08 6.72,-3.599 4.321,-1.92 4.56,-0.96 6,-0.72 h 4.561 l 2.639,0.72 2.881,1.2 3.361,2.16 2.16,2.159"
       style="fill:none;stroke:#fcb8c6;stroke-width:1.92;stroke-linecap:round;stroke-linejoin:round;stroke-miterlimit:10;stroke-dasharray:none;stroke-opacity:1"
       transform="matrix(1.3333333,0,0,-1.3333333,427.20893,200.29893)" />
    <path
       id="path6"
       d="m 0,0 -4.32,-6 -4.08,-6.239 -3.121,-6.24 -2.16,-5.52 -0.72,-2.639 -0.48,-3.36 -0.48,-4.8 v -1.68 -3.359 l 0.24,-5.04 0.24,-1.2 0.72,-4.319 v -0.96 l 0.96,-4.56 0.48,-1.2 0.72,-2.88 2.88,-7.44 3.36,-7.439 1.92,-3.6 2.401,-4.319 5.28,-8.4 4.32,-6.479 2.16,-3.12 6.001,-7.68 7.441,-9.119 5.52,-5.999 6.24,-5.52 4.081,-3.36 6.001,-4.08 5.759,-3.599 5.761,-3.12 6.24,-3.12 16.081,-7.679 h 0.241 l 11.041,-6"
       style="fill:none;stroke:#b6fcb6;stroke-width:1.92;stroke-linecap:round;stroke-linejoin:round;stroke-miterlimit:10;stroke-dasharray:none;stroke-opacity:1"
       transform="matrix(1.3333333,0,0,-1.3333333,366.0852,200.61853)" />
    <path
       id="path7"
       d="m 0,0 -0.239,-0.72 -0.24,-6.719 v -4.8 l 0.24,-3.12 0.479,-6 0.24,-1.68 0.72,-4.079 1.2,-6.24 0.72,-3.84 2.641,-10.559 0.24,-0.96 0.479,-0.96 2.881,-8.639 4.56,-10.559 4.32,-8.88 7.921,-13.199 6,-8.879 0.481,-0.72 6.72,-9.119 7.2,-8.64 6.721,-6.719 3.601,-3.6 3.599,-2.64 3.361,-2.64 1.44,-0.48 10.561,-4.08 8.881,-2.879 7.919,-1.68 7.921,-0.96 4.08,-0.24"
       style="fill:none;stroke:#ccf2fc;stroke-width:1.92;stroke-linecap:round;stroke-linejoin:round;stroke-miterlimit:10;stroke-dasharray:none;stroke-opacity:1"
       transform="matrix(1.3333333,0,0,-1.3333333,348.16333,199.33867)" />
    <path
       id="path8"
       d="m 0,0 -0.48,-2.4 -0.48,-5.519 v -3.12 l -0.24,-2.64 v -1.92 l 0.24,-1.68 v -2.4 l 0.24,-1.92 0.96,-5.039 0.24,-2.64 0.72,-2.639 0.24,-0.48 0.48,-2.161 0.24,-0.96 0.481,-1.199 1.199,-4.08 0.48,-1.2 1.201,-2.88 0.479,-1.2 1.44,-3.119 v -0.241 l 2.161,-4.799 1.2,-2.88 0.72,-1.2 5.041,-9.359 v -0.24 l 0.719,-1.44 0.96,-1.44 3.601,-5.999 2.639,-4.56 0.241,-0.48 0.719,-0.96 7.202,-10.799 0.719,-0.72 3.84,-5.04 3.361,-4.32 1.2,-1.44 7.201,-7.679 7.2,-6.72 6.721,-5.039 v -0.24 l 7.44,-4.56 8.641,-3.839 h 0.239 l 8.881,-3.121 7.921,-1.679 4.56,-0.48 3.6,-0.24 3.36,0.24 v -0.24"
       style="fill:none;stroke:#eebbfc;stroke-width:1.92;stroke-linecap:round;stroke-linejoin:round;stroke-miterlimit:10;stroke-dasharray:none;stroke-opacity:1"
       transform="matrix(1.3333333,0,0,-1.3333333,344.32347,200.29893)" />
    <path
       id="path9"
       d="m 0,0 0.24,-1.68 0.96,-6.719 1.2,-5.04 0.24,-0.72 1.2,-4.32 v -0.24 l 2.881,-7.679 0.719,-2.64 0.481,-1.2 0.72,-1.679 1.44,-3.121 1.92,-4.319 3.6,-8.64 0.24,-0.719 0.24,-0.48 0.72,0.239 1.68,-4.799 1.92,-3.84 2.641,-5.279 2.159,-3.6 1.441,-3.12 4.56,-8.159 6.24,-10.56 1.201,-1.92 6,-9.119 -0.96,1.2 0.72,-1.2 3.84,-6.24 0.72,-1.199 1.44,-2.16 1.441,-1.44 2.88,-2.88 4.08,-3.6 1.44,-1.2 7.441,-5.279 6,-3.6 3.121,-1.68 3.12,-1.68 6.24,-2.399 0.72,-0.48 5.76,-1.681 6.481,-1.44 4.32,-0.48 1.92,-0.239 h 2.88 l 5.281,0.48 h 1.2"
       style="fill:none;stroke:#b6c9fc;stroke-width:1.92;stroke-linecap:round;stroke-linejoin:round;stroke-miterlimit:10;stroke-dasharray:none;stroke-opacity:1"
       transform="matrix(1.3333333,0,0,-1.3333333,334.40293,200.29893)" />
    <path
       id="path10"
       d="m 0,0 h -2.64 l -0.719,-0.24 -1.921,-0.24 -3.361,-0.24 -14.16,-2.159 -7.441,-0.48 -5.52,-0.241 -4.081,0.48 -2.639,0.241 -1.92,0.719 h -0.241 l -1.2,0.96 v 1.68 l 1.2,1.92 2.161,2.16 3.36,2.64 4.559,3.36 6.242,3.839 1.439,0.72 3.841,2.64 0.72,0.48 4.08,2.16"
       style="fill:none;stroke:#e60000;stroke-width:1.92;stroke-linecap:round;stroke-linejoin:round;stroke-miterlimit:10;stroke-dasharray:none;stroke-opacity:1"
       transform="matrix(1.3333333,0,0,-1.3333333,487.37307,227.81707)" />
    <path
       id="path11"
       d="M 0,0 -19.681,225.824"
       style="fill:none;stroke:#ffd900;stroke-width:1.44;stroke-linecap:round;stroke-linejoin:round;stroke-miterlimit:10;stroke-dasharray:none;stroke-opacity:1"
       transform="matrix(1.3333333,0,0,-1.3333333,500.49413,530.19533)" />
    <path
       id="path12"
       d="M 0,0 -18.002,226.064"
       style="fill:none;stroke:#ff2600;stroke-width:1.44;stroke-linecap:round;stroke-linejoin:round;stroke-miterlimit:10;stroke-dasharray:none;stroke-opacity:1"
       transform="matrix(1.3333333,0,0,-1.3333333,495.69467,530.836)" />
    <path
       id="path13"
       d="M 0,0 -15.361,226.304"
       style="fill:none;stroke:#ff2600;stroke-width:1.44;stroke-linecap:round;stroke-linejoin:round;stroke-miterlimit:10;stroke-dasharray:none;stroke-opacity:1"
       transform="matrix(1.3333333,0,0,-1.3333333,489.61387,531.47533)" />
    <path
       id="path14"
       d="M 0,0 -12.241,226.305"
       style="fill:none;stroke:#ff2600;stroke-width:1.44;stroke-linecap:round;stroke-linejoin:round;stroke-miterlimit:10;stroke-dasharray:none;stroke-opacity:1"
       transform="matrix(1.3333333,0,0,-1.3333333,482.89387,532.11587)" />
    <path
       id="path15"
       d="M 0,0 -7.2,226.544"
       style="fill:none;stroke:#ff2600;stroke-width:1.44;stroke-linecap:round;stroke-linejoin:round;stroke-miterlimit:10;stroke-dasharray:none;stroke-opacity:1"
       transform="matrix(1.3333333,0,0,-1.3333333,473.29227,532.7552)" />
    <path
       id="path16"
       d="M 0,0 1.921,226.784"
       style="fill:none;stroke:#ff2600;stroke-width:1.44;stroke-linecap:round;stroke-linejoin:round;stroke-miterlimit:10;stroke-dasharray:none;stroke-opacity:1"
       transform="matrix(1.3333333,0,0,-1.3333333,458.57093,533.39587)" />
    <path
       id="path17"
       d="M 0,0 10.32,226.544"
       style="fill:none;stroke:#ff2600;stroke-width:1.44;stroke-linecap:round;stroke-linejoin:round;stroke-miterlimit:10;stroke-dasharray:none;stroke-opacity:1"
       transform="matrix(1.3333333,0,0,-1.3333333,444.81053,533.39587)" />
    <path
       id="path18"
       d="M 0,0 18.241,226.064"
       style="fill:none;stroke:#ff2600;stroke-width:1.44;stroke-linecap:round;stroke-linejoin:round;stroke-miterlimit:10;stroke-dasharray:none;stroke-opacity:1"
       transform="matrix(1.3333333,0,0,-1.3333333,431.68947,533.0756)" />
    <path
       id="path19"
       d="M 0,0 26.162,225.344"
       style="fill:none;stroke:#ff8400;stroke-width:1.44;stroke-linecap:round;stroke-linejoin:round;stroke-miterlimit:10;stroke-dasharray:none;stroke-opacity:1"
       transform="matrix(1.3333333,0,0,-1.3333333,418.56827,532.43493)" />
    <path
       id="path20"
       d="M 0,0 33.603,224.144"
       style="fill:none;stroke:#ff8400;stroke-width:1.44;stroke-linecap:round;stroke-linejoin:round;stroke-miterlimit:10;stroke-dasharray:none;stroke-opacity:1"
       transform="matrix(1.3333333,0,0,-1.3333333,405.7676,531.15493)" />
    <path
       id="path21"
       d="M 0,0 43.684,222.705"
       style="fill:none;stroke:#ff8400;stroke-width:1.44;stroke-linecap:round;stroke-linejoin:round;stroke-miterlimit:10;stroke-dasharray:none;stroke-opacity:1"
       transform="matrix(1.3333333,0,0,-1.3333333,389.76627,529.23573)" />
    <path
       id="path22"
       d="M 0,0 55.925,220.065"
       style="fill:none;stroke:#ff8400;stroke-width:1.44;stroke-linecap:round;stroke-linejoin:round;stroke-miterlimit:10;stroke-dasharray:none;stroke-opacity:1"
       transform="matrix(1.3333333,0,0,-1.3333333,370.88467,525.71613)" />
    <path
       id="path23"
       d="M 0,0 70.805,215.505"
       style="fill:none;stroke:#ffd900;stroke-width:1.44;stroke-linecap:round;stroke-linejoin:round;stroke-miterlimit:10;stroke-dasharray:none;stroke-opacity:1"
       transform="matrix(1.3333333,0,0,-1.3333333,348.48373,519.95707)" />
    <path
       id="path24"
       d="M 0,0 88.086,208.786"
       style="fill:none;stroke:#ffd900;stroke-width:1.44;stroke-linecap:round;stroke-linejoin:round;stroke-miterlimit:10;stroke-dasharray:none;stroke-opacity:1"
       transform="matrix(1.3333333,0,0,-1.3333333,322.56187,510.99747)" />
    <path
       id="path25"
       d="M 0,0 108.487,199.186"
       style="fill:none;stroke:#ffd900;stroke-width:1.44;stroke-linecap:round;stroke-linejoin:round;stroke-miterlimit:10;stroke-dasharray:none;stroke-opacity:1"
       transform="matrix(1.3333333,0,0,-1.3333333,292.80013,497.87773)" />
    <path
       id="path26"
       d="M 0,0 132.009,184.307"
       style="fill:none;stroke:#c5db00;stroke-width:1.44;stroke-linecap:round;stroke-linejoin:round;stroke-miterlimit:10;stroke-dasharray:none;stroke-opacity:1"
       transform="matrix(1.3333333,0,0,-1.3333333,258.8776,478.03907)" />
    <path
       id="path27"
       d="M 0,0 157.691,163.188"
       style="fill:none;stroke:#c5db00;stroke-width:1.44;stroke-linecap:round;stroke-linejoin:round;stroke-miterlimit:10;stroke-dasharray:none;stroke-opacity:1"
       transform="matrix(1.3333333,0,0,-1.3333333,222.0748,449.24093)" />
    <path
       id="path28"
       d="M 0,0 182.893,133.911"
       style="fill:none;stroke:#c5db00;stroke-width:1.44;stroke-linecap:round;stroke-linejoin:round;stroke-miterlimit:10;stroke-dasharray:none;stroke-opacity:1"
       transform="matrix(1.3333333,0,0,-1.3333333,185.5924,409.88413)" />
    <path
       id="path29"
       d="M 0,0 204.734,97.434"
       style="fill:none;stroke:#006100;stroke-width:1.44;stroke-linecap:round;stroke-linejoin:round;stroke-miterlimit:10;stroke-dasharray:none;stroke-opacity:1"
       transform="matrix(1.3333333,0,0,-1.3333333,154.22973,360.28787)" />
    <path
       id="path30"
       d="M 0,0 219.855,55.916"
       style="fill:none;stroke:#006100;stroke-width:1.44;stroke-linecap:round;stroke-linejoin:round;stroke-miterlimit:10;stroke-dasharray:none;stroke-opacity:1"
       transform="matrix(1.3333333,0,0,-1.3333333,133.10867,302.69147)" />
    <path
       id="path31"
       d="M 0,0 226.336,13.919"
       style="fill:none;stroke:#006100;stroke-width:1.44;stroke-linecap:round;stroke-linejoin:round;stroke-miterlimit:10;stroke-dasharray:none;stroke-opacity:1"
       transform="matrix(1.3333333,0,0,-1.3333333,125.42773,244.45573)" />
    <path
       id="path32"
       d="M 0,0 225.616,-24.478"
       style="fill:none;stroke:#619900;stroke-width:1.44;stroke-linecap:round;stroke-linejoin:round;stroke-miterlimit:10;stroke-dasharray:none;stroke-opacity:1"
       transform="matrix(1.3333333,0,0,-1.3333333,127.98827,191.0196)" />
    <path
       id="path33"
       d="M 0,0 219.375,-57.356"
       style="fill:none;stroke:#619900;stroke-width:1.44;stroke-linecap:round;stroke-linejoin:round;stroke-miterlimit:10;stroke-dasharray:none;stroke-opacity:1"
       transform="matrix(1.3333333,0,0,-1.3333333,138.2292,145.2624)" />
    <path
       id="path34"
       d="M 0,0 213.135,-77.515"
       style="fill:none;stroke:#006100;stroke-width:1.44;stroke-linecap:round;stroke-linejoin:round;stroke-miterlimit:10;stroke-dasharray:none;stroke-opacity:1"
       transform="matrix(1.3333333,0,0,-1.3333333,148.46933,116.78453)" />
    <path
       id="path35"
       d="M 0,0 207.374,-92.154"
       style="fill:none;stroke:#006100;stroke-width:1.44;stroke-linecap:round;stroke-linejoin:round;stroke-miterlimit:10;stroke-dasharray:none;stroke-opacity:1"
       transform="matrix(1.3333333,0,0,-1.3333333,158.39067,95.666)" />
    <path
       id="path36"
       d="M 0,0 200.655,-105.353"
       style="fill:none;stroke:#006100;stroke-width:1.44;stroke-linecap:round;stroke-linejoin:round;stroke-miterlimit:10;stroke-dasharray:none;stroke-opacity:1"
       transform="matrix(1.3333333,0,0,-1.3333333,169.2708,76.467467)" />
    <path
       id="path37"
       d="M 0,0 193.694,-117.592"
       style="fill:none;stroke:#006100;stroke-width:1.44;stroke-linecap:round;stroke-linejoin:round;stroke-miterlimit:10;stroke-dasharray:none;stroke-opacity:1"
       transform="matrix(1.3333333,0,0,-1.3333333,180.7916,58.5488)"
       clip-path="url(#clipPath38)" />
    <path
       id="path39"
       d="M 0,0 -25.682,225.344"
       style="fill:none;stroke:#c0c0c0;stroke-width:0.96;stroke-linecap:round;stroke-linejoin:round;stroke-miterlimit:10;stroke-dasharray:9.375, 15;stroke-dashoffset:0;stroke-opacity:1"
       transform="matrix(1.3333333,0,0,-1.3333333,519.05533,528.27613)" />
    <path
       id="path40"
       d="M 0,0 -24.242,225.584"
       style="fill:none;stroke:#c0c0c0;stroke-width:0.96;stroke-linecap:round;stroke-linejoin:round;stroke-miterlimit:10;stroke-dasharray:9.375, 15;stroke-dashoffset:0;stroke-opacity:1"
       transform="matrix(1.3333333,0,0,-1.3333333,514.57613,528.91547)" />
    <path
       id="path41"
       d="M 0,0 -23.042,225.584"
       style="fill:none;stroke:#c0c0c0;stroke-width:0.96;stroke-linecap:round;stroke-linejoin:round;stroke-miterlimit:10;stroke-dasharray:9.375, 15;stroke-dashoffset:0;stroke-opacity:1"
       transform="matrix(1.3333333,0,0,-1.3333333,510.0956,529.23573)" />
    <path
       id="path42"
       d="M 0,0 -21.602,225.584"
       style="fill:none;stroke:#c0c0c0;stroke-width:0.96;stroke-linecap:round;stroke-linejoin:round;stroke-miterlimit:10;stroke-dasharray:9.375, 15;stroke-dashoffset:0;stroke-opacity:1"
       transform="matrix(1.3333333,0,0,-1.3333333,505.6152,529.556)" />
    <path
       id="path43"
       d="M 0,0 186.733,-128.871"
       style="fill:none;stroke:#c0c0c0;stroke-width:0.96;stroke-linecap:round;stroke-linejoin:round;stroke-miterlimit:10;stroke-dasharray:9.375, 15;stroke-dashoffset:0;stroke-opacity:1"
       transform="matrix(1.3333333,0,0,-1.3333333,192.31253,42.229867)"
       clip-path="url(#clipPath44)" />
    <path
       id="path45"
       d="M 43.427,593.048 H 446.656 V 44.926 H 43.427 Z"
       style="fill:none;stroke:#000000;stroke-width:0.96;stroke-linecap:round;stroke-linejoin:round;stroke-miterlimit:10;stroke-dasharray:none;stroke-opacity:1"
       transform="matrix(1.3333333,0,0,-1.3333333,0,850.56)" />
    <path
       id="path46"
       d="M 0,0 V -5.04"
       style="fill:none;stroke:#000000;stroke-width:1.44;stroke-linecap:round;stroke-linejoin:round;stroke-miterlimit:10;stroke-dasharray:none;stroke-opacity:1"
       transform="matrix(1.3333333,0,0,-1.3333333,522.25587,790.6576)" />
    <text
       id="text46"
       xml:space="preserve"
       transform="matrix(1.3333333,0,0,1.3331556,482.73373,813.14067)"><tspan
         id="tspan46"
         style="font-variant:normal;font-weight:normal;font-stretch:normal;font-size:12.0008px;font-family:Arial;writing-mode:lr-tb;fill:#000000;fill-opacity:1;fill-rule:nonzero;stroke:none"
         x="0"
         dx="0 -0.1920128 0 0 0 0 0.1080072 -0.1920128"
         y="0">91°24'20&quot;E</tspan></text>
    <path
       id="path47"
       d="M 0,0 V 5.04"
       style="fill:none;stroke:#000000;stroke-width:1.44;stroke-linecap:round;stroke-linejoin:round;stroke-miterlimit:10;stroke-dasharray:none;stroke-opacity:1"
       transform="matrix(1.3333333,0,0,-1.3333333,529.9368,59.8288)" />
    <text
       id="text47"
       xml:space="preserve"
       transform="matrix(1.3333333,0,0,1.3331556,490.41347,48.438933)"><tspan
         id="tspan47"
         style="font-variant:normal;font-weight:normal;font-stretch:normal;font-size:12.0008px;font-family:Arial;writing-mode:lr-tb;fill:#000000;fill-opacity:1;fill-rule:nonzero;stroke:none"
         x="0"
         dx="0 -0.1920128 0 0 0 0 0.1080072 -0.1920128"
         y="0">91°24'20&quot;E</tspan></text>
    <path
       id="path48"
       d="M 0,0 V -5.04"
       style="fill:none;stroke:#000000;stroke-width:1.44;stroke-linecap:round;stroke-linejoin:round;stroke-miterlimit:10;stroke-dasharray:none;stroke-opacity:1"
       transform="matrix(1.3333333,0,0,-1.3333333,370.56573,790.6576)" />
    <text
       id="text48"
       xml:space="preserve"
       transform="matrix(1.3333333,0,0,1.3331556,335.36267,813.14067)"><tspan
         id="tspan48"
         style="font-variant:normal;font-weight:normal;font-stretch:normal;font-size:12.0008px;font-family:Arial;writing-mode:lr-tb;fill:#000000;fill-opacity:1;fill-rule:nonzero;stroke:none"
         x="0"
         dx="0 -0.1920128 0 0 0 0 0.1080072 -0.1920128"
         y="0">91°22'0&quot;E</tspan></text>
    <path
       id="path49"
       d="M 0,0 V 5.04"
       style="fill:none;stroke:#000000;stroke-width:1.44;stroke-linecap:round;stroke-linejoin:round;stroke-miterlimit:10;stroke-dasharray:none;stroke-opacity:1"
       transform="matrix(1.3333333,0,0,-1.3333333,378.56573,59.8288)" />
    <text
       id="text49"
       xml:space="preserve"
       transform="matrix(1.3333333,0,0,1.3331556,343.36387,48.438933)"><tspan
         id="tspan49"
         style="font-variant:normal;font-weight:normal;font-stretch:normal;font-size:12.0008px;font-family:Arial;writing-mode:lr-tb;fill:#000000;fill-opacity:1;fill-rule:nonzero;stroke:none"
         x="0"
         dx="0 -0.1920128 0 0 0 0 0.1080072 -0.1920128"
         y="0">91°22'0&quot;E</tspan></text>
    <path
       id="path50"
       d="M 0,0 V -5.04"
       style="fill:none;stroke:#000000;stroke-width:1.44;stroke-linecap:round;stroke-linejoin:round;stroke-miterlimit:10;stroke-dasharray:none;stroke-opacity:1"
       transform="matrix(1.3333333,0,0,-1.3333333,219.19467,790.6576)" />
    <text
       id="text50"
       xml:space="preserve"
       transform="matrix(1.3333333,0,0,1.3331556,179.67187,813.14067)"><tspan
         id="tspan50"
         style="font-variant:normal;font-weight:normal;font-stretch:normal;font-size:12.0008px;font-family:Arial;writing-mode:lr-tb;fill:#000000;fill-opacity:1;fill-rule:nonzero;stroke:none"
         x="0"
         dx="0 -0.1920128 0 0 0 0 0.1080072 -0.1920128"
         y="0">91°19'40&quot;E</tspan></text>
    <path
       id="path51"
       d="M 0,0 V 5.04"
       style="fill:none;stroke:#000000;stroke-width:1.44;stroke-linecap:round;stroke-linejoin:round;stroke-miterlimit:10;stroke-dasharray:none;stroke-opacity:1"
       transform="matrix(1.3333333,0,0,-1.3333333,227.19533,59.8288)" />
    <text
       id="text51"
       xml:space="preserve"
       transform="matrix(1.3333333,0,0,1.3331556,187.67253,48.438933)"><tspan
         id="tspan51"
         style="font-variant:normal;font-weight:normal;font-stretch:normal;font-size:12.0008px;font-family:Arial;writing-mode:lr-tb;fill:#000000;fill-opacity:1;fill-rule:nonzero;stroke:none"
         x="0"
         dx="0 -0.1920128 0 0 0 0 0.1080072 -0.1920128"
         y="0">91°19'40&quot;E</tspan></text>
    <path
       id="path52"
       d="M 0,0 V -5.04"
       style="fill:none;stroke:#000000;stroke-width:1.44;stroke-linecap:round;stroke-linejoin:round;stroke-miterlimit:10;stroke-dasharray:none;stroke-opacity:1"
       transform="matrix(1.3333333,0,0,-1.3333333,67.503867,790.6576)" />
    <text
       id="text52"
       xml:space="preserve"
       transform="matrix(1.3333333,0,0,1.3331556,27.981067,813.14067)"><tspan
         id="tspan52"
         style="font-variant:normal;font-weight:normal;font-stretch:normal;font-size:12.0008px;font-family:Arial;writing-mode:lr-tb;fill:#000000;fill-opacity:1;fill-rule:nonzero;stroke:none"
         x="0"
         dx="0 -0.1920128 0 0 0 0 0.1080072 -0.1920128"
         y="0">91°17'20&quot;E</tspan></text>
    <path
       id="path53"
       d="M 0,0 V 5.04"
       style="fill:none;stroke:#000000;stroke-width:1.44;stroke-linecap:round;stroke-linejoin:round;stroke-miterlimit:10;stroke-dasharray:none;stroke-opacity:1"
       transform="matrix(1.3333333,0,0,-1.3333333,75.824133,59.8288)" />
    <text
       id="text53"
       xml:space="preserve"
       transform="matrix(1.3333333,0,0,1.3331556,36.301467,48.438933)"><tspan
         id="tspan53"
         style="font-variant:normal;font-weight:normal;font-stretch:normal;font-size:12.0008px;font-family:Arial;writing-mode:lr-tb;fill:#000000;fill-opacity:1;fill-rule:nonzero;stroke:none"
         x="0"
         dx="0 -0.1920128 0 0 0 0 0.1080072 -0.1920128"
         y="0">91°17'20&quot;E</tspan></text>
    <path
       id="path54"
       d="M 0,0 H -5.04"
       style="fill:none;stroke:#000000;stroke-width:1.44;stroke-linecap:round;stroke-linejoin:round;stroke-miterlimit:10;stroke-dasharray:none;stroke-opacity:1"
       transform="matrix(1.3333333,0,0,-1.3333333,57.902933,175.66027)" />
    <text
       id="text54"
       xml:space="preserve"
       transform="matrix(0,-1.3333333,1.3335111,0,46.261733,215.65827)"><tspan
         id="tspan54"
         style="font-variant:normal;font-weight:normal;font-stretch:normal;font-size:11.9992px;font-family:Arial;writing-mode:lr-tb;fill:#000000;fill-opacity:1;fill-rule:nonzero;stroke:none"
         x="0"
         dx="0 -0.1919872 0 0 0 0 0.1079928 -0.1919872"
         y="0">22°23'20&quot;N</tspan></text>
    <path
       id="path55"
       d="M 0,0 H 5.041"
       style="fill:none;stroke:#000000;stroke-width:1.44;stroke-linecap:round;stroke-linejoin:round;stroke-miterlimit:10;stroke-dasharray:none;stroke-opacity:1"
       transform="matrix(1.3333333,0,0,-1.3333333,595.54093,181.42)" />
    <text
       id="text55"
       xml:space="preserve"
       transform="matrix(0,-1.3333333,1.3335111,0,618.27733,221.41813)"><tspan
         id="tspan55"
         style="font-variant:normal;font-weight:normal;font-stretch:normal;font-size:11.9992px;font-family:Arial;writing-mode:lr-tb;fill:#000000;fill-opacity:1;fill-rule:nonzero;stroke:none"
         x="0"
         dx="0 -0.1919872 0 0 0 0 0.1079928 -0.1919872"
         y="0">22°23'20&quot;N</tspan></text>
    <path
       id="path56"
       d="M 0,0 H -5.04"
       style="fill:none;stroke:#000000;stroke-width:1.44;stroke-linecap:round;stroke-linejoin:round;stroke-miterlimit:10;stroke-dasharray:none;stroke-opacity:1"
       transform="matrix(1.3333333,0,0,-1.3333333,57.902933,338.20907)" />
    <text
       id="text56"
       xml:space="preserve"
       transform="matrix(0,-1.3333333,1.3335111,0,46.261733,373.72733)"><tspan
         id="tspan56"
         style="font-variant:normal;font-weight:normal;font-stretch:normal;font-size:11.9992px;font-family:Arial;writing-mode:lr-tb;fill:#000000;fill-opacity:1;fill-rule:nonzero;stroke:none"
         x="0"
         dx="0 -0.1919872 0 0 0 0 0.1079928 -0.1919872"
         y="0">22°21'0&quot;N</tspan></text>
    <path
       id="path57"
       d="M 0,0 H 5.041"
       style="fill:none;stroke:#000000;stroke-width:1.44;stroke-linecap:round;stroke-linejoin:round;stroke-miterlimit:10;stroke-dasharray:none;stroke-opacity:1"
       transform="matrix(1.3333333,0,0,-1.3333333,595.54093,344.28853)" />
    <text
       id="text57"
       xml:space="preserve"
       transform="matrix(0,-1.3333333,1.3335111,0,618.27733,379.80613)"><tspan
         id="tspan57"
         style="font-variant:normal;font-weight:normal;font-stretch:normal;font-size:11.9992px;font-family:Arial;writing-mode:lr-tb;fill:#000000;fill-opacity:1;fill-rule:nonzero;stroke:none"
         x="0"
         dx="0 -0.1919872 0 0 0 0 0.1079928 -0.1919872"
         y="0">22°21'0&quot;N</tspan></text>
    <path
       id="path58"
       d="M 0,0 H -5.04"
       style="fill:none;stroke:#000000;stroke-width:1.44;stroke-linecap:round;stroke-linejoin:round;stroke-miterlimit:10;stroke-dasharray:none;stroke-opacity:1"
       transform="matrix(1.3333333,0,0,-1.3333333,57.902933,501.07813)" />
    <text
       id="text58"
       xml:space="preserve"
       transform="matrix(0,-1.3333333,1.3335111,0,46.261733,541.07493)"><tspan
         id="tspan58"
         style="font-variant:normal;font-weight:normal;font-stretch:normal;font-size:11.9992px;font-family:Arial;writing-mode:lr-tb;fill:#000000;fill-opacity:1;fill-rule:nonzero;stroke:none"
         x="0"
         dx="0 -0.1919872 0 0 0 0 0.1079928 -0.1919872"
         y="0">22°18'40&quot;N</tspan></text>
    <path
       id="path59"
       d="M 0,0 H 5.041"
       style="fill:none;stroke:#000000;stroke-width:1.44;stroke-linecap:round;stroke-linejoin:round;stroke-miterlimit:10;stroke-dasharray:none;stroke-opacity:1"
       transform="matrix(1.3333333,0,0,-1.3333333,595.54093,506.83733)" />
    <text
       id="text59"
       xml:space="preserve"
       transform="matrix(0,-1.3333333,1.3335111,0,618.27733,546.8348)"><tspan
         id="tspan59"
         style="font-variant:normal;font-weight:normal;font-stretch:normal;font-size:11.9992px;font-family:Arial;writing-mode:lr-tb;fill:#000000;fill-opacity:1;fill-rule:nonzero;stroke:none"
         x="0"
         dx="0 -0.1919872 0 0 0 0 0.1079928 -0.1919872"
         y="0">22°18'40&quot;N</tspan></text>
    <path
       id="path60"
       d="M 0,0 H -5.04"
       style="fill:none;stroke:#000000;stroke-width:1.44;stroke-linecap:round;stroke-linejoin:round;stroke-miterlimit:10;stroke-dasharray:none;stroke-opacity:1"
       transform="matrix(1.3333333,0,0,-1.3333333,57.902933,663.94667)" />
    <text
       id="text60"
       xml:space="preserve"
       transform="matrix(0,-1.3333333,1.3335111,0,46.261733,703.94347)"><tspan
         id="tspan60"
         style="font-variant:normal;font-weight:normal;font-stretch:normal;font-size:11.9992px;font-family:Arial;writing-mode:lr-tb;fill:#000000;fill-opacity:1;fill-rule:nonzero;stroke:none"
         x="0"
         dx="0 -0.1919872 0 0 0 0 0.1079928 -0.1919872"
         y="0">22°16'20&quot;N</tspan></text>
    <path
       id="path61"
       d="M 0,0 H 5.041"
       style="fill:none;stroke:#000000;stroke-width:1.44;stroke-linecap:round;stroke-linejoin:round;stroke-miterlimit:10;stroke-dasharray:none;stroke-opacity:1"
       transform="matrix(1.3333333,0,0,-1.3333333,595.54093,669.70573)" />
    <text
       id="text61"
       xml:space="preserve"
       transform="matrix(0,-1.3333333,1.3335111,0,618.27733,709.70453)"><tspan
         id="tspan61"
         style="font-variant:normal;font-weight:normal;font-stretch:normal;font-size:11.9992px;font-family:Arial;writing-mode:lr-tb;fill:#000000;fill-opacity:1;fill-rule:nonzero;stroke:none"
         x="0"
         dx="0 -0.1919872 0 0 0 0 0.1079928 -0.1919872"
         y="0">22°16'20&quot;N</tspan></text>
    <path
       id="path62"
       d="M 43.427,593.048 H 446.656 V 44.926 H 43.427 Z"
       style="fill:none;stroke:#000000;stroke-width:1.44;stroke-linecap:round;stroke-linejoin:round;stroke-miterlimit:10;stroke-dasharray:none;stroke-opacity:1"
       transform="matrix(1.3333333,0,0,-1.3333333,0,850.56)" />
    <text
       id="text62"
       xml:space="preserve"
       transform="matrix(1.3333333,0,0,1.3331456,527.696,158.062)"><tspan
         id="tspan62"
         style="font-variant:normal;font-weight:normal;font-stretch:normal;font-size:69.6049px;font-family:'ESRI North';writing-mode:lr-tb;fill:#000000;fill-opacity:1;fill-rule:nonzero;stroke:none"
         x="0"
         y="0">±</tspan></text>
    <path
       id="path63"
       d="M 0,0 H 60.964"
       style="fill:none;stroke:#ad2b00;stroke-width:1.92;stroke-linecap:round;stroke-linejoin:round;stroke-miterlimit:10;stroke-dasharray:none;stroke-opacity:1"
       transform="matrix(1.3333333,0,0,-1.3333333,115.18747,563.79307)" />
    <text
       id="text63"
       xml:space="preserve"
       transform="matrix(1.3333333,0,0,1.3331418,117.42773,551.31387)"><tspan
         id="tspan63"
         style="font-variant:normal;font-weight:700;font-stretch:normal;font-size:13.921px;font-family:Arial;writing-mode:lr-tb;fill:#000000;fill-opacity:1;fill-rule:nonzero;stroke:none"
         x="0"
         dx="0 0 0 0.18097299 0 0 0.20881499 -0.111368"
         y="0">Baseline</tspan><tspan
         id="tspan64"
         style="font-variant:normal;font-weight:700;font-stretch:normal;font-size:13.921px;font-family:Arial;writing-mode:lr-tb;fill:#000000;fill-opacity:1;fill-rule:nonzero;stroke:none"
         x="-4.7888241"
         dx="0 0 0.13921 -0.111368 0.111368 0.18097299 0 0 0.13921"
         y="26.644794">shoreline</tspan></text>
    <text
       id="text64"
       xml:space="preserve"
       transform="matrix(1.3333333,0,0,1.3331459,317.12173,104.11733)"><tspan
         id="tspan65"
         style="font-variant:normal;font-weight:700;font-stretch:normal;font-size:19.9214px;font-family:Arial;writing-mode:lr-tb;fill:#000000;fill-opacity:1;fill-rule:nonzero;stroke:none"
         x="0"
         y="0">C</tspan></text>
    <path
       id="path65"
       d="M 0,0 H 30.002"
       style="fill:none;stroke:#ffff00;stroke-width:1.92;stroke-linecap:round;stroke-linejoin:round;stroke-miterlimit:10;stroke-dasharray:none;stroke-opacity:1"
       transform="matrix(1.3333333,0,0,-1.3333333,117.42773,607.95053)" />
    <text
       id="text65"
       xml:space="preserve"
       transform="matrix(1.3333333,0,0,1.3331358,164.47067,613.38947)"><tspan
         id="tspan66"
         style="font-variant:normal;font-weight:normal;font-stretch:normal;font-size:10.8008px;font-family:Arial;writing-mode:lr-tb;fill:#000000;fill-opacity:1;fill-rule:nonzero;stroke:none"
         x="0"
         dx="0 0 0.2376176"
         y="0">2005</tspan></text>
    <path
       id="path66"
       d="M 0,0 H 30.002"
       style="fill:none;stroke:#fcd4b6;stroke-width:1.92;stroke-linecap:round;stroke-linejoin:round;stroke-miterlimit:10;stroke-dasharray:none;stroke-opacity:1"
       transform="matrix(1.3333333,0,0,-1.3333333,117.42773,635.14853)" />
    <text
       id="text66"
       xml:space="preserve"
       transform="matrix(1.3333333,0,0,1.3331358,164.47067,640.58867)"><tspan
         id="tspan67"
         style="font-variant:normal;font-weight:normal;font-stretch:normal;font-size:10.8008px;font-family:Arial;writing-mode:lr-tb;fill:#000000;fill-opacity:1;fill-rule:nonzero;stroke:none"
         x="0"
         dx="0 0 0.2376176"
         y="0">2008</tspan></text>
    <path
       id="path67"
       d="M 0,0 H 30.002"
       style="fill:none;stroke:#fcb8c6;stroke-width:1.92;stroke-linecap:round;stroke-linejoin:round;stroke-miterlimit:10;stroke-dasharray:none;stroke-opacity:1"
       transform="matrix(1.3333333,0,0,-1.3333333,117.42773,662.3464)" />
    <text
       id="text67"
       xml:space="preserve"
       transform="matrix(1.3333333,0,0,1.3331358,164.47067,667.78653)"><tspan
         id="tspan68"
         style="font-variant:normal;font-weight:normal;font-stretch:normal;font-size:10.8008px;font-family:Arial;writing-mode:lr-tb;fill:#000000;fill-opacity:1;fill-rule:nonzero;stroke:none"
         x="0"
         dx="0 0 0.2376176 -0.72365361"
         y="0">2011</tspan></text>
    <path
       id="path68"
       d="M 0,0 H 30.002"
       style="fill:none;stroke:#b6fcb6;stroke-width:1.92;stroke-linecap:round;stroke-linejoin:round;stroke-miterlimit:10;stroke-dasharray:none;stroke-opacity:1"
       transform="matrix(1.3333333,0,0,-1.3333333,117.42773,689.54427)" />
    <text
       id="text68"
       xml:space="preserve"
       transform="matrix(1.3333333,0,0,1.3331358,164.47067,694.98453)"><tspan
         id="tspan69"
         style="font-variant:normal;font-weight:normal;font-stretch:normal;font-size:10.8008px;font-family:Arial;writing-mode:lr-tb;fill:#000000;fill-opacity:1;fill-rule:nonzero;stroke:none"
         x="0"
         dx="0 0 0.2376176"
         y="0">2014</tspan></text>
    <path
       id="path69"
       d="M 0,0 H 30.002"
       style="fill:none;stroke:#ccf2fc;stroke-width:1.92;stroke-linecap:round;stroke-linejoin:round;stroke-miterlimit:10;stroke-dasharray:none;stroke-opacity:1"
       transform="matrix(1.3333333,0,0,-1.3333333,117.42773,716.74227)" />
    <text
       id="text69"
       xml:space="preserve"
       transform="matrix(1.3333333,0,0,1.3331358,164.47067,722.1824)"><tspan
         id="tspan70"
         style="font-variant:normal;font-weight:normal;font-stretch:normal;font-size:10.8008px;font-family:Arial;writing-mode:lr-tb;fill:#000000;fill-opacity:1;fill-rule:nonzero;stroke:none"
         x="0"
         dx="0 0 0.2376176"
         y="0">2017</tspan></text>
    <path
       id="path70"
       d="M 0,0 H 30.002"
       style="fill:none;stroke:#eebbfc;stroke-width:1.92;stroke-linecap:round;stroke-linejoin:round;stroke-miterlimit:10;stroke-dasharray:none;stroke-opacity:1"
       transform="matrix(1.3333333,0,0,-1.3333333,117.42773,743.6212)" />
    <text
       id="text70"
       xml:space="preserve"
       transform="matrix(1.3333333,0,0,1.3331358,164.47067,749.06)"><tspan
         id="tspan71"
         style="font-variant:normal;font-weight:normal;font-stretch:normal;font-size:10.8008px;font-family:Arial;writing-mode:lr-tb;fill:#000000;fill-opacity:1;fill-rule:nonzero;stroke:none"
         x="0"
         dx="0 0 0.2376176"
         y="0">2020</tspan></text>
    <path
       id="path71"
       d="M 0,0 H 30.002"
       style="fill:none;stroke:#b6c9fc;stroke-width:1.92;stroke-linecap:round;stroke-linejoin:round;stroke-miterlimit:10;stroke-dasharray:none;stroke-opacity:1"
       transform="matrix(1.3333333,0,0,-1.3333333,117.42773,770.81907)" />
    <text
       id="text71"
       xml:space="preserve"
       transform="matrix(1.3333333,0,0,1.3331358,164.47067,776.2592)"><tspan
         id="tspan72"
         style="font-variant:normal;font-weight:normal;font-stretch:normal;font-size:10.8008px;font-family:Arial;writing-mode:lr-tb;fill:#000000;fill-opacity:1;fill-rule:nonzero;stroke:none"
         x="0"
         dx="0 0 0.2376176"
         y="0">2023</tspan></text>
    <text
       id="text72"
       xml:space="preserve"
       transform="matrix(1.3333333,0,0,1.3331482,331.5228,556.43373)"><tspan
         id="tspan73"
         style="font-variant:normal;font-weight:700;font-stretch:normal;font-size:12.9609px;font-family:Arial;writing-mode:lr-tb;fill:#000000;fill-opacity:1;fill-rule:nonzero;stroke:none"
         x="0"
         dx="0 0 0 0 0 0 0 0.2332962"
         y="0">NSM (meter)</tspan></text>
    <path
       id="path73"
       d="M 0,0 H 30.002"
       style="fill:none;stroke:#006100;stroke-width:1.44;stroke-linecap:round;stroke-linejoin:round;stroke-miterlimit:10;stroke-dasharray:none;stroke-opacity:1"
       transform="matrix(1.3333333,0,0,-1.3333333,331.5228,576.9128)" />
    <text
       id="text73"
       xml:space="preserve"
       transform="matrix(1.3333333,0,0,1.3331556,378.56573,582.99227)"><tspan
         id="tspan74"
         style="font-variant:normal;font-weight:normal;font-stretch:normal;font-size:12.0008px;font-family:Arial;writing-mode:lr-tb;fill:#000000;fill-opacity:1;fill-rule:nonzero;stroke:none"
         x="0"
         dx="0 -0.1560104 0 0 0 0 0 -0.1920128 0 0 0 0 0 -0.1560104 0 0.084005602 0 0 0 -0.2160144"
         y="0">-723.220000 - -142.450000</tspan></text>
    <path
       id="path74"
       d="M 0,0 H 30.002"
       style="fill:none;stroke:#619900;stroke-width:1.44;stroke-linecap:round;stroke-linejoin:round;stroke-miterlimit:10;stroke-dasharray:none;stroke-opacity:1"
       transform="matrix(1.3333333,0,0,-1.3333333,331.5228,604.11067)" />
    <text
       id="text74"
       xml:space="preserve"
       transform="matrix(1.3333333,0,0,1.3331556,378.56573,610.19027)"><tspan
         id="tspan75"
         style="font-variant:normal;font-weight:normal;font-stretch:normal;font-size:12.0008px;font-family:Arial;writing-mode:lr-tb;fill:#000000;fill-opacity:1;fill-rule:nonzero;stroke:none"
         x="0"
         dx="0 -0.1560104 0 0 0 0 0 -0.1920128 0 0 0 0 0 -0.1560104 0 0 0 0 0 0 0 -0.1920128"
         y="0">-142.449999 - 301.680000</tspan></text>
    <path
       id="path75"
       d="M 0,0 H 30.002"
       style="fill:none;stroke:#c5db00;stroke-width:1.44;stroke-linecap:round;stroke-linejoin:round;stroke-miterlimit:10;stroke-dasharray:none;stroke-opacity:1"
       transform="matrix(1.3333333,0,0,-1.3333333,331.5228,631.30867)" />
    <text
       id="text75"
       xml:space="preserve"
       transform="matrix(1.3333333,0,0,1.3331556,378.56573,637.38813)"><tspan
         id="tspan76"
         style="font-variant:normal;font-weight:normal;font-stretch:normal;font-size:12.0008px;font-family:Arial;writing-mode:lr-tb;fill:#000000;fill-opacity:1;fill-rule:nonzero;stroke:none"
         x="0"
         dx="0 -0.1920128 0 0 0 0 0 0 -0.1920128 0 0 0 0.084005602 0 -0.1920128 0 0 0 0 0 0 0 -0.1920128"
         y="0">301.680001 - 1892.850000</tspan></text>
    <path
       id="path76"
       d="M 0,0 H 30.002"
       style="fill:none;stroke:#ffd900;stroke-width:1.44;stroke-linecap:round;stroke-linejoin:round;stroke-miterlimit:10;stroke-dasharray:none;stroke-opacity:1"
       transform="matrix(1.3333333,0,0,-1.3333333,331.5228,658.50653)" />
    <text
       id="text76"
       xml:space="preserve"
       transform="matrix(1.3333333,0,0,1.3331556,378.56573,664.586)"><tspan
         id="tspan77"
         style="font-variant:normal;font-weight:normal;font-stretch:normal;font-size:12.0008px;font-family:Arial;writing-mode:lr-tb;fill:#000000;fill-opacity:1;fill-rule:nonzero;stroke:none"
         x="0"
         dx="0 -0.1920128 0 0 0 0 0 0 -0.1920128 0 0 0 0 0.084005602 -0.2160144 0 0 0 0 0 -0.9120608 0 0 0 -0.1920128"
         y="0">1892.850001 - 2694.110000</tspan></text>
    <path
       id="path77"
       d="M 0,0 H 30.002"
       style="fill:none;stroke:#ff8400;stroke-width:1.44;stroke-linecap:round;stroke-linejoin:round;stroke-miterlimit:10;stroke-dasharray:none;stroke-opacity:1"
       transform="matrix(1.3333333,0,0,-1.3333333,331.5228,685.70453)" />
    <text
       id="text77"
       xml:space="preserve"
       transform="matrix(1.3333333,0,0,1.3331556,378.56573,691.784)"><tspan
         id="tspan78"
         style="font-variant:normal;font-weight:normal;font-stretch:normal;font-size:12.0008px;font-family:Arial;writing-mode:lr-tb;fill:#000000;fill-opacity:1;fill-rule:nonzero;stroke:none"
         x="0"
         dx="0 -0.1920128 0 0 0 0 -0.9120608 0 0 0 -0.1920128 0 0 0.084005602 0 0 -0.1920128 0 0 0 0 0 0 0 -0.1920128"
         y="0">2694.110001 - 3193.370000</tspan></text>
    <path
       id="path78"
       d="M 0,0 H 30.002"
       style="fill:none;stroke:#ff2600;stroke-width:1.44;stroke-linecap:round;stroke-linejoin:round;stroke-miterlimit:10;stroke-dasharray:none;stroke-opacity:1"
       transform="matrix(1.3333333,0,0,-1.3333333,331.5228,712.58333)" />
    <text
       id="text78"
       xml:space="preserve"
       transform="matrix(1.3333333,0,0,1.3331556,378.56573,718.6628)"><tspan
         id="tspan79"
         style="font-variant:normal;font-weight:normal;font-stretch:normal;font-size:12.0008px;font-family:Arial;writing-mode:lr-tb;fill:#000000;fill-opacity:1;fill-rule:nonzero;stroke:none"
         x="0"
         dx="0 -0.1920128 0 0 0 0 0 0 -0.1920128 0 0 0 0 0.084005602 -0.2160144 0 0 0 0 0 0 0 -0.1920128"
         y="0">3193.370001 - 3512.880000</tspan></text>
    <path
       id="path79"
       d="M 0,0 H 30.002"
       style="fill:none;stroke:#c0c0c0;stroke-width:0.96;stroke-linecap:round;stroke-linejoin:round;stroke-miterlimit:10;stroke-dasharray:9.375, 15;stroke-dashoffset:0;stroke-opacity:1"
       transform="matrix(1.3333333,0,0,-1.3333333,331.5228,739.78133)" />
  </g>
</svg>
