<?xml version="1.0" encoding="UTF-8" standalone="no"?>
<!-- Created with Inkscape (http://www.inkscape.org/) -->

<svg
   version="1.1"
   id="svg1"
   width="653.38666"
   height="850.56"
   viewBox="0 0 653.38666 850.56"
   sodipodi:docname="D.pdf"
   xmlns:inkscape="http://www.inkscape.org/namespaces/inkscape"
   xmlns:sodipodi="http://sodipodi.sourceforge.net/DTD/sodipodi-0.dtd"
   xmlns="http://www.w3.org/2000/svg"
   xmlns:svg="http://www.w3.org/2000/svg">
  <defs
     id="defs1">
    <clipPath
       clipPathUnits="userSpaceOnUse"
       id="clipPath2">
      <path
         d="M 0,0 H 490.04 V 637.92 H 0 Z"
         id="path2" />
    </clipPath>
  </defs>
  <sodipodi:namedview
     id="namedview1"
     pagecolor="#ffffff"
     bordercolor="#000000"
     borderopacity="0.25"
     inkscape:showpageshadow="2"
     inkscape:pageopacity="0.0"
     inkscape:pagecheckerboard="0"
     inkscape:deskcolor="#d1d1d1">
    <inkscape:page
       x="0"
       y="0"
       inkscape:label="1"
       id="page1"
       width="653.38666"
       height="850.56"
       margin="0"
       bleed="0" />
  </sodipodi:namedview>
  <g
     id="layer-MC0"
     inkscape:groupmode="layer"
     inkscape:label="Layer 1">
    <path
       id="path1"
       d="M -59.06,716.64 H 549.143 V -76.984 H -59.06 Z"
       style="fill:none;stroke:#000000;stroke-width:0.96;stroke-linecap:round;stroke-linejoin:round;stroke-miterlimit:10;stroke-dasharray:none;stroke-opacity:1"
       transform="matrix(1.3333333,0,0,-1.3333333,0,850.56)"
       clip-path="url(#clipPath2)" />
    <path
       id="path3"
       d="M 0,0 0.24,-0.24 2.4,-0.72 4.56,-1.92 6,-2.88 8.161,-4.8 9.36,-5.76 11.281,-6 h 3.6 0.72 l 0.96,-0.72 0.96,-0.96 0.48,-1.44 0.24,-5.039 0.96,-2.4 2.401,-3.6 4.08,-3.36 2.64,-1.439 2.88,-0.48 2.16,0.24 0.96,0.48 0.96,0.719 0.72,0.96 0.241,1.201 0.239,1.919 -0.239,2.88 -2.16,11.519 v 2.4 l 0.719,1.92 1.441,1.2 2.16,0.96 2.4,0.24 7.44,-0.48 3.84,0.24 2.161,0.72 0.96,0.48 0.24,0.96 v 1.44 l -0.24,1.679 -3.36,6.72 -0.24,0.96 -0.241,0.96 0.481,1.2 1.44,3.12 0.72,2.159 0.24,0.96 1.68,1.2 3.36,1.92 0.96,0.96 -0.24,1.2 -1.2,2.4 -0.48,0.72"
       style="fill:none;stroke:#d7fcd9;stroke-width:1.92;stroke-linecap:round;stroke-linejoin:round;stroke-miterlimit:10;stroke-dasharray:none;stroke-opacity:1"
       transform="matrix(1.3333333,0,0,-1.3333333,209.27413,213.73773)" />
    <path
       id="path4"
       d="M 0,0 H 0.24 L 2.641,-0.72 4.08,-1.439 5.521,-2.399 8.16,-6 8.881,-7.199 9.36,-8.159 v -1.68 l -0.479,-1.2 -0.721,-1.44 -1.199,-0.96 -1.921,-0.96 -1.92,-0.48 -7.681,-1.68 -3.12,-0.96 -1.44,-0.96 -1.199,-0.959 -0.721,-0.96 -0.24,-1.2 v -1.2 l 0.48,-0.96 0.96,-0.96 0.96,-0.48 1.681,-0.72 5.28,-0.96 7.681,-2.4 1.92,-0.96 0.96,-1.199 v -0.96 l -0.481,-1.44 -1.199,-1.681 -1.44,-1.199 -1.441,-1.2 -2.16,-0.96 -2.4,-0.96 -6.241,-1.44 -9.84,-1.44 -4.8,-1.2 -2.16,-1.2 -1.441,-0.96 -1.44,-1.199 -0.72,-1.201 0.24,-0.96 0.72,-0.959 2.88,-1.44 2.16,-0.96 3.841,-0.72 9.121,-1.2 2.399,-0.72 1.441,-0.72 0.96,-0.72 0.48,-0.96 -0.24,-0.96 -0.481,-1.2 -1.2,-1.44 -1.199,-1.199 -1.2,-0.96 -1.921,-0.96 -2.399,-0.96 -3.121,-0.96 -7.201,-1.2 -2.16,-0.48 -1.2,-0.72 -0.72,-1.2 -0.48,-0.48 -3.6,-1.44 -1.2,-0.72 -1.2,-1.44 -0.241,-0.96 v -2.879 l -0.48,-1.2 -0.48,-0.96 -1.2,-1.2 -1.44,-0.96 -3.84,-1.92 -3.12,-1.2 -3.12,-0.96 -5.041,-0.96 -13.68,-1.68 -9.841,-0.719 -1.68,-0.241 -0.721,-0.719 -0.239,-0.48 0.48,-0.721 1.2,-1.44 2.4,-1.439 6,-3.6 1.44,-1.2 0.48,-0.48 v -0.48 -0.96 l -1.68,-1.679 -0.48,-0.96 -0.24,-0.96 0.24,-1.44 0.72,-1.44 0.72,-0.96 0.72,-0.48 0.961,-0.24 3.6,-0.96 7.44,-1.44 6.241,-2.16 1.44,-0.96 0.48,-1.2 -0.241,-0.72 -0.959,-0.72 -1.92,-0.24 -4.561,-0.24 -14.641,1.2 -10.8,1.68 -9.121,0.96 -6.481,0.96 -8.88,1.92"
       style="fill:none;stroke:#c9fcb3;stroke-width:1.92;stroke-linecap:round;stroke-linejoin:round;stroke-miterlimit:10;stroke-dasharray:none;stroke-opacity:1"
       transform="matrix(1.3333333,0,0,-1.3333333,347.20373,172.46107)" />
    <path
       id="path5"
       d="m 0,0 0.48,0.96 1.2,2.16 1.2,4.319 0.721,4.32 0.719,3.6 0.241,0.72 0.48,0.24 h 0.72 l 0.96,-0.72 3.6,-4.56 1.44,-1.68 1.44,-0.96 1.68,-0.96 2.4,-0.48 2.64,0.48 2.881,1.2 0.24,0.24 1.68,1.44 1.92,2.88 1.44,4.08 1.44,4.799 0.96,5.04 0.48,4.08 v 0.48 5.039 l -0.72,15.839 v 0.48 1.2 l 0.48,0.72 h 0.96 l 0.961,-0.48 7.92,-7.919 2.88,-2.16 3.36,-1.92 2.16,-0.48 2.641,0.24 2.4,0.48 6.721,2.4 1.44,0.24 0.96,-0.48 0.479,-0.72 v -1.44 l -0.959,-3.84 -7.681,-17.039 -3.36,-7.919 -3.121,-8.399 -2.879,-10.08 -1.681,-7.439 -1.68,-10.08 -0.24,-1.92 -1.68,-11.519 -0.96,-11.999 v -6.96 l 0.72,-5.999 1.2,-4.32 2.16,-3.6 2.64,-2.879 1.92,-1.44 1.681,-0.96 2.64,-0.72 2.64,-0.48 h 2.64 l 1.92,0.24 9.601,-4.8 3.12,-1.2 3.601,-0.96 2.88,-0.479 2.88,-0.24 2.64,0.48 2.16,0.96 1.68,1.439 1.921,2.4 2.88,6.479 5.28,10.08 2.641,6.48 1.679,6.239 2.401,10.799 1.679,12.959 1.921,13.68 2.88,13.679 0.72,4.319 1.2,14.159 v 4.08 l -0.479,7.919 -0.241,3.12 -0.96,3.6 -3.36,9.36 -1.2,2.639 -2.16,3.36 -2.16,2.88 -2.401,2.4 -4.8,4.079 -1.68,1.92 -0.48,1.2 -0.24,1.2 0.24,1.2 0.48,1.44 1.2,1.68 1.44,1.2 2.4,1.679 1.921,0.721 h 1.439 l 1.921,-0.96 1.439,-0.48 3.121,0.239 5.76,1.681 4.8,1.679 4.801,1.68 9.121,2.16 2.16,0.72 0.96,0.72 0.72,0.96 v 0.96 l -0.24,2.879 v 0.96 l 0.72,1.44 1.199,1.68 2.161,1.68 2.88,1.68 8.881,3.36 1.2,1.2 0.24,1.2 -0.24,0.48 -0.48,0.719 -1.92,0.96 -2.64,0.48 -3.601,0.48 h -3.12 l -2.88,-0.48 -9.121,-2.159 h -1.199 l -0.721,0.48 -0.24,0.72 0.24,1.2 1.681,3.359 7.92,12.479 2.4,4.56 0.96,2.64 0.48,2.16 -0.24,3.119 -1.2,3.36 -1.2,1.92 -1.68,1.2 -4.08,1.92 -2.16,1.44 -3.121,4.079 h -0.48"
       style="fill:none;stroke:#d2dffc;stroke-width:1.92;stroke-linecap:round;stroke-linejoin:round;stroke-miterlimit:10;stroke-dasharray:none;stroke-opacity:1"
       transform="matrix(1.3333333,0,0,-1.3333333,208.95373,369.8868)" />
    <path
       id="path6"
       d="m 0,0 5.521,-2.88 6.72,-2.88 3.6,-0.96 1.44,0.24 0.48,0.24 0.24,0.24 -1.2,3.6 0.241,0.96 0.479,0.96 2.88,3.6 4.081,4.079 0.96,1.68 0.96,2.16 0.96,4.8 2.16,12.959 0.72,5.039 0.48,3.84 -0.24,5.52 v 1.679 l -0.48,3.84 -0.96,5.28 -1.2,5.04 -0.24,1.199 -1.68,6 -0.48,1.92 -1.2,3.12 v 0.48 l -2.64,6.959 -3.121,7.44 -0.239,1.44 0.719,-0.48 1.44,-2.16 8.641,-12.959 0.72,-0.96 6.481,-8.4 2.16,-2.4 2.4,-1.679 2.16,-1.2 2.161,-0.48 h 1.919 l 1.92,0.24 2.641,0.96 2.88,1.679 4.56,3.12 9.121,7.68 4.8,3.6 4.561,2.879 1.44,0.72 h 0.72 l -8.641,-10.079 -6,-7.679 -4.081,-5.76 -0.719,-1.2 -2.881,-4.559 -1.68,-3.121 -0.96,-1.439 -3.84,-6.72 -3.841,-7.919 -4.08,-14.159 -0.96,-6 V 6 4.08 -7.919 l 0.48,-4.32 0.48,-3.84 1.2,-4.56 1.441,-4.079 1.68,-3.84 1.679,-2.4 2.401,-2.64 2.64,-2.4 3.12,-1.679 3.84,-1.2 2.64,-0.481 4.081,-0.239 4.32,0.72 3.841,1.2 2.88,1.439 3.12,1.92 4.8,3.6 3.12,2.88 3.36,3.839 2.161,2.88 2.4,3.6 3.12,5.519 2.641,5.52 1.679,3.84 1.441,3.12 9.841,24.718 5.28,10.799 0.96,2.4 0.96,4.08 0.48,7.44 0.96,5.999 v 2.16 l -0.72,4.32 -1.44,5.039 -1.2,3.36 -2.641,5.28 -0.719,1.919 v 2.16 l 0.719,3.6 v 2.16 l -0.479,4.56 0.239,2.159 0.24,1.2 0.241,0.24 0.719,1.44 3.601,6.239 2.4,3.121 5.281,4.799 1.919,2.4 1.441,2.4 0.479,1.92 0.481,2.4 v 0.959 2.4 l -0.481,2.16 -0.479,1.2 -0.721,0.72 -1.68,0.96 -1.919,0.48 h -0.721 -1.92 l -2.88,-0.24 h -1.2 l -1.2,0.48 -0.72,0.96 -0.481,2.16 -0.24,5.039 0.24,4.08 0.721,6.72 0.48,3.119 0.48,1.92 1.2,2.64 1.2,2.4 1.44,1.92 0.24,0.48 0.96,0.96"
       style="fill:none;stroke:#c8b3fc;stroke-width:1.92;stroke-linecap:round;stroke-linejoin:round;stroke-miterlimit:10;stroke-dasharray:none;stroke-opacity:1"
       transform="matrix(1.3333333,0,0,-1.3333333,212.474,387.80547)" />
    <path
       id="path7"
       d="m 0,0 h 1.68 l 1.68,0.24 5.521,0.48 3.6,0.96 2.88,0.96 0.48,0.24 2.64,1.2 2.881,1.92 2.4,1.919 2.16,2.16 1.44,1.68 0.48,0.48 2.4,3.6 1.68,2.88 0.721,1.679 0.48,0.96 1.919,5.04 0.961,2.64 0.48,1.2 0.96,1.2 0.72,0.48 1.2,0.479 3.6,0.241 1.2,0.24 2.4,0.479 2.4,1.201 2.641,1.679 2.88,2.4 1.2,0.96 1.44,1.44 4.8,4.56 4.561,4.32 7.44,6.479 8.881,6.959 16.321,12.24 4.321,3.599 3.599,3.6 2.641,2.88 3.601,4.8 2.639,4.319 1.681,3.6 5.04,14.879 0.72,1.44 2.16,4.08 0.96,2.399 0.72,2.4 -0.24,5.76 0.48,4.56 1.68,7.199 v 0.24 l 0.96,0.96"
       style="fill:none;stroke:#b3fcfc;stroke-width:1.92;stroke-linecap:round;stroke-linejoin:round;stroke-miterlimit:10;stroke-dasharray:none;stroke-opacity:1"
       transform="matrix(1.3333333,0,0,-1.3333333,209.59373,363.80733)" />
    <path
       id="path8"
       d="m 0,0 -1.92,-3.12 -2.4,-4.079 -3.6,-7.2 -0.961,-2.88 -0.24,-0.959 -0.96,-3.84 -0.72,-3.6 v -2.64 l 0.24,-0.48 0.24,-1.92 0.96,-2.639 3.12,-1.92 1.2,-0.48 0.48,-0.24 h 0.48 L 0,-37.197 h 0.24 l 4.32,-0.72 3.84,-0.24 4.561,-0.24 4.8,0.24 3.6,0.48 3.601,0.72 3.36,1.2 10.561,4.32 2.639,1.439 2.401,1.68 2.4,1.92 1.441,1.68 2.16,2.88 4.32,7.199 2.4,4.32 1.92,4.08 1.201,3.84 0.719,3.599 1.441,11.279 0.72,6.72 v 1.2 4.08 l -0.481,3.839 -1.2,4.8 -0.96,1.92 -1.92,3.12 -1.44,1.44 -1.68,1.199 -2.16,0.96 -1.92,0.72 -1.681,0.24 h -1.92 -0.24 l -2.399,-0.24 -2.401,-0.48 -2.88,-0.96 -2.64,-0.96 -3.12,-1.68 -5.281,-3.599 -3.36,-2.64 -0.72,-0.72 -1.68,-1.44 -5.281,-5.999 -2.4,-2.88 -3.6,-4.8 L 7.92,11.52 5.521,7.919 0,0"
       style="fill:none;stroke:#b3fcfc;stroke-width:1.92;stroke-linecap:round;stroke-linejoin:round;stroke-miterlimit:10;stroke-dasharray:none;stroke-opacity:1"
       transform="matrix(1.3333333,0,0,-1.3333333,273.91853,340.44933)" />
    <path
       id="path9"
       d="m 0,0 1.92,0.24 1.92,0.24 4.56,1.2 5.281,2.16 5.28,3.36 4.32,3.36 3.121,3.119 1.92,2.4 0.48,0.72 2.88,4.079 v 0.96 l 0.48,-0.239 2.16,3.119 2.16,2.64 1.681,1.2 0.96,0.96 5.04,2.4 1.68,0.96 1.68,0.96 3.36,2.64 4.321,3.839 14.881,13.919 4.32,4.08 11.281,10.319 4.32,4.08 0.48,0.72 6.96,7.44 0.721,1.199 1.92,2.64 2.641,3.84 1.439,2.88 1.92,4.079 2.881,7.2 v 0.24 l 1.439,4.799 0.961,3.36 1.92,9.36 0.48,3.84 2.16,14.158 h 0.24"
       style="fill:none;stroke:#fcdec0;stroke-width:1.92;stroke-linecap:round;stroke-linejoin:round;stroke-miterlimit:10;stroke-dasharray:none;stroke-opacity:1"
       transform="matrix(1.3333333,0,0,-1.3333333,210.87427,357.088)" />
    <path
       id="path10"
       d="m 0,0 1.68,0.24 3.6,0.96 2.881,0.96 5.04,2.159 5.52,3.12 4.8,3.36 4.561,4.08 2.64,2.4 5.28,6.479 2.161,2.16 1.92,1.68 6.48,4.08 4.081,3.599 15.121,15.119 11.04,10.319 4.801,5.04 3.6,4.32 4.56,5.759 3.841,5.76 3.12,5.04 2.4,4.559 2.4,5.28 2.881,7.199 1.92,6 5.76,18.719 2.161,7.919"
       style="fill:none;stroke:#fcb3c7;stroke-width:1.92;stroke-linecap:round;stroke-linejoin:round;stroke-miterlimit:10;stroke-dasharray:none;stroke-opacity:1"
       transform="matrix(1.3333333,0,0,-1.3333333,209.914,354.20773)" />
    <path
       id="path11"
       d="m 0,0 2.4,3.84 2.161,3.839 0.96,1.68 H 5.28 l 0.48,0.72 2.16,2.88 4.561,4.56 4.56,3.359 5.761,3.36 2.64,1.2 2.88,0.96 2.88,0.24 h 1.441 l 1.439,-0.48 0.961,-0.96 0.96,-1.2 0.479,-1.2 0.241,-1.44 0.24,-1.92 -0.24,-1.919 -0.72,-3.12 -1.2,-3.12 -1.92,-3.36 -4.081,-5.999 -7.68,-9.12 -3.361,-3.36 -3.6,-3.359 -0.96,-0.72 -6.241,-4.8 -1.68,-1.2 -0.719,-0.48 -2.641,-1.679 -3.12,-1.681 -1.44,-0.959 -3.6,-1.44 -3.121,-0.96 h -1.2 -1.2 l -0.72,0.48 -0.24,0.48 v 1.2 0.96 l 0.24,0.239 0.96,3.121 v 0.239 l 0.48,0.72 1.68,4.32 0.48,0.48 0.72,1.68 0.241,0.72 0.48,0.72 0.48,0.72 1.2,2.159 1.44,2.641 1.2,1.919 L 0,0"
       style="fill:none;stroke:#fcb3c7;stroke-width:1.92;stroke-linecap:round;stroke-linejoin:round;stroke-miterlimit:10;stroke-dasharray:none;stroke-opacity:1"
       transform="matrix(1.3333333,0,0,-1.3333333,286.71933,325.08987)" />
    <path
       id="path12"
       d="M 0,0 H 0.24 L 0.48,-0.24 H 0.72 0.96 L 1.2,-0.48 H 1.44 1.68 1.92 L 2.16,-0.72 H 2.4 2.64 2.88 L 3.12,-0.96 H 3.36 3.601 3.84 4.081 L 4.32,-1.2 H 4.561 4.8 5.041 5.28 5.521 l 0.24,-0.24 H 6 6.241 6.48 6.721 6.96 7.201 7.44 7.681 l 0.24,-0.24 h 0.24 0.24 0.24 0.24 0.24 0.24 0.24 0.24 0.24 0.24 0.24 0.24 0.24 0.24 0.24 0.24 0.24 0.24 0.24 0.24 0.24 0.24 l 0.24,0.24 h 0.24 0.24 0.24 0.24 0.24 0.24 0.24 0.24 l 0.24,0.24 h 0.24 0.24 0.24 0.241 0.239 l 0.241,0.24 h 0.239 0.24 0.24 0.24 l 0.24,0.24 h 0.24 0.241 0.239 l 0.241,0.24 h 0.239 0.241 0.239 l 0.241,0.24 h 0.239 0.241 L 20.882,0 h 0.24 0.24 l 0.24,0.24 h 0.24 0.24 l 0.24,0.24 h 0.24 0.24 l 0.24,0.24 h 0.24 l 0.24,0.239 h 0.24 0.24 l 0.24,0.241 h 0.24 l 0.24,0.24 h 0.24 l 0.24,0.24 h 0.24 l 0.24,0.239 h 0.24 l 0.24,0.241 h 0.24 l 0.24,0.24 h 0.24 l 0.24,0.24 h 0.24 l 0.24,0.239 h 0.24 l 0.24,0.241 0.24,0.239 h 0.24 l 0.24,0.241 0.24,0.239 h 0.24 l 0.24,0.241 h 0.24 l 0.24,0.239 0.24,0.241 0.24,0.239 h 0.24 l 0.24,0.241 0.24,0.239 0.24,0.241 h 0.24 l 0.24,0.239 0.241,0.241 0.239,0.239 0.241,0.24 h 0.239 l 0.241,0.24 0.239,0.24 0.241,0.24 0.239,0.24 0.241,0.24 0.24,0.24 0.24,0.24 0.24,0.24 0.239,0.24 0.241,0.24 0.239,0.24 0.241,0.24 0.239,0.24 0.241,0.24 0.24,0.24 0.24,0.24 v 0.24 l 0.24,0.24 0.24,0.24 0.24,0.24 0.24,0.24 v 0.24 l 0.24,0.24 0.24,0.24 0.24,0.24 v 0.24 l 0.24,0.24 0.24,0.24 0.24,0.24 v 0.24 l 0.24,0.24 v 0.24 l 0.24,0.24 0.24,0.24 v 0.24 l 0.24,0.24 0.24,0.24 v 0.24 l 0.24,0.24 v 0.24 l 0.24,0.24 v 0.24 l 0.24,0.24 v 0.24 l 0.24,0.24 v 0.24 l 0.24,0.239 v 0.241 l 0.24,0.24 v 0.24 l 0.24,0.239 v 0.24 l 0.24,0.241 v 0.239 0.24 l 0.24,0.24 v 0.24 l 0.24,0.24 v 0.24"
       style="fill:none;stroke:#ff0000;stroke-width:1.92;stroke-linecap:round;stroke-linejoin:round;stroke-miterlimit:10;stroke-dasharray:none;stroke-opacity:1"
       transform="matrix(1.3333333,0,0,-1.3333333,208.95373,199.97853)" />
    <path
       id="path13"
       d="M 0,0 -5.52,226.784"
       style="fill:none;stroke:#ff2600;stroke-width:1.44;stroke-linecap:round;stroke-linejoin:round;stroke-miterlimit:10;stroke-dasharray:none;stroke-opacity:1"
       transform="matrix(1.3333333,0,0,-1.3333333,218.87427,502.99747)" />
    <path
       id="path14"
       d="M 0,0 -12.001,226.544"
       style="fill:none;stroke:#ff2600;stroke-width:1.44;stroke-linecap:round;stroke-linejoin:round;stroke-miterlimit:10;stroke-dasharray:none;stroke-opacity:1"
       transform="matrix(1.3333333,0,0,-1.3333333,230.07547,503.31773)" />
    <path
       id="path15"
       d="M 0,0 -18.481,225.824"
       style="fill:none;stroke:#ff2600;stroke-width:1.44;stroke-linecap:round;stroke-linejoin:round;stroke-miterlimit:10;stroke-dasharray:none;stroke-opacity:1"
       transform="matrix(1.3333333,0,0,-1.3333333,241.276,502.99747)" />
    <path
       id="path16"
       d="M 0,0 -25.202,225.584"
       style="fill:none;stroke:#ff8400;stroke-width:1.44;stroke-linecap:round;stroke-linejoin:round;stroke-miterlimit:10;stroke-dasharray:none;stroke-opacity:1"
       transform="matrix(1.3333333,0,0,-1.3333333,252.7968,502.6772)" />
    <path
       id="path17"
       d="M 0,0 -31.442,224.624"
       style="fill:none;stroke:#ff8400;stroke-width:1.44;stroke-linecap:round;stroke-linejoin:round;stroke-miterlimit:10;stroke-dasharray:none;stroke-opacity:1"
       transform="matrix(1.3333333,0,0,-1.3333333,263.998,501.71747)" />
    <path
       id="path18"
       d="M 0,0 -37.923,223.664"
       style="fill:none;stroke:#ff8400;stroke-width:1.44;stroke-linecap:round;stroke-linejoin:round;stroke-miterlimit:10;stroke-dasharray:none;stroke-opacity:1"
       transform="matrix(1.3333333,0,0,-1.3333333,275.19853,500.4376)" />
    <path
       id="path19"
       d="M 0,0 -44.643,222.465"
       style="fill:none;stroke:#ff8400;stroke-width:1.44;stroke-linecap:round;stroke-linejoin:round;stroke-miterlimit:10;stroke-dasharray:none;stroke-opacity:1"
       transform="matrix(1.3333333,0,0,-1.3333333,286.71933,498.51827)" />
    <path
       id="path20"
       d="M 0,0 -50.884,221.025"
       style="fill:none;stroke:#ffd900;stroke-width:1.44;stroke-linecap:round;stroke-linejoin:round;stroke-miterlimit:10;stroke-dasharray:none;stroke-opacity:1"
       transform="matrix(1.3333333,0,0,-1.3333333,297.60027,496.27867)" />
    <path
       id="path21"
       d="M 0,0 -57.364,219.345"
       style="fill:none;stroke:#c5db00;stroke-width:1.44;stroke-linecap:round;stroke-linejoin:round;stroke-miterlimit:10;stroke-dasharray:none;stroke-opacity:1"
       transform="matrix(1.3333333,0,0,-1.3333333,308.8008,493.7188)" />
    <path
       id="path22"
       d="M 0,0 -63.604,217.665"
       style="fill:none;stroke:#619900;stroke-width:1.44;stroke-linecap:round;stroke-linejoin:round;stroke-miterlimit:10;stroke-dasharray:none;stroke-opacity:1"
       transform="matrix(1.3333333,0,0,-1.3333333,319.6816,490.83867)" />
    <path
       id="path23"
       d="M 0,0 -71.765,215.025"
       style="fill:none;stroke:#006100;stroke-width:1.44;stroke-linecap:round;stroke-linejoin:round;stroke-miterlimit:10;stroke-dasharray:none;stroke-opacity:1"
       transform="matrix(1.3333333,0,0,-1.3333333,333.12307,486.6784)" />
    <path
       id="path24"
       d="M 0,0 -84.006,210.706"
       style="fill:none;stroke:#006100;stroke-width:1.44;stroke-linecap:round;stroke-linejoin:round;stroke-miterlimit:10;stroke-dasharray:none;stroke-opacity:1"
       transform="matrix(1.3333333,0,0,-1.3333333,352.00453,479.95973)" />
    <path
       id="path25"
       d="M 0,0 -96.007,205.666"
       style="fill:none;stroke:#c5db00;stroke-width:1.44;stroke-linecap:round;stroke-linejoin:round;stroke-miterlimit:10;stroke-dasharray:none;stroke-opacity:1"
       transform="matrix(1.3333333,0,0,-1.3333333,370.56573,471.95973)" />
    <path
       id="path26"
       d="M 0,0 -107.768,199.666"
       style="fill:none;stroke:#ffd900;stroke-width:1.44;stroke-linecap:round;stroke-linejoin:round;stroke-miterlimit:10;stroke-dasharray:none;stroke-opacity:1"
       transform="matrix(1.3333333,0,0,-1.3333333,388.48627,463)" />
    <path
       id="path27"
       d="M 0,0 -119.048,192.947"
       style="fill:none;stroke:#ffd900;stroke-width:1.44;stroke-linecap:round;stroke-linejoin:round;stroke-miterlimit:10;stroke-dasharray:none;stroke-opacity:1"
       transform="matrix(1.3333333,0,0,-1.3333333,405.7676,452.76173)" />
    <path
       id="path28"
       d="M 0,0 -128.409,186.947"
       style="fill:none;stroke:#ffd900;stroke-width:1.44;stroke-linecap:round;stroke-linejoin:round;stroke-miterlimit:10;stroke-dasharray:none;stroke-opacity:1"
       transform="matrix(1.3333333,0,0,-1.3333333,420.48893,443.16147)" />
    <path
       id="path29"
       d="M 0,0 -133.69,183.347"
       style="fill:none;stroke:#c5db00;stroke-width:1.44;stroke-linecap:round;stroke-linejoin:round;stroke-miterlimit:10;stroke-dasharray:none;stroke-opacity:1"
       transform="matrix(1.3333333,0,0,-1.3333333,429.77013,436.76173)" />
    <path
       id="path30"
       d="M 0,0 -138.97,179.268"
       style="fill:none;stroke:#619900;stroke-width:1.44;stroke-linecap:round;stroke-linejoin:round;stroke-miterlimit:10;stroke-dasharray:none;stroke-opacity:1"
       transform="matrix(1.3333333,0,0,-1.3333333,438.72973,429.72267)" />
    <path
       id="path31"
       d="M 0,0 -144.01,175.188"
       style="fill:none;stroke:#619900;stroke-width:1.44;stroke-linecap:round;stroke-linejoin:round;stroke-miterlimit:10;stroke-dasharray:none;stroke-opacity:1"
       transform="matrix(1.3333333,0,0,-1.3333333,447.3704,422.36333)" />
    <path
       id="path32"
       d="M 0,0 -149.05,170.868"
       style="fill:none;stroke:#006100;stroke-width:1.44;stroke-linecap:round;stroke-linejoin:round;stroke-miterlimit:10;stroke-dasharray:none;stroke-opacity:1"
       transform="matrix(1.3333333,0,0,-1.3333333,456.01107,414.6836)" />
    <path
       id="path33"
       d="M 0,0 -154.09,166.548"
       style="fill:none;stroke:#006100;stroke-width:1.44;stroke-linecap:round;stroke-linejoin:round;stroke-miterlimit:10;stroke-dasharray:none;stroke-opacity:1"
       transform="matrix(1.3333333,0,0,-1.3333333,464.33133,407.00467)" />
    <path
       id="path34"
       d="M 0,0 -158.651,161.989"
       style="fill:none;stroke:#006100;stroke-width:1.44;stroke-linecap:round;stroke-linejoin:round;stroke-miterlimit:10;stroke-dasharray:none;stroke-opacity:1"
       transform="matrix(1.3333333,0,0,-1.3333333,472.01227,398.68493)" />
    <path
       id="path35"
       d="M 0,0 -163.212,157.429"
       style="fill:none;stroke:#c5db00;stroke-width:1.44;stroke-linecap:round;stroke-linejoin:round;stroke-miterlimit:10;stroke-dasharray:none;stroke-opacity:1"
       transform="matrix(1.3333333,0,0,-1.3333333,479.69333,390.36533)" />
    <path
       id="path36"
       d="M 0,0 -167.772,152.629"
       style="fill:none;stroke:#c5db00;stroke-width:1.44;stroke-linecap:round;stroke-linejoin:round;stroke-miterlimit:10;stroke-dasharray:none;stroke-opacity:1"
       transform="matrix(1.3333333,0,0,-1.3333333,487.054,381.726)" />
    <path
       id="path37"
       d="M 0,0 -172.092,147.59"
       style="fill:none;stroke:#c5db00;stroke-width:1.44;stroke-linecap:round;stroke-linejoin:round;stroke-miterlimit:10;stroke-dasharray:none;stroke-opacity:1"
       transform="matrix(1.3333333,0,0,-1.3333333,494.0944,372.76693)" />
    <path
       id="path38"
       d="M 0,0 -176.413,142.79"
       style="fill:none;stroke:#c5db00;stroke-width:1.44;stroke-linecap:round;stroke-linejoin:round;stroke-miterlimit:10;stroke-dasharray:none;stroke-opacity:1"
       transform="matrix(1.3333333,0,0,-1.3333333,500.8144,363.80733)" />
    <path
       id="path39"
       d="M 0,0 -176.413,142.79"
       style="fill:none;stroke:#c5db00;stroke-width:1.44;stroke-linecap:round;stroke-linejoin:round;stroke-miterlimit:10;stroke-dasharray:none;stroke-opacity:1"
       transform="matrix(1.3333333,0,0,-1.3333333,500.8144,363.80733)" />
    <path
       id="path40"
       d="M 43.427,593.048 H 446.656 V 44.926 H 43.427 Z"
       style="fill:none;stroke:#000000;stroke-width:0.96;stroke-linecap:round;stroke-linejoin:round;stroke-miterlimit:10;stroke-dasharray:none;stroke-opacity:1"
       transform="matrix(1.3333333,0,0,-1.3333333,0,850.56)" />
    <path
       id="path41"
       d="M 0,0 V -5.04"
       style="fill:none;stroke:#000000;stroke-width:1.44;stroke-linecap:round;stroke-linejoin:round;stroke-miterlimit:10;stroke-dasharray:none;stroke-opacity:1"
       transform="matrix(1.3333333,0,0,-1.3333333,546.89773,790.6576)" />
    <text
       id="text41"
       xml:space="preserve"
       transform="matrix(1.3333333,0,0,1.3331556,511.696,813.14067)"><tspan
         id="tspan41"
         style="font-variant:normal;font-weight:normal;font-stretch:normal;font-size:12.0008px;font-family:Arial;writing-mode:lr-tb;fill:#000000;fill-opacity:1;fill-rule:nonzero;stroke:none"
         x="0"
         dx="0 -0.1920128 0 0 0 0 0.1080072 -0.1920128"
         y="0">91°29'0&quot;E</tspan></text>
    <path
       id="path42"
       d="M 0,0 V 5.04"
       style="fill:none;stroke:#000000;stroke-width:1.44;stroke-linecap:round;stroke-linejoin:round;stroke-miterlimit:10;stroke-dasharray:none;stroke-opacity:1"
       transform="matrix(1.3333333,0,0,-1.3333333,554.2584,59.8288)" />
    <text
       id="text42"
       xml:space="preserve"
       transform="matrix(1.3333333,0,0,1.3331556,519.05533,48.438933)"><tspan
         id="tspan42"
         style="font-variant:normal;font-weight:normal;font-stretch:normal;font-size:12.0008px;font-family:Arial;writing-mode:lr-tb;fill:#000000;fill-opacity:1;fill-rule:nonzero;stroke:none"
         x="0"
         dx="0 -0.1920128 0 0 0 0 0.1080072 -0.1920128"
         y="0">91°29'0&quot;E</tspan></text>
    <path
       id="path43"
       d="M 0,0 V -5.04"
       style="fill:none;stroke:#000000;stroke-width:1.44;stroke-linecap:round;stroke-linejoin:round;stroke-miterlimit:10;stroke-dasharray:none;stroke-opacity:1"
       transform="matrix(1.3333333,0,0,-1.3333333,395.52667,790.6576)" />
    <text
       id="text43"
       xml:space="preserve"
       transform="matrix(1.3333333,0,0,1.3331556,356.00453,813.14067)"><tspan
         id="tspan43"
         style="font-variant:normal;font-weight:normal;font-stretch:normal;font-size:12.0008px;font-family:Arial;writing-mode:lr-tb;fill:#000000;fill-opacity:1;fill-rule:nonzero;stroke:none"
         x="0"
         dx="0 -0.1920128 0 0 0 0 0.1080072 -0.1920128"
         y="0">91°26'40&quot;E</tspan></text>
    <path
       id="path44"
       d="M 0,0 V 5.04"
       style="fill:none;stroke:#000000;stroke-width:1.44;stroke-linecap:round;stroke-linejoin:round;stroke-miterlimit:10;stroke-dasharray:none;stroke-opacity:1"
       transform="matrix(1.3333333,0,0,-1.3333333,402.88733,59.8288)" />
    <text
       id="text44"
       xml:space="preserve"
       transform="matrix(1.3333333,0,0,1.3331556,363.3652,48.438933)"><tspan
         id="tspan44"
         style="font-variant:normal;font-weight:normal;font-stretch:normal;font-size:12.0008px;font-family:Arial;writing-mode:lr-tb;fill:#000000;fill-opacity:1;fill-rule:nonzero;stroke:none"
         x="0"
         dx="0 -0.1920128 0 0 0 0 0.1080072 -0.1920128"
         y="0">91°26'40&quot;E</tspan></text>
    <path
       id="path45"
       d="M 0,0 V -5.04"
       style="fill:none;stroke:#000000;stroke-width:1.44;stroke-linecap:round;stroke-linejoin:round;stroke-miterlimit:10;stroke-dasharray:none;stroke-opacity:1"
       transform="matrix(1.3333333,0,0,-1.3333333,243.83653,790.6576)" />
    <text
       id="text45"
       xml:space="preserve"
       transform="matrix(1.3333333,0,0,1.3331556,204.31387,813.14067)"><tspan
         id="tspan45"
         style="font-variant:normal;font-weight:normal;font-stretch:normal;font-size:12.0008px;font-family:Arial;writing-mode:lr-tb;fill:#000000;fill-opacity:1;fill-rule:nonzero;stroke:none"
         x="0"
         dx="0 -0.1920128 0 0 0 0 0.1080072 -0.1920128"
         y="0">91°24'20&quot;E</tspan></text>
    <path
       id="path46"
       d="M 0,0 V 5.04"
       style="fill:none;stroke:#000000;stroke-width:1.44;stroke-linecap:round;stroke-linejoin:round;stroke-miterlimit:10;stroke-dasharray:none;stroke-opacity:1"
       transform="matrix(1.3333333,0,0,-1.3333333,251.51693,59.8288)" />
    <text
       id="text46"
       xml:space="preserve"
       transform="matrix(1.3333333,0,0,1.3331556,211.99413,48.438933)"><tspan
         id="tspan46"
         style="font-variant:normal;font-weight:normal;font-stretch:normal;font-size:12.0008px;font-family:Arial;writing-mode:lr-tb;fill:#000000;fill-opacity:1;fill-rule:nonzero;stroke:none"
         x="0"
         dx="0 -0.1920128 0 0 0 0 0.1080072 -0.1920128"
         y="0">91°24'20&quot;E</tspan></text>
    <path
       id="path47"
       d="M 0,0 V -5.04"
       style="fill:none;stroke:#000000;stroke-width:1.44;stroke-linecap:round;stroke-linejoin:round;stroke-miterlimit:10;stroke-dasharray:none;stroke-opacity:1"
       transform="matrix(1.3333333,0,0,-1.3333333,92.465467,790.6576)" />
    <text
       id="text47"
       xml:space="preserve"
       transform="matrix(1.3333333,0,0,1.3331556,57.263067,813.14067)"><tspan
         id="tspan47"
         style="font-variant:normal;font-weight:normal;font-stretch:normal;font-size:12.0008px;font-family:Arial;writing-mode:lr-tb;fill:#000000;fill-opacity:1;fill-rule:nonzero;stroke:none"
         x="0"
         dx="0 -0.1920128 0 0 0 0 0.1080072 -0.1920128"
         y="0">91°22'0&quot;E</tspan></text>
    <path
       id="path48"
       d="M 0,0 V 5.04"
       style="fill:none;stroke:#000000;stroke-width:1.44;stroke-linecap:round;stroke-linejoin:round;stroke-miterlimit:10;stroke-dasharray:none;stroke-opacity:1"
       transform="matrix(1.3333333,0,0,-1.3333333,100.1464,59.8288)" />
    <text
       id="text48"
       xml:space="preserve"
       transform="matrix(1.3333333,0,0,1.3331556,64.944,48.438933)"><tspan
         id="tspan48"
         style="font-variant:normal;font-weight:normal;font-stretch:normal;font-size:12.0008px;font-family:Arial;writing-mode:lr-tb;fill:#000000;fill-opacity:1;fill-rule:nonzero;stroke:none"
         x="0"
         dx="0 -0.1920128 0 0 0 0 0.1080072 -0.1920128"
         y="0">91°22'0&quot;E</tspan></text>
    <path
       id="path49"
       d="M 0,0 H -5.04"
       style="fill:none;stroke:#000000;stroke-width:1.44;stroke-linecap:round;stroke-linejoin:round;stroke-miterlimit:10;stroke-dasharray:none;stroke-opacity:1"
       transform="matrix(1.3333333,0,0,-1.3333333,57.902933,150.70253)" />
    <text
       id="text49"
       xml:space="preserve"
       transform="matrix(0,-1.3333333,1.3335111,0,46.261733,190.7)"><tspan
         id="tspan49"
         style="font-variant:normal;font-weight:normal;font-stretch:normal;font-size:11.9992px;font-family:Arial;writing-mode:lr-tb;fill:#000000;fill-opacity:1;fill-rule:nonzero;stroke:none"
         x="0"
         dx="0 -0.1919872 0 0 0 0 0.1079928 -0.1919872"
         y="0">22°23'20&quot;N</tspan></text>
    <path
       id="path50"
       d="M 0,0 H 5.041"
       style="fill:none;stroke:#000000;stroke-width:1.44;stroke-linecap:round;stroke-linejoin:round;stroke-miterlimit:10;stroke-dasharray:none;stroke-opacity:1"
       transform="matrix(1.3333333,0,0,-1.3333333,595.54093,156.4616)" />
    <text
       id="text50"
       xml:space="preserve"
       transform="matrix(0,-1.3333333,1.3335111,0,618.27733,196.45973)"><tspan
         id="tspan50"
         style="font-variant:normal;font-weight:normal;font-stretch:normal;font-size:11.9992px;font-family:Arial;writing-mode:lr-tb;fill:#000000;fill-opacity:1;fill-rule:nonzero;stroke:none"
         x="0"
         dx="0 -0.1919872 0 0 0 0 0.1079928 -0.1919872"
         y="0">22°23'20&quot;N</tspan></text>
    <path
       id="path51"
       d="M 0,0 H -5.04"
       style="fill:none;stroke:#000000;stroke-width:1.44;stroke-linecap:round;stroke-linejoin:round;stroke-miterlimit:10;stroke-dasharray:none;stroke-opacity:1"
       transform="matrix(1.3333333,0,0,-1.3333333,57.902933,313.57107)" />
    <text
       id="text51"
       xml:space="preserve"
       transform="matrix(0,-1.3333333,1.3335111,0,46.261733,349.088)"><tspan
         id="tspan51"
         style="font-variant:normal;font-weight:normal;font-stretch:normal;font-size:11.9992px;font-family:Arial;writing-mode:lr-tb;fill:#000000;fill-opacity:1;fill-rule:nonzero;stroke:none"
         x="0"
         dx="0 -0.1919872 0 0 0 0 0.1079928 -0.1919872"
         y="0">22°21'0&quot;N</tspan></text>
    <path
       id="path52"
       d="M 0,0 H 5.041"
       style="fill:none;stroke:#000000;stroke-width:1.44;stroke-linecap:round;stroke-linejoin:round;stroke-miterlimit:10;stroke-dasharray:none;stroke-opacity:1"
       transform="matrix(1.3333333,0,0,-1.3333333,595.54093,319.01053)" />
    <text
       id="text52"
       xml:space="preserve"
       transform="matrix(0,-1.3333333,1.3335111,0,618.27733,354.52747)"><tspan
         id="tspan52"
         style="font-variant:normal;font-weight:normal;font-stretch:normal;font-size:11.9992px;font-family:Arial;writing-mode:lr-tb;fill:#000000;fill-opacity:1;fill-rule:nonzero;stroke:none"
         x="0"
         dx="0 -0.1919872 0 0 0 0 0.1079928 -0.1919872"
         y="0">22°21'0&quot;N</tspan></text>
    <path
       id="path53"
       d="M 0,0 H -5.04"
       style="fill:none;stroke:#000000;stroke-width:1.44;stroke-linecap:round;stroke-linejoin:round;stroke-miterlimit:10;stroke-dasharray:none;stroke-opacity:1"
       transform="matrix(1.3333333,0,0,-1.3333333,57.902933,476.11987)" />
    <text
       id="text53"
       xml:space="preserve"
       transform="matrix(0,-1.3333333,1.3335111,0,46.261733,516.11667)"><tspan
         id="tspan53"
         style="font-variant:normal;font-weight:normal;font-stretch:normal;font-size:11.9992px;font-family:Arial;writing-mode:lr-tb;fill:#000000;fill-opacity:1;fill-rule:nonzero;stroke:none"
         x="0"
         dx="0 -0.1919872 0 0 0 0 0.1079928 -0.1919872"
         y="0">22°18'40&quot;N</tspan></text>
    <path
       id="path54"
       d="M 0,0 H 5.041"
       style="fill:none;stroke:#000000;stroke-width:1.44;stroke-linecap:round;stroke-linejoin:round;stroke-miterlimit:10;stroke-dasharray:none;stroke-opacity:1"
       transform="matrix(1.3333333,0,0,-1.3333333,595.54093,481.87893)" />
    <text
       id="text54"
       xml:space="preserve"
       transform="matrix(0,-1.3333333,1.3335111,0,618.27733,521.8764)"><tspan
         id="tspan54"
         style="font-variant:normal;font-weight:normal;font-stretch:normal;font-size:11.9992px;font-family:Arial;writing-mode:lr-tb;fill:#000000;fill-opacity:1;fill-rule:nonzero;stroke:none"
         x="0"
         dx="0 -0.1919872 0 0 0 0 0.1079928 -0.1919872"
         y="0">22°18'40&quot;N</tspan></text>
    <path
       id="path55"
       d="M 0,0 H -5.04"
       style="fill:none;stroke:#000000;stroke-width:1.44;stroke-linecap:round;stroke-linejoin:round;stroke-miterlimit:10;stroke-dasharray:none;stroke-opacity:1"
       transform="matrix(1.3333333,0,0,-1.3333333,57.902933,638.98827)" />
    <text
       id="text55"
       xml:space="preserve"
       transform="matrix(0,-1.3333333,1.3335111,0,46.261733,678.98507)"><tspan
         id="tspan55"
         style="font-variant:normal;font-weight:normal;font-stretch:normal;font-size:11.9992px;font-family:Arial;writing-mode:lr-tb;fill:#000000;fill-opacity:1;fill-rule:nonzero;stroke:none"
         x="0"
         dx="0 -0.1919872 0 0 0 0 0.1079928 -0.1919872"
         y="0">22°16'20&quot;N</tspan></text>
    <path
       id="path56"
       d="M 0,0 H 5.041"
       style="fill:none;stroke:#000000;stroke-width:1.44;stroke-linecap:round;stroke-linejoin:round;stroke-miterlimit:10;stroke-dasharray:none;stroke-opacity:1"
       transform="matrix(1.3333333,0,0,-1.3333333,595.54093,644.42707)" />
    <text
       id="text56"
       xml:space="preserve"
       transform="matrix(0,-1.3333333,1.3335111,0,618.27667,684.42587)"><tspan
         id="tspan56"
         style="font-variant:normal;font-weight:normal;font-stretch:normal;font-size:11.9992px;font-family:Arial;writing-mode:lr-tb;fill:#000000;fill-opacity:1;fill-rule:nonzero;stroke:none"
         x="0"
         dx="0 -0.1919872 0 0 0 0 0.1079928 -0.1919872"
         y="0">22°16'20&quot;N</tspan></text>
    <path
       id="path57"
       d="M 43.427,593.048 H 446.656 V 44.926 H 43.427 Z"
       style="fill:none;stroke:#000000;stroke-width:1.44;stroke-linecap:round;stroke-linejoin:round;stroke-miterlimit:10;stroke-dasharray:none;stroke-opacity:1"
       transform="matrix(1.3333333,0,0,-1.3333333,0,850.56)" />
    <text
       id="text57"
       xml:space="preserve"
       transform="matrix(1.3333333,0,0,1.3331456,527.696,158.062)"><tspan
         id="tspan57"
         style="font-variant:normal;font-weight:normal;font-stretch:normal;font-size:69.6049px;font-family:'ESRI North';writing-mode:lr-tb;fill:#000000;fill-opacity:1;fill-rule:nonzero;stroke:none"
         x="0"
         y="0">±</tspan></text>
    <path
       id="path58"
       d="M 0,0 H 60.964"
       style="fill:none;stroke:#ad2b00;stroke-width:1.92;stroke-linecap:round;stroke-linejoin:round;stroke-miterlimit:10;stroke-dasharray:none;stroke-opacity:1"
       transform="matrix(1.3333333,0,0,-1.3333333,115.18747,563.79307)" />
    <text
       id="text58"
       xml:space="preserve"
       transform="matrix(1.3333333,0,0,1.3331418,117.42773,551.31387)"><tspan
         id="tspan58"
         style="font-variant:normal;font-weight:700;font-stretch:normal;font-size:13.921px;font-family:Arial;writing-mode:lr-tb;fill:#000000;fill-opacity:1;fill-rule:nonzero;stroke:none"
         x="0"
         dx="0 0 0 0.18097299 0 0 0.20881499 -0.111368"
         y="0">Baseline</tspan><tspan
         id="tspan59"
         style="font-variant:normal;font-weight:700;font-stretch:normal;font-size:13.921px;font-family:Arial;writing-mode:lr-tb;fill:#000000;fill-opacity:1;fill-rule:nonzero;stroke:none"
         x="-4.7888241"
         dx="0 0 0.13921 -0.111368 0.111368 0.18097299 0 0 0.13921"
         y="26.644794">shoreline</tspan></text>
    <text
       id="text59"
       xml:space="preserve"
       transform="matrix(1.3333333,0,0,1.3331459,317.12173,104.11733)"><tspan
         id="tspan60"
         style="font-variant:normal;font-weight:700;font-stretch:normal;font-size:19.9214px;font-family:Arial;writing-mode:lr-tb;fill:#000000;fill-opacity:1;fill-rule:nonzero;stroke:none"
         x="0"
         y="0">D</tspan></text>
    <path
       id="path60"
       d="M 0,0 H 30.002"
       style="fill:none;stroke:#c0c0c0;stroke-width:0.96;stroke-linecap:round;stroke-linejoin:round;stroke-miterlimit:10;stroke-dasharray:9.375, 15;stroke-dashoffset:0;stroke-opacity:1"
       transform="matrix(1.3333333,0,0,-1.3333333,331.5228,739.78133)" />
    <text
       id="text60"
       xml:space="preserve"
       transform="matrix(1.3333333,0,0,1.3331556,378.56573,745.8608)"><tspan
         id="tspan61"
         style="font-variant:normal;font-weight:normal;font-stretch:normal;font-size:12.0008px;font-family:Arial;writing-mode:lr-tb;fill:#000000;fill-opacity:1;fill-rule:nonzero;stroke:none"
         x="0"
         y="0">NULL</tspan></text>
    <text
       id="text61"
       xml:space="preserve"
       transform="matrix(1.3333333,0,0,1.3331358,433.61,744.9012)"><tspan
         id="tspan62"
         style="font-style:italic;font-variant:normal;font-weight:normal;font-stretch:normal;font-size:10.8008px;font-family:Arial;writing-mode:lr-tb;fill:#000000;fill-opacity:1;fill-rule:nonzero;stroke:none"
         x="0"
         dx="0 0.1188088 0 0.1188088 0 0.1188088 0.2376176 0 0.1188088 0.1188088 0.1188088 0 0.2376176 -0.1188088 0.2376176 0 0.2376176 0.1188088 0 0.2376176"
         y="0">Rate not calculated </tspan><tspan
         id="tspan63"
         style="font-style:italic;font-variant:normal;font-weight:normal;font-stretch:normal;font-size:10.8008px;font-family:Arial;writing-mode:lr-tb;fill:#000000;fill-opacity:1;fill-rule:nonzero;stroke:none"
         x="0.0324024"
         dx="0 0 0.1188088 0.1188088 -0.1188088 0.2376176 0 0.1188088 0.1188088 0.1188088 0 0 0.2376176 0.1188088 0 0.1188088"
         y="12.723342">at this transect</tspan></text>
    <text
       id="text63"
       xml:space="preserve"
       transform="matrix(1.3333333,0,0,1.3331482,331.5228,556.43373)"><tspan
         id="tspan64"
         style="font-variant:normal;font-weight:700;font-stretch:normal;font-size:12.9609px;font-family:Arial;writing-mode:lr-tb;fill:#000000;fill-opacity:1;fill-rule:nonzero;stroke:none"
         x="0"
         dx="0 0 0 0 0 0 0.2332962"
         y="0">NSM(meter)</tspan></text>
    <path
       id="path64"
       d="M 0,0 H 30.002"
       style="fill:none;stroke:#006100;stroke-width:1.44;stroke-linecap:round;stroke-linejoin:round;stroke-miterlimit:10;stroke-dasharray:none;stroke-opacity:1"
       transform="matrix(1.3333333,0,0,-1.3333333,331.5228,576.9128)" />
    <text
       id="text64"
       xml:space="preserve"
       transform="matrix(1.3333333,0,0,1.3331556,378.56573,582.99227)"><tspan
         id="tspan65"
         style="font-variant:normal;font-weight:normal;font-stretch:normal;font-size:12.0008px;font-family:Arial;writing-mode:lr-tb;fill:#000000;fill-opacity:1;fill-rule:nonzero;stroke:none"
         x="0"
         dx="0 -0.1920128 0 0 0 0 0 0 -0.1920128 0 0 0 0 0.084005602 -0.2160144 0 0 0 0 0 0 0 -0.1920128"
         y="0">1687.500000 - 1763.31000</tspan></text>
    <path
       id="path65"
       d="M 0,0 H 30.002"
       style="fill:none;stroke:#619900;stroke-width:1.44;stroke-linecap:round;stroke-linejoin:round;stroke-miterlimit:10;stroke-dasharray:none;stroke-opacity:1"
       transform="matrix(1.3333333,0,0,-1.3333333,331.5228,604.11067)" />
    <text
       id="text65"
       xml:space="preserve"
       transform="matrix(1.3333333,0,0,1.3331556,378.56573,610.19027)"><tspan
         id="tspan66"
         style="font-variant:normal;font-weight:normal;font-stretch:normal;font-size:12.0008px;font-family:Arial;writing-mode:lr-tb;fill:#000000;fill-opacity:1;fill-rule:nonzero;stroke:none"
         x="0"
         dx="0 -0.1920128 0 0 0 0 0 0 -0.1920128 0 0 0 0 0.084005602 -0.2160144 0 0 0 0 0 0 0 -0.1920128"
         y="0">1763.310001 - 1929.770000</tspan></text>
    <path
       id="path66"
       d="M 0,0 H 30.002"
       style="fill:none;stroke:#c5db00;stroke-width:1.44;stroke-linecap:round;stroke-linejoin:round;stroke-miterlimit:10;stroke-dasharray:none;stroke-opacity:1"
       transform="matrix(1.3333333,0,0,-1.3333333,331.5228,631.30867)" />
    <text
       id="text66"
       xml:space="preserve"
       transform="matrix(1.3333333,0,0,1.3331556,378.56573,637.38813)"><tspan
         id="tspan67"
         style="font-variant:normal;font-weight:normal;font-stretch:normal;font-size:12.0008px;font-family:Arial;writing-mode:lr-tb;fill:#000000;fill-opacity:1;fill-rule:nonzero;stroke:none"
         x="0"
         dx="0 -0.1920128 0 0 0 0 0 0 -0.1920128 0 0 0 0 0.084005602 -0.2160144 0 0 0 0 0 0 0 -0.1920128"
         y="0">1929.770001 - 2054.890000</tspan></text>
    <path
       id="path67"
       d="M 0,0 H 30.002"
       style="fill:none;stroke:#ffd900;stroke-width:1.44;stroke-linecap:round;stroke-linejoin:round;stroke-miterlimit:10;stroke-dasharray:none;stroke-opacity:1"
       transform="matrix(1.3333333,0,0,-1.3333333,331.5228,658.50653)" />
    <text
       id="text67"
       xml:space="preserve"
       transform="matrix(1.3333333,0,0,1.3331556,378.56573,664.586)"><tspan
         id="tspan68"
         style="font-variant:normal;font-weight:normal;font-stretch:normal;font-size:12.0008px;font-family:Arial;writing-mode:lr-tb;fill:#000000;fill-opacity:1;fill-rule:nonzero;stroke:none"
         x="0"
         dx="0 -0.1920128 0 0 0 0 0 0 -0.1920128 0 0 0 0 0.084005602 -0.2160144 0 0 0 0 0 0 0 -0.1920128"
         y="0">2054.890001 - 2208.040000</tspan></text>
    <path
       id="path68"
       d="M 0,0 H 30.002"
       style="fill:none;stroke:#ff8400;stroke-width:1.44;stroke-linecap:round;stroke-linejoin:round;stroke-miterlimit:10;stroke-dasharray:none;stroke-opacity:1"
       transform="matrix(1.3333333,0,0,-1.3333333,331.5228,685.38547)" />
    <text
       id="text68"
       xml:space="preserve"
       transform="matrix(1.3333333,0,0,1.3331556,378.56573,691.46493)"><tspan
         id="tspan69"
         style="font-variant:normal;font-weight:normal;font-stretch:normal;font-size:12.0008px;font-family:Arial;writing-mode:lr-tb;fill:#000000;fill-opacity:1;fill-rule:nonzero;stroke:none"
         x="0"
         dx="0 -0.1920128 0 0 0 0 0 0 -0.1920128 0 0 0 0 0.084005602 -0.2160144 0 0 0 0 0 0 0 -0.1920128"
         y="0">2208.040001 - 3274.950000</tspan></text>
    <path
       id="path69"
       d="M 0,0 H 30.002"
       style="fill:none;stroke:#ff2600;stroke-width:1.44;stroke-linecap:round;stroke-linejoin:round;stroke-miterlimit:10;stroke-dasharray:none;stroke-opacity:1"
       transform="matrix(1.3333333,0,0,-1.3333333,331.5228,712.58333)" />
    <text
       id="text69"
       xml:space="preserve"
       transform="matrix(1.3333333,0,0,1.3331556,378.56573,718.6628)"><tspan
         id="tspan70"
         style="font-variant:normal;font-weight:normal;font-stretch:normal;font-size:12.0008px;font-family:Arial;writing-mode:lr-tb;fill:#000000;fill-opacity:1;fill-rule:nonzero;stroke:none"
         x="0"
         dx="0 -0.1920128 0 0 0 0 0 0 -0.1920128 0 0 0 0 0.084005602 -0.2160144 0 0 0 0 0 0 0 -0.1920128"
         y="0">3274.950001 - 3668.740000</tspan></text>
    <path
       id="path70"
       d="M 0,0 H 30.002"
       style="fill:none;stroke:#d7fcd9;stroke-width:1.92;stroke-linecap:round;stroke-linejoin:round;stroke-miterlimit:10;stroke-dasharray:none;stroke-opacity:1"
       transform="matrix(1.3333333,0,0,-1.3333333,114.2272,607.95053)" />
    <text
       id="text70"
       xml:space="preserve"
       transform="matrix(1.3333333,0,0,1.3331556,161.59053,614.03)"><tspan
         id="tspan71"
         style="font-variant:normal;font-weight:normal;font-stretch:normal;font-size:12.0008px;font-family:Arial;writing-mode:lr-tb;fill:#000000;fill-opacity:1;fill-rule:nonzero;stroke:none"
         x="0"
         dx="0 -0.1920128"
         y="0">2005</tspan></text>
    <path
       id="path71"
       d="M 0,0 H 30.002"
       style="fill:none;stroke:#c9fcb3;stroke-width:1.92;stroke-linecap:round;stroke-linejoin:round;stroke-miterlimit:10;stroke-dasharray:none;stroke-opacity:1"
       transform="matrix(1.3333333,0,0,-1.3333333,114.2272,635.14853)" />
    <text
       id="text71"
       xml:space="preserve"
       transform="matrix(1.3333333,0,0,1.3331556,161.59053,641.228)"><tspan
         id="tspan72"
         style="font-variant:normal;font-weight:normal;font-stretch:normal;font-size:12.0008px;font-family:Arial;writing-mode:lr-tb;fill:#000000;fill-opacity:1;fill-rule:nonzero;stroke:none"
         x="0"
         dx="0 -0.1920128"
         y="0">2008</tspan></text>
    <path
       id="path72"
       d="M 0,0 H 30.002"
       style="fill:none;stroke:#d2dffc;stroke-width:1.92;stroke-linecap:round;stroke-linejoin:round;stroke-miterlimit:10;stroke-dasharray:none;stroke-opacity:1"
       transform="matrix(1.3333333,0,0,-1.3333333,114.2272,662.3464)" />
    <text
       id="text72"
       xml:space="preserve"
       transform="matrix(1.3333333,0,0,1.3331556,161.59053,668.42587)"><tspan
         id="tspan73"
         style="font-variant:normal;font-weight:normal;font-stretch:normal;font-size:12.0008px;font-family:Arial;writing-mode:lr-tb;fill:#000000;fill-opacity:1;fill-rule:nonzero;stroke:none"
         x="0"
         dx="0 -0.1920128 0 -0.9120608"
         y="0">2011</tspan></text>
    <path
       id="path73"
       d="M 0,0 H 30.002"
       style="fill:none;stroke:#c8b3fc;stroke-width:1.92;stroke-linecap:round;stroke-linejoin:round;stroke-miterlimit:10;stroke-dasharray:none;stroke-opacity:1"
       transform="matrix(1.3333333,0,0,-1.3333333,114.2272,689.54427)" />
    <text
       id="text73"
       xml:space="preserve"
       transform="matrix(1.3333333,0,0,1.3331556,161.59053,695.62387)"><tspan
         id="tspan74"
         style="font-variant:normal;font-weight:normal;font-stretch:normal;font-size:12.0008px;font-family:Arial;writing-mode:lr-tb;fill:#000000;fill-opacity:1;fill-rule:nonzero;stroke:none"
         x="0"
         dx="0 -0.1920128"
         y="0">2014</tspan></text>
    <path
       id="path74"
       d="M 0,0 H 30.002"
       style="fill:none;stroke:#b3fcfc;stroke-width:1.92;stroke-linecap:round;stroke-linejoin:round;stroke-miterlimit:10;stroke-dasharray:none;stroke-opacity:1"
       transform="matrix(1.3333333,0,0,-1.3333333,114.2272,716.74227)" />
    <text
       id="text74"
       xml:space="preserve"
       transform="matrix(1.3333333,0,0,1.3331556,161.59053,722.82173)"><tspan
         id="tspan75"
         style="font-variant:normal;font-weight:normal;font-stretch:normal;font-size:12.0008px;font-family:Arial;writing-mode:lr-tb;fill:#000000;fill-opacity:1;fill-rule:nonzero;stroke:none"
         x="0"
         dx="0 -0.1920128"
         y="0">2017</tspan></text>
    <path
       id="path75"
       d="M 0,0 H 30.002"
       style="fill:none;stroke:#fcdec0;stroke-width:1.92;stroke-linecap:round;stroke-linejoin:round;stroke-miterlimit:10;stroke-dasharray:none;stroke-opacity:1"
       transform="matrix(1.3333333,0,0,-1.3333333,114.2272,743.6212)" />
    <text
       id="text75"
       xml:space="preserve"
       transform="matrix(1.3333333,0,0,1.3331556,161.59053,749.70067)"><tspan
         id="tspan76"
         style="font-variant:normal;font-weight:normal;font-stretch:normal;font-size:12.0008px;font-family:Arial;writing-mode:lr-tb;fill:#000000;fill-opacity:1;fill-rule:nonzero;stroke:none"
         x="0"
         dx="0 -0.1920128"
         y="0">2020</tspan></text>
    <path
       id="path76"
       d="M 0,0 H 30.002"
       style="fill:none;stroke:#fcb3c7;stroke-width:1.92;stroke-linecap:round;stroke-linejoin:round;stroke-miterlimit:10;stroke-dasharray:none;stroke-opacity:1"
       transform="matrix(1.3333333,0,0,-1.3333333,114.2272,770.81907)" />
    <text
       id="text76"
       xml:space="preserve"
       transform="matrix(1.3333333,0,0,1.3331556,161.59053,776.89853)"><tspan
         id="tspan77"
         style="font-variant:normal;font-weight:normal;font-stretch:normal;font-size:12.0008px;font-family:Arial;writing-mode:lr-tb;fill:#000000;fill-opacity:1;fill-rule:nonzero;stroke:none"
         x="0"
         dx="0 -0.1920128"
         y="0">2023</tspan></text>
  </g>
</svg>
