<?xml version="1.0" encoding="UTF-8" standalone="no"?>
<!-- Created with Inkscape (http://www.inkscape.org/) -->

<svg
   version="1.1"
   id="svg1"
   width="653.38666"
   height="850.56"
   viewBox="0 0 653.38666 850.56"
   sodipodi:docname="EPR_A.pdf"
   xmlns:inkscape="http://www.inkscape.org/namespaces/inkscape"
   xmlns:sodipodi="http://sodipodi.sourceforge.net/DTD/sodipodi-0.dtd"
   xmlns="http://www.w3.org/2000/svg"
   xmlns:svg="http://www.w3.org/2000/svg">
  <defs
     id="defs1">
    <clipPath
       clipPathUnits="userSpaceOnUse"
       id="clipPath2">
      <path
         d="M 0,0 H 490.04 V 637.92 H 0 Z"
         id="path2" />
    </clipPath>
  </defs>
  <sodipodi:namedview
     id="namedview1"
     pagecolor="#ffffff"
     bordercolor="#000000"
     borderopacity="0.25"
     inkscape:showpageshadow="2"
     inkscape:pageopacity="0.0"
     inkscape:pagecheckerboard="0"
     inkscape:deskcolor="#d1d1d1">
    <inkscape:page
       x="0"
       y="0"
       inkscape:label="1"
       id="page1"
       width="653.38666"
       height="850.56"
       margin="0"
       bleed="0" />
  </sodipodi:namedview>
  <g
     id="layer-MC0"
     inkscape:groupmode="layer"
     inkscape:label="Layer 1">
    <path
       id="path1"
       d="M -59.06,716.64 H 549.143 V -76.984 H -59.06 Z"
       style="fill:none;stroke:#000000;stroke-width:0.96;stroke-linecap:round;stroke-linejoin:round;stroke-miterlimit:10;stroke-dasharray:none;stroke-opacity:1"
       transform="matrix(1.3333333,0,0,-1.3333333,0,850.56)"
       clip-path="url(#clipPath2)" />
    <path
       id="path3"
       d="M 0,0 192.253,-120.712"
       style="fill:none;stroke:#e64b41;stroke-width:1.44;stroke-linecap:round;stroke-linejoin:round;stroke-miterlimit:10;stroke-dasharray:none;stroke-opacity:1"
       transform="matrix(1.3333333,0,0,-1.3333333,149.10933,343.9688)" />
    <path
       id="path4"
       d="M 0,0 183.133,-133.67"
       style="fill:none;stroke:#e64b41;stroke-width:1.44;stroke-linecap:round;stroke-linejoin:round;stroke-miterlimit:10;stroke-dasharray:none;stroke-opacity:1"
       transform="matrix(1.3333333,0,0,-1.3333333,162.5508,324.44987)" />
    <path
       id="path5"
       d="M 0,0 170.652,-149.51"
       style="fill:none;stroke:#e64b41;stroke-width:1.44;stroke-linecap:round;stroke-linejoin:round;stroke-miterlimit:10;stroke-dasharray:none;stroke-opacity:1"
       transform="matrix(1.3333333,0,0,-1.3333333,181.112,301.41147)" />
    <path
       id="path6"
       d="M 0,0 156.491,-164.148"
       style="fill:none;stroke:#b2b2b2;stroke-width:1.44;stroke-linecap:round;stroke-linejoin:round;stroke-miterlimit:10;stroke-dasharray:none;stroke-opacity:1"
       transform="matrix(1.3333333,0,0,-1.3333333,201.59307,279.97333)" />
    <path
       id="path7"
       d="M 0,0 141.61,-177.348"
       style="fill:none;stroke:#e6e600;stroke-width:1.44;stroke-linecap:round;stroke-linejoin:round;stroke-miterlimit:10;stroke-dasharray:none;stroke-opacity:1"
       transform="matrix(1.3333333,0,0,-1.3333333,223.67507,260.45453)" />
    <path
       id="path8"
       d="M 0,0 125.049,-189.106"
       style="fill:none;stroke:#e6e600;stroke-width:1.44;stroke-linecap:round;stroke-linejoin:round;stroke-miterlimit:10;stroke-dasharray:none;stroke-opacity:1"
       transform="matrix(1.3333333,0,0,-1.3333333,247.6764,243.17587)" />
    <path
       id="path9"
       d="M 0,0 107.768,-199.426"
       style="fill:none;stroke:#e6e600;stroke-width:1.44;stroke-linecap:round;stroke-linejoin:round;stroke-miterlimit:10;stroke-dasharray:none;stroke-opacity:1"
       transform="matrix(1.3333333,0,0,-1.3333333,272.95827,228.1368)" />
    <path
       id="path10"
       d="M 0,0 89.767,-208.065"
       style="fill:none;stroke:#e6e600;stroke-width:1.44;stroke-linecap:round;stroke-linejoin:round;stroke-miterlimit:10;stroke-dasharray:none;stroke-opacity:1"
       transform="matrix(1.3333333,0,0,-1.3333333,299.52013,215.338)" />
    <path
       id="path11"
       d="M 0,0 70.805,-215.505"
       style="fill:none;stroke:#e6e600;stroke-width:1.44;stroke-linecap:round;stroke-linejoin:round;stroke-miterlimit:10;stroke-dasharray:none;stroke-opacity:1"
       transform="matrix(1.3333333,0,0,-1.3333333,327.04227,204.77867)" />
    <path
       id="path12"
       d="M 0,0 51.364,-220.785"
       style="fill:none;stroke:#e6e600;stroke-width:1.44;stroke-linecap:round;stroke-linejoin:round;stroke-miterlimit:10;stroke-dasharray:none;stroke-opacity:1"
       transform="matrix(1.3333333,0,0,-1.3333333,355.524,196.77867)" />
    <path
       id="path13"
       d="M 0,0 31.683,-224.625"
       style="fill:none;stroke:#e6e600;stroke-width:1.44;stroke-linecap:round;stroke-linejoin:round;stroke-miterlimit:10;stroke-dasharray:none;stroke-opacity:1"
       transform="matrix(1.3333333,0,0,-1.3333333,384.6464,191.3392)" />
    <path
       id="path14"
       d="M 0,0 13.441,-226.304"
       style="fill:none;stroke:#c500ff;stroke-width:1.44;stroke-linecap:round;stroke-linejoin:round;stroke-miterlimit:10;stroke-dasharray:none;stroke-opacity:1"
       transform="matrix(1.3333333,0,0,-1.3333333,411.528,188.77933)" />
    <path
       id="path15"
       d="M 0,0 0.24,0.24 0.48,0.48 V 0.721 L 0.721,0.96 0.961,1.2 V 1.44 L 1.2,1.681 1.44,1.92 1.681,2.16 V 2.4 L 1.921,2.641 2.16,2.88 2.4,3.12 2.641,3.36 2.881,3.601 3.121,3.84 V 4.08 L 3.36,4.32 3.601,4.561 h 0.24 L 4.081,4.8 4.32,5.04 4.561,5.28 4.801,5.52 5.041,5.76 5.281,6 h 0.24 l 0.24,0.24 0.24,0.239 0.24,0.241 H 6.48 l 0.241,0.24 0.24,0.24 h 0.24 l 0.24,0.239 0.24,0.241 h 0.24 l 0.24,0.24 h 0.24 l 0.24,0.24 h 0.24 l 0.24,0.239 h 0.24 L 9.602,8.64 h 0.239 l 0.24,0.24 h 0.24 l 0.241,0.24 h 0.239 l 0.24,0.239 h 0.24 0.24 L 11.762,9.6 h 0.239 0.24 l 0.24,0.24 h 0.241 0.239 l 0.24,0.24 h 0.24 0.241 0.24 l 0.239,0.239 h 0.24 0.241 0.24 0.239 l 0.24,0.241 h 0.241 0.24 0.24 0.239 0.241 0.24 l 0.24,0.24 h 0.239 0.24 0.241 0.24 0.24 0.239"
       style="fill:none;stroke:#ad2b00;stroke-width:1.92;stroke-linecap:round;stroke-linejoin:round;stroke-miterlimit:10;stroke-dasharray:none;stroke-opacity:1"
       transform="matrix(1.3333333,0,0,-1.3333333,405.4472,504.918)" />
    <path
       id="path16"
       d="m 0,0 3.601,4.08 9.6,10.318 12.241,14.16 5.521,5.519 4.8,5.04 8.64,9.839 8.16,7.68 4.082,4.56 2.639,2.879 4.08,5.28 2.641,2.88 3.36,3.36 6.96,5.279 5.041,4.08 1.44,1.68 0.72,1.2 v 1.2 l -0.24,1.44 -1.2,3.599 -0.48,1.92 v 2.4 l 0.48,2.64 0.96,2.88 2.16,3.599 2.16,3.36 3.361,3.84 3.84,3.84 0.72,0.48"
       style="fill:none;stroke:#b6fcba;stroke-width:1.92;stroke-linecap:round;stroke-linejoin:round;stroke-miterlimit:10;stroke-dasharray:none;stroke-opacity:1"
       transform="matrix(1.3333333,0,0,-1.3333333,303.68027,504.27747)" />
    <path
       id="path17"
       d="m 0,0 17.041,8.64 16.081,8.639 12.001,7.44 5.761,3.84 v -0.241"
       style="fill:none;stroke:#ccdafc;stroke-width:1.92;stroke-linecap:round;stroke-linejoin:round;stroke-miterlimit:10;stroke-dasharray:none;stroke-opacity:1"
       transform="matrix(1.3333333,0,0,-1.3333333,361.92507,504.918)" />
    <path
       id="path18"
       d="m 0,0 7.2,4.561 36.484,21.837 1.2,0.72 v -0.239"
       style="fill:none;stroke:#fcc0dc;stroke-width:1.92;stroke-linecap:round;stroke-linejoin:round;stroke-miterlimit:10;stroke-dasharray:none;stroke-opacity:1"
       transform="matrix(1.3333333,0,0,-1.3333333,369.92507,504.918)" />
    <path
       id="path19"
       d="m 0,0 h 0.24 l 2.16,2.641 5.281,6.239 4.8,5.76 8.641,9.119 4.32,4.08 10.321,8.399 10.56,10.559 4.08,3.599 1.441,1.201 1.92,1.2 6.48,3.119 0.481,0.48 -0.481,0.241 6.961,5.519 12.961,7.679 11.041,5.28"
       style="fill:none;stroke:#f9b3fc;stroke-width:1.92;stroke-linecap:round;stroke-linejoin:round;stroke-miterlimit:10;stroke-dasharray:none;stroke-opacity:1"
       transform="matrix(1.3333333,0,0,-1.3333333,308.1608,504.918)" />
    <path
       id="path20"
       d="m 0,0 0.72,3.6 0.96,3.839 1.68,5.04 2.64,4.799 6.241,9.6 6.72,8.64 3.121,3.359 3.6,3.84 7.681,5.999 4.32,3.84 7.681,7.92 21.6,17.038 6.721,6 5.041,4.08 12.961,9.359 0.239,0.24 12.722,10.319 v -0.24"
       style="fill:none;stroke:#fcc6b3;stroke-width:1.92;stroke-linecap:round;stroke-linejoin:round;stroke-miterlimit:10;stroke-dasharray:none;stroke-opacity:1"
       transform="matrix(1.3333333,0,0,-1.3333333,290.2396,503.95707)" />
    <path
       id="path21"
       d="m 0,0 0.48,2.64 1.2,5.28 1.44,4.8 2.16,5.279 1.921,4.079 2.88,5.28 3.12,5.039 2.16,3.361 4.801,5.519 8.16,7.68 1.44,1.68 v 1.2 l -0.24,0.479 -3.12,2.401 -0.72,1.199 -0.24,1.2 v 1.68 l 0.72,2.88 0.72,1.679 0.96,2.4 1.68,2.161 2.88,3.119 7.201,7.2 7.44,6.959 0.961,0.96 0.72,1.44 -0.241,0.48 -0.719,0.48 h -2.401 l -4.08,-1.2 -11.761,-3.84 -3.84,-0.48 h -2.88 l -2.401,0.72 -0.719,0.48 -0.481,0.72 -0.24,2.4 0.96,4.08 2.881,7.199 1.68,2.88 2.4,5.279 8.64,14.88 5.281,8.399 7.921,10.319 5.28,6.48 5.52,5.52 8.161,6.719 1.44,2.16 0.24,0.48 -0.24,0.48 -1.44,0.48 h -1.92 l -4.321,-0.48 -1.2,0.24 -0.24,0.48 0.48,0.96 2.161,2.639 h -0.241 l 0.241,0.48 1.679,1.201 5.041,2.879 5.521,1.92 5.28,0.96 4.32,0.24 6.481,-0.72 4.559,-0.24 11.522,0.72"
       style="fill:none;stroke:#c0fce5;stroke-width:1.92;stroke-linecap:round;stroke-linejoin:round;stroke-miterlimit:10;stroke-dasharray:none;stroke-opacity:1"
       transform="matrix(1.3333333,0,0,-1.3333333,286.71933,504.59773)" />
    <path
       id="path22"
       d="m 0,0 -0.48,5.279 v 5.28 l 0.48,4.559 0.96,3.84 1.44,4.32 1.92,4.079 3.12,4.321 4.801,6.239 0.96,1.439 0.24,0.721 -0.48,0.48 -0.96,0.24 -7.681,-0.72 H 2.64 l -1.68,0.48 -1.2,0.96 -0.72,1.2 v 1.679 l 0.72,1.92 1.92,3.84 2.64,4.08 3.361,3.6 4.32,4.08 0.24,0.239 3.6,3.12 3.6,2.64 6.721,4.08 5.76,3.119 2.161,1.2 1.199,1.2 v 0.24 l -0.719,0.24 -3.361,-0.72 -14.401,-3.839 -4.8,-0.96 -4.081,-0.241 -2.399,0.48 -1.201,0.96 -0.72,0.96 -0.24,1.68 0.24,1.68 0.48,2.16 0.72,2.4 3.361,6.479 3.84,5.76 4.56,6.479 6.241,8.64 5.52,6.719 4.56,5.52 4.56,4.8 5.041,5.039 4.56,4.08 6.48,5.52 6.001,4.559 5.521,3.84 1.68,0.96 6.24,4.08 7.44,4.32 7.441,4.079 5.52,2.64 6.241,2.4 4.321,1.44 4.8,0.96 6.001,0.72 1.439,0.24"
       style="fill:none;stroke:#fcfab3;stroke-width:1.92;stroke-linecap:round;stroke-linejoin:round;stroke-miterlimit:10;stroke-dasharray:none;stroke-opacity:1"
       transform="matrix(1.3333333,0,0,-1.3333333,276.7988,503.95707)" />
    <path
       id="path23"
       d="m 0,0 1.92,2.16 6.241,6.719 4.32,4.08 4.8,4.32 21.122,16.559 5.04,4.079 0.48,0.721 2.88,2.639 2.16,2.64 0.96,1.68 0.241,0.96 0.24,1.68 v 0.48 l -0.24,0.96 -0.481,0.719 -2.16,1.681 -3.6,1.199 -3.121,0.721 -3.599,0.48 -3.601,0.239 -3.36,0.241 -4.56,-0.48 -4.56,-0.96 L 17.521,51.836 13.92,49.437 12,47.277 8.64,43.437 5.76,39.117 2.64,34.558 -2.4,25.198 -16.321,-1.2 l -4.321,-8.159 -1.68,-2.64 -5.04,-8.879 -4.56,-10.08 -1.681,-4.079 -1.2,-3.84 -0.239,-1.2 v -0.96 l 0.239,-0.24 h 0.48 l 0.96,0.72 2.881,3.12 25.921,32.158 5.041,5.759"
       style="fill:none;stroke:#fcfab3;stroke-width:1.92;stroke-linecap:round;stroke-linejoin:round;stroke-miterlimit:10;stroke-dasharray:none;stroke-opacity:1"
       transform="matrix(1.3333333,0,0,-1.3333333,316.48173,339.16933)" />
    <path
       id="path24"
       d="M 43.427,593.048 H 446.656 V 44.926 H 43.427 Z"
       style="fill:none;stroke:#000000;stroke-width:0.96;stroke-linecap:round;stroke-linejoin:round;stroke-miterlimit:10;stroke-dasharray:none;stroke-opacity:1"
       transform="matrix(1.3333333,0,0,-1.3333333,0,850.56)" />
    <path
       id="path25"
       d="M 0,0 V -5.04"
       style="fill:none;stroke:#000000;stroke-width:1.44;stroke-linecap:round;stroke-linejoin:round;stroke-miterlimit:10;stroke-dasharray:none;stroke-opacity:1"
       transform="matrix(1.3333333,0,0,-1.3333333,467.53187,790.6576)" />
    <text
       id="text25"
       xml:space="preserve"
       transform="matrix(1.3333333,0,0,1.3331556,428.00973,813.14067)"><tspan
         id="tspan25"
         style="font-variant:normal;font-weight:normal;font-stretch:normal;font-size:12.0008px;font-family:Arial;writing-mode:lr-tb;fill:#000000;fill-opacity:1;fill-rule:nonzero;stroke:none"
         x="0"
         dx="0 -0.1920128 0 0 0 0 0.1080072 -0.1920128"
         y="0">91°24'20&quot;E</tspan></text>
    <path
       id="path26"
       d="M 0,0 V 5.04"
       style="fill:none;stroke:#000000;stroke-width:1.44;stroke-linecap:round;stroke-linejoin:round;stroke-miterlimit:10;stroke-dasharray:none;stroke-opacity:1"
       transform="matrix(1.3333333,0,0,-1.3333333,475.5332,59.8288)" />
    <text
       id="text26"
       xml:space="preserve"
       transform="matrix(1.3333333,0,0,1.3331556,436.00973,48.438933)"><tspan
         id="tspan26"
         style="font-variant:normal;font-weight:normal;font-stretch:normal;font-size:12.0008px;font-family:Arial;writing-mode:lr-tb;fill:#000000;fill-opacity:1;fill-rule:nonzero;stroke:none"
         x="0"
         dx="0 -0.1920128 0 0 0 0 0.1080072 -0.1920128"
         y="0">91°24'20&quot;E</tspan></text>
    <path
       id="path27"
       d="M 0,0 V -5.04"
       style="fill:none;stroke:#000000;stroke-width:1.44;stroke-linecap:round;stroke-linejoin:round;stroke-miterlimit:10;stroke-dasharray:none;stroke-opacity:1"
       transform="matrix(1.3333333,0,0,-1.3333333,316.16147,790.6576)" />
    <text
       id="text27"
       xml:space="preserve"
       transform="matrix(1.3333333,0,0,1.3331556,280.95893,813.14067)"><tspan
         id="tspan27"
         style="font-variant:normal;font-weight:normal;font-stretch:normal;font-size:12.0008px;font-family:Arial;writing-mode:lr-tb;fill:#000000;fill-opacity:1;fill-rule:nonzero;stroke:none"
         x="0"
         dx="0 -0.1920128 0 0 0 0 0.1080072 -0.1920128"
         y="0">91°22'0&quot;E</tspan></text>
    <path
       id="path28"
       d="M 0,0 V 5.04"
       style="fill:none;stroke:#000000;stroke-width:1.44;stroke-linecap:round;stroke-linejoin:round;stroke-miterlimit:10;stroke-dasharray:none;stroke-opacity:1"
       transform="matrix(1.3333333,0,0,-1.3333333,324.16213,59.8288)" />
    <text
       id="text28"
       xml:space="preserve"
       transform="matrix(1.3333333,0,0,1.3331556,288.9596,48.438933)"><tspan
         id="tspan28"
         style="font-variant:normal;font-weight:normal;font-stretch:normal;font-size:12.0008px;font-family:Arial;writing-mode:lr-tb;fill:#000000;fill-opacity:1;fill-rule:nonzero;stroke:none"
         x="0"
         dx="0 -0.1920128 0 0 0 0 0.1080072 -0.1920128"
         y="0">91°22'0&quot;E</tspan></text>
    <path
       id="path29"
       d="M 0,0 V -5.04"
       style="fill:none;stroke:#000000;stroke-width:1.44;stroke-linecap:round;stroke-linejoin:round;stroke-miterlimit:10;stroke-dasharray:none;stroke-opacity:1"
       transform="matrix(1.3333333,0,0,-1.3333333,164.79093,790.6576)" />
    <text
       id="text29"
       xml:space="preserve"
       transform="matrix(1.3333333,0,0,1.3331556,125.26827,813.14067)"><tspan
         id="tspan29"
         style="font-variant:normal;font-weight:normal;font-stretch:normal;font-size:12.0008px;font-family:Arial;writing-mode:lr-tb;fill:#000000;fill-opacity:1;fill-rule:nonzero;stroke:none"
         x="0"
         dx="0 -0.1920128 0 0 0 0 0.1080072 -0.1920128"
         y="0">91°19'40&quot;E</tspan></text>
    <path
       id="path30"
       d="M 0,0 V 5.04"
       style="fill:none;stroke:#000000;stroke-width:1.44;stroke-linecap:round;stroke-linejoin:round;stroke-miterlimit:10;stroke-dasharray:none;stroke-opacity:1"
       transform="matrix(1.3333333,0,0,-1.3333333,172.7916,59.8288)" />
    <text
       id="text30"
       xml:space="preserve"
       transform="matrix(1.3333333,0,0,1.3331556,133.26893,48.438933)"><tspan
         id="tspan30"
         style="font-variant:normal;font-weight:normal;font-stretch:normal;font-size:12.0008px;font-family:Arial;writing-mode:lr-tb;fill:#000000;fill-opacity:1;fill-rule:nonzero;stroke:none"
         x="0"
         dx="0 -0.1920128 0 0 0 0 0.1080072 -0.1920128"
         y="0">91°19'40&quot;E</tspan></text>
    <path
       id="path31"
       d="M 0,0 H -5.04"
       style="fill:none;stroke:#000000;stroke-width:1.44;stroke-linecap:round;stroke-linejoin:round;stroke-miterlimit:10;stroke-dasharray:none;stroke-opacity:1"
       transform="matrix(1.3333333,0,0,-1.3333333,57.902933,155.1816)" />
    <text
       id="text31"
       xml:space="preserve"
       transform="matrix(0,-1.3333333,1.3335111,0,46.261733,190.7)"><tspan
         id="tspan31"
         style="font-variant:normal;font-weight:normal;font-stretch:normal;font-size:11.9992px;font-family:Arial;writing-mode:lr-tb;fill:#000000;fill-opacity:1;fill-rule:nonzero;stroke:none"
         x="0"
         dx="0 -0.1919872 0 0 0 0 0.1079928 -0.1919872"
         y="0">22°28'0&quot;N</tspan></text>
    <path
       id="path32"
       d="M 0,0 H 5.041"
       style="fill:none;stroke:#000000;stroke-width:1.44;stroke-linecap:round;stroke-linejoin:round;stroke-miterlimit:10;stroke-dasharray:none;stroke-opacity:1"
       transform="matrix(1.3333333,0,0,-1.3333333,595.54093,160.94147)" />
    <text
       id="text32"
       xml:space="preserve"
       transform="matrix(0,-1.3333333,1.3335111,0,618.27733,196.45973)"><tspan
         id="tspan32"
         style="font-variant:normal;font-weight:normal;font-stretch:normal;font-size:11.9992px;font-family:Arial;writing-mode:lr-tb;fill:#000000;fill-opacity:1;fill-rule:nonzero;stroke:none"
         x="0"
         dx="0 -0.1919872 0 0 0 0 0.1079928 -0.1919872"
         y="0">22°28'0&quot;N</tspan></text>
    <path
       id="path33"
       d="M 0,0 H -5.04"
       style="fill:none;stroke:#000000;stroke-width:1.44;stroke-linecap:round;stroke-linejoin:round;stroke-miterlimit:10;stroke-dasharray:none;stroke-opacity:1"
       transform="matrix(1.3333333,0,0,-1.3333333,57.902933,318.0508)" />
    <text
       id="text33"
       xml:space="preserve"
       transform="matrix(0,-1.3333333,1.3335111,0,46.261733,358.0476)"><tspan
         id="tspan33"
         style="font-variant:normal;font-weight:normal;font-stretch:normal;font-size:11.9992px;font-family:Arial;writing-mode:lr-tb;fill:#000000;fill-opacity:1;fill-rule:nonzero;stroke:none"
         x="0"
         dx="0 -0.1919872 0 0 0 0 0.1079928 -0.1919872"
         y="0">22°25'40&quot;N</tspan></text>
    <path
       id="path34"
       d="M 0,0 H 5.041"
       style="fill:none;stroke:#000000;stroke-width:1.44;stroke-linecap:round;stroke-linejoin:round;stroke-miterlimit:10;stroke-dasharray:none;stroke-opacity:1"
       transform="matrix(1.3333333,0,0,-1.3333333,595.54093,323.81)" />
    <text
       id="text34"
       xml:space="preserve"
       transform="matrix(0,-1.3333333,1.3335111,0,618.27733,363.80867)"><tspan
         id="tspan34"
         style="font-variant:normal;font-weight:normal;font-stretch:normal;font-size:11.9992px;font-family:Arial;writing-mode:lr-tb;fill:#000000;fill-opacity:1;fill-rule:nonzero;stroke:none"
         x="0"
         dx="0 -0.1919872 0 0 0 0 0.1079928 -0.1919872"
         y="0">22°25'40&quot;N</tspan></text>
    <path
       id="path35"
       d="M 0,0 H -5.04"
       style="fill:none;stroke:#000000;stroke-width:1.44;stroke-linecap:round;stroke-linejoin:round;stroke-miterlimit:10;stroke-dasharray:none;stroke-opacity:1"
       transform="matrix(1.3333333,0,0,-1.3333333,57.902933,480.59907)" />
    <text
       id="text35"
       xml:space="preserve"
       transform="matrix(0,-1.3333333,1.3335111,0,46.261733,520.59707)"><tspan
         id="tspan35"
         style="font-variant:normal;font-weight:normal;font-stretch:normal;font-size:11.9992px;font-family:Arial;writing-mode:lr-tb;fill:#000000;fill-opacity:1;fill-rule:nonzero;stroke:none"
         x="0"
         dx="0 -0.1919872 0 0 0 0 0.1079928 -0.1919872"
         y="0">22°23'20&quot;N</tspan></text>
    <path
       id="path36"
       d="M 0,0 H 5.041"
       style="fill:none;stroke:#000000;stroke-width:1.44;stroke-linecap:round;stroke-linejoin:round;stroke-miterlimit:10;stroke-dasharray:none;stroke-opacity:1"
       transform="matrix(1.3333333,0,0,-1.3333333,595.54093,486.6784)" />
    <text
       id="text36"
       xml:space="preserve"
       transform="matrix(0,-1.3333333,1.3335111,0,618.27733,526.67587)"><tspan
         id="tspan36"
         style="font-variant:normal;font-weight:normal;font-stretch:normal;font-size:11.9992px;font-family:Arial;writing-mode:lr-tb;fill:#000000;fill-opacity:1;fill-rule:nonzero;stroke:none"
         x="0"
         dx="0 -0.1919872 0 0 0 0 0.1079928 -0.1919872"
         y="0">22°23'20&quot;N</tspan></text>
    <path
       id="path37"
       d="M 0,0 H -5.04"
       style="fill:none;stroke:#000000;stroke-width:1.44;stroke-linecap:round;stroke-linejoin:round;stroke-miterlimit:10;stroke-dasharray:none;stroke-opacity:1"
       transform="matrix(1.3333333,0,0,-1.3333333,57.902933,643.46747)" />
    <text
       id="text37"
       xml:space="preserve"
       transform="matrix(0,-1.3333333,1.3335111,0,46.261733,678.98507)"><tspan
         id="tspan37"
         style="font-variant:normal;font-weight:normal;font-stretch:normal;font-size:11.9992px;font-family:Arial;writing-mode:lr-tb;fill:#000000;fill-opacity:1;fill-rule:nonzero;stroke:none"
         x="0"
         dx="0 -0.1919872 0 0 0 0 0.1079928 -0.1919872"
         y="0">22°21'0&quot;N</tspan></text>
    <path
       id="path38"
       d="M 0,0 H 5.041"
       style="fill:none;stroke:#000000;stroke-width:1.44;stroke-linecap:round;stroke-linejoin:round;stroke-miterlimit:10;stroke-dasharray:none;stroke-opacity:1"
       transform="matrix(1.3333333,0,0,-1.3333333,595.54093,649.22787)" />
    <text
       id="text38"
       xml:space="preserve"
       transform="matrix(0,-1.3333333,1.3335111,0,618.27733,684.74613)"><tspan
         id="tspan38"
         style="font-variant:normal;font-weight:normal;font-stretch:normal;font-size:11.9992px;font-family:Arial;writing-mode:lr-tb;fill:#000000;fill-opacity:1;fill-rule:nonzero;stroke:none"
         x="0"
         dx="0 -0.1919872 0 0 0 0 0.1079928 -0.1919872"
         y="0">22°21'0&quot;N</tspan></text>
    <path
       id="path39"
       d="M 43.427,593.048 H 446.656 V 44.926 H 43.427 Z"
       style="fill:none;stroke:#000000;stroke-width:1.44;stroke-linecap:round;stroke-linejoin:round;stroke-miterlimit:10;stroke-dasharray:none;stroke-opacity:1"
       transform="matrix(1.3333333,0,0,-1.3333333,0,850.56)" />
    <text
       id="text39"
       xml:space="preserve"
       transform="matrix(1.3333333,0,0,1.3331456,527.696,158.062)"><tspan
         id="tspan39"
         style="font-variant:normal;font-weight:normal;font-stretch:normal;font-size:69.6049px;font-family:'ESRI North';writing-mode:lr-tb;fill:#000000;fill-opacity:1;fill-rule:nonzero;stroke:none"
         x="0"
         y="0">±</tspan></text>
    <path
       id="path40"
       d="M 0,0 H 60.964"
       style="fill:none;stroke:#ad2b00;stroke-width:1.92;stroke-linecap:round;stroke-linejoin:round;stroke-miterlimit:10;stroke-dasharray:none;stroke-opacity:1"
       transform="matrix(1.3333333,0,0,-1.3333333,115.18747,563.79307)" />
    <text
       id="text40"
       xml:space="preserve"
       transform="matrix(1.3333333,0,0,1.3331418,117.42773,551.31387)"><tspan
         id="tspan40"
         style="font-variant:normal;font-weight:700;font-stretch:normal;font-size:13.921px;font-family:Arial;writing-mode:lr-tb;fill:#000000;fill-opacity:1;fill-rule:nonzero;stroke:none"
         x="0"
         dx="0 0 0 0.18097299 0 0 0.20881499 -0.111368"
         y="0">Baseline</tspan><tspan
         id="tspan41"
         style="font-variant:normal;font-weight:700;font-stretch:normal;font-size:13.921px;font-family:Arial;writing-mode:lr-tb;fill:#000000;fill-opacity:1;fill-rule:nonzero;stroke:none"
         x="-4.7888241"
         dx="0 0 0.13921 -0.111368 0.111368 0.18097299 0 0 0.13921"
         y="26.644794">shoreline</tspan></text>
    <text
       id="text41"
       xml:space="preserve"
       transform="matrix(1.3333333,0,0,1.3331459,317.12173,104.11733)"><tspan
         id="tspan42"
         style="font-variant:normal;font-weight:700;font-stretch:normal;font-size:19.9214px;font-family:Arial;writing-mode:lr-tb;fill:#000000;fill-opacity:1;fill-rule:nonzero;stroke:none"
         x="0"
         y="0">A</tspan></text>
    <path
       id="path42"
       d="M 0,0 H 30.002"
       style="fill:none;stroke:#c0c0c0;stroke-width:0.96;stroke-linecap:round;stroke-linejoin:round;stroke-miterlimit:10;stroke-dasharray:9.375, 15;stroke-dashoffset:0;stroke-opacity:1"
       transform="matrix(1.3333333,0,0,-1.3333333,331.5228,739.78133)" />
    <path
       id="path43"
       d="M 0,0 H 30.002"
       style="fill:none;stroke:#f9b3fc;stroke-width:1.92;stroke-linecap:round;stroke-linejoin:round;stroke-miterlimit:10;stroke-dasharray:none;stroke-opacity:1"
       transform="matrix(1.3333333,0,0,-1.3333333,114.2272,607.95053)" />
    <text
       id="text43"
       xml:space="preserve"
       transform="matrix(1.3333333,0,0,1.3331556,161.59053,614.03)"><tspan
         id="tspan43"
         style="font-variant:normal;font-weight:normal;font-stretch:normal;font-size:12.0008px;font-family:Arial;writing-mode:lr-tb;fill:#000000;fill-opacity:1;fill-rule:nonzero;stroke:none"
         x="0"
         dx="0 -0.1920128"
         y="0">2014</tspan></text>
    <path
       id="path44"
       d="M 0,0 H 30.002"
       style="fill:none;stroke:#b6fcba;stroke-width:1.92;stroke-linecap:round;stroke-linejoin:round;stroke-miterlimit:10;stroke-dasharray:none;stroke-opacity:1"
       transform="matrix(1.3333333,0,0,-1.3333333,114.2272,635.14853)" />
    <text
       id="text44"
       xml:space="preserve"
       transform="matrix(1.3333333,0,0,1.3331556,161.59053,641.228)"><tspan
         id="tspan44"
         style="font-variant:normal;font-weight:normal;font-stretch:normal;font-size:12.0008px;font-family:Arial;writing-mode:lr-tb;fill:#000000;fill-opacity:1;fill-rule:nonzero;stroke:none"
         x="0"
         dx="0 -0.1920128"
         y="0">2005</tspan></text>
    <path
       id="path45"
       d="M 0,0 H 30.002"
       style="fill:none;stroke:#ccdafc;stroke-width:1.92;stroke-linecap:round;stroke-linejoin:round;stroke-miterlimit:10;stroke-dasharray:none;stroke-opacity:1"
       transform="matrix(1.3333333,0,0,-1.3333333,114.2272,662.3464)" />
    <text
       id="text45"
       xml:space="preserve"
       transform="matrix(1.3333333,0,0,1.3331556,161.59053,668.42587)"><tspan
         id="tspan45"
         style="font-variant:normal;font-weight:normal;font-stretch:normal;font-size:12.0008px;font-family:Arial;writing-mode:lr-tb;fill:#000000;fill-opacity:1;fill-rule:nonzero;stroke:none"
         x="0"
         dx="0 -0.1920128"
         y="0">2008</tspan></text>
    <path
       id="path46"
       d="M 0,0 H 30.002"
       style="fill:none;stroke:#fcc0dc;stroke-width:1.92;stroke-linecap:round;stroke-linejoin:round;stroke-miterlimit:10;stroke-dasharray:none;stroke-opacity:1"
       transform="matrix(1.3333333,0,0,-1.3333333,114.2272,689.54427)" />
    <text
       id="text46"
       xml:space="preserve"
       transform="matrix(1.3333333,0,0,1.3331556,161.59053,695.62387)"><tspan
         id="tspan46"
         style="font-variant:normal;font-weight:normal;font-stretch:normal;font-size:12.0008px;font-family:Arial;writing-mode:lr-tb;fill:#000000;fill-opacity:1;fill-rule:nonzero;stroke:none"
         x="0"
         dx="0 -0.1920128 0 -0.9120608"
         y="0">2011</tspan></text>
    <path
       id="path47"
       d="M 0,0 H 30.002"
       style="fill:none;stroke:#fcfab3;stroke-width:1.92;stroke-linecap:round;stroke-linejoin:round;stroke-miterlimit:10;stroke-dasharray:none;stroke-opacity:1"
       transform="matrix(1.3333333,0,0,-1.3333333,114.2272,716.74227)" />
    <text
       id="text47"
       xml:space="preserve"
       transform="matrix(1.3333333,0,0,1.3331556,161.59053,722.82173)"><tspan
         id="tspan47"
         style="font-variant:normal;font-weight:normal;font-stretch:normal;font-size:12.0008px;font-family:Arial;writing-mode:lr-tb;fill:#000000;fill-opacity:1;fill-rule:nonzero;stroke:none"
         x="0"
         dx="0 -0.1920128"
         y="0">2023</tspan></text>
    <path
       id="path48"
       d="M 0,0 H 30.002"
       style="fill:none;stroke:#c0fce5;stroke-width:1.92;stroke-linecap:round;stroke-linejoin:round;stroke-miterlimit:10;stroke-dasharray:none;stroke-opacity:1"
       transform="matrix(1.3333333,0,0,-1.3333333,114.2272,743.6212)" />
    <text
       id="text48"
       xml:space="preserve"
       transform="matrix(1.3333333,0,0,1.3331556,161.59053,749.70067)"><tspan
         id="tspan48"
         style="font-variant:normal;font-weight:normal;font-stretch:normal;font-size:12.0008px;font-family:Arial;writing-mode:lr-tb;fill:#000000;fill-opacity:1;fill-rule:nonzero;stroke:none"
         x="0"
         dx="0 -0.1920128"
         y="0">2020</tspan></text>
    <path
       id="path49"
       d="M 0,0 H 30.002"
       style="fill:none;stroke:#fcc6b3;stroke-width:1.92;stroke-linecap:round;stroke-linejoin:round;stroke-miterlimit:10;stroke-dasharray:none;stroke-opacity:1"
       transform="matrix(1.3333333,0,0,-1.3333333,114.2272,770.81907)" />
    <text
       id="text49"
       xml:space="preserve"
       transform="matrix(1.3333333,0,0,1.3331556,161.59053,776.89853)"><tspan
         id="tspan49"
         style="font-variant:normal;font-weight:normal;font-stretch:normal;font-size:12.0008px;font-family:Arial;writing-mode:lr-tb;fill:#000000;fill-opacity:1;fill-rule:nonzero;stroke:none"
         x="0"
         dx="0 -0.1920128"
         y="0">2017</tspan></text>
    <text
       id="text50"
       xml:space="preserve"
       transform="matrix(1.3333333,0,0,1.3331482,331.5228,556.43373)"><tspan
         id="tspan50"
         style="font-variant:normal;font-weight:700;font-stretch:normal;font-size:12.9609px;font-family:Arial;writing-mode:lr-tb;fill:#000000;fill-opacity:1;fill-rule:nonzero;stroke:none"
         x="0"
         dx="0 0 0 0 0 0 0.2332962 0 0 0 0 0 0 0.2332962"
         y="0">EPR(meter/year)</tspan></text>
    <path
       id="path50"
       d="M 0,0 H 30.002"
       style="fill:none;stroke:#b2b2b2;stroke-width:1.44;stroke-linecap:round;stroke-linejoin:round;stroke-miterlimit:10;stroke-dasharray:none;stroke-opacity:1"
       transform="matrix(1.3333333,0,0,-1.3333333,331.5228,576.9128)" />
    <text
       id="text51"
       xml:space="preserve"
       transform="matrix(1.3333333,0,0,1.3331556,378.56573,582.99227)"><tspan
         id="tspan51"
         style="font-variant:normal;font-weight:normal;font-stretch:normal;font-size:12.0008px;font-family:Arial;writing-mode:lr-tb;fill:#000000;fill-opacity:1;fill-rule:nonzero;stroke:none"
         x="0"
         dx="0 -0.1920128 0 0 0 0 0 0 -0.1920128"
         y="0">80.720000</tspan></text>
    <path
       id="path51"
       d="M 0,0 H 30.002"
       style="fill:none;stroke:#e64b41;stroke-width:1.44;stroke-linecap:round;stroke-linejoin:round;stroke-miterlimit:10;stroke-dasharray:none;stroke-opacity:1"
       transform="matrix(1.3333333,0,0,-1.3333333,331.5228,604.11067)" />
    <text
       id="text52"
       xml:space="preserve"
       transform="matrix(1.3333333,0,0,1.3331556,378.56573,610.19027)"><tspan
         id="tspan52"
         style="font-variant:normal;font-weight:normal;font-stretch:normal;font-size:12.0008px;font-family:Arial;writing-mode:lr-tb;fill:#000000;fill-opacity:1;fill-rule:nonzero;stroke:none"
         x="0"
         dx="0 -0.1920128 0 0 0 0 0 0 -0.1920128 0 0 0.084005602 0 0 -0.1920128"
         y="0">80.720001 - 93.460000</tspan></text>
    <path
       id="path52"
       d="M 0,0 H 30.002"
       style="fill:none;stroke:#c500ff;stroke-width:1.44;stroke-linecap:round;stroke-linejoin:round;stroke-miterlimit:10;stroke-dasharray:none;stroke-opacity:1"
       transform="matrix(1.3333333,0,0,-1.3333333,331.5228,631.30867)" />
    <text
       id="text53"
       xml:space="preserve"
       transform="matrix(1.3333333,0,0,1.3331556,378.56573,637.38813)"><tspan
         id="tspan53"
         style="font-variant:normal;font-weight:normal;font-stretch:normal;font-size:12.0008px;font-family:Arial;writing-mode:lr-tb;fill:#000000;fill-opacity:1;fill-rule:nonzero;stroke:none"
         x="0"
         dx="0 -0.1920128 0 0 0 0 0 0 -0.1920128 0 0 0.084005602 0 -0.9120608 0 0 0 -0.1920128"
         y="0">93.460001 - 112.400000</tspan></text>
    <path
       id="path53"
       d="M 0,0 H 30.002"
       style="fill:none;stroke:#e6e600;stroke-width:1.44;stroke-linecap:round;stroke-linejoin:round;stroke-miterlimit:10;stroke-dasharray:none;stroke-opacity:1"
       transform="matrix(1.3333333,0,0,-1.3333333,331.5228,658.50653)" />
    <text
       id="text54"
       xml:space="preserve"
       transform="matrix(1.3333333,0,0,1.3331556,378.56573,664.586)"><tspan
         id="tspan54"
         style="font-variant:normal;font-weight:normal;font-stretch:normal;font-size:12.0008px;font-family:Arial;writing-mode:lr-tb;fill:#000000;fill-opacity:1;fill-rule:nonzero;stroke:none"
         x="0"
         dx="0 -0.9120608 0 -0.1920128 0 0 0 0 0 0 -0.1920128 0 0.084005602 0 0 0 -0.1920128"
         y="0">112.400001 - 139.450000</tspan></text>
    <path
       id="path54"
       d="M 0,0 H 30.002"
       style="fill:none;stroke:#e6e600;stroke-width:1.44;stroke-linecap:round;stroke-linejoin:round;stroke-miterlimit:10;stroke-dasharray:none;stroke-opacity:1"
       transform="matrix(1.3333333,0,0,-1.3333333,331.5228,685.38547)" />
    <text
       id="text55"
       xml:space="preserve"
       transform="matrix(1.3333333,0,0,1.3331556,378.56573,691.46493)"><tspan
         id="tspan55"
         style="font-variant:normal;font-weight:normal;font-stretch:normal;font-size:12.0008px;font-family:Arial;writing-mode:lr-tb;fill:#000000;fill-opacity:1;fill-rule:nonzero;stroke:none"
         x="0"
         dx="0 -0.1920128 0 0 0 0 0 0 -0.1920128 0 0 0 0.084005602 0 -0.1920128 0 0 0 0 0 0 0 -0.1920128"
         y="0">139.450001 - 144.920000</tspan></text>
    <path
       id="path55"
       d="M 0,0 H 30.002"
       style="fill:none;stroke:#e6e600;stroke-width:1.44;stroke-linecap:round;stroke-linejoin:round;stroke-miterlimit:10;stroke-dasharray:none;stroke-opacity:1"
       transform="matrix(1.3333333,0,0,-1.3333333,331.5228,712.58333)" />
    <text
       id="text56"
       xml:space="preserve"
       transform="matrix(1.3333333,0,0,1.3331556,378.56573,718.6628)"><tspan
         id="tspan56"
         style="font-variant:normal;font-weight:normal;font-stretch:normal;font-size:12.0008px;font-family:Arial;writing-mode:lr-tb;fill:#000000;fill-opacity:1;fill-rule:nonzero;stroke:none"
         x="0"
         dx="0 -0.1920128 0 0 0 0 0 0 -0.1920128 0 0 0 0.084005602 0 -0.1920128 0 0 0 0 0 0 0 -0.1920128"
         y="0">144.920001 - 151.330000</tspan></text>
    <path
       id="path56"
       d="M 0,0 H 30.002"
       style="fill:none;stroke:#e6e600;stroke-width:1.44;stroke-linecap:round;stroke-linejoin:round;stroke-miterlimit:10;stroke-dasharray:none;stroke-opacity:1"
       transform="matrix(1.3333333,0,0,-1.3333333,331.5228,739.78133)" />
    <text
       id="text57"
       xml:space="preserve"
       transform="matrix(1.3333333,0,0,1.3331556,378.56573,745.8608)"><tspan
         id="tspan57"
         style="font-variant:normal;font-weight:normal;font-stretch:normal;font-size:12.0008px;font-family:Arial;writing-mode:lr-tb;fill:#000000;fill-opacity:1;fill-rule:nonzero;stroke:none"
         x="0"
         dx="0 -0.1920128 0 0 0 0 0 0 -0.1920128 0 0 0 0.084005602 0 -0.1920128 0 0 0 0 0 0 0 -0.1920128"
         y="0">151.330001 - 154.070000</tspan></text>
  </g>
</svg>
