<?xml version="1.0" encoding="UTF-8" standalone="no"?>
<!-- Created with Inkscape (http://www.inkscape.org/) -->

<svg
   version="1.1"
   id="svg1"
   width="653.38666"
   height="850.56"
   viewBox="0 0 653.38666 850.56"
   sodipodi:docname="EPR_D.pdf"
   xmlns:inkscape="http://www.inkscape.org/namespaces/inkscape"
   xmlns:sodipodi="http://sodipodi.sourceforge.net/DTD/sodipodi-0.dtd"
   xmlns="http://www.w3.org/2000/svg"
   xmlns:svg="http://www.w3.org/2000/svg">
  <defs
     id="defs1" />
  <sodipodi:namedview
     id="namedview1"
     pagecolor="#ffffff"
     bordercolor="#000000"
     borderopacity="0.25"
     inkscape:showpageshadow="2"
     inkscape:pageopacity="0.0"
     inkscape:pagecheckerboard="0"
     inkscape:deskcolor="#d1d1d1">
    <inkscape:page
       x="0"
       y="0"
       inkscape:label="1"
       id="page1"
       width="653.38666"
       height="850.56"
       margin="0"
       bleed="0" />
  </sodipodi:namedview>
  <g
     id="layer-MC0"
     inkscape:groupmode="layer"
     inkscape:label="Layer 1">
    <path
       id="path1"
       d="M 0,0 -5.521,226.785"
       style="fill:none;stroke:#e6e600;stroke-width:1.44;stroke-linecap:round;stroke-linejoin:round;stroke-miterlimit:10;stroke-dasharray:none;stroke-opacity:1"
       transform="matrix(1.3333333,0,0,-1.3333333,222.7148,528.5964)" />
    <path
       id="path2"
       d="M 0,0 -12.001,226.544"
       style="fill:none;stroke:#e6e600;stroke-width:1.44;stroke-linecap:round;stroke-linejoin:round;stroke-miterlimit:10;stroke-dasharray:none;stroke-opacity:1"
       transform="matrix(1.3333333,0,0,-1.3333333,233.916,528.91547)" />
    <path
       id="path3"
       d="M 0,0 -18.721,226.064"
       style="fill:none;stroke:#e6e600;stroke-width:1.44;stroke-linecap:round;stroke-linejoin:round;stroke-miterlimit:10;stroke-dasharray:none;stroke-opacity:1"
       transform="matrix(1.3333333,0,0,-1.3333333,245.43613,528.91547)" />
    <path
       id="path4"
       d="M 0,0 -24.962,225.344"
       style="fill:none;stroke:#e6e600;stroke-width:1.44;stroke-linecap:round;stroke-linejoin:round;stroke-miterlimit:10;stroke-dasharray:none;stroke-opacity:1"
       transform="matrix(1.3333333,0,0,-1.3333333,256.63733,528.27613)" />
    <path
       id="path5"
       d="M 0,0 -31.442,224.624"
       style="fill:none;stroke:#e6e600;stroke-width:1.44;stroke-linecap:round;stroke-linejoin:round;stroke-miterlimit:10;stroke-dasharray:none;stroke-opacity:1"
       transform="matrix(1.3333333,0,0,-1.3333333,267.83787,527.3164)" />
    <path
       id="path6"
       d="M 0,0 -38.163,223.665"
       style="fill:none;stroke:#e6e600;stroke-width:1.44;stroke-linecap:round;stroke-linejoin:round;stroke-miterlimit:10;stroke-dasharray:none;stroke-opacity:1"
       transform="matrix(1.3333333,0,0,-1.3333333,279.35867,526.03653)" />
    <path
       id="path7"
       d="M 0,0 -44.643,222.224"
       style="fill:none;stroke:#e6e600;stroke-width:1.44;stroke-linecap:round;stroke-linejoin:round;stroke-miterlimit:10;stroke-dasharray:none;stroke-opacity:1"
       transform="matrix(1.3333333,0,0,-1.3333333,290.55987,524.11587)" />
    <path
       id="path8"
       d="M 0,0 -50.883,220.785"
       style="fill:none;stroke:#e6e600;stroke-width:1.44;stroke-linecap:round;stroke-linejoin:round;stroke-miterlimit:10;stroke-dasharray:none;stroke-opacity:1"
       transform="matrix(1.3333333,0,0,-1.3333333,301.7604,521.8764)" />
    <path
       id="path9"
       d="M 0,0 -57.124,219.585"
       style="fill:none;stroke:#73b2ff;stroke-width:1.44;stroke-linecap:round;stroke-linejoin:round;stroke-miterlimit:10;stroke-dasharray:none;stroke-opacity:1"
       transform="matrix(1.3333333,0,0,-1.3333333,312.6412,519.6368)" />
    <path
       id="path10"
       d="M 0,0 -63.604,217.665"
       style="fill:none;stroke:#e60000;stroke-width:1.44;stroke-linecap:round;stroke-linejoin:round;stroke-miterlimit:10;stroke-dasharray:none;stroke-opacity:1"
       transform="matrix(1.3333333,0,0,-1.3333333,323.84173,516.43627)" />
    <path
       id="path11"
       d="M 0,0 -71.525,215.025"
       style="fill:none;stroke:#b2b2b2;stroke-width:1.44;stroke-linecap:round;stroke-linejoin:round;stroke-miterlimit:10;stroke-dasharray:none;stroke-opacity:1"
       transform="matrix(1.3333333,0,0,-1.3333333,336.96293,512.27733)" />
    <path
       id="path12"
       d="M 0,0 -84.006,210.705"
       style="fill:none;stroke:#b2b2b2;stroke-width:1.44;stroke-linecap:round;stroke-linejoin:round;stroke-miterlimit:10;stroke-dasharray:none;stroke-opacity:1"
       transform="matrix(1.3333333,0,0,-1.3333333,355.8444,505.55733)" />
    <path
       id="path13"
       d="M 0,0 -96.007,205.426"
       style="fill:none;stroke:#73b2ff;stroke-width:1.44;stroke-linecap:round;stroke-linejoin:round;stroke-miterlimit:10;stroke-dasharray:none;stroke-opacity:1"
       transform="matrix(1.3333333,0,0,-1.3333333,374.4056,497.55867)" />
    <path
       id="path14"
       d="M 0,0 -107.768,199.667"
       style="fill:none;stroke:#e6e600;stroke-width:1.44;stroke-linecap:round;stroke-linejoin:round;stroke-miterlimit:10;stroke-dasharray:none;stroke-opacity:1"
       transform="matrix(1.3333333,0,0,-1.3333333,392.32747,488.59907)" />
    <path
       id="path15"
       d="M 0,0 -118.809,192.946"
       style="fill:none;stroke:#e6e600;stroke-width:1.44;stroke-linecap:round;stroke-linejoin:round;stroke-miterlimit:10;stroke-dasharray:none;stroke-opacity:1"
       transform="matrix(1.3333333,0,0,-1.3333333,409.60867,478.35947)" />
    <path
       id="path16"
       d="M 0,0 -128.409,186.947"
       style="fill:none;stroke:#e6e600;stroke-width:1.44;stroke-linecap:round;stroke-linejoin:round;stroke-miterlimit:10;stroke-dasharray:none;stroke-opacity:1"
       transform="matrix(1.3333333,0,0,-1.3333333,424.3288,468.76053)" />
    <path
       id="path17"
       d="M 0,0 -133.689,183.347"
       style="fill:none;stroke:#73b2ff;stroke-width:1.44;stroke-linecap:round;stroke-linejoin:round;stroke-miterlimit:10;stroke-dasharray:none;stroke-opacity:1"
       transform="matrix(1.3333333,0,0,-1.3333333,433.61,462.3608)" />
    <path
       id="path18"
       d="M 0,0 -138.97,179.267"
       style="fill:none;stroke:#e60000;stroke-width:1.44;stroke-linecap:round;stroke-linejoin:round;stroke-miterlimit:10;stroke-dasharray:none;stroke-opacity:1"
       transform="matrix(1.3333333,0,0,-1.3333333,442.57093,455.3204)" />
    <path
       id="path19"
       d="M 0,0 -144.25,175.187"
       style="fill:none;stroke:#e60000;stroke-width:1.44;stroke-linecap:round;stroke-linejoin:round;stroke-miterlimit:10;stroke-dasharray:none;stroke-opacity:1"
       transform="matrix(1.3333333,0,0,-1.3333333,451.53053,447.96107)" />
    <path
       id="path20"
       d="M 0,0 -149.051,171.108"
       style="fill:none;stroke:#b2b2b2;stroke-width:1.44;stroke-linecap:round;stroke-linejoin:round;stroke-miterlimit:10;stroke-dasharray:none;stroke-opacity:1"
       transform="matrix(1.3333333,0,0,-1.3333333,459.85213,440.6016)" />
    <path
       id="path21"
       d="M 0,0 -154.091,166.549"
       style="fill:none;stroke:#b2b2b2;stroke-width:1.44;stroke-linecap:round;stroke-linejoin:round;stroke-miterlimit:10;stroke-dasharray:none;stroke-opacity:1"
       transform="matrix(1.3333333,0,0,-1.3333333,468.17253,432.60293)" />
    <path
       id="path22"
       d="M 0,0 -158.891,162.229"
       style="fill:none;stroke:#b2b2b2;stroke-width:1.44;stroke-linecap:round;stroke-linejoin:round;stroke-miterlimit:10;stroke-dasharray:none;stroke-opacity:1"
       transform="matrix(1.3333333,0,0,-1.3333333,476.17253,424.60293)" />
    <path
       id="path23"
       d="M 0,0 -163.211,157.189"
       style="fill:none;stroke:#73b2ff;stroke-width:1.44;stroke-linecap:round;stroke-linejoin:round;stroke-miterlimit:10;stroke-dasharray:none;stroke-opacity:1"
       transform="matrix(1.3333333,0,0,-1.3333333,483.5332,415.9636)" />
    <path
       id="path24"
       d="M 0,0 -167.772,152.629"
       style="fill:none;stroke:#73b2ff;stroke-width:1.44;stroke-linecap:round;stroke-linejoin:round;stroke-miterlimit:10;stroke-dasharray:none;stroke-opacity:1"
       transform="matrix(1.3333333,0,0,-1.3333333,490.89387,407.32427)" />
    <path
       id="path25"
       d="M 0,0 -172.092,147.83"
       style="fill:none;stroke:#73b2ff;stroke-width:1.44;stroke-linecap:round;stroke-linejoin:round;stroke-miterlimit:10;stroke-dasharray:none;stroke-opacity:1"
       transform="matrix(1.3333333,0,0,-1.3333333,497.93427,398.68493)" />
    <path
       id="path26"
       d="M 0,0 -176.412,142.79"
       style="fill:none;stroke:#73b2ff;stroke-width:1.44;stroke-linecap:round;stroke-linejoin:round;stroke-miterlimit:10;stroke-dasharray:none;stroke-opacity:1"
       transform="matrix(1.3333333,0,0,-1.3333333,504.65427,389.4056)" />
    <path
       id="path27"
       d="M 0,0 -176.412,142.79"
       style="fill:none;stroke:#73b2ff;stroke-width:1.44;stroke-linecap:round;stroke-linejoin:round;stroke-miterlimit:10;stroke-dasharray:none;stroke-opacity:1"
       transform="matrix(1.3333333,0,0,-1.3333333,504.65427,389.4056)" />
    <path
       id="path28"
       d="M 0,0 H 0.24 L 0.48,-0.24 H 0.72 0.96 1.2 L 1.44,-0.48 H 1.68 1.92 L 2.16,-0.72 H 2.4 2.64 2.88 L 3.12,-0.96 H 3.36 3.6 3.84 4.08 L 4.32,-1.2 H 4.56 4.8 5.041 5.28 5.521 L 5.76,-1.44 H 6 6.24 6.48 6.72 6.96 7.201 7.44 7.681 L 7.92,-1.68 H 8.161 8.4 8.641 8.88 h 0.241 0.24 0.24 0.24 0.24 0.24 0.24 0.24 0.24 0.24 0.24 0.24 0.24 0.24 0.24 0.24 0.24 0.24 0.24 l 0.24,0.24 h 0.24 0.24 0.24 0.24 0.24 0.24 0.24 0.24 l 0.24,0.24 h 0.24 0.24 0.24 0.24 0.24 l 0.24,0.24 h 0.24 0.24 0.24 0.24 l 0.24,0.24 h 0.24 0.24 0.24 l 0.24,0.24 h 0.24 0.24 l 0.24,0.24 h 0.24 0.241 0.239 L 21.122,0 h 0.239 0.241 l 0.239,0.24 h 0.241 0.24 l 0.24,0.24 h 0.24 l 0.24,0.24 h 0.24 0.239 l 0.241,0.24 h 0.239 l 0.241,0.24 h 0.239 0.241 l 0.24,0.24 h 0.24 l 0.24,0.24 h 0.24 l 0.24,0.24 h 0.24 l 0.24,0.24 h 0.24 l 0.24,0.24 h 0.24 l 0.24,0.24 h 0.24 l 0.24,0.24 0.24,0.24 h 0.24 l 0.24,0.239 h 0.24 l 0.24,0.241 0.24,0.24 h 0.24 l 0.24,0.24 0.24,0.239 h 0.24 l 0.24,0.241 0.24,0.24 h 0.24 l 0.24,0.24 0.24,0.239 0.24,0.241 h 0.24 l 0.24,0.239 0.24,0.241 0.24,0.239 0.24,0.24 0.24,0.24 h 0.24 l 0.241,0.24 0.239,0.24 0.241,0.24 0.239,0.24 0.241,0.24 0.239,0.24 0.24,0.24 0.24,0.24 0.24,0.24 0.241,0.24 0.239,0.24 0.241,0.24 0.239,0.24 0.241,0.24 0.239,0.24 v 0.24 l 0.241,0.24 0.239,0.24 0.241,0.24 0.24,0.24 v 0.24 l 0.24,0.24 0.24,0.24 0.24,0.24 v 0.24 l 0.24,0.24 0.24,0.24 v 0.24 l 0.24,0.24 0.24,0.24 v 0.24 l 0.24,0.24 0.24,0.24 v 0.24 l 0.24,0.24 v 0.24 l 0.24,0.24 0.24,0.24 v 0.24 l 0.24,0.24 v 0.24 l 0.24,0.24 v 0.24 l 0.24,0.24 v 0.24 l 0.24,0.24 v 0.24 l 0.24,0.24 v 0.24 l 0.24,0.24 v 0.239 l 0.24,0.241 v 0.239 0.241 l 0.24,0.239 v 0.24 l 0.24,0.24 -0.24,0.241"
       style="fill:none;stroke:#ff0000;stroke-width:1.92;stroke-linecap:round;stroke-linejoin:round;stroke-miterlimit:10;stroke-dasharray:none;stroke-opacity:1"
       transform="matrix(1.3333333,0,0,-1.3333333,212.79427,225.57693)" />
    <path
       id="path29"
       d="M 0,0 0.24,-0.24 2.4,-0.72 4.561,-1.92 6,-2.88 8.161,-5.04 9.361,-5.76 11.281,-6 h 3.6 0.721 l 1.199,-0.72 0.72,-0.96 0.48,-1.44 0.241,-5.039 0.96,-2.64 2.64,-3.36 3.84,-3.36 2.64,-1.439 3.12,-0.72 1.921,0.48 0.96,0.48 0.96,0.719 0.72,0.96 0.48,0.96 v 2.161 l -0.24,2.639 -2.16,11.759 0.24,2.4 0.48,1.68 1.44,1.44 2.16,0.96 2.4,0.24 7.441,-0.48 3.84,0.24 2.16,0.72 0.96,0.48 0.48,0.96 v 1.44 l -0.48,1.679 -3.36,6.72 -0.24,0.96 v 0.96 l 0.24,1.2 1.44,2.879 0.72,2.4 0.48,0.96 1.44,1.201 3.6,1.919 0.721,0.96 -0.241,1.2 -1.2,2.16 -0.24,0.96"
       style="fill:none;stroke:#d7fcd9;stroke-width:1.92;stroke-linecap:round;stroke-linejoin:round;stroke-miterlimit:10;stroke-dasharray:none;stroke-opacity:1"
       transform="matrix(1.3333333,0,0,-1.3333333,213.11387,239.336)" />
    <path
       id="path30"
       d="m 0,0 h 0.24 l 2.401,-0.72 1.679,-0.72 1.201,-1.2 2.64,-3.36 0.72,-1.2 0.48,-1.199 v -1.44 l -0.24,-1.44 -0.96,-1.2 -1.2,-1.2 -1.681,-0.72 -1.92,-0.48 -7.68,-1.68 -3.361,-0.96 -1.439,-0.96 -1.2,-0.96 -0.481,-0.96 -0.479,-1.2 0.24,-1.2 0.239,-0.96 0.96,-0.96 0.961,-0.479 1.68,-0.72 5.28,-0.96 7.681,-2.4 1.92,-1.2 0.96,-0.96 0.24,-0.96 -0.72,-1.68 -1.2,-1.44 -1.2,-1.2 -1.68,-1.199 -2.16,-0.96 -2.4,-0.96 -6.241,-1.44 -9.841,-1.44 -4.8,-1.44 -2.16,-0.96 -1.44,-0.96 -1.44,-1.2 -0.721,-1.2 0.24,-1.2 0.72,-0.719 2.881,-1.44 2.4,-0.96 3.6,-0.96 9.121,-1.201 2.639,-0.719 1.201,-0.48 0.96,-0.72 0.48,-0.96 -0.24,-0.96 -0.48,-1.2 -1.2,-1.44 -1.2,-1.2 -1.2,-0.96 -1.68,-0.96 -2.64,-0.96 -3.121,-0.96 -7.2,-1.199 -2.16,-0.48 -0.96,-0.72 -0.96,-1.44 -0.241,-0.24 -3.84,-1.44 -1.2,-0.72 -1.2,-1.44 v -0.96 l -0.24,-2.88 -0.24,-1.2 -0.72,-0.96 -1.2,-1.199 -1.44,-0.96 -3.841,-2.16 -3.12,-0.96 -3.12,-0.96 -5.04,-0.96 -13.681,-1.68 -9.841,-0.72 -1.68,-0.24 -0.72,-0.72 v -0.48 l 0.24,-0.72 1.2,-1.44 2.4,-1.68 6.001,-3.36 1.68,-1.199 0.24,-0.48 0.24,-0.48 -0.24,-0.96 -1.681,-1.92 -0.48,-0.72 -0.239,-0.96 0.239,-1.68 0.721,-1.2 0.719,-0.96 0.961,-0.48 0.96,-0.48 3.6,-0.719 7.201,-1.681 6.24,-1.919 1.44,-0.96 0.72,-1.2 -0.24,-0.72 -1.2,-0.72 -1.92,-0.48 h -4.56 l -14.401,0.96 -11.041,1.92 -9.121,0.96 -6.24,0.96 -9.121,1.92"
       style="fill:none;stroke:#c9fcb3;stroke-width:1.92;stroke-linecap:round;stroke-linejoin:round;stroke-miterlimit:10;stroke-dasharray:none;stroke-opacity:1"
       transform="matrix(1.3333333,0,0,-1.3333333,351.0436,198.05867)" />
    <path
       id="path31"
       d="m 0,0 0.48,0.96 1.2,2.16 1.2,4.319 0.72,4.32 0.72,3.6 0.24,0.72 0.481,0.24 0.719,-0.24 0.96,-0.72 3.601,-4.56 1.44,-1.44 1.44,-1.2 1.68,-0.72 2.64,-0.48 2.4,0.48 2.881,1.2 0.48,0.24 1.44,1.2 1.92,3.12 1.68,4.08 1.2,4.8 0.96,5.039 0.48,4.08 v 0.48 5.039 l -0.72,15.839 v 0.48 l 0.24,1.2 0.24,0.72 h 0.96 l 0.96,-0.48 7.921,-8.159 3.12,-2.16 3.12,-1.68 2.16,-0.48 2.641,0.24 2.4,0.48 6.96,2.4 h 1.201 l 1.199,-0.24 0.24,-0.96 v -1.2 l -0.72,-3.84 -7.92,-17.278 -3.36,-7.68 -2.881,-8.639 -3.12,-10.08 -1.68,-7.439 -1.68,-9.84 -0.24,-1.92 -1.44,-11.518 -1.2,-12.239 v -6.72 l 0.72,-6 1.2,-4.319 2.16,-3.6 2.64,-3.12 1.92,-1.2 1.681,-0.96 2.64,-0.72 2.64,-0.48 2.64,-0.24 1.92,0.48 9.601,-4.799 3.36,-1.2 3.36,-0.96 3.12,-0.72 h 2.641 l 2.88,0.48 1.92,0.719 1.921,1.681 1.679,2.399 2.88,6.48 5.521,10.079 2.4,6.479 1.68,6.241 2.4,10.798 1.92,12.959 1.921,13.68 2.64,13.679 0.72,4.319 1.44,14.159 -0.24,3.84 -0.48,8.159 -0.24,3.121 -0.96,3.359 -3.12,9.6 -1.441,2.639 -1.92,3.36 -2.16,2.88 -2.64,2.4 -4.56,4.079 -1.681,1.92 -0.719,1.2 v 1.2 1.2 l 0.719,1.44 0.96,1.68 1.681,1.2 2.16,1.679 1.92,0.721 h 1.68 l 1.68,-0.96 1.441,-0.48 3.12,0.239 5.76,1.681 4.801,1.679 4.799,1.68 9.362,2.16 2.16,0.72 0.96,0.72 0.479,0.72 0.241,1.2 -0.48,2.879 v 0.96 l 0.72,1.201 1.44,1.919 1.92,1.68 2.88,1.68 8.881,3.36 1.2,1.2 0.24,1.2 -0.24,0.48 -0.48,0.72 -1.92,0.96 -2.641,0.479 -3.6,0.481 -2.88,-0.24 -3.121,-0.241 -9.12,-2.159 h -1.2 l -0.72,0.48 v 0.72 0.959 l 1.68,3.36 7.921,12.719 2.399,4.56 0.961,2.64 0.48,1.92 -0.24,3.359 -0.96,3.36 -1.44,1.92 -1.44,1.2 -4.321,1.92 -2.16,1.44 -3.12,4.08 h -0.48"
       style="fill:none;stroke:#d2dffc;stroke-width:1.92;stroke-linecap:round;stroke-linejoin:round;stroke-miterlimit:10;stroke-dasharray:none;stroke-opacity:1"
       transform="matrix(1.3333333,0,0,-1.3333333,212.79427,395.48507)" />
    <path
       id="path32"
       d="m 0,0 5.521,-2.64 6.72,-2.88 3.6,-0.959 h 1.44 l 0.48,0.24 0.24,0.48 -0.96,3.599 v 0.96 l 0.48,0.96 2.88,3.6 4.081,4.079 0.96,1.681 0.96,2.159 0.96,4.8 2.4,12.959 0.48,5.04 0.48,3.839 -0.24,5.52 v 1.44 l -0.48,3.84 -0.96,5.279 -1.2,5.28 -0.24,1.2 -1.44,6 -0.72,1.92 -0.96,3.119 -0.24,0.24 -2.64,7.2 -3.121,7.439 -0.24,1.44 0.72,-0.48 1.681,-2.16 8.64,-12.959 0.48,-0.96 6.481,-8.4 2.4,-2.399 2.16,-1.68 2.16,-1.2 2.16,-0.48 1.92,-0.24 2.161,0.48 2.4,0.96 3.12,1.68 4.32,3.12 9.121,7.439 4.8,3.6 4.56,3.12 1.681,0.48 h 0.48 l -8.641,-9.839 -6.001,-7.68 -4.08,-5.76 -0.72,-1.2 -2.88,-4.559 -1.68,-3.12 -0.96,-1.44 -3.84,-6.719 -3.601,-7.92 -4.32,-14.159 -0.72,-6 -0.24,-3.119 V 4.32 -7.679 l 0.48,-4.32 0.48,-3.84 1.2,-4.559 1.44,-4.081 1.92,-3.839 1.44,-2.4 2.401,-2.639 2.88,-2.401 2.88,-1.68 3.84,-1.2 2.64,-0.719 h 4.081 l 4.32,0.719 4.08,1.2 2.641,1.201 3.12,1.92 4.8,3.839 3.121,2.88 3.36,3.84 2.16,2.88 2.4,3.6 3.121,5.519 2.879,5.52 1.441,3.599 1.439,3.36 9.841,24.478 5.28,11.04 0.96,2.399 0.96,4.08 0.481,7.2 1.2,6.239 v 2.16 l -0.721,4.32 -1.439,5.039 -1.441,3.36 -2.639,5.28 -0.721,1.92 v 2.16 l 0.96,3.599 v 2.16 l -0.479,4.56 v 1.92 l 0.479,1.44 0.721,1.679 3.599,6.24 2.401,2.88 5.52,5.04 1.92,2.4 1.2,2.399 0.72,1.68 0.24,2.64 0.241,0.72 -0.241,2.64 -0.24,2.159 -0.72,1.2 -0.719,0.72 -1.681,0.96 -1.92,0.24 -0.72,0.24 h -1.92 l -2.88,-0.48 -1.201,0.24 -0.96,0.48 -0.719,0.96 -0.481,2.16 -0.239,5.04 0.239,4.079 0.721,6.72 0.479,3.119 0.481,1.681 0.96,2.879 1.2,2.4 1.44,1.92 0.24,0.24 1.2,1.2"
       style="fill:none;stroke:#c8b3fc;stroke-width:1.92;stroke-linecap:round;stroke-linejoin:round;stroke-miterlimit:10;stroke-dasharray:none;stroke-opacity:1"
       transform="matrix(1.3333333,0,0,-1.3333333,216.3144,413.724)" />
    <path
       id="path33"
       d="m 0,0 h 1.44 1.68 l 5.76,0.72 3.361,0.96 3.12,0.96 0.24,0.24 2.64,1.2 2.88,1.68 2.4,2.159 2.161,1.92 1.44,1.68 0.48,0.72 2.4,3.6 1.68,2.88 0.96,1.679 0.24,0.721 1.92,5.279 0.96,2.64 0.48,1.2 0.961,1.2 0.719,0.48 1.201,0.48 3.6,0.24 1.2,0.24 2.64,0.48 2.16,1.2 2.64,1.679 2.881,2.16 1.2,1.2 1.44,1.2 4.8,4.56 4.561,4.32 7.44,6.719 8.88,6.959 16.322,12.24 4.32,3.599 3.601,3.6 2.639,2.88 3.601,4.56 2.639,4.319 1.681,3.84 5.04,14.879 0.721,1.44 2.16,4.08 1.199,2.399 0.481,2.4 -0.24,5.76 0.48,4.56 1.92,7.199 v 0.24 l 0.96,0.96"
       style="fill:none;stroke:#b3fcfc;stroke-width:1.92;stroke-linecap:round;stroke-linejoin:round;stroke-miterlimit:10;stroke-dasharray:none;stroke-opacity:1"
       transform="matrix(1.3333333,0,0,-1.3333333,213.75453,389.4056)" />
    <path
       id="path34"
       d="m 0,0 -1.92,-3.12 -2.4,-4.08 -3.36,-7.439 -0.961,-2.64 -0.48,-0.96 -0.96,-3.84 -0.48,-3.839 v -2.4 -0.48 l 0.241,-1.92 1.199,-2.64 2.881,-1.92 1.2,-0.48 0.48,-0.24 h 0.48 l 4.08,-1.2 h 0.48 l 4.081,-0.719 3.84,-0.241 4.8,-0.239 4.561,0.239 3.6,0.48 3.6,0.72 3.36,1.2 10.561,4.32 2.64,1.2 2.401,1.68 2.399,1.92 1.441,1.68 2.4,3.119 4.32,6.96 2.401,4.56 1.679,4.079 1.201,3.6 0.719,3.84 1.681,11.279 0.48,6.719 0.24,1.2 -0.24,4.08 -0.241,3.84 -1.439,4.559 -0.721,2.16 -2.16,2.88 -1.439,1.68 -1.681,1.2 -1.92,0.96 -2.16,0.48 -1.68,0.48 h -1.681 -0.479 l -2.4,-0.24 -2.401,-0.48 -2.88,-0.96 -2.64,-1.2 -2.88,-1.44 -5.521,-3.6 -3.36,-2.639 -0.72,-0.721 -1.44,-1.439 -5.521,-6 -2.4,-3.12 -3.6,-4.799 -3.12,-4.56 L 5.521,7.679 0,0"
       style="fill:none;stroke:#b3fcfc;stroke-width:1.92;stroke-linecap:round;stroke-linejoin:round;stroke-miterlimit:10;stroke-dasharray:none;stroke-opacity:1"
       transform="matrix(1.3333333,0,0,-1.3333333,277.7584,366.04693)" />
    <path
       id="path35"
       d="m 0,0 1.92,0.24 1.92,0.24 4.561,1.2 5.28,2.16 5.521,3.36 4.08,3.36 3.12,3.119 2.16,2.4 0.48,0.72 2.64,4.08 v 0.72 h 0.481 l 2.16,3.119 2.16,2.64 1.68,1.2 1.2,0.72 5.04,2.64 1.44,0.96 1.68,0.96 3.361,2.64 4.32,3.599 14.881,14.159 4.32,4.08 v -0.24 l 11.282,10.32 4.32,4.319 0.72,0.72 6.72,7.44 0.72,1.199 1.92,2.4 2.641,4.08 1.44,2.88 2.16,4.08 2.64,7.199 1.44,4.8 0.96,3.599 1.92,9.36 0.481,3.84 2.399,14.159"
       style="fill:none;stroke:#fcdec0;stroke-width:1.92;stroke-linecap:round;stroke-linejoin:round;stroke-miterlimit:10;stroke-dasharray:none;stroke-opacity:1"
       transform="matrix(1.3333333,0,0,-1.3333333,214.71413,382.68627)" />
    <path
       id="path36"
       d="m 0,0 1.68,0.24 3.6,0.96 3.12,0.96 4.801,1.92 5.52,3.119 4.8,3.6 4.561,3.84 2.64,2.64 5.28,6.479 2.161,2.16 1.92,1.44 6.48,4.32 4.081,3.599 15.36,15.119 10.801,10.32 4.8,5.039 3.841,4.32 4.321,5.759 3.839,5.76 3.121,5.04 2.4,4.559 2.4,5.28 2.88,6.96 1.92,6.239 5.761,18.719 2.16,7.92"
       style="fill:none;stroke:#fcb3c7;stroke-width:1.92;stroke-linecap:round;stroke-linejoin:round;stroke-miterlimit:10;stroke-dasharray:none;stroke-opacity:1"
       transform="matrix(1.3333333,0,0,-1.3333333,213.75453,379.806)" />
    <path
       id="path37"
       d="m 0,0 2.4,3.84 2.16,3.839 0.96,1.68 H 5.28 l 0.48,0.72 2.16,2.88 4.561,4.56 4.56,3.359 5.76,3.36 2.641,1.2 2.88,0.72 2.88,0.48 1.44,-0.24 1.441,-0.48 1.2,-0.72 0.719,-1.2 0.481,-1.2 0.239,-1.679 0.24,-1.681 -0.24,-1.919 -0.72,-3.12 -1.2,-3.36 -1.92,-3.12 -4.08,-5.999 -7.68,-9.12 -3.361,-3.599 -3.6,-3.12 -0.96,-0.72 -6.241,-5.04 -1.44,-0.96 -0.96,-0.48 -2.4,-1.92 -3.12,-1.679 -1.68,-0.72 -3.601,-1.44 -2.88,-0.96 h -1.44 -0.96 l -0.72,0.48 -0.24,0.48 -0.24,1.2 0.24,0.96 0.96,3.36 v 0.239 l 0.48,0.721 1.92,4.319 0.24,0.48 0.72,1.68 0.48,0.48 0.24,0.96 0.481,0.72 1.199,2.159 1.441,2.641 1.199,1.919 L 0,0"
       style="fill:none;stroke:#fcb3c7;stroke-width:1.92;stroke-linecap:round;stroke-linejoin:round;stroke-miterlimit:10;stroke-dasharray:none;stroke-opacity:1"
       transform="matrix(1.3333333,0,0,-1.3333333,290.55987,350.68827)" />
    <path
       id="path38"
       d="M 43.427,593.048 H 446.656 V 44.926 H 43.427 Z"
       style="fill:none;stroke:#000000;stroke-width:0.96;stroke-linecap:round;stroke-linejoin:round;stroke-miterlimit:10;stroke-dasharray:none;stroke-opacity:1"
       transform="matrix(1.3333333,0,0,-1.3333333,0,850.56)" />
    <path
       id="path39"
       d="M 0,0 V -5.04"
       style="fill:none;stroke:#000000;stroke-width:1.44;stroke-linecap:round;stroke-linejoin:round;stroke-miterlimit:10;stroke-dasharray:none;stroke-opacity:1"
       transform="matrix(1.3333333,0,0,-1.3333333,551.05787,790.6576)" />
    <text
       id="text39"
       xml:space="preserve"
       transform="matrix(1.3333333,0,0,1.3331556,515.85613,813.14067)"><tspan
         id="tspan39"
         style="font-variant:normal;font-weight:normal;font-stretch:normal;font-size:12.0008px;font-family:Arial;writing-mode:lr-tb;fill:#000000;fill-opacity:1;fill-rule:nonzero;stroke:none"
         x="0"
         dx="0 -0.1920128 0 0 0 0 0.1080072 -0.1920128"
         y="0">91°29'0&quot;E</tspan></text>
    <path
       id="path40"
       d="M 0,0 V 5.04"
       style="fill:none;stroke:#000000;stroke-width:1.44;stroke-linecap:round;stroke-linejoin:round;stroke-miterlimit:10;stroke-dasharray:none;stroke-opacity:1"
       transform="matrix(1.3333333,0,0,-1.3333333,558.41853,59.8288)" />
    <text
       id="text40"
       xml:space="preserve"
       transform="matrix(1.3333333,0,0,1.3331556,523.2168,48.438933)"><tspan
         id="tspan40"
         style="font-variant:normal;font-weight:normal;font-stretch:normal;font-size:12.0008px;font-family:Arial;writing-mode:lr-tb;fill:#000000;fill-opacity:1;fill-rule:nonzero;stroke:none"
         x="0"
         dx="0 -0.1920128 0 0 0 0 0.1080072 -0.1920128"
         y="0">91°29'0&quot;E</tspan></text>
    <path
       id="path41"
       d="M 0,0 V -5.04"
       style="fill:none;stroke:#000000;stroke-width:1.44;stroke-linecap:round;stroke-linejoin:round;stroke-miterlimit:10;stroke-dasharray:none;stroke-opacity:1"
       transform="matrix(1.3333333,0,0,-1.3333333,399.6868,790.6576)" />
    <text
       id="text41"
       xml:space="preserve"
       transform="matrix(1.3333333,0,0,1.3331556,360.16467,813.14067)"><tspan
         id="tspan41"
         style="font-variant:normal;font-weight:normal;font-stretch:normal;font-size:12.0008px;font-family:Arial;writing-mode:lr-tb;fill:#000000;fill-opacity:1;fill-rule:nonzero;stroke:none"
         x="0"
         dx="0 -0.1920128 0 0 0 0 0.1080072 -0.1920128"
         y="0">91°26'40&quot;E</tspan></text>
    <path
       id="path42"
       d="M 0,0 V 5.04"
       style="fill:none;stroke:#000000;stroke-width:1.44;stroke-linecap:round;stroke-linejoin:round;stroke-miterlimit:10;stroke-dasharray:none;stroke-opacity:1"
       transform="matrix(1.3333333,0,0,-1.3333333,407.04747,59.8288)" />
    <text
       id="text42"
       xml:space="preserve"
       transform="matrix(1.3333333,0,0,1.3331556,367.52533,48.438933)"><tspan
         id="tspan42"
         style="font-variant:normal;font-weight:normal;font-stretch:normal;font-size:12.0008px;font-family:Arial;writing-mode:lr-tb;fill:#000000;fill-opacity:1;fill-rule:nonzero;stroke:none"
         x="0"
         dx="0 -0.1920128 0 0 0 0 0.1080072 -0.1920128"
         y="0">91°26'40&quot;E</tspan></text>
    <path
       id="path43"
       d="M 0,0 V -5.04"
       style="fill:none;stroke:#000000;stroke-width:1.44;stroke-linecap:round;stroke-linejoin:round;stroke-miterlimit:10;stroke-dasharray:none;stroke-opacity:1"
       transform="matrix(1.3333333,0,0,-1.3333333,247.99667,790.6576)" />
    <text
       id="text43"
       xml:space="preserve"
       transform="matrix(1.3333333,0,0,1.3331556,208.474,813.14067)"><tspan
         id="tspan43"
         style="font-variant:normal;font-weight:normal;font-stretch:normal;font-size:12.0008px;font-family:Arial;writing-mode:lr-tb;fill:#000000;fill-opacity:1;fill-rule:nonzero;stroke:none"
         x="0"
         dx="0 -0.1920128 0 0 0 0 0.1080072 -0.1920128"
         y="0">91°24'20&quot;E</tspan></text>
    <path
       id="path44"
       d="M 0,0 V 5.04"
       style="fill:none;stroke:#000000;stroke-width:1.44;stroke-linecap:round;stroke-linejoin:round;stroke-miterlimit:10;stroke-dasharray:none;stroke-opacity:1"
       transform="matrix(1.3333333,0,0,-1.3333333,255.67707,59.8288)" />
    <text
       id="text44"
       xml:space="preserve"
       transform="matrix(1.3333333,0,0,1.3331556,216.15427,48.438933)"><tspan
         id="tspan44"
         style="font-variant:normal;font-weight:normal;font-stretch:normal;font-size:12.0008px;font-family:Arial;writing-mode:lr-tb;fill:#000000;fill-opacity:1;fill-rule:nonzero;stroke:none"
         x="0"
         dx="0 -0.1920128 0 0 0 0 0.1080072 -0.1920128"
         y="0">91°24'20&quot;E</tspan></text>
    <path
       id="path45"
       d="M 0,0 V -5.04"
       style="fill:none;stroke:#000000;stroke-width:1.44;stroke-linecap:round;stroke-linejoin:round;stroke-miterlimit:10;stroke-dasharray:none;stroke-opacity:1"
       transform="matrix(1.3333333,0,0,-1.3333333,96.6256,790.6576)" />
    <text
       id="text45"
       xml:space="preserve"
       transform="matrix(1.3333333,0,0,1.3331556,61.4232,813.14067)"><tspan
         id="tspan45"
         style="font-variant:normal;font-weight:normal;font-stretch:normal;font-size:12.0008px;font-family:Arial;writing-mode:lr-tb;fill:#000000;fill-opacity:1;fill-rule:nonzero;stroke:none"
         x="0"
         dx="0 -0.1920128 0 0 0 0 0.1080072 -0.1920128"
         y="0">91°22'0&quot;E</tspan></text>
    <path
       id="path46"
       d="M 0,0 V 5.04"
       style="fill:none;stroke:#000000;stroke-width:1.44;stroke-linecap:round;stroke-linejoin:round;stroke-miterlimit:10;stroke-dasharray:none;stroke-opacity:1"
       transform="matrix(1.3333333,0,0,-1.3333333,104.30667,59.8288)" />
    <text
       id="text46"
       xml:space="preserve"
       transform="matrix(1.3333333,0,0,1.3331556,69.104133,48.438933)"><tspan
         id="tspan46"
         style="font-variant:normal;font-weight:normal;font-stretch:normal;font-size:12.0008px;font-family:Arial;writing-mode:lr-tb;fill:#000000;fill-opacity:1;fill-rule:nonzero;stroke:none"
         x="0"
         dx="0 -0.1920128 0 0 0 0 0.1080072 -0.1920128"
         y="0">91°22'0&quot;E</tspan></text>
    <path
       id="path47"
       d="M 0,0 H -5.04"
       style="fill:none;stroke:#000000;stroke-width:1.44;stroke-linecap:round;stroke-linejoin:round;stroke-miterlimit:10;stroke-dasharray:none;stroke-opacity:1"
       transform="matrix(1.3333333,0,0,-1.3333333,57.902933,176.3008)" />
    <text
       id="text47"
       xml:space="preserve"
       transform="matrix(0,-1.3333333,1.3335111,0,46.261733,216.2976)"><tspan
         id="tspan47"
         style="font-variant:normal;font-weight:normal;font-stretch:normal;font-size:11.9992px;font-family:Arial;writing-mode:lr-tb;fill:#000000;fill-opacity:1;fill-rule:nonzero;stroke:none"
         x="0"
         dx="0 -0.1919872 0 0 0 0 0.1079928 -0.1919872"
         y="0">22°23'20&quot;N</tspan></text>
    <path
       id="path48"
       d="M 0,0 H 5.041"
       style="fill:none;stroke:#000000;stroke-width:1.44;stroke-linecap:round;stroke-linejoin:round;stroke-miterlimit:10;stroke-dasharray:none;stroke-opacity:1"
       transform="matrix(1.3333333,0,0,-1.3333333,595.54093,182.06)" />
    <text
       id="text48"
       xml:space="preserve"
       transform="matrix(0,-1.3333333,1.3335111,0,618.27733,222.05867)"><tspan
         id="tspan48"
         style="font-variant:normal;font-weight:normal;font-stretch:normal;font-size:11.9992px;font-family:Arial;writing-mode:lr-tb;fill:#000000;fill-opacity:1;fill-rule:nonzero;stroke:none"
         x="0"
         dx="0 -0.1919872 0 0 0 0 0.1079928 -0.1919872"
         y="0">22°23'20&quot;N</tspan></text>
    <path
       id="path49"
       d="M 0,0 H -5.04"
       style="fill:none;stroke:#000000;stroke-width:1.44;stroke-linecap:round;stroke-linejoin:round;stroke-miterlimit:10;stroke-dasharray:none;stroke-opacity:1"
       transform="matrix(1.3333333,0,0,-1.3333333,57.902933,339.16933)" />
    <text
       id="text49"
       xml:space="preserve"
       transform="matrix(0,-1.3333333,1.3335111,0,46.2624,374.68693)"><tspan
         id="tspan49"
         style="font-variant:normal;font-weight:normal;font-stretch:normal;font-size:11.9992px;font-family:Arial;writing-mode:lr-tb;fill:#000000;fill-opacity:1;fill-rule:nonzero;stroke:none"
         x="0"
         dx="0 -0.1919872 0 0 0 0 0.1079928 -0.1919872"
         y="0">22°21'0&quot;N</tspan></text>
    <path
       id="path50"
       d="M 0,0 H 5.041"
       style="fill:none;stroke:#000000;stroke-width:1.44;stroke-linecap:round;stroke-linejoin:round;stroke-miterlimit:10;stroke-dasharray:none;stroke-opacity:1"
       transform="matrix(1.3333333,0,0,-1.3333333,595.54093,344.6088)" />
    <text
       id="text50"
       xml:space="preserve"
       transform="matrix(0,-1.3333333,1.3335111,0,618.27733,380.1264)"><tspan
         id="tspan50"
         style="font-variant:normal;font-weight:normal;font-stretch:normal;font-size:11.9992px;font-family:Arial;writing-mode:lr-tb;fill:#000000;fill-opacity:1;fill-rule:nonzero;stroke:none"
         x="0"
         dx="0 -0.1919872 0 0 0 0 0.1079928 -0.1919872"
         y="0">22°21'0&quot;N</tspan></text>
    <path
       id="path51"
       d="M 0,0 H -5.04"
       style="fill:none;stroke:#000000;stroke-width:1.44;stroke-linecap:round;stroke-linejoin:round;stroke-miterlimit:10;stroke-dasharray:none;stroke-opacity:1"
       transform="matrix(1.3333333,0,0,-1.3333333,57.902933,501.71747)" />
    <text
       id="text51"
       xml:space="preserve"
       transform="matrix(0,-1.3333333,1.3335111,0,46.261733,541.7156)"><tspan
         id="tspan51"
         style="font-variant:normal;font-weight:normal;font-stretch:normal;font-size:11.9992px;font-family:Arial;writing-mode:lr-tb;fill:#000000;fill-opacity:1;fill-rule:nonzero;stroke:none"
         x="0"
         dx="0 -0.1919872 0 0 0 0 0.1079928 -0.1919872"
         y="0">22°18'40&quot;N</tspan></text>
    <path
       id="path52"
       d="M 0,0 H 5.041"
       style="fill:none;stroke:#000000;stroke-width:1.44;stroke-linecap:round;stroke-linejoin:round;stroke-miterlimit:10;stroke-dasharray:none;stroke-opacity:1"
       transform="matrix(1.3333333,0,0,-1.3333333,595.54093,507.47787)" />
    <text
       id="text52"
       xml:space="preserve"
       transform="matrix(0,-1.3333333,1.3335111,0,618.27667,547.47533)"><tspan
         id="tspan52"
         style="font-variant:normal;font-weight:normal;font-stretch:normal;font-size:11.9992px;font-family:Arial;writing-mode:lr-tb;fill:#000000;fill-opacity:1;fill-rule:nonzero;stroke:none"
         x="0"
         dx="0 -0.1919872 0 0 0 0 0.1079928 -0.1919872"
         y="0">22°18'40&quot;N</tspan></text>
    <path
       id="path53"
       d="M 0,0 H -5.04"
       style="fill:none;stroke:#000000;stroke-width:1.44;stroke-linecap:round;stroke-linejoin:round;stroke-miterlimit:10;stroke-dasharray:none;stroke-opacity:1"
       transform="matrix(1.3333333,0,0,-1.3333333,57.902933,664.586)" />
    <text
       id="text53"
       xml:space="preserve"
       transform="matrix(0,-1.3333333,1.3335111,0,46.261733,704.58413)"><tspan
         id="tspan53"
         style="font-variant:normal;font-weight:normal;font-stretch:normal;font-size:11.9992px;font-family:Arial;writing-mode:lr-tb;fill:#000000;fill-opacity:1;fill-rule:nonzero;stroke:none"
         x="0"
         dx="0 -0.1919872 0 0 0 0 0.1079928 -0.1919872"
         y="0">22°16'20&quot;N</tspan></text>
    <path
       id="path54"
       d="M 0,0 H 5.041"
       style="fill:none;stroke:#000000;stroke-width:1.44;stroke-linecap:round;stroke-linejoin:round;stroke-miterlimit:10;stroke-dasharray:none;stroke-opacity:1"
       transform="matrix(1.3333333,0,0,-1.3333333,595.54093,670.02613)" />
    <text
       id="text54"
       xml:space="preserve"
       transform="matrix(0,-1.3333333,1.3335111,0,618.27733,710.0248)"><tspan
         id="tspan54"
         style="font-variant:normal;font-weight:normal;font-stretch:normal;font-size:11.9992px;font-family:Arial;writing-mode:lr-tb;fill:#000000;fill-opacity:1;fill-rule:nonzero;stroke:none"
         x="0"
         dx="0 -0.1919872 0 0 0 0 0.1079928 -0.1919872"
         y="0">22°16'20&quot;N</tspan></text>
    <path
       id="path55"
       d="M 43.427,593.048 H 446.656 V 44.926 H 43.427 Z"
       style="fill:none;stroke:#000000;stroke-width:1.44;stroke-linecap:round;stroke-linejoin:round;stroke-miterlimit:10;stroke-dasharray:none;stroke-opacity:1"
       transform="matrix(1.3333333,0,0,-1.3333333,0,850.56)" />
    <text
       id="text55"
       xml:space="preserve"
       transform="matrix(1.3333333,0,0,1.3331456,527.696,158.062)"><tspan
         id="tspan55"
         style="font-variant:normal;font-weight:normal;font-stretch:normal;font-size:69.6049px;font-family:'ESRI North';writing-mode:lr-tb;fill:#000000;fill-opacity:1;fill-rule:nonzero;stroke:none"
         x="0"
         y="0">±</tspan></text>
    <path
       id="path56"
       d="M 0,0 H 60.964"
       style="fill:none;stroke:#ad2b00;stroke-width:1.92;stroke-linecap:round;stroke-linejoin:round;stroke-miterlimit:10;stroke-dasharray:none;stroke-opacity:1"
       transform="matrix(1.3333333,0,0,-1.3333333,115.18747,563.79307)" />
    <text
       id="text56"
       xml:space="preserve"
       transform="matrix(1.3333333,0,0,1.3331418,117.42773,551.31387)"><tspan
         id="tspan56"
         style="font-variant:normal;font-weight:700;font-stretch:normal;font-size:13.921px;font-family:Arial;writing-mode:lr-tb;fill:#000000;fill-opacity:1;fill-rule:nonzero;stroke:none"
         x="0"
         dx="0 0 0 0.18097299 0 0 0.20881499 -0.111368"
         y="0">Baseline</tspan><tspan
         id="tspan57"
         style="font-variant:normal;font-weight:700;font-stretch:normal;font-size:13.921px;font-family:Arial;writing-mode:lr-tb;fill:#000000;fill-opacity:1;fill-rule:nonzero;stroke:none"
         x="-4.7888241"
         dx="0 0 0.13921 -0.111368 0.111368 0.18097299 0 0 0.13921"
         y="26.644794">shoreline</tspan></text>
    <text
       id="text57"
       xml:space="preserve"
       transform="matrix(1.3333333,0,0,1.3331459,317.12173,104.11733)"><tspan
         id="tspan58"
         style="font-variant:normal;font-weight:700;font-stretch:normal;font-size:19.9214px;font-family:Arial;writing-mode:lr-tb;fill:#000000;fill-opacity:1;fill-rule:nonzero;stroke:none"
         x="0"
         y="0">D</tspan></text>
    <path
       id="path58"
       d="M 0,0 H 30.002"
       style="fill:none;stroke:#c0c0c0;stroke-width:0.96;stroke-linecap:round;stroke-linejoin:round;stroke-miterlimit:10;stroke-dasharray:9.375, 15;stroke-dashoffset:0;stroke-opacity:1"
       transform="matrix(1.3333333,0,0,-1.3333333,331.5228,739.78133)" />
    <path
       id="path59"
       d="M 0,0 H 30.002"
       style="fill:none;stroke:#c0c0c0;stroke-width:0.96;stroke-linecap:round;stroke-linejoin:round;stroke-miterlimit:10;stroke-dasharray:9.375, 15;stroke-dashoffset:0;stroke-opacity:1"
       transform="matrix(1.3333333,0,0,-1.3333333,331.5228,739.78133)" />
    <text
       id="text59"
       xml:space="preserve"
       transform="matrix(1.3333333,0,0,1.3331556,378.56573,745.8608)"><tspan
         id="tspan59"
         style="font-variant:normal;font-weight:normal;font-stretch:normal;font-size:12.0008px;font-family:Arial;writing-mode:lr-tb;fill:#000000;fill-opacity:1;fill-rule:nonzero;stroke:none"
         x="0"
         y="0">NULL</tspan><tspan
         id="tspan60"
         style="font-style:italic;font-variant:normal;font-weight:normal;font-stretch:normal;font-size:12.0008px;font-family:Arial;writing-mode:lr-tb;fill:#000000;fill-opacity:1;fill-rule:nonzero;stroke:none"
         x="46.32309"
         dx="0 0 0 -0.2160144 0 0 0 0 0 0 0 0 0 0 0 0 0 0 -0.1920128"
         y="-0.72004801">Rate not calculated</tspan><tspan
         id="tspan61"
         style="font-style:italic;font-variant:normal;font-weight:normal;font-stretch:normal;font-size:12.0008px;font-family:Arial;writing-mode:lr-tb;fill:#000000;fill-opacity:1;fill-rule:nonzero;stroke:none"
         x="46.335091"
         dx="0 -0.1920128 0 0 0 0 0 0 0 0 0.084005602 0 -0.1920128"
         y="12.960864">at this transect</tspan></text>
    <path
       id="path61"
       d="M 0,0 H 30.002"
       style="fill:none;stroke:#d7fcd9;stroke-width:1.92;stroke-linecap:round;stroke-linejoin:round;stroke-miterlimit:10;stroke-dasharray:none;stroke-opacity:1"
       transform="matrix(1.3333333,0,0,-1.3333333,114.2272,607.95053)" />
    <text
       id="text61"
       xml:space="preserve"
       transform="matrix(1.3333333,0,0,1.3331556,161.59053,614.03)"><tspan
         id="tspan62"
         style="font-variant:normal;font-weight:normal;font-stretch:normal;font-size:12.0008px;font-family:Arial;writing-mode:lr-tb;fill:#000000;fill-opacity:1;fill-rule:nonzero;stroke:none"
         x="0"
         dx="0 -0.1920128"
         y="0">2005</tspan></text>
    <path
       id="path62"
       d="M 0,0 H 30.002"
       style="fill:none;stroke:#c9fcb3;stroke-width:1.92;stroke-linecap:round;stroke-linejoin:round;stroke-miterlimit:10;stroke-dasharray:none;stroke-opacity:1"
       transform="matrix(1.3333333,0,0,-1.3333333,114.2272,635.14853)" />
    <text
       id="text62"
       xml:space="preserve"
       transform="matrix(1.3333333,0,0,1.3331556,161.59053,641.228)"><tspan
         id="tspan63"
         style="font-variant:normal;font-weight:normal;font-stretch:normal;font-size:12.0008px;font-family:Arial;writing-mode:lr-tb;fill:#000000;fill-opacity:1;fill-rule:nonzero;stroke:none"
         x="0"
         dx="0 -0.1920128"
         y="0">2008</tspan></text>
    <path
       id="path63"
       d="M 0,0 H 30.002"
       style="fill:none;stroke:#d2dffc;stroke-width:1.92;stroke-linecap:round;stroke-linejoin:round;stroke-miterlimit:10;stroke-dasharray:none;stroke-opacity:1"
       transform="matrix(1.3333333,0,0,-1.3333333,114.2272,662.3464)" />
    <text
       id="text63"
       xml:space="preserve"
       transform="matrix(1.3333333,0,0,1.3331556,161.59053,668.42587)"><tspan
         id="tspan64"
         style="font-variant:normal;font-weight:normal;font-stretch:normal;font-size:12.0008px;font-family:Arial;writing-mode:lr-tb;fill:#000000;fill-opacity:1;fill-rule:nonzero;stroke:none"
         x="0"
         dx="0 -0.1920128 0 -0.9120608"
         y="0">2011</tspan></text>
    <path
       id="path64"
       d="M 0,0 H 30.002"
       style="fill:none;stroke:#c8b3fc;stroke-width:1.92;stroke-linecap:round;stroke-linejoin:round;stroke-miterlimit:10;stroke-dasharray:none;stroke-opacity:1"
       transform="matrix(1.3333333,0,0,-1.3333333,114.2272,689.54427)" />
    <text
       id="text64"
       xml:space="preserve"
       transform="matrix(1.3333333,0,0,1.3331556,161.59053,695.62387)"><tspan
         id="tspan65"
         style="font-variant:normal;font-weight:normal;font-stretch:normal;font-size:12.0008px;font-family:Arial;writing-mode:lr-tb;fill:#000000;fill-opacity:1;fill-rule:nonzero;stroke:none"
         x="0"
         dx="0 -0.1920128"
         y="0">2014</tspan></text>
    <path
       id="path65"
       d="M 0,0 H 30.002"
       style="fill:none;stroke:#b3fcfc;stroke-width:1.92;stroke-linecap:round;stroke-linejoin:round;stroke-miterlimit:10;stroke-dasharray:none;stroke-opacity:1"
       transform="matrix(1.3333333,0,0,-1.3333333,114.2272,716.74227)" />
    <text
       id="text65"
       xml:space="preserve"
       transform="matrix(1.3333333,0,0,1.3331556,161.59053,722.82173)"><tspan
         id="tspan66"
         style="font-variant:normal;font-weight:normal;font-stretch:normal;font-size:12.0008px;font-family:Arial;writing-mode:lr-tb;fill:#000000;fill-opacity:1;fill-rule:nonzero;stroke:none"
         x="0"
         dx="0 -0.1920128"
         y="0">2017</tspan></text>
    <path
       id="path66"
       d="M 0,0 H 30.002"
       style="fill:none;stroke:#fcdec0;stroke-width:1.92;stroke-linecap:round;stroke-linejoin:round;stroke-miterlimit:10;stroke-dasharray:none;stroke-opacity:1"
       transform="matrix(1.3333333,0,0,-1.3333333,114.2272,743.6212)" />
    <text
       id="text66"
       xml:space="preserve"
       transform="matrix(1.3333333,0,0,1.3331556,161.59053,749.70067)"><tspan
         id="tspan67"
         style="font-variant:normal;font-weight:normal;font-stretch:normal;font-size:12.0008px;font-family:Arial;writing-mode:lr-tb;fill:#000000;fill-opacity:1;fill-rule:nonzero;stroke:none"
         x="0"
         dx="0 -0.1920128"
         y="0">2020</tspan></text>
    <path
       id="path67"
       d="M 0,0 H 30.002"
       style="fill:none;stroke:#fcb3c7;stroke-width:1.92;stroke-linecap:round;stroke-linejoin:round;stroke-miterlimit:10;stroke-dasharray:none;stroke-opacity:1"
       transform="matrix(1.3333333,0,0,-1.3333333,114.2272,770.81907)" />
    <text
       id="text67"
       xml:space="preserve"
       transform="matrix(1.3333333,0,0,1.3331556,161.59053,776.89853)"><tspan
         id="tspan68"
         style="font-variant:normal;font-weight:normal;font-stretch:normal;font-size:12.0008px;font-family:Arial;writing-mode:lr-tb;fill:#000000;fill-opacity:1;fill-rule:nonzero;stroke:none"
         x="0"
         dx="0 -0.1920128"
         y="0">2023</tspan></text>
    <text
       id="text68"
       xml:space="preserve"
       transform="matrix(1.3333333,0,0,1.3331482,331.5228,556.43373)"><tspan
         id="tspan69"
         style="font-variant:normal;font-weight:700;font-stretch:normal;font-size:12.9609px;font-family:Arial;writing-mode:lr-tb;fill:#000000;fill-opacity:1;fill-rule:nonzero;stroke:none"
         x="0"
         dx="0 0 0 0 0 0 0.2332962 0 0 0 0 0 0 0.2332962"
         y="0">EPR(meter/year)</tspan></text>
    <path
       id="path69"
       d="M 0,0 H 30.002"
       style="fill:none;stroke:#b2b2b2;stroke-width:1.44;stroke-linecap:round;stroke-linejoin:round;stroke-miterlimit:10;stroke-dasharray:none;stroke-opacity:1"
       transform="matrix(1.3333333,0,0,-1.3333333,331.5228,576.9128)" />
    <text
       id="text69"
       xml:space="preserve"
       transform="matrix(1.3333333,0,0,1.3331556,378.56573,582.99227)"><tspan
         id="tspan70"
         style="font-variant:normal;font-weight:normal;font-stretch:normal;font-size:12.0008px;font-family:Arial;writing-mode:lr-tb;fill:#000000;fill-opacity:1;fill-rule:nonzero;stroke:none"
         x="0"
         dx="0 -0.1920128 0 0 0 0 0 0 -0.1920128 0 0 0.084005602 0 0 -0.1920128"
         y="0">91.740000 - 95.860000</tspan></text>
    <path
       id="path70"
       d="M 0,0 H 30.002"
       style="fill:none;stroke:#e60000;stroke-width:1.44;stroke-linecap:round;stroke-linejoin:round;stroke-miterlimit:10;stroke-dasharray:none;stroke-opacity:1"
       transform="matrix(1.3333333,0,0,-1.3333333,331.5228,604.11067)" />
    <text
       id="text70"
       xml:space="preserve"
       transform="matrix(1.3333333,0,0,1.3331556,378.56573,610.19027)"><tspan
         id="tspan71"
         style="font-variant:normal;font-weight:normal;font-stretch:normal;font-size:12.0008px;font-family:Arial;writing-mode:lr-tb;fill:#000000;fill-opacity:1;fill-rule:nonzero;stroke:none"
         x="0"
         dx="0 -0.1920128 0 0 0 0 0 0 -0.1920128 0 0 0.084005602 0 0 -0.1920128"
         y="0">95.860001 - 104.910000</tspan></text>
    <path
       id="path71"
       d="M 0,0 H 30.002"
       style="fill:none;stroke:#73b2ff;stroke-width:1.44;stroke-linecap:round;stroke-linejoin:round;stroke-miterlimit:10;stroke-dasharray:none;stroke-opacity:1"
       transform="matrix(1.3333333,0,0,-1.3333333,331.5228,631.30867)" />
    <text
       id="text71"
       xml:space="preserve"
       transform="matrix(1.3333333,0,0,1.3331556,378.56573,637.38813)"><tspan
         id="tspan72"
         style="font-variant:normal;font-weight:normal;font-stretch:normal;font-size:12.0008px;font-family:Arial;writing-mode:lr-tb;fill:#000000;fill-opacity:1;fill-rule:nonzero;stroke:none"
         x="0"
         dx="0 -0.1920128 0 0 0 0 0 0 -0.1920128 0 0 0 0.084005602 0 -0.9120608 -0.9120608 0 0 0 -0.1920128"
         y="0">104.910001 - 111.710000</tspan></text>
    <path
       id="path72"
       d="M 0,0 H 30.002"
       style="fill:none;stroke:#e6e600;stroke-width:1.44;stroke-linecap:round;stroke-linejoin:round;stroke-miterlimit:10;stroke-dasharray:none;stroke-opacity:1"
       transform="matrix(1.3333333,0,0,-1.3333333,331.5228,658.50653)" />
    <text
       id="text72"
       xml:space="preserve"
       transform="matrix(1.3333333,0,0,1.3331556,378.56573,664.586)"><tspan
         id="tspan73"
         style="font-variant:normal;font-weight:normal;font-stretch:normal;font-size:12.0008px;font-family:Arial;writing-mode:lr-tb;fill:#000000;fill-opacity:1;fill-rule:nonzero;stroke:none"
         x="0"
         dx="0 -0.9120608 -0.9120608 0 0 -0.1920128 0 0 0 0 0 0 -0.1560104 0 0 0 0 0 0 -0.1920128"
         y="0">111.710001 - 120.040000</tspan></text>
    <path
       id="path73"
       d="M 0,0 H 30.002"
       style="fill:none;stroke:#e6e600;stroke-width:1.44;stroke-linecap:round;stroke-linejoin:round;stroke-miterlimit:10;stroke-dasharray:none;stroke-opacity:1"
       transform="matrix(1.3333333,0,0,-1.3333333,331.5228,685.38547)" />
    <text
       id="text73"
       xml:space="preserve"
       transform="matrix(1.3333333,0,0,1.3331556,378.56573,691.46493)"><tspan
         id="tspan74"
         style="font-variant:normal;font-weight:normal;font-stretch:normal;font-size:12.0008px;font-family:Arial;writing-mode:lr-tb;fill:#000000;fill-opacity:1;fill-rule:nonzero;stroke:none"
         x="0"
         dx="0 -0.1920128 0 0 0 0 0 0 -0.1920128 0 0 0 0.084005602 0 -0.1920128 0 0 0 0 0 0 0 -0.1920128"
         y="0">120.040001 - 178.040000</tspan></text>
    <path
       id="path74"
       d="M 0,0 H 30.002"
       style="fill:none;stroke:#e6e600;stroke-width:1.44;stroke-linecap:round;stroke-linejoin:round;stroke-miterlimit:10;stroke-dasharray:none;stroke-opacity:1"
       transform="matrix(1.3333333,0,0,-1.3333333,331.5228,712.58333)" />
    <text
       id="text74"
       xml:space="preserve"
       transform="matrix(1.3333333,0,0,1.3331556,378.56573,718.6628)"><tspan
         id="tspan75"
         style="font-variant:normal;font-weight:normal;font-stretch:normal;font-size:12.0008px;font-family:Arial;writing-mode:lr-tb;fill:#000000;fill-opacity:1;fill-rule:nonzero;stroke:none"
         x="0"
         dx="0 -0.1920128 0 0 0 0 0 0 -0.1920128 0 0 0 0.084005602 0 -0.1920128 0 0 0 0 0 0 0 -0.1920128"
         y="0">178.040001 - 199.450000</tspan></text>
  </g>
</svg>
