<?xml version="1.0" encoding="UTF-8" standalone="no"?>
<!-- Created with Inkscape (http://www.inkscape.org/) -->

<svg
   version="1.1"
   id="svg1"
   width="653.38666"
   height="850.56"
   viewBox="0 0 653.38666 850.56"
   sodipodi:docname="EPR_B.pdf"
   xmlns:inkscape="http://www.inkscape.org/namespaces/inkscape"
   xmlns:sodipodi="http://sodipodi.sourceforge.net/DTD/sodipodi-0.dtd"
   xmlns="http://www.w3.org/2000/svg"
   xmlns:svg="http://www.w3.org/2000/svg">
  <defs
     id="defs1">
    <clipPath
       clipPathUnits="userSpaceOnUse"
       id="clipPath2">
      <path
         d="M 0,0 H 490.04 V 637.92 H 0 Z"
         id="path2" />
    </clipPath>
  </defs>
  <sodipodi:namedview
     id="namedview1"
     pagecolor="#ffffff"
     bordercolor="#000000"
     borderopacity="0.25"
     inkscape:showpageshadow="2"
     inkscape:pageopacity="0.0"
     inkscape:pagecheckerboard="0"
     inkscape:deskcolor="#d1d1d1">
    <inkscape:page
       x="0"
       y="0"
       inkscape:label="1"
       id="page1"
       width="653.38666"
       height="850.56"
       margin="0"
       bleed="0" />
  </sodipodi:namedview>
  <g
     id="layer-MC0"
     inkscape:groupmode="layer"
     inkscape:label="Layer 1">
    <path
       id="path1"
       d="M -59.06,716.64 H 549.143 V -76.984 H -59.06 Z"
       style="fill:none;stroke:#000000;stroke-width:0.96;stroke-linecap:round;stroke-linejoin:round;stroke-miterlimit:10;stroke-dasharray:none;stroke-opacity:1"
       transform="matrix(1.3333333,0,0,-1.3333333,0,850.56)"
       clip-path="url(#clipPath2)" />
    <path
       id="path3"
       d="M 0,0 75.845,-213.585"
       style="fill:none;stroke:#4e4e4e;stroke-width:1.44;stroke-linecap:round;stroke-linejoin:round;stroke-miterlimit:10;stroke-dasharray:none;stroke-opacity:1"
       transform="matrix(1.3333333,0,0,-1.3333333,114.8672,203.1784)" />
    <path
       id="path4"
       d="M 0,0 68.405,-216.225"
       style="fill:none;stroke:#4e4e4e;stroke-width:1.44;stroke-linecap:round;stroke-linejoin:round;stroke-miterlimit:10;stroke-dasharray:none;stroke-opacity:1"
       transform="matrix(1.3333333,0,0,-1.3333333,127.028,198.37893)" />
    <path
       id="path5"
       d="M 0,0 59.764,-218.865"
       style="fill:none;stroke:#4e4e4e;stroke-width:1.44;stroke-linecap:round;stroke-linejoin:round;stroke-miterlimit:10;stroke-dasharray:none;stroke-opacity:1"
       transform="matrix(1.3333333,0,0,-1.3333333,140.78907,193.8992)" />
    <path
       id="path6"
       d="M 0,0 50.164,-221.265"
       style="fill:none;stroke:#4e4e4e;stroke-width:1.44;stroke-linecap:round;stroke-linejoin:round;stroke-miterlimit:10;stroke-dasharray:none;stroke-opacity:1"
       transform="matrix(1.3333333,0,0,-1.3333333,155.83,189.41933)" />
    <path
       id="path7"
       d="M 0,0 40.563,-223.185"
       style="fill:none;stroke:#e6e600;stroke-width:1.44;stroke-linecap:round;stroke-linejoin:round;stroke-miterlimit:10;stroke-dasharray:none;stroke-opacity:1"
       transform="matrix(1.3333333,0,0,-1.3333333,171.19133,185.57947)" />
    <path
       id="path8"
       d="M 0,0 30.722,-224.864"
       style="fill:none;stroke:#4e4e4e;stroke-width:1.44;stroke-linecap:round;stroke-linejoin:round;stroke-miterlimit:10;stroke-dasharray:none;stroke-opacity:1"
       transform="matrix(1.3333333,0,0,-1.3333333,186.552,182.38027)" />
    <path
       id="path9"
       d="M 0,0 20.881,-225.824"
       style="fill:none;stroke:#e64b41;stroke-width:1.44;stroke-linecap:round;stroke-linejoin:round;stroke-miterlimit:10;stroke-dasharray:none;stroke-opacity:1"
       transform="matrix(1.3333333,0,0,-1.3333333,202.23373,179.8204)" />
    <path
       id="path10"
       d="M 0,0 10.801,-226.544"
       style="fill:none;stroke:#e64b41;stroke-width:1.44;stroke-linecap:round;stroke-linejoin:round;stroke-miterlimit:10;stroke-dasharray:none;stroke-opacity:1"
       transform="matrix(1.3333333,0,0,-1.3333333,217.91467,177.9004)" />
    <path
       id="path11"
       d="M 0,0 0.96,-226.784"
       style="fill:none;stroke:#e64b41;stroke-width:1.44;stroke-linecap:round;stroke-linejoin:round;stroke-miterlimit:10;stroke-dasharray:none;stroke-opacity:1"
       transform="matrix(1.3333333,0,0,-1.3333333,233.59573,176.62053)" />
    <path
       id="path12"
       d="M 0,0 -9.121,-226.784"
       style="fill:none;stroke:#e64b41;stroke-width:1.44;stroke-linecap:round;stroke-linejoin:round;stroke-miterlimit:10;stroke-dasharray:none;stroke-opacity:1"
       transform="matrix(1.3333333,0,0,-1.3333333,249.59693,175.66027)" />
    <path
       id="path13"
       d="M 0,0 -18.961,-226.064"
       style="fill:none;stroke:#e64b41;stroke-width:1.44;stroke-linecap:round;stroke-linejoin:round;stroke-miterlimit:10;stroke-dasharray:none;stroke-opacity:1"
       transform="matrix(1.3333333,0,0,-1.3333333,265.278,175.66027)" />
    <path
       id="path14"
       d="M 0,0 -29.282,-224.864"
       style="fill:none;stroke:#c500ff;stroke-width:1.44;stroke-linecap:round;stroke-linejoin:round;stroke-miterlimit:10;stroke-dasharray:none;stroke-opacity:1"
       transform="matrix(1.3333333,0,0,-1.3333333,281.27933,176.3008)" />
    <path
       id="path15"
       d="M 0,0 -39.363,-223.424"
       style="fill:none;stroke:#c500ff;stroke-width:1.44;stroke-linecap:round;stroke-linejoin:round;stroke-miterlimit:10;stroke-dasharray:none;stroke-opacity:1"
       transform="matrix(1.3333333,0,0,-1.3333333,297.27987,177.58013)" />
    <path
       id="path16"
       d="M 0,0 -49.204,-221.265"
       style="fill:none;stroke:#c500ff;stroke-width:1.44;stroke-linecap:round;stroke-linejoin:round;stroke-miterlimit:10;stroke-dasharray:none;stroke-opacity:1"
       transform="matrix(1.3333333,0,0,-1.3333333,312.9616,179.8204)" />
    <path
       id="path17"
       d="M 0,0 -55.684,-220.064"
       style="fill:none;stroke:#c500ff;stroke-width:1.44;stroke-linecap:round;stroke-linejoin:round;stroke-miterlimit:10;stroke-dasharray:none;stroke-opacity:1"
       transform="matrix(1.3333333,0,0,-1.3333333,324.16213,181.10027)" />
    <path
       id="path18"
       d="M 0,0 -62.884,-217.904"
       style="fill:none;stroke:#e6e600;stroke-width:1.44;stroke-linecap:round;stroke-linejoin:round;stroke-miterlimit:10;stroke-dasharray:none;stroke-opacity:1"
       transform="matrix(1.3333333,0,0,-1.3333333,336.64253,183.66027)" />
    <path
       id="path19"
       d="M 0,0 -71.045,-215.266"
       style="fill:none;stroke:#e6e600;stroke-width:1.44;stroke-linecap:round;stroke-linejoin:round;stroke-miterlimit:10;stroke-dasharray:none;stroke-opacity:1"
       transform="matrix(1.3333333,0,0,-1.3333333,350.084,186.85947)" />
    <path
       id="path20"
       d="M 0,0 -79.206,-212.385"
       style="fill:none;stroke:#e6e600;stroke-width:1.44;stroke-linecap:round;stroke-linejoin:round;stroke-miterlimit:10;stroke-dasharray:none;stroke-opacity:1"
       transform="matrix(1.3333333,0,0,-1.3333333,363.52533,191.0196)" />
    <path
       id="path21"
       d="M 0,0 -87.606,-209.266"
       style="fill:none;stroke:#e6e600;stroke-width:1.44;stroke-linecap:round;stroke-linejoin:round;stroke-miterlimit:10;stroke-dasharray:none;stroke-opacity:1"
       transform="matrix(1.3333333,0,0,-1.3333333,377.28573,195.81907)" />
    <path
       id="path22"
       d="M 0,0 -96.247,-205.186"
       style="fill:none;stroke:#e6e600;stroke-width:1.44;stroke-linecap:round;stroke-linejoin:round;stroke-miterlimit:10;stroke-dasharray:none;stroke-opacity:1"
       transform="matrix(1.3333333,0,0,-1.3333333,391.04613,202.53853)" />
    <path
       id="path23"
       d="M 0,0 -105.368,-200.866"
       style="fill:none;stroke:#e6e600;stroke-width:1.44;stroke-linecap:round;stroke-linejoin:round;stroke-miterlimit:10;stroke-dasharray:none;stroke-opacity:1"
       transform="matrix(1.3333333,0,0,-1.3333333,404.80787,210.53787)" />
    <path
       id="path24"
       d="M 0,0 -114.729,-195.586"
       style="fill:none;stroke:#e6e600;stroke-width:1.44;stroke-linecap:round;stroke-linejoin:round;stroke-miterlimit:10;stroke-dasharray:none;stroke-opacity:1"
       transform="matrix(1.3333333,0,0,-1.3333333,418.24933,219.81773)" />
    <path
       id="path25"
       d="M 0,0 -123.849,-189.827"
       style="fill:none;stroke:#e6e600;stroke-width:1.44;stroke-linecap:round;stroke-linejoin:round;stroke-miterlimit:10;stroke-dasharray:none;stroke-opacity:1"
       transform="matrix(1.3333333,0,0,-1.3333333,431.36907,230.05667)" />
    <path
       id="path26"
       d="M 0,0 -133.689,-183.107"
       style="fill:none;stroke:#e6e600;stroke-width:1.44;stroke-linecap:round;stroke-linejoin:round;stroke-miterlimit:10;stroke-dasharray:none;stroke-opacity:1"
       transform="matrix(1.3333333,0,0,-1.3333333,444.81053,241.5756)" />
    <path
       id="path27"
       d="M 0,0 -143.53,-175.908"
       style="fill:none;stroke:#e6e600;stroke-width:1.44;stroke-linecap:round;stroke-linejoin:round;stroke-miterlimit:10;stroke-dasharray:none;stroke-opacity:1"
       transform="matrix(1.3333333,0,0,-1.3333333,457.9316,254.0548)" />
    <path
       id="path28"
       d="M 0,0 -153.131,-167.269"
       style="fill:none;stroke:#e6e600;stroke-width:1.44;stroke-linecap:round;stroke-linejoin:round;stroke-miterlimit:10;stroke-dasharray:none;stroke-opacity:1"
       transform="matrix(1.3333333,0,0,-1.3333333,470.7324,268.13413)" />
    <path
       id="path29"
       d="M 0,0 -162.972,-157.909"
       style="fill:none;stroke:#e6e600;stroke-width:1.44;stroke-linecap:round;stroke-linejoin:round;stroke-miterlimit:10;stroke-dasharray:none;stroke-opacity:1"
       transform="matrix(1.3333333,0,0,-1.3333333,483.85347,283.1732)" />
    <path
       id="path30"
       d="M 0,0 -172.332,-147.35"
       style="fill:none;stroke:#e6e600;stroke-width:1.44;stroke-linecap:round;stroke-linejoin:round;stroke-miterlimit:10;stroke-dasharray:none;stroke-opacity:1"
       transform="matrix(1.3333333,0,0,-1.3333333,496.0136,299.81187)" />
    <path
       id="path31"
       d="M 0,0 -181.453,-136.31"
       style="fill:none;stroke:#e6e600;stroke-width:1.44;stroke-linecap:round;stroke-linejoin:round;stroke-miterlimit:10;stroke-dasharray:none;stroke-opacity:1"
       transform="matrix(1.3333333,0,0,-1.3333333,507.8548,317.41093)" />
    <path
       id="path32"
       d="M 0,0 -190.094,-123.831"
       style="fill:none;stroke:#e6e600;stroke-width:1.44;stroke-linecap:round;stroke-linejoin:round;stroke-miterlimit:10;stroke-dasharray:none;stroke-opacity:1"
       transform="matrix(1.3333333,0,0,-1.3333333,518.73627,336.60947)" />
    <path
       id="path33"
       d="M 0,0 -198.254,-110.392"
       style="fill:none;stroke:#e6e600;stroke-width:1.44;stroke-linecap:round;stroke-linejoin:round;stroke-miterlimit:10;stroke-dasharray:none;stroke-opacity:1"
       transform="matrix(1.3333333,0,0,-1.3333333,528.6568,356.7676)" />
    <path
       id="path34"
       d="M 0,0 -205.455,-96.233"
       style="fill:none;stroke:#e6e600;stroke-width:1.44;stroke-linecap:round;stroke-linejoin:round;stroke-miterlimit:10;stroke-dasharray:none;stroke-opacity:1"
       transform="matrix(1.3333333,0,0,-1.3333333,537.61773,378.2064)" />
    <path
       id="path35"
       d="m 0,0 1.2,0.721 0.72,0.479 1.92,1.2 0.48,0.241 3.361,1.92 0.24,0.239 0.72,0.48 3.36,1.68 1.44,0.72 0.96,0.48 2.4,1.199 2.16,0.96 h 0.48 l 2.881,1.201 2.88,1.2 2.64,0.719 4.08,0.96 3.6,0.48 3.841,-0.48 1.2,-0.24 1.92,-1.439 0.96,-1.441 1.2,-3.119 0.24,-2.4 V 0.721 0.48 l -0.24,-2.4 -0.48,-2.399 V -4.56 l -0.96,-3.359 -0.24,-1.2 -0.48,-1.2"
       style="fill:none;stroke:#e60000;stroke-width:1.92;stroke-linecap:round;stroke-linejoin:round;stroke-miterlimit:10;stroke-dasharray:none;stroke-opacity:1"
       transform="matrix(1.3333333,0,0,-1.3333333,206.71347,493.7188)" />
    <path
       id="path36"
       d="m 0,0 4.561,3.6 4.56,2.159 4.56,1.68 2.16,0.24 2.16,0.24 9.361,-0.72 1.44,-0.24 1.44,-0.48 2.64,-1.919 0.721,-0.96 0.72,-0.96 0.24,-1.2 0.24,-1.2 -1.921,-7.679 -0.239,-1.681 0.48,-1.679 0.96,-1.92 7.44,-8.159 3.36,-4.32 2.401,-3.36 0.96,-2.88 v -2.64 l -0.48,-7.199 0.239,-4.8 -0.239,-1.92 -1.681,-5.759 -0.24,-1.68 0.24,-1.2 0.241,-0.48 0.719,-0.48 0.48,-0.24 h 6.241 l 1.92,-0.24 1.2,-0.72 1.68,-1.44 0.72,-0.96 2.16,-4.799 0.241,-1.441 v -1.2 l -0.48,-1.199 -1.201,-1.68 -3.6,-3.839 -0.96,-1.681 -0.24,-1.199 0.24,-2.161 0.48,-1.439 5.04,-6.24 0.721,-1.44 0.24,-1.2 v -0.72 l -1.68,-5.279 -0.961,-3.84 v -5.04 l 0.24,-4.08 v -4.559 l -0.48,-1.44 -1.2,-2.88"
       style="fill:none;stroke:#d7d8fc;stroke-width:1.92;stroke-linecap:round;stroke-linejoin:round;stroke-miterlimit:10;stroke-dasharray:none;stroke-opacity:1"
       transform="matrix(1.3333333,0,0,-1.3333333,207.35347,348.76827)" />
    <path
       id="path37"
       d="m 0,0 12.481,8.159 6.24,3.84 6.481,3.6 8.881,4.319 7.2,2.88 6.72,1.68 6.481,0.72 h 4.56 l 1.92,-0.24 h 1.44 l 3.361,-0.72 4.56,-1.68 2.4,-1.2 2.64,-1.44 2.16,-1.92 3.121,-2.64 2.88,-3.12 2.64,-3.119 2.88,-4.08 2.4,-3.6 3.841,-6.719 1.2,-3.84 0.48,-2.88 -0.24,-2.399 -0.96,-4.8 -0.241,-2.16 v -3.839 l 0.721,-2.16 0.96,-0.96 0.96,-0.481"
       style="fill:none;stroke:#b6f9fc;stroke-width:1.92;stroke-linecap:round;stroke-linejoin:round;stroke-miterlimit:10;stroke-dasharray:none;stroke-opacity:1"
       transform="matrix(1.3333333,0,0,-1.3333333,207.67387,469.07947)" />
    <path
       id="path38"
       d="m 0,0 14.401,8.159 9.841,4.8 8.16,3.12 5.281,1.44 3.12,0.72 7.44,0.48 6.001,-0.48 3.12,-0.48 3.12,-0.72 6.961,-2.4 6.48,-2.879 7.681,-4.561 10.561,-6.719 1.199,-0.72 13.442,-9.119 8.16,-6.48 4.081,-3.599 4.8,-5.041 1.92,-2.159"
       style="fill:none;stroke:#fafcbd;stroke-width:1.92;stroke-linecap:round;stroke-linejoin:round;stroke-miterlimit:10;stroke-dasharray:none;stroke-opacity:1"
       transform="matrix(1.3333333,0,0,-1.3333333,207.67387,471)" />
    <path
       id="path39"
       d="m 0,0 8.641,4.08 5.52,3.359 3.12,1.44 2.401,0.721 4.319,0.48 2.401,0.239 1.92,-0.239 4.801,-0.96 5.28,-0.721 4.8,-1.679 3.12,-0.96 1.44,-0.48 6.721,-2.16 4.56,-2.16 4.56,-2.399 7.681,-4.561 25.922,-16.318 20.642,-14.399 6.719,-5.76 2.641,-4.32 4.32,-5.519 1.92,-3.12 2.881,-3.839 0.72,-0.481 0.72,-0.239 2.64,0.239 0.24,-0.239 0.48,-0.481 v -1.439 l -0.48,-2.16 -0.72,-2.401 -1.201,-1.679 -2.399,-2.64 -4.56,-3.6"
       style="fill:none;stroke:#b3b3fc;stroke-width:1.92;stroke-linecap:round;stroke-linejoin:round;stroke-miterlimit:10;stroke-dasharray:none;stroke-opacity:1"
       transform="matrix(1.3333333,0,0,-1.3333333,207.67387,407.64453)" />
    <path
       id="path40"
       d="m 0,0 3.12,2.64 5.761,4.08 2.64,1.44 9.84,3.84 0.961,0.479 0.48,0.48 0.48,0.24 4.32,3.36 1.44,0.72 0.72,0.48 2.64,0.48 h 2.4 l 2.401,-0.24 2.4,-0.48 3.12,-1.2 3.6,-1.68 5.76,-3.36 6.961,-4.079 5.761,-4.08 8.16,-6.24 8.881,-5.759 4.08,-2.88 3.12,-2.88 4.081,-4.319 5.76,-7.68 2.4,-2.4 2.16,-2.16 2.641,-2.639 5.76,-7.68 2.881,-6.24 1.2,-2.399 1.679,-2.88 2.161,-5.279 2.879,-6.241 3.841,-11.279 1.68,-5.759 0.96,-3.599 0.48,-2.641 0.241,-3.359 0.239,-0.72 v -10.8 l -0.72,-4.8 -0.24,-0.479 v -0.481"
       style="fill:none;stroke:#befcb6;stroke-width:1.92;stroke-linecap:round;stroke-linejoin:round;stroke-miterlimit:10;stroke-dasharray:none;stroke-opacity:1"
       transform="matrix(1.3333333,0,0,-1.3333333,207.67387,362.84773)" />
    <path
       id="path41"
       d="m 0,0 6,0.24 h 5.521 l 6.48,-0.24 5.52,-0.48 6.001,-0.72 6.96,-1.44 7.201,-1.92 5.28,-1.68 5.761,-2.4 5.04,-2.399 4.32,-2.4 4.561,-3.6 2.64,-2.399 1.92,-2.641 2.64,-3.839 6.241,-9.359 1.68,-3.6 0.24,-0.48 2.64,-4.32 1.2,-3.6 0.48,-0.96 1.441,-1.68 4.08,-3.599 3.6,-5.04 3.12,-7.199 6.721,-14.16 1.44,-3.359 2.64,-5.76 2.16,-6.959 0.96,-2.4 0.48,-2.16 1.921,-4.32 1.439,-4.079 1.92,-4.56 0.481,-2.16 0.24,-2.399 -0.721,-6.96 -0.239,-1.2 -0.481,-11.04 -0.24,-5.04 -0.72,-17.757 -0.96,-4.8 -0.96,-7.2 -0.24,-1.68"
       style="fill:none;stroke:#fcdac7;stroke-width:1.92;stroke-linecap:round;stroke-linejoin:round;stroke-miterlimit:10;stroke-dasharray:none;stroke-opacity:1"
       transform="matrix(1.3333333,0,0,-1.3333333,207.67387,275.4936)" />
    <path
       id="path42"
       d="m 0,0 4.08,0.24 9.121,0.24 16.081,-0.24 h 8.401 0.239 L 46.323,0 l 7.441,-0.48 5.28,-0.24 4.56,-0.72 5.281,-1.2 4.8,-1.2 5.28,-1.92 4.561,-1.679 3.36,-1.681 4.321,-2.4 6.24,-4.079 5.761,-4.56 4.799,-4.32 5.041,-5.279 6,-7.68 3.12,-4.559 4.081,-6.72 5.28,-10.319 1.2,-3.6 0.721,-1.68 3.12,-7.199 1.679,-4.32 1.441,-6.479 0.72,-6.24 -0.241,-2.4 -0.719,-4.799 -0.241,-1.44 -0.719,-1.44 -0.241,-0.24 -1.44,-1.68 -4.08,-2.64 -0.72,-0.48 -0.24,-0.72 0.24,-0.72 1.2,-0.72 7.441,-3.12 0.96,-0.719 0.72,-1.2 0.72,-3.84 0.48,-2.64 0.24,-1.919 -0.48,-1.681 -1.92,-4.319 -0.48,-1.92 v -0.72 l 0.239,-0.72 0.481,-0.48 3.36,-2.16 1.68,-2.64 0.48,-2.88 -0.24,-1.68 -0.72,-1.439 -0.72,-1.2 -0.96,-0.72 -1.68,-0.96 -1.44,-0.72 -2.88,-0.48 h -4.321 l -3.36,0.48 -2.4,0.72 -2.16,1.439 -0.72,0.481 -2.88,2.88 -0.721,0.239 -0.479,-0.239 -0.241,-0.24 -0.48,-0.72 -0.239,-1.681 0.239,-2.879 1.2,-2.64 2.641,-4.079 0.479,-1.201 v -0.96 l -1.2,-1.439 -3.84,-3.84 -1.679,-1.68 -0.96,-1.44 -0.241,-0.48 -0.72,-1.44 -0.72,-1.68 -1.2,-3.359 -1.2,-3.601"
       style="fill:none;stroke:#fcb3d5;stroke-width:1.92;stroke-linecap:round;stroke-linejoin:round;stroke-miterlimit:10;stroke-dasharray:none;stroke-opacity:1"
       transform="matrix(1.3333333,0,0,-1.3333333,208.63413,277.7332)" />
    <path
       id="path43"
       d="M 43.427,593.048 H 446.656 V 44.926 H 43.427 Z"
       style="fill:none;stroke:#000000;stroke-width:0.96;stroke-linecap:round;stroke-linejoin:round;stroke-miterlimit:10;stroke-dasharray:none;stroke-opacity:1"
       transform="matrix(1.3333333,0,0,-1.3333333,0,850.56)" />
    <path
       id="path44"
       d="M 0,0 V -5.04"
       style="fill:none;stroke:#000000;stroke-width:1.44;stroke-linecap:round;stroke-linejoin:round;stroke-miterlimit:10;stroke-dasharray:none;stroke-opacity:1"
       transform="matrix(1.3333333,0,0,-1.3333333,547.218,790.6576)" />
    <text
       id="text44"
       xml:space="preserve"
       transform="matrix(1.3333333,0,0,1.3331556,512.01493,813.14067)"><tspan
         id="tspan44"
         style="font-variant:normal;font-weight:normal;font-stretch:normal;font-size:12.0008px;font-family:Arial;writing-mode:lr-tb;fill:#000000;fill-opacity:1;fill-rule:nonzero;stroke:none"
         x="0"
         dx="0 -0.1920128 0 0 0 0 0.1080072 -0.1920128"
         y="0">91°29'0&quot;E</tspan></text>
    <path
       id="path45"
       d="M 0,0 V 5.04"
       style="fill:none;stroke:#000000;stroke-width:1.44;stroke-linecap:round;stroke-linejoin:round;stroke-miterlimit:10;stroke-dasharray:none;stroke-opacity:1"
       transform="matrix(1.3333333,0,0,-1.3333333,554.89907,59.8288)" />
    <text
       id="text45"
       xml:space="preserve"
       transform="matrix(1.3333333,0,0,1.3331556,519.696,48.438933)"><tspan
         id="tspan45"
         style="font-variant:normal;font-weight:normal;font-stretch:normal;font-size:12.0008px;font-family:Arial;writing-mode:lr-tb;fill:#000000;fill-opacity:1;fill-rule:nonzero;stroke:none"
         x="0"
         dx="0 -0.1920128 0 0 0 0 0.1080072 -0.1920128"
         y="0">91°29'0&quot;E</tspan></text>
    <path
       id="path46"
       d="M 0,0 V -5.04"
       style="fill:none;stroke:#000000;stroke-width:1.44;stroke-linecap:round;stroke-linejoin:round;stroke-miterlimit:10;stroke-dasharray:none;stroke-opacity:1"
       transform="matrix(1.3333333,0,0,-1.3333333,395.84693,790.6576)" />
    <text
       id="text46"
       xml:space="preserve"
       transform="matrix(1.3333333,0,0,1.3331556,356.32493,813.14067)"><tspan
         id="tspan46"
         style="font-variant:normal;font-weight:normal;font-stretch:normal;font-size:12.0008px;font-family:Arial;writing-mode:lr-tb;fill:#000000;fill-opacity:1;fill-rule:nonzero;stroke:none"
         x="0"
         dx="0 -0.1920128 0 0 0 0 0.1080072 -0.1920128"
         y="0">91°26'40&quot;E</tspan></text>
    <path
       id="path47"
       d="M 0,0 V 5.04"
       style="fill:none;stroke:#000000;stroke-width:1.44;stroke-linecap:round;stroke-linejoin:round;stroke-miterlimit:10;stroke-dasharray:none;stroke-opacity:1"
       transform="matrix(1.3333333,0,0,-1.3333333,403.528,59.8288)" />
    <text
       id="text47"
       xml:space="preserve"
       transform="matrix(1.3333333,0,0,1.3331556,364.00453,48.438933)"><tspan
         id="tspan47"
         style="font-variant:normal;font-weight:normal;font-stretch:normal;font-size:12.0008px;font-family:Arial;writing-mode:lr-tb;fill:#000000;fill-opacity:1;fill-rule:nonzero;stroke:none"
         x="0"
         dx="0 -0.1920128 0 0 0 0 0.1080072 -0.1920128"
         y="0">91°26'40&quot;E</tspan></text>
    <path
       id="path48"
       d="M 0,0 V -5.04"
       style="fill:none;stroke:#000000;stroke-width:1.44;stroke-linecap:round;stroke-linejoin:round;stroke-miterlimit:10;stroke-dasharray:none;stroke-opacity:1"
       transform="matrix(1.3333333,0,0,-1.3333333,244.47653,790.6576)" />
    <text
       id="text48"
       xml:space="preserve"
       transform="matrix(1.3333333,0,0,1.3331556,204.95373,813.14067)"><tspan
         id="tspan48"
         style="font-variant:normal;font-weight:normal;font-stretch:normal;font-size:12.0008px;font-family:Arial;writing-mode:lr-tb;fill:#000000;fill-opacity:1;fill-rule:nonzero;stroke:none"
         x="0"
         dx="0 -0.1920128 0 0 0 0 0.1080072 -0.1920128"
         y="0">91°24'20&quot;E</tspan></text>
    <path
       id="path49"
       d="M 0,0 V 5.04"
       style="fill:none;stroke:#000000;stroke-width:1.44;stroke-linecap:round;stroke-linejoin:round;stroke-miterlimit:10;stroke-dasharray:none;stroke-opacity:1"
       transform="matrix(1.3333333,0,0,-1.3333333,252.15693,59.8288)" />
    <text
       id="text49"
       xml:space="preserve"
       transform="matrix(1.3333333,0,0,1.3331556,212.63413,48.438933)"><tspan
         id="tspan49"
         style="font-variant:normal;font-weight:normal;font-stretch:normal;font-size:12.0008px;font-family:Arial;writing-mode:lr-tb;fill:#000000;fill-opacity:1;fill-rule:nonzero;stroke:none"
         x="0"
         dx="0 -0.1920128 0 0 0 0 0.1080072 -0.1920128"
         y="0">91°24'20&quot;E</tspan></text>
    <path
       id="path50"
       d="M 0,0 V -5.04"
       style="fill:none;stroke:#000000;stroke-width:1.44;stroke-linecap:round;stroke-linejoin:round;stroke-miterlimit:10;stroke-dasharray:none;stroke-opacity:1"
       transform="matrix(1.3333333,0,0,-1.3333333,93.105467,790.6576)" />
    <text
       id="text50"
       xml:space="preserve"
       transform="matrix(1.3333333,0,0,1.3331556,57.902933,813.14067)"><tspan
         id="tspan50"
         style="font-variant:normal;font-weight:normal;font-stretch:normal;font-size:12.0008px;font-family:Arial;writing-mode:lr-tb;fill:#000000;fill-opacity:1;fill-rule:nonzero;stroke:none"
         x="0"
         dx="0 -0.1920128 0 0 0 0 0.1080072 -0.1920128"
         y="0">91°22'0&quot;E</tspan></text>
    <path
       id="path51"
       d="M 0,0 V 5.04"
       style="fill:none;stroke:#000000;stroke-width:1.44;stroke-linecap:round;stroke-linejoin:round;stroke-miterlimit:10;stroke-dasharray:none;stroke-opacity:1"
       transform="matrix(1.3333333,0,0,-1.3333333,101.10613,59.8288)" />
    <text
       id="text51"
       xml:space="preserve"
       transform="matrix(1.3333333,0,0,1.3331556,65.9036,48.438933)"><tspan
         id="tspan51"
         style="font-variant:normal;font-weight:normal;font-stretch:normal;font-size:12.0008px;font-family:Arial;writing-mode:lr-tb;fill:#000000;fill-opacity:1;fill-rule:nonzero;stroke:none"
         x="0"
         dx="0 -0.1920128 0 0 0 0 0.1080072 -0.1920128"
         y="0">91°22'0&quot;E</tspan></text>
    <path
       id="path52"
       d="M 0,0 H -5.04"
       style="fill:none;stroke:#000000;stroke-width:1.44;stroke-linecap:round;stroke-linejoin:round;stroke-miterlimit:10;stroke-dasharray:none;stroke-opacity:1"
       transform="matrix(1.3333333,0,0,-1.3333333,57.902933,160.94147)" />
    <text
       id="text52"
       xml:space="preserve"
       transform="matrix(0,-1.3333333,1.3335111,0,46.261733,196.45907)"><tspan
         id="tspan52"
         style="font-variant:normal;font-weight:normal;font-stretch:normal;font-size:11.9992px;font-family:Arial;writing-mode:lr-tb;fill:#000000;fill-opacity:1;fill-rule:nonzero;stroke:none"
         x="0"
         dx="0 -0.1919872 0 0 0 0 0.1079928 -0.1919872"
         y="0">22°28'0&quot;N</tspan></text>
    <path
       id="path53"
       d="M 0,0 H 5.041"
       style="fill:none;stroke:#000000;stroke-width:1.44;stroke-linecap:round;stroke-linejoin:round;stroke-miterlimit:10;stroke-dasharray:none;stroke-opacity:1"
       transform="matrix(1.3333333,0,0,-1.3333333,595.54093,166.38093)" />
    <text
       id="text53"
       xml:space="preserve"
       transform="matrix(0,-1.3333333,1.3335111,0,618.27733,201.89987)"><tspan
         id="tspan53"
         style="font-variant:normal;font-weight:normal;font-stretch:normal;font-size:11.9992px;font-family:Arial;writing-mode:lr-tb;fill:#000000;fill-opacity:1;fill-rule:nonzero;stroke:none"
         x="0"
         dx="0 -0.1919872 0 0 0 0 0.1079928 -0.1919872"
         y="0">22°28'0&quot;N</tspan></text>
    <path
       id="path54"
       d="M 0,0 H -5.04"
       style="fill:none;stroke:#000000;stroke-width:1.44;stroke-linecap:round;stroke-linejoin:round;stroke-miterlimit:10;stroke-dasharray:none;stroke-opacity:1"
       transform="matrix(1.3333333,0,0,-1.3333333,57.902933,323.49027)" />
    <text
       id="text54"
       xml:space="preserve"
       transform="matrix(0,-1.3333333,1.3335111,0,46.2624,363.48773)"><tspan
         id="tspan54"
         style="font-variant:normal;font-weight:normal;font-stretch:normal;font-size:11.9992px;font-family:Arial;writing-mode:lr-tb;fill:#000000;fill-opacity:1;fill-rule:nonzero;stroke:none"
         x="0"
         dx="0 -0.1919872 0 0 0 0 0.1079928 -0.1919872"
         y="0">22°25'40&quot;N</tspan></text>
    <path
       id="path55"
       d="M 0,0 H 5.041"
       style="fill:none;stroke:#000000;stroke-width:1.44;stroke-linecap:round;stroke-linejoin:round;stroke-miterlimit:10;stroke-dasharray:none;stroke-opacity:1"
       transform="matrix(1.3333333,0,0,-1.3333333,595.54093,329.25)" />
    <text
       id="text55"
       xml:space="preserve"
       transform="matrix(0,-1.3333333,1.3335111,0,618.27667,369.2488)"><tspan
         id="tspan55"
         style="font-variant:normal;font-weight:normal;font-stretch:normal;font-size:11.9992px;font-family:Arial;writing-mode:lr-tb;fill:#000000;fill-opacity:1;fill-rule:nonzero;stroke:none"
         x="0"
         dx="0 -0.1919872 0 0 0 0 0.1079928 -0.1919872"
         y="0">22°25'40&quot;N</tspan></text>
    <path
       id="path56"
       d="M 0,0 H -5.04"
       style="fill:none;stroke:#000000;stroke-width:1.44;stroke-linecap:round;stroke-linejoin:round;stroke-miterlimit:10;stroke-dasharray:none;stroke-opacity:1"
       transform="matrix(1.3333333,0,0,-1.3333333,57.902933,486.35813)" />
    <text
       id="text56"
       xml:space="preserve"
       transform="matrix(0,-1.3333333,1.3335111,0,46.261733,526.35627)"><tspan
         id="tspan56"
         style="font-variant:normal;font-weight:normal;font-stretch:normal;font-size:11.9992px;font-family:Arial;writing-mode:lr-tb;fill:#000000;fill-opacity:1;fill-rule:nonzero;stroke:none"
         x="0"
         dx="0 -0.1919872 0 0 0 0 0.1079928 -0.1919872"
         y="0">22°23'20&quot;N</tspan></text>
    <path
       id="path57"
       d="M 0,0 H 5.041"
       style="fill:none;stroke:#000000;stroke-width:1.44;stroke-linecap:round;stroke-linejoin:round;stroke-miterlimit:10;stroke-dasharray:none;stroke-opacity:1"
       transform="matrix(1.3333333,0,0,-1.3333333,595.54093,491.79827)" />
    <text
       id="text57"
       xml:space="preserve"
       transform="matrix(0,-1.3333333,1.3335111,0,618.27733,531.79573)"><tspan
         id="tspan57"
         style="font-variant:normal;font-weight:normal;font-stretch:normal;font-size:11.9992px;font-family:Arial;writing-mode:lr-tb;fill:#000000;fill-opacity:1;fill-rule:nonzero;stroke:none"
         x="0"
         dx="0 -0.1919872 0 0 0 0 0.1079928 -0.1919872"
         y="0">22°23'20&quot;N</tspan></text>
    <path
       id="path58"
       d="M 0,0 H -5.04"
       style="fill:none;stroke:#000000;stroke-width:1.44;stroke-linecap:round;stroke-linejoin:round;stroke-miterlimit:10;stroke-dasharray:none;stroke-opacity:1"
       transform="matrix(1.3333333,0,0,-1.3333333,57.902933,648.9076)" />
    <text
       id="text58"
       xml:space="preserve"
       transform="matrix(0,-1.3333333,1.3335111,0,46.261733,684.4252)"><tspan
         id="tspan58"
         style="font-variant:normal;font-weight:normal;font-stretch:normal;font-size:11.9992px;font-family:Arial;writing-mode:lr-tb;fill:#000000;fill-opacity:1;fill-rule:nonzero;stroke:none"
         x="0"
         dx="0 -0.1919872 0 0 0 0 0.1079928 -0.1919872"
         y="0">22°21'0&quot;N</tspan></text>
    <path
       id="path59"
       d="M 0,0 H 5.041"
       style="fill:none;stroke:#000000;stroke-width:1.44;stroke-linecap:round;stroke-linejoin:round;stroke-miterlimit:10;stroke-dasharray:none;stroke-opacity:1"
       transform="matrix(1.3333333,0,0,-1.3333333,595.54093,654.66667)" />
    <text
       id="text59"
       xml:space="preserve"
       transform="matrix(0,-1.3333333,1.3335111,0,618.27733,690.18627)"><tspan
         id="tspan59"
         style="font-variant:normal;font-weight:normal;font-stretch:normal;font-size:11.9992px;font-family:Arial;writing-mode:lr-tb;fill:#000000;fill-opacity:1;fill-rule:nonzero;stroke:none"
         x="0"
         dx="0 -0.1919872 0 0 0 0 0.1079928 -0.1919872"
         y="0">22°21'0&quot;N</tspan></text>
    <path
       id="path60"
       d="M 43.427,593.048 H 446.656 V 44.926 H 43.427 Z"
       style="fill:none;stroke:#000000;stroke-width:1.44;stroke-linecap:round;stroke-linejoin:round;stroke-miterlimit:10;stroke-dasharray:none;stroke-opacity:1"
       transform="matrix(1.3333333,0,0,-1.3333333,0,850.56)" />
    <text
       id="text60"
       xml:space="preserve"
       transform="matrix(1.3333333,0,0,1.3331456,527.696,158.062)"><tspan
         id="tspan60"
         style="font-variant:normal;font-weight:normal;font-stretch:normal;font-size:69.6049px;font-family:'ESRI North';writing-mode:lr-tb;fill:#000000;fill-opacity:1;fill-rule:nonzero;stroke:none"
         x="0"
         y="0">±</tspan></text>
    <path
       id="path61"
       d="M 0,0 H 60.964"
       style="fill:none;stroke:#ad2b00;stroke-width:1.92;stroke-linecap:round;stroke-linejoin:round;stroke-miterlimit:10;stroke-dasharray:none;stroke-opacity:1"
       transform="matrix(1.3333333,0,0,-1.3333333,115.18747,563.79307)" />
    <text
       id="text61"
       xml:space="preserve"
       transform="matrix(1.3333333,0,0,1.3331418,117.42773,551.31387)"><tspan
         id="tspan61"
         style="font-variant:normal;font-weight:700;font-stretch:normal;font-size:13.921px;font-family:Arial;writing-mode:lr-tb;fill:#000000;fill-opacity:1;fill-rule:nonzero;stroke:none"
         x="0"
         dx="0 0 0 0.18097299 0 0 0.20881499 -0.111368"
         y="0">Baseline</tspan><tspan
         id="tspan62"
         style="font-variant:normal;font-weight:700;font-stretch:normal;font-size:13.921px;font-family:Arial;writing-mode:lr-tb;fill:#000000;fill-opacity:1;fill-rule:nonzero;stroke:none"
         x="-4.7888241"
         dx="0 0 0.13921 -0.111368 0.111368 0.18097299 0 0 0.13921"
         y="26.644794">shoreline</tspan></text>
    <text
       id="text62"
       xml:space="preserve"
       transform="matrix(1.3333333,0,0,1.3331459,317.12173,104.11733)"><tspan
         id="tspan63"
         style="font-variant:normal;font-weight:700;font-stretch:normal;font-size:19.9214px;font-family:Arial;writing-mode:lr-tb;fill:#000000;fill-opacity:1;fill-rule:nonzero;stroke:none"
         x="0"
         y="0">B</tspan></text>
    <path
       id="path63"
       d="M 0,0 H 30.002"
       style="fill:none;stroke:#c0c0c0;stroke-width:0.96;stroke-linecap:round;stroke-linejoin:round;stroke-miterlimit:10;stroke-dasharray:9.375, 15;stroke-dashoffset:0;stroke-opacity:1"
       transform="matrix(1.3333333,0,0,-1.3333333,331.5228,739.78133)" />
    <path
       id="path64"
       d="M 0,0 H 30.002"
       style="fill:none;stroke:#d7d8fc;stroke-width:1.92;stroke-linecap:round;stroke-linejoin:round;stroke-miterlimit:10;stroke-dasharray:none;stroke-opacity:1"
       transform="matrix(1.3333333,0,0,-1.3333333,114.2272,607.95053)" />
    <text
       id="text64"
       xml:space="preserve"
       transform="matrix(1.3333333,0,0,1.3331556,161.59053,614.03)"><tspan
         id="tspan64"
         style="font-variant:normal;font-weight:normal;font-stretch:normal;font-size:12.0008px;font-family:Arial;writing-mode:lr-tb;fill:#000000;fill-opacity:1;fill-rule:nonzero;stroke:none"
         x="0"
         dx="0 -0.1920128"
         y="0">2005</tspan></text>
    <path
       id="path65"
       d="M 0,0 H 30.002"
       style="fill:none;stroke:#b6f9fc;stroke-width:1.92;stroke-linecap:round;stroke-linejoin:round;stroke-miterlimit:10;stroke-dasharray:none;stroke-opacity:1"
       transform="matrix(1.3333333,0,0,-1.3333333,114.2272,635.14853)" />
    <text
       id="text65"
       xml:space="preserve"
       transform="matrix(1.3333333,0,0,1.3331556,161.59053,641.228)"><tspan
         id="tspan65"
         style="font-variant:normal;font-weight:normal;font-stretch:normal;font-size:12.0008px;font-family:Arial;writing-mode:lr-tb;fill:#000000;fill-opacity:1;fill-rule:nonzero;stroke:none"
         x="0"
         dx="0 -0.1920128"
         y="0">2008</tspan></text>
    <path
       id="path66"
       d="M 0,0 H 30.002"
       style="fill:none;stroke:#fafcbd;stroke-width:1.92;stroke-linecap:round;stroke-linejoin:round;stroke-miterlimit:10;stroke-dasharray:none;stroke-opacity:1"
       transform="matrix(1.3333333,0,0,-1.3333333,114.2272,662.3464)" />
    <text
       id="text66"
       xml:space="preserve"
       transform="matrix(1.3333333,0,0,1.3331556,161.59053,668.42587)"><tspan
         id="tspan66"
         style="font-variant:normal;font-weight:normal;font-stretch:normal;font-size:12.0008px;font-family:Arial;writing-mode:lr-tb;fill:#000000;fill-opacity:1;fill-rule:nonzero;stroke:none"
         x="0"
         dx="0 -0.1920128 0 -0.9120608"
         y="0">2011</tspan></text>
    <path
       id="path67"
       d="M 0,0 H 30.002"
       style="fill:none;stroke:#b3b3fc;stroke-width:1.92;stroke-linecap:round;stroke-linejoin:round;stroke-miterlimit:10;stroke-dasharray:none;stroke-opacity:1"
       transform="matrix(1.3333333,0,0,-1.3333333,114.2272,689.54427)" />
    <text
       id="text67"
       xml:space="preserve"
       transform="matrix(1.3333333,0,0,1.3331556,161.59053,695.62387)"><tspan
         id="tspan67"
         style="font-variant:normal;font-weight:normal;font-stretch:normal;font-size:12.0008px;font-family:Arial;writing-mode:lr-tb;fill:#000000;fill-opacity:1;fill-rule:nonzero;stroke:none"
         x="0"
         dx="0 -0.1920128"
         y="0">2014</tspan></text>
    <path
       id="path68"
       d="M 0,0 H 30.002"
       style="fill:none;stroke:#befcb6;stroke-width:1.92;stroke-linecap:round;stroke-linejoin:round;stroke-miterlimit:10;stroke-dasharray:none;stroke-opacity:1"
       transform="matrix(1.3333333,0,0,-1.3333333,114.2272,716.74227)" />
    <text
       id="text68"
       xml:space="preserve"
       transform="matrix(1.3333333,0,0,1.3331556,161.59053,722.82173)"><tspan
         id="tspan68"
         style="font-variant:normal;font-weight:normal;font-stretch:normal;font-size:12.0008px;font-family:Arial;writing-mode:lr-tb;fill:#000000;fill-opacity:1;fill-rule:nonzero;stroke:none"
         x="0"
         dx="0 -0.1920128"
         y="0">2017</tspan></text>
    <path
       id="path69"
       d="M 0,0 H 30.002"
       style="fill:none;stroke:#fcdac7;stroke-width:1.92;stroke-linecap:round;stroke-linejoin:round;stroke-miterlimit:10;stroke-dasharray:none;stroke-opacity:1"
       transform="matrix(1.3333333,0,0,-1.3333333,114.2272,743.6212)" />
    <text
       id="text69"
       xml:space="preserve"
       transform="matrix(1.3333333,0,0,1.3331556,161.59053,749.70067)"><tspan
         id="tspan69"
         style="font-variant:normal;font-weight:normal;font-stretch:normal;font-size:12.0008px;font-family:Arial;writing-mode:lr-tb;fill:#000000;fill-opacity:1;fill-rule:nonzero;stroke:none"
         x="0"
         dx="0 -0.1920128"
         y="0">2020</tspan></text>
    <path
       id="path70"
       d="M 0,0 H 30.002"
       style="fill:none;stroke:#fcb3d5;stroke-width:1.92;stroke-linecap:round;stroke-linejoin:round;stroke-miterlimit:10;stroke-dasharray:none;stroke-opacity:1"
       transform="matrix(1.3333333,0,0,-1.3333333,114.2272,770.81907)" />
    <text
       id="text70"
       xml:space="preserve"
       transform="matrix(1.3333333,0,0,1.3331556,161.59053,776.89853)"><tspan
         id="tspan70"
         style="font-variant:normal;font-weight:normal;font-stretch:normal;font-size:12.0008px;font-family:Arial;writing-mode:lr-tb;fill:#000000;fill-opacity:1;fill-rule:nonzero;stroke:none"
         x="0"
         dx="0 -0.1920128"
         y="0">2023</tspan></text>
    <text
       id="text71"
       xml:space="preserve"
       transform="matrix(1.3333333,0,0,1.3331482,331.5228,556.43373)"><tspan
         id="tspan71"
         style="font-variant:normal;font-weight:700;font-stretch:normal;font-size:12.9609px;font-family:Arial;writing-mode:lr-tb;fill:#000000;fill-opacity:1;fill-rule:nonzero;stroke:none"
         x="0"
         dx="0 0 0 0 0 0 0.2332962 0 0 0 0 0 0 0.2332962"
         y="0">EPR(meter/year)</tspan></text>
    <path
       id="path71"
       d="M 0,0 H 30.002"
       style="fill:none;stroke:#4e4e4e;stroke-width:1.44;stroke-linecap:round;stroke-linejoin:round;stroke-miterlimit:10;stroke-dasharray:none;stroke-opacity:1"
       transform="matrix(1.3333333,0,0,-1.3333333,331.5228,576.9128)" />
    <text
       id="text72"
       xml:space="preserve"
       transform="matrix(1.3333333,0,0,1.3331556,378.56573,582.99227)"><tspan
         id="tspan72"
         style="font-variant:normal;font-weight:normal;font-stretch:normal;font-size:12.0008px;font-family:Arial;writing-mode:lr-tb;fill:#000000;fill-opacity:1;fill-rule:nonzero;stroke:none"
         x="0"
         dx="0 -0.1560104 0 0 0 0 0 -0.1920128 0 0 0 0 0.084005602 -0.2160144 0.084005602 0 0 0 0 -0.1920128"
         y="0">-26.670000 - -16.290000</tspan></text>
    <path
       id="path72"
       d="M 0,0 H 30.002"
       style="fill:none;stroke:#e64b41;stroke-width:1.44;stroke-linecap:round;stroke-linejoin:round;stroke-miterlimit:10;stroke-dasharray:none;stroke-opacity:1"
       transform="matrix(1.3333333,0,0,-1.3333333,331.5228,604.11067)" />
    <text
       id="text73"
       xml:space="preserve"
       transform="matrix(1.3333333,0,0,1.3331556,378.56573,610.19027)"><tspan
         id="tspan73"
         style="font-variant:normal;font-weight:normal;font-stretch:normal;font-size:12.0008px;font-family:Arial;writing-mode:lr-tb;fill:#000000;fill-opacity:1;fill-rule:nonzero;stroke:none"
         x="0"
         dx="0 -0.1560104 0 0 0 0 0 -0.1920128 0 0 0 0 0.084005602 -0.2160144 0 0 0 0 0 0 0 -0.1920128"
         y="0">-16.289999 - 94.490000</tspan></text>
    <path
       id="path73"
       d="M 0,0 H 30.002"
       style="fill:none;stroke:#c500ff;stroke-width:1.44;stroke-linecap:round;stroke-linejoin:round;stroke-miterlimit:10;stroke-dasharray:none;stroke-opacity:1"
       transform="matrix(1.3333333,0,0,-1.3333333,331.5228,631.30867)" />
    <text
       id="text74"
       xml:space="preserve"
       transform="matrix(1.3333333,0,0,1.3331556,378.56573,637.38813)"><tspan
         id="tspan74"
         style="font-variant:normal;font-weight:normal;font-stretch:normal;font-size:12.0008px;font-family:Arial;writing-mode:lr-tb;fill:#000000;fill-opacity:1;fill-rule:nonzero;stroke:none"
         x="0"
         dx="0 -0.1920128 0 0 0 0 0 0 -0.1920128 0 0 0.084005602 0 0 -0.1920128"
         y="0">94.490001 - 162.040000</tspan></text>
    <path
       id="path74"
       d="M 0,0 H 30.002"
       style="fill:none;stroke:#e6e600;stroke-width:1.44;stroke-linecap:round;stroke-linejoin:round;stroke-miterlimit:10;stroke-dasharray:none;stroke-opacity:1"
       transform="matrix(1.3333333,0,0,-1.3333333,331.5228,658.50653)" />
    <text
       id="text75"
       xml:space="preserve"
       transform="matrix(1.3333333,0,0,1.3331556,378.56573,664.586)"><tspan
         id="tspan75"
         style="font-variant:normal;font-weight:normal;font-stretch:normal;font-size:12.0008px;font-family:Arial;writing-mode:lr-tb;fill:#000000;fill-opacity:1;fill-rule:nonzero;stroke:none"
         x="0"
         dx="0 -0.1920128 0 0 0 0 0 0 -0.1920128 0 0 0 0.084005602 0 -0.1920128 0 0 0 0 0 0 0 -0.1920128"
         y="0">162.040001 - 188.810000</tspan></text>
    <path
       id="path75"
       d="M 0,0 H 30.002"
       style="fill:none;stroke:#e6e600;stroke-width:1.44;stroke-linecap:round;stroke-linejoin:round;stroke-miterlimit:10;stroke-dasharray:none;stroke-opacity:1"
       transform="matrix(1.3333333,0,0,-1.3333333,331.5228,685.38547)" />
    <text
       id="text76"
       xml:space="preserve"
       transform="matrix(1.3333333,0,0,1.3331556,378.56573,691.46493)"><tspan
         id="tspan76"
         style="font-variant:normal;font-weight:normal;font-stretch:normal;font-size:12.0008px;font-family:Arial;writing-mode:lr-tb;fill:#000000;fill-opacity:1;fill-rule:nonzero;stroke:none"
         x="0"
         dx="0 -0.1920128 0 0 0 0 0 0 -0.1920128 0 0 0 0.084005602 0 -0.1920128 0 0 0 0 0 0 0 -0.1920128"
         y="0">188.810001 - 207.030000</tspan></text>
    <path
       id="path76"
       d="M 0,0 H 30.002"
       style="fill:none;stroke:#e6e600;stroke-width:1.44;stroke-linecap:round;stroke-linejoin:round;stroke-miterlimit:10;stroke-dasharray:none;stroke-opacity:1"
       transform="matrix(1.3333333,0,0,-1.3333333,331.5228,712.58333)" />
    <text
       id="text77"
       xml:space="preserve"
       transform="matrix(1.3333333,0,0,1.3331556,378.56573,718.6628)"><tspan
         id="tspan77"
         style="font-variant:normal;font-weight:normal;font-stretch:normal;font-size:12.0008px;font-family:Arial;writing-mode:lr-tb;fill:#000000;fill-opacity:1;fill-rule:nonzero;stroke:none"
         x="0"
         dx="0 -0.1920128 0 0 0 0 0 0 -0.1920128 0 0 0 0.084005602 0 -0.1920128 0 0 0 0 0 0 0 -0.1920128"
         y="0">207.030001 - 225.730000</tspan></text>
    <path
       id="path77"
       d="M 0,0 H 30.002"
       style="fill:none;stroke:#e6e600;stroke-width:1.44;stroke-linecap:round;stroke-linejoin:round;stroke-miterlimit:10;stroke-dasharray:none;stroke-opacity:1"
       transform="matrix(1.3333333,0,0,-1.3333333,331.5228,739.78133)" />
    <text
       id="text78"
       xml:space="preserve"
       transform="matrix(1.3333333,0,0,1.3331556,378.56573,745.8608)"><tspan
         id="tspan78"
         style="font-variant:normal;font-weight:normal;font-stretch:normal;font-size:12.0008px;font-family:Arial;writing-mode:lr-tb;fill:#000000;fill-opacity:1;fill-rule:nonzero;stroke:none"
         x="0"
         dx="0 -0.1920128 0 0 0 0 0 0 -0.1920128 0 0 0 0.084005602 0 -0.1920128 0 0 0 0 0 0 0 -0.1920128"
         y="0">225.730001 - 260.490000</tspan></text>
  </g>
</svg>
