<?xml version="1.0" encoding="UTF-8" standalone="no"?>
<!-- Created with Inkscape (http://www.inkscape.org/) -->

<svg
   version="1.1"
   id="svg1"
   width="653.38666"
   height="850.56"
   viewBox="0 0 653.38666 850.56"
   sodipodi:docname="EPR_C.pdf"
   xmlns:inkscape="http://www.inkscape.org/namespaces/inkscape"
   xmlns:sodipodi="http://sodipodi.sourceforge.net/DTD/sodipodi-0.dtd"
   xmlns="http://www.w3.org/2000/svg"
   xmlns:svg="http://www.w3.org/2000/svg">
  <defs
     id="defs1">
    <clipPath
       clipPathUnits="userSpaceOnUse"
       id="clipPath33">
      <path
         d="M 43.427,44.687 H 446.656 V 593.049 H 43.427 Z"
         transform="translate(-137.75391,-602.64802)"
         id="path33" />
    </clipPath>
  </defs>
  <sodipodi:namedview
     id="namedview1"
     pagecolor="#ffffff"
     bordercolor="#000000"
     borderopacity="0.25"
     inkscape:showpageshadow="2"
     inkscape:pageopacity="0.0"
     inkscape:pagecheckerboard="0"
     inkscape:deskcolor="#d1d1d1">
    <inkscape:page
       x="0"
       y="0"
       inkscape:label="1"
       id="page1"
       width="653.38666"
       height="850.56"
       margin="0"
       bleed="0" />
  </sodipodi:namedview>
  <g
     id="layer-MC0"
     inkscape:groupmode="layer"
     inkscape:label="Layer 1">
    <path
       id="path1"
       d="M 0,0 -19.681,226.064"
       style="fill:none;stroke:#e6e600;stroke-width:1.44;stroke-linecap:round;stroke-linejoin:round;stroke-miterlimit:10;stroke-dasharray:none;stroke-opacity:1"
       transform="matrix(1.3333333,0,0,-1.3333333,491.85347,535.3152)" />
    <path
       id="path2"
       d="M 0,0 -18.001,226.064"
       style="fill:none;stroke:#e6e600;stroke-width:1.44;stroke-linecap:round;stroke-linejoin:round;stroke-miterlimit:10;stroke-dasharray:none;stroke-opacity:1"
       transform="matrix(1.3333333,0,0,-1.3333333,486.73373,535.95573)" />
    <path
       id="path3"
       d="M 0,0 -15.602,226.304"
       style="fill:none;stroke:#e6e600;stroke-width:1.44;stroke-linecap:round;stroke-linejoin:round;stroke-miterlimit:10;stroke-dasharray:none;stroke-opacity:1"
       transform="matrix(1.3333333,0,0,-1.3333333,480.9732,536.59507)" />
    <path
       id="path4"
       d="M 0,0 -12.241,226.544"
       style="fill:none;stroke:#e6e600;stroke-width:1.44;stroke-linecap:round;stroke-linejoin:round;stroke-miterlimit:10;stroke-dasharray:none;stroke-opacity:1"
       transform="matrix(1.3333333,0,0,-1.3333333,473.93293,537.23573)" />
    <path
       id="path5"
       d="M 0,0 -6.96,226.784"
       style="fill:none;stroke:#e6e600;stroke-width:1.44;stroke-linecap:round;stroke-linejoin:round;stroke-miterlimit:10;stroke-dasharray:none;stroke-opacity:1"
       transform="matrix(1.3333333,0,0,-1.3333333,464.33133,537.87507)" />
    <path
       id="path6"
       d="M 0,0 1.921,226.785"
       style="fill:none;stroke:#e6e600;stroke-width:1.44;stroke-linecap:round;stroke-linejoin:round;stroke-miterlimit:10;stroke-dasharray:none;stroke-opacity:1"
       transform="matrix(1.3333333,0,0,-1.3333333,449.93027,538.51573)" />
    <path
       id="path7"
       d="M 0,0 10.561,226.544"
       style="fill:none;stroke:#e6e600;stroke-width:1.44;stroke-linecap:round;stroke-linejoin:round;stroke-miterlimit:10;stroke-dasharray:none;stroke-opacity:1"
       transform="matrix(1.3333333,0,0,-1.3333333,435.8496,538.51573)" />
    <path
       id="path8"
       d="M 0,0 18.001,226.064"
       style="fill:none;stroke:#e6e600;stroke-width:1.44;stroke-linecap:round;stroke-linejoin:round;stroke-miterlimit:10;stroke-dasharray:none;stroke-opacity:1"
       transform="matrix(1.3333333,0,0,-1.3333333,423.0488,538.19533)" />
    <path
       id="path9"
       d="M 0,0 25.922,225.345"
       style="fill:none;stroke:#e6e600;stroke-width:1.44;stroke-linecap:round;stroke-linejoin:round;stroke-miterlimit:10;stroke-dasharray:none;stroke-opacity:1"
       transform="matrix(1.3333333,0,0,-1.3333333,409.92773,537.23573)" />
    <path
       id="path10"
       d="M 0,0 33.843,224.384"
       style="fill:none;stroke:#e6e600;stroke-width:1.44;stroke-linecap:round;stroke-linejoin:round;stroke-miterlimit:10;stroke-dasharray:none;stroke-opacity:1"
       transform="matrix(1.3333333,0,0,-1.3333333,396.80653,536.2748)" />
    <path
       id="path11"
       d="M 0,0 43.684,222.464"
       style="fill:none;stroke:#e6e600;stroke-width:1.44;stroke-linecap:round;stroke-linejoin:round;stroke-miterlimit:10;stroke-dasharray:none;stroke-opacity:1"
       transform="matrix(1.3333333,0,0,-1.3333333,381.1256,534.0352)" />
    <path
       id="path12"
       d="M 0,0 55.684,219.825"
       style="fill:none;stroke:#e6e600;stroke-width:1.44;stroke-linecap:round;stroke-linejoin:round;stroke-miterlimit:10;stroke-dasharray:none;stroke-opacity:1"
       transform="matrix(1.3333333,0,0,-1.3333333,362.24547,530.51573)" />
    <path
       id="path13"
       d="M 0,0 70.565,215.505"
       style="fill:none;stroke:#e6e600;stroke-width:1.44;stroke-linecap:round;stroke-linejoin:round;stroke-miterlimit:10;stroke-dasharray:none;stroke-opacity:1"
       transform="matrix(1.3333333,0,0,-1.3333333,339.84307,524.75653)" />
    <path
       id="path14"
       d="M 0,0 88.086,209.026"
       style="fill:none;stroke:#e6e600;stroke-width:1.44;stroke-linecap:round;stroke-linejoin:round;stroke-miterlimit:10;stroke-dasharray:none;stroke-opacity:1"
       transform="matrix(1.3333333,0,0,-1.3333333,313.9212,516.1172)" />
    <path
       id="path15"
       d="M 0,0 108.487,199.186"
       style="fill:none;stroke:#73b2ff;stroke-width:1.44;stroke-linecap:round;stroke-linejoin:round;stroke-miterlimit:10;stroke-dasharray:none;stroke-opacity:1"
       transform="matrix(1.3333333,0,0,-1.3333333,284.15947,502.99747)" />
    <path
       id="path16"
       d="M 0,0 132.009,184.547"
       style="fill:none;stroke:#73b2ff;stroke-width:1.44;stroke-linecap:round;stroke-linejoin:round;stroke-miterlimit:10;stroke-dasharray:none;stroke-opacity:1"
       transform="matrix(1.3333333,0,0,-1.3333333,249.91667,483.15893)" />
    <path
       id="path17"
       d="M 0,0 157.451,163.188"
       style="fill:none;stroke:#73b2ff;stroke-width:1.44;stroke-linecap:round;stroke-linejoin:round;stroke-miterlimit:10;stroke-dasharray:none;stroke-opacity:1"
       transform="matrix(1.3333333,0,0,-1.3333333,213.43427,454.3608)" />
    <path
       id="path18"
       d="M 0,0 182.893,134.151"
       style="fill:none;stroke:#73b2ff;stroke-width:1.44;stroke-linecap:round;stroke-linejoin:round;stroke-miterlimit:10;stroke-dasharray:none;stroke-opacity:1"
       transform="matrix(1.3333333,0,0,-1.3333333,176.95187,415.004)" />
    <path
       id="path19"
       d="M 0,0 204.974,97.433"
       style="fill:none;stroke:#e60000;stroke-width:1.44;stroke-linecap:round;stroke-linejoin:round;stroke-miterlimit:10;stroke-dasharray:none;stroke-opacity:1"
       transform="matrix(1.3333333,0,0,-1.3333333,145.26947,365.08733)" />
    <path
       id="path20"
       d="M 0,0 219.855,56.156"
       style="fill:none;stroke:#b2b2b2;stroke-width:1.44;stroke-linecap:round;stroke-linejoin:round;stroke-miterlimit:10;stroke-dasharray:none;stroke-opacity:1"
       transform="matrix(1.3333333,0,0,-1.3333333,124.14773,307.8112)" />
    <path
       id="path21"
       d="M 0,0 226.336,14.159"
       style="fill:none;stroke:#e60000;stroke-width:1.44;stroke-linecap:round;stroke-linejoin:round;stroke-miterlimit:10;stroke-dasharray:none;stroke-opacity:1"
       transform="matrix(1.3333333,0,0,-1.3333333,116.46747,249.5756)" />
    <path
       id="path22"
       d="M 0,0 225.616,-24.478"
       style="fill:none;stroke:#e60000;stroke-width:1.44;stroke-linecap:round;stroke-linejoin:round;stroke-miterlimit:10;stroke-dasharray:none;stroke-opacity:1"
       transform="matrix(1.3333333,0,0,-1.3333333,119.3476,196.13933)" />
    <path
       id="path23"
       d="M 0,0 219.375,-57.596"
       style="fill:none;stroke:#e60000;stroke-width:1.44;stroke-linecap:round;stroke-linejoin:round;stroke-miterlimit:10;stroke-dasharray:none;stroke-opacity:1"
       transform="matrix(1.3333333,0,0,-1.3333333,129.26827,150.06253)" />
    <path
       id="path24"
       d="M 0,0 213.136,-77.515"
       style="fill:none;stroke:#b2b2b2;stroke-width:1.44;stroke-linecap:round;stroke-linejoin:round;stroke-miterlimit:10;stroke-dasharray:none;stroke-opacity:1"
       transform="matrix(1.3333333,0,0,-1.3333333,139.8288,121.90427)" />
    <path
       id="path25"
       d="M 0,0 207.134,-92.153"
       style="fill:none;stroke:#b2b2b2;stroke-width:1.44;stroke-linecap:round;stroke-linejoin:round;stroke-miterlimit:10;stroke-dasharray:none;stroke-opacity:1"
       transform="matrix(1.3333333,0,0,-1.3333333,149.75,100.78587)" />
    <path
       id="path26"
       d="M 0,0 200.895,-105.593"
       style="fill:none;stroke:#b2b2b2;stroke-width:1.44;stroke-linecap:round;stroke-linejoin:round;stroke-miterlimit:10;stroke-dasharray:none;stroke-opacity:1"
       transform="matrix(1.3333333,0,0,-1.3333333,160.31053,81.266933)" />
    <path
       id="path27"
       d="M 0,0 193.934,-117.832"
       style="fill:none;stroke:#b2b2b2;stroke-width:1.44;stroke-linecap:round;stroke-linejoin:round;stroke-miterlimit:10;stroke-dasharray:none;stroke-opacity:1"
       transform="matrix(1.3333333,0,0,-1.3333333,171.83133,63.348267)" />
    <path
       id="path28"
       d="M 0,0 -25.683,225.345"
       style="fill:none;stroke:#c0c0c0;stroke-width:0.96;stroke-linecap:round;stroke-linejoin:round;stroke-miterlimit:10;stroke-dasharray:9.375, 15;stroke-dashoffset:0;stroke-opacity:1"
       transform="matrix(1.3333333,0,0,-1.3333333,510.0956,533.39587)" />
    <path
       id="path29"
       d="M 0,0 -24.242,225.344"
       style="fill:none;stroke:#c0c0c0;stroke-width:0.96;stroke-linecap:round;stroke-linejoin:round;stroke-miterlimit:10;stroke-dasharray:9.375, 15;stroke-dashoffset:0;stroke-opacity:1"
       transform="matrix(1.3333333,0,0,-1.3333333,505.6152,533.71493)" />
    <path
       id="path30"
       d="M 0,0 -22.802,225.824"
       style="fill:none;stroke:#c0c0c0;stroke-width:0.96;stroke-linecap:round;stroke-linejoin:round;stroke-miterlimit:10;stroke-dasharray:9.375, 15;stroke-dashoffset:0;stroke-opacity:1"
       transform="matrix(1.3333333,0,0,-1.3333333,501.13467,534.35547)" />
    <path
       id="path31"
       d="M 0,0 -21.602,225.825"
       style="fill:none;stroke:#c0c0c0;stroke-width:0.96;stroke-linecap:round;stroke-linejoin:round;stroke-miterlimit:10;stroke-dasharray:9.375, 15;stroke-dashoffset:0;stroke-opacity:1"
       transform="matrix(1.3333333,0,0,-1.3333333,496.97453,534.67587)" />
    <path
       id="path32"
       d="M 0,0 186.733,-128.871"
       style="fill:none;stroke:#c0c0c0;stroke-width:0.96;stroke-linecap:round;stroke-linejoin:round;stroke-miterlimit:10;stroke-dasharray:9.375, 15;stroke-dashoffset:0;stroke-opacity:1"
       transform="matrix(1.3333333,0,0,-1.3333333,183.67187,47.029333)"
       clip-path="url(#clipPath33)" />
    <path
       id="path34"
       d="M 0,0 H -2.88 -3.6 l -1.68,-0.24 -3.361,-0.48 -14.16,-1.92 -7.441,-0.72 h -5.76 l -4.08,0.24 -2.4,0.48 -1.92,0.48 -0.481,0.24 -1.2,0.96 v 1.44 l 1.2,1.919 2.401,2.161 3.36,2.879 4.559,3.12 6.242,3.84 1.2,0.96 4.08,2.4 0.72,0.479 3.841,2.4"
       style="fill:none;stroke:#e60000;stroke-width:1.92;stroke-linecap:round;stroke-linejoin:round;stroke-miterlimit:10;stroke-dasharray:none;stroke-opacity:1"
       transform="matrix(1.3333333,0,0,-1.3333333,478.7324,232.93627)" />
    <path
       id="path35"
       d="m 0,0 h -0.479 l -9.362,-10.559 -7.68,-9.359 -3.36,-4.56 -2.881,-4.32 -3.84,-6.719 -4.8,-10.56 -1.2,-2.159 -0.72,-0.721 0.72,-0.719 1.2,-0.96 3.6,-1.44 3.841,-0.48 h 4.08 l 3.84,0.72 7.44,1.44 8.162,1.919 7.44,1.92 8.16,4.32 1.92,0.96 4.561,1.2 4.56,0.72 5.76,0.48 13.682,0.72 h 7.68 l 10.321,-0.72 h 2.879 l 6.961,0.72 h 9.12 l 1.681,0.48 1.2,0.719 1.201,0.96 1.439,2.4 1.681,1.201 2.4,0.96 1.68,0.479 h 1.44"
       style="fill:none;stroke:#ffff00;stroke-width:1.92;stroke-linecap:round;stroke-linejoin:round;stroke-miterlimit:10;stroke-dasharray:none;stroke-opacity:1"
       transform="matrix(1.3333333,0,0,-1.3333333,352.64387,205.41867)" />
    <path
       id="path36"
       d="m 0,0 h -0.24 l -5.761,-2.879 -9.841,-5.04 -6.48,-4.08 -14.401,-9.599 -11.281,-8.16 -3.6,-3.119 -3.6,-3.121 -5.28,-5.519 -5.521,-5.759 -3.84,-5.04 -0.48,-0.48 -2.401,-4.08 -0.96,-2.16 -0.959,-2.639 -0.721,-4.8 -0.239,-2.4 0.239,-1.92 0.241,-1.92 0.719,-2.16 0.961,-1.919 1.44,-2.64 1.68,-2.16 1.92,-2.16 4.08,-3.12 4.801,-2.879 4.32,-1.92 4.56,-1.681 5.04,-1.439 6,-1.44 6.001,-1.44 5.76,-0.72 11.762,-1.2 3.12,-0.24 2.64,0.24 2.881,0.48 2.639,0.48 1.2,0.48 1.441,0.96 0.72,0.72 2.16,3.84 0.96,1.199 1.68,0.96 h 1.2 1.2 l 1.68,-0.719 1.201,-1.201 0.719,-2.399 0.72,-4.56 0.96,-1.92 0.721,-0.96 1.2,-1.2 1.92,-0.96 2.64,-0.719 3.12,-0.721 0.48,-0.239 1.68,-0.241 20.402,-3.599 7.68,-1.68"
       style="fill:none;stroke:#fcd4b6;stroke-width:1.92;stroke-linecap:round;stroke-linejoin:round;stroke-miterlimit:10;stroke-dasharray:none;stroke-opacity:1"
       transform="matrix(1.3333333,0,0,-1.3333333,410.88867,205.41867)" />
    <path
       id="path37"
       d="m 0,0 h 0.24 l -6,-3.839 -13.681,-9.6 -9.841,-7.919 -9.84,-8.88 -7.441,-7.679 -6,-7.439 -2.64,-4.081 -2.16,-3.119 -1.441,-3.12 -1.44,-3.36 -1.68,-5.759 -0.24,-3.36 v -3.12 l 0.48,-4.559 1.2,-5.04 1.921,-4.56 2.399,-4.319 3.121,-4.08 0.48,-0.72 3.84,-4.8 12,-12.959 20.882,-17.519 9.601,-7.679 7.44,-5.52 6.481,-4.079 6.48,-3.6 4.561,-1.68 4.32,-1.2 6.24,-0.72 4.321,0.24 2.879,0.48 2.641,1.2 3.36,2.16 2.161,2.16"
       style="fill:none;stroke:#fcb8c6;stroke-width:1.92;stroke-linecap:round;stroke-linejoin:round;stroke-miterlimit:10;stroke-dasharray:none;stroke-opacity:1"
       transform="matrix(1.3333333,0,0,-1.3333333,418.56827,205.41867)" />
    <path
       id="path38"
       d="m 0,0 -4.561,-6 -3.839,-6.479 -3.121,-6.239 -2.16,-5.28 -0.72,-2.88 -0.72,-3.12 -0.24,-5.04 v -1.439 l -0.241,-3.36 0.481,-5.28 0.24,-1.199 0.48,-4.32 0.24,-0.72 0.96,-4.56 0.24,-1.44 0.96,-2.88 2.641,-7.439 3.359,-7.44 2.16,-3.599 2.16,-4.32 5.282,-8.4 4.559,-6.479 2.16,-3.12 5.761,-7.679 7.681,-9.12 5.52,-5.759 6,-5.76 4.321,-3.359 5.76,-4.08 6,-3.6 5.521,-2.88 6.24,-3.12 16.321,-7.679 v -0.24 l 11.282,-6"
       style="fill:none;stroke:#b6fcb6;stroke-width:1.92;stroke-linecap:round;stroke-linejoin:round;stroke-miterlimit:10;stroke-dasharray:none;stroke-opacity:1"
       transform="matrix(1.3333333,0,0,-1.3333333,357.44467,205.41867)" />
    <path
       id="path39"
       d="m 0,0 v -0.96 l -0.48,-6.719 0.24,-4.56 v -3.12 l 0.719,-6.239 0.241,-1.68 0.479,-3.84 1.2,-6.48 0.721,-3.839 2.88,-10.319 0.24,-0.96 0.48,-1.201 2.881,-8.639 4.32,-10.559 4.559,-8.88 7.681,-12.959 6.001,-9.119 0.48,-0.72 6.961,-9.119 7.2,-8.4 6.48,-6.959 3.841,-3.36 3.359,-2.88 3.601,-2.4 1.2,-0.719 10.561,-4.08 9.121,-2.64 7.68,-1.92 8.161,-0.96 h 3.839 l 0.241,-0.24"
       style="fill:none;stroke:#ccf2fc;stroke-width:1.92;stroke-linecap:round;stroke-linejoin:round;stroke-miterlimit:10;stroke-dasharray:none;stroke-opacity:1"
       transform="matrix(1.3333333,0,0,-1.3333333,339.20373,204.1388)" />
    <path
       id="path40"
       d="m 0,0 -0.24,-2.16 -0.48,-5.759 -0.24,-3.12 v -2.64 -1.92 -1.44 l 0.24,-2.639 0.241,-1.68 0.719,-5.28 0.481,-2.4 0.719,-2.879 v -0.241 l 0.72,-2.4 0.24,-0.719 0.241,-1.2 1.439,-4.08 0.481,-1.44 0.959,-2.64 0.481,-1.199 1.439,-3.121 0.241,-0.48 2.16,-4.559 1.2,-2.88 0.48,-1.2 5.041,-9.599 h 0.24 l 0.719,-1.68 0.72,-1.2 3.601,-6 2.88,-4.799 0.24,-0.24 0.72,-1.2 7.201,-10.799 0.479,-0.72 4.08,-5.04 3.361,-4.319 1.2,-1.44 6.961,-7.68 7.2,-6.719 6.721,-5.04 h 0.24 l 7.44,-4.56 8.401,-3.84 0.24,-0.239 8.88,-3.12 8.161,-1.68 4.561,-0.48 3.36,-0.24 3.359,0.24 v -0.24"
       style="fill:none;stroke:#eebbfc;stroke-width:1.92;stroke-linecap:round;stroke-linejoin:round;stroke-miterlimit:10;stroke-dasharray:none;stroke-opacity:1"
       transform="matrix(1.3333333,0,0,-1.3333333,335.36267,205.41867)" />
    <path
       id="path41"
       d="m 0,0 0.24,-1.44 0.96,-6.719 1.2,-5.04 0.24,-0.96 1.2,-4.08 v -0.24 l 2.64,-7.919 0.96,-2.4 0.241,-1.2 0.96,-1.919 1.2,-3.121 1.92,-4.319 3.6,-8.399 0.48,-0.96 0.24,-0.48 0.72,0.239 1.44,-4.799 1.92,-3.84 2.881,-5.279 1.92,-3.6 1.68,-2.88 4.56,-8.159 6.24,-10.56 1.201,-2.159 6,-9.12 -0.96,1.2 0.72,-1.2 3.84,-6 0.481,-1.199 1.679,-2.16 1.441,-1.44 2.639,-3.12 4.081,-3.36 1.68,-1.2 7.441,-5.519 6.001,-3.6 2.879,-1.44 3.361,-1.68 6.24,-2.639 0.72,-0.241 5.76,-1.92 6.481,-1.439 4.32,-0.48 1.68,-0.24 h 2.881 l 5.52,0.48 0.96,0.24"
       style="fill:none;stroke:#b6c9fc;stroke-width:1.92;stroke-linecap:round;stroke-linejoin:round;stroke-miterlimit:10;stroke-dasharray:none;stroke-opacity:1"
       transform="matrix(1.3333333,0,0,-1.3333333,325.7624,205.41867)" />
    <path
       id="path42"
       d="M 43.427,593.048 H 446.656 V 44.926 H 43.427 Z"
       style="fill:none;stroke:#000000;stroke-width:0.96;stroke-linecap:round;stroke-linejoin:round;stroke-miterlimit:10;stroke-dasharray:none;stroke-opacity:1"
       transform="matrix(1.3333333,0,0,-1.3333333,0,850.56)" />
    <path
       id="path43"
       d="M 0,0 V -5.04"
       style="fill:none;stroke:#000000;stroke-width:1.44;stroke-linecap:round;stroke-linejoin:round;stroke-miterlimit:10;stroke-dasharray:none;stroke-opacity:1"
       transform="matrix(1.3333333,0,0,-1.3333333,513.6152,790.6576)" />
    <text
       id="text43"
       xml:space="preserve"
       transform="matrix(1.3333333,0,0,1.3331556,474.09307,813.14067)"><tspan
         id="tspan43"
         style="font-variant:normal;font-weight:normal;font-stretch:normal;font-size:12.0008px;font-family:Arial;writing-mode:lr-tb;fill:#000000;fill-opacity:1;fill-rule:nonzero;stroke:none"
         x="0"
         dx="0 -0.1920128 0 0 0 0 0.1080072 -0.1920128"
         y="0">91°24'20&quot;E</tspan></text>
    <path
       id="path44"
       d="M 0,0 V 5.04"
       style="fill:none;stroke:#000000;stroke-width:1.44;stroke-linecap:round;stroke-linejoin:round;stroke-miterlimit:10;stroke-dasharray:none;stroke-opacity:1"
       transform="matrix(1.3333333,0,0,-1.3333333,521.29613,59.8288)" />
    <text
       id="text44"
       xml:space="preserve"
       transform="matrix(1.3333333,0,0,1.3331556,481.7728,48.438933)"><tspan
         id="tspan44"
         style="font-variant:normal;font-weight:normal;font-stretch:normal;font-size:12.0008px;font-family:Arial;writing-mode:lr-tb;fill:#000000;fill-opacity:1;fill-rule:nonzero;stroke:none"
         x="0"
         dx="0 -0.1920128 0 0 0 0 0.1080072 -0.1920128"
         y="0">91°24'20&quot;E</tspan></text>
    <path
       id="path45"
       d="M 0,0 V -5.04"
       style="fill:none;stroke:#000000;stroke-width:1.44;stroke-linecap:round;stroke-linejoin:round;stroke-miterlimit:10;stroke-dasharray:none;stroke-opacity:1"
       transform="matrix(1.3333333,0,0,-1.3333333,361.92507,790.6576)" />
    <text
       id="text45"
       xml:space="preserve"
       transform="matrix(1.3333333,0,0,1.3331556,326.722,813.14067)"><tspan
         id="tspan45"
         style="font-variant:normal;font-weight:normal;font-stretch:normal;font-size:12.0008px;font-family:Arial;writing-mode:lr-tb;fill:#000000;fill-opacity:1;fill-rule:nonzero;stroke:none"
         x="0"
         dx="0 -0.1920128 0 0 0 0 0.1080072 -0.1920128"
         y="0">91°22'0&quot;E</tspan></text>
    <path
       id="path46"
       d="M 0,0 V 5.04"
       style="fill:none;stroke:#000000;stroke-width:1.44;stroke-linecap:round;stroke-linejoin:round;stroke-miterlimit:10;stroke-dasharray:none;stroke-opacity:1"
       transform="matrix(1.3333333,0,0,-1.3333333,369.92507,59.8288)" />
    <text
       id="text46"
       xml:space="preserve"
       transform="matrix(1.3333333,0,0,1.3331556,334.72333,48.438933)"><tspan
         id="tspan46"
         style="font-variant:normal;font-weight:normal;font-stretch:normal;font-size:12.0008px;font-family:Arial;writing-mode:lr-tb;fill:#000000;fill-opacity:1;fill-rule:nonzero;stroke:none"
         x="0"
         dx="0 -0.1920128 0 0 0 0 0.1080072 -0.1920128"
         y="0">91°22'0&quot;E</tspan></text>
    <path
       id="path47"
       d="M 0,0 V -5.04"
       style="fill:none;stroke:#000000;stroke-width:1.44;stroke-linecap:round;stroke-linejoin:round;stroke-miterlimit:10;stroke-dasharray:none;stroke-opacity:1"
       transform="matrix(1.3333333,0,0,-1.3333333,210.554,790.6576)" />
    <text
       id="text47"
       xml:space="preserve"
       transform="matrix(1.3333333,0,0,1.3331556,171.0312,813.14067)"><tspan
         id="tspan47"
         style="font-variant:normal;font-weight:normal;font-stretch:normal;font-size:12.0008px;font-family:Arial;writing-mode:lr-tb;fill:#000000;fill-opacity:1;fill-rule:nonzero;stroke:none"
         x="0"
         dx="0 -0.1920128 0 0 0 0 0.1080072 -0.1920128"
         y="0">91°19'40&quot;E</tspan></text>
    <path
       id="path48"
       d="M 0,0 V 5.04"
       style="fill:none;stroke:#000000;stroke-width:1.44;stroke-linecap:round;stroke-linejoin:round;stroke-miterlimit:10;stroke-dasharray:none;stroke-opacity:1"
       transform="matrix(1.3333333,0,0,-1.3333333,218.55467,59.8288)" />
    <text
       id="text48"
       xml:space="preserve"
       transform="matrix(1.3333333,0,0,1.3331556,179.03187,48.438933)"><tspan
         id="tspan48"
         style="font-variant:normal;font-weight:normal;font-stretch:normal;font-size:12.0008px;font-family:Arial;writing-mode:lr-tb;fill:#000000;fill-opacity:1;fill-rule:nonzero;stroke:none"
         x="0"
         dx="0 -0.1920128 0 0 0 0 0.1080072 -0.1920128"
         y="0">91°19'40&quot;E</tspan></text>
    <path
       id="path49"
       d="M 0,0 V -5.04"
       style="fill:none;stroke:#000000;stroke-width:1.44;stroke-linecap:round;stroke-linejoin:round;stroke-miterlimit:10;stroke-dasharray:none;stroke-opacity:1"
       transform="matrix(1.3333333,0,0,-1.3333333,58.8632,790.6576)" />
    <text
       id="text49"
       xml:space="preserve"
       transform="matrix(1.3333333,0,0,1.3331556,19.340533,813.14067)"><tspan
         id="tspan49"
         style="font-variant:normal;font-weight:normal;font-stretch:normal;font-size:12.0008px;font-family:Arial;writing-mode:lr-tb;fill:#000000;fill-opacity:1;fill-rule:nonzero;stroke:none"
         x="0"
         dx="0 -0.1920128 0 0 0 0 0.1080072 -0.1920128"
         y="0">91°17'20&quot;E</tspan></text>
    <path
       id="path50"
       d="M 0,0 V 5.04"
       style="fill:none;stroke:#000000;stroke-width:1.44;stroke-linecap:round;stroke-linejoin:round;stroke-miterlimit:10;stroke-dasharray:none;stroke-opacity:1"
       transform="matrix(1.3333333,0,0,-1.3333333,67.1836,59.8288)" />
    <text
       id="text50"
       xml:space="preserve"
       transform="matrix(1.3333333,0,0,1.3331556,27.6608,48.438933)"><tspan
         id="tspan50"
         style="font-variant:normal;font-weight:normal;font-stretch:normal;font-size:12.0008px;font-family:Arial;writing-mode:lr-tb;fill:#000000;fill-opacity:1;fill-rule:nonzero;stroke:none"
         x="0"
         dx="0 -0.1920128 0 0 0 0 0.1080072 -0.1920128"
         y="0">91°17'20&quot;E</tspan></text>
    <path
       id="path51"
       d="M 0,0 H -5.04"
       style="fill:none;stroke:#000000;stroke-width:1.44;stroke-linecap:round;stroke-linejoin:round;stroke-miterlimit:10;stroke-dasharray:none;stroke-opacity:1"
       transform="matrix(1.3333333,0,0,-1.3333333,57.902933,180.4604)" />
    <text
       id="text51"
       xml:space="preserve"
       transform="matrix(0,-1.3333333,1.3335111,0,46.261733,220.45773)"><tspan
         id="tspan51"
         style="font-variant:normal;font-weight:normal;font-stretch:normal;font-size:11.9992px;font-family:Arial;writing-mode:lr-tb;fill:#000000;fill-opacity:1;fill-rule:nonzero;stroke:none"
         x="0"
         dx="0 -0.1919872 0 0 0 0 0.1079928 -0.1919872"
         y="0">22°23'20&quot;N</tspan></text>
    <path
       id="path52"
       d="M 0,0 H 5.041"
       style="fill:none;stroke:#000000;stroke-width:1.44;stroke-linecap:round;stroke-linejoin:round;stroke-miterlimit:10;stroke-dasharray:none;stroke-opacity:1"
       transform="matrix(1.3333333,0,0,-1.3333333,595.54093,186.53973)" />
    <text
       id="text52"
       xml:space="preserve"
       transform="matrix(0,-1.3333333,1.3335111,0,618.27733,226.53787)"><tspan
         id="tspan52"
         style="font-variant:normal;font-weight:normal;font-stretch:normal;font-size:11.9992px;font-family:Arial;writing-mode:lr-tb;fill:#000000;fill-opacity:1;fill-rule:nonzero;stroke:none"
         x="0"
         dx="0 -0.1919872 0 0 0 0 0.1079928 -0.1919872"
         y="0">22°23'20&quot;N</tspan></text>
    <path
       id="path53"
       d="M 0,0 H -5.04"
       style="fill:none;stroke:#000000;stroke-width:1.44;stroke-linecap:round;stroke-linejoin:round;stroke-miterlimit:10;stroke-dasharray:none;stroke-opacity:1"
       transform="matrix(1.3333333,0,0,-1.3333333,57.902933,343.3288)" />
    <text
       id="text53"
       xml:space="preserve"
       transform="matrix(0,-1.3333333,1.3335111,0,46.261733,378.84587)"><tspan
         id="tspan53"
         style="font-variant:normal;font-weight:normal;font-stretch:normal;font-size:11.9992px;font-family:Arial;writing-mode:lr-tb;fill:#000000;fill-opacity:1;fill-rule:nonzero;stroke:none"
         x="0"
         dx="0 -0.1919872 0 0 0 0 0.1079928 -0.1919872"
         y="0">22°21'0&quot;N</tspan></text>
    <path
       id="path54"
       d="M 0,0 H 5.041"
       style="fill:none;stroke:#000000;stroke-width:1.44;stroke-linecap:round;stroke-linejoin:round;stroke-miterlimit:10;stroke-dasharray:none;stroke-opacity:1"
       transform="matrix(1.3333333,0,0,-1.3333333,595.54093,349.08867)" />
    <text
       id="text54"
       xml:space="preserve"
       transform="matrix(0,-1.3333333,1.3335111,0,618.27733,384.6056)"><tspan
         id="tspan54"
         style="font-variant:normal;font-weight:normal;font-stretch:normal;font-size:11.9992px;font-family:Arial;writing-mode:lr-tb;fill:#000000;fill-opacity:1;fill-rule:nonzero;stroke:none"
         x="0"
         dx="0 -0.1919872 0 0 0 0 0.1079928 -0.1919872"
         y="0">22°21'0&quot;N</tspan></text>
    <path
       id="path55"
       d="M 0,0 H -5.04"
       style="fill:none;stroke:#000000;stroke-width:1.44;stroke-linecap:round;stroke-linejoin:round;stroke-miterlimit:10;stroke-dasharray:none;stroke-opacity:1"
       transform="matrix(1.3333333,0,0,-1.3333333,57.902933,506.198)" />
    <text
       id="text55"
       xml:space="preserve"
       transform="matrix(0,-1.3333333,1.3335111,0,46.261733,546.1948)"><tspan
         id="tspan55"
         style="font-variant:normal;font-weight:normal;font-stretch:normal;font-size:11.9992px;font-family:Arial;writing-mode:lr-tb;fill:#000000;fill-opacity:1;fill-rule:nonzero;stroke:none"
         x="0"
         dx="0 -0.1919872 0 0 0 0 0.1079928 -0.1919872"
         y="0">22°18'40&quot;N</tspan></text>
    <path
       id="path56"
       d="M 0,0 H 5.041"
       style="fill:none;stroke:#000000;stroke-width:1.44;stroke-linecap:round;stroke-linejoin:round;stroke-miterlimit:10;stroke-dasharray:none;stroke-opacity:1"
       transform="matrix(1.3333333,0,0,-1.3333333,595.54093,511.95707)" />
    <text
       id="text56"
       xml:space="preserve"
       transform="matrix(0,-1.3333333,1.3335111,0,618.27733,551.95453)"><tspan
         id="tspan56"
         style="font-variant:normal;font-weight:normal;font-stretch:normal;font-size:11.9992px;font-family:Arial;writing-mode:lr-tb;fill:#000000;fill-opacity:1;fill-rule:nonzero;stroke:none"
         x="0"
         dx="0 -0.1919872 0 0 0 0 0.1079928 -0.1919872"
         y="0">22°18'40&quot;N</tspan></text>
    <path
       id="path57"
       d="M 0,0 H -5.04"
       style="fill:none;stroke:#000000;stroke-width:1.44;stroke-linecap:round;stroke-linejoin:round;stroke-miterlimit:10;stroke-dasharray:none;stroke-opacity:1"
       transform="matrix(1.3333333,0,0,-1.3333333,57.902933,668.74613)" />
    <text
       id="text57"
       xml:space="preserve"
       transform="matrix(0,-1.3333333,1.3335111,0,46.261733,708.74293)"><tspan
         id="tspan57"
         style="font-variant:normal;font-weight:normal;font-stretch:normal;font-size:11.9992px;font-family:Arial;writing-mode:lr-tb;fill:#000000;fill-opacity:1;fill-rule:nonzero;stroke:none"
         x="0"
         dx="0 -0.1919872 0 0 0 0 0.1079928 -0.1919872"
         y="0">22°16'20&quot;N</tspan></text>
    <path
       id="path58"
       d="M 0,0 H 5.041"
       style="fill:none;stroke:#000000;stroke-width:1.44;stroke-linecap:round;stroke-linejoin:round;stroke-miterlimit:10;stroke-dasharray:none;stroke-opacity:1"
       transform="matrix(1.3333333,0,0,-1.3333333,595.54093,674.8256)" />
    <text
       id="text58"
       xml:space="preserve"
       transform="matrix(0,-1.3333333,1.3335111,0,618.27733,714.82427)"><tspan
         id="tspan58"
         style="font-variant:normal;font-weight:normal;font-stretch:normal;font-size:11.9992px;font-family:Arial;writing-mode:lr-tb;fill:#000000;fill-opacity:1;fill-rule:nonzero;stroke:none"
         x="0"
         dx="0 -0.1919872 0 0 0 0 0.1079928 -0.1919872"
         y="0">22°16'20&quot;N</tspan></text>
    <path
       id="path59"
       d="M 43.427,593.048 H 446.656 V 44.926 H 43.427 Z"
       style="fill:none;stroke:#000000;stroke-width:1.44;stroke-linecap:round;stroke-linejoin:round;stroke-miterlimit:10;stroke-dasharray:none;stroke-opacity:1"
       transform="matrix(1.3333333,0,0,-1.3333333,0,850.56)" />
    <text
       id="text59"
       xml:space="preserve"
       transform="matrix(1.3333333,0,0,1.3331456,527.696,158.062)"><tspan
         id="tspan59"
         style="font-variant:normal;font-weight:normal;font-stretch:normal;font-size:69.6049px;font-family:'ESRI North';writing-mode:lr-tb;fill:#000000;fill-opacity:1;fill-rule:nonzero;stroke:none"
         x="0"
         y="0">±</tspan></text>
    <path
       id="path60"
       d="M 0,0 H 60.964"
       style="fill:none;stroke:#ad2b00;stroke-width:1.92;stroke-linecap:round;stroke-linejoin:round;stroke-miterlimit:10;stroke-dasharray:none;stroke-opacity:1"
       transform="matrix(1.3333333,0,0,-1.3333333,115.18747,563.79307)" />
    <text
       id="text60"
       xml:space="preserve"
       transform="matrix(1.3333333,0,0,1.3331418,117.42773,551.31387)"><tspan
         id="tspan60"
         style="font-variant:normal;font-weight:700;font-stretch:normal;font-size:13.921px;font-family:Arial;writing-mode:lr-tb;fill:#000000;fill-opacity:1;fill-rule:nonzero;stroke:none"
         x="0"
         dx="0 0 0 0.18097299 0 0 0.20881499 -0.111368"
         y="0">Baseline</tspan><tspan
         id="tspan61"
         style="font-variant:normal;font-weight:700;font-stretch:normal;font-size:13.921px;font-family:Arial;writing-mode:lr-tb;fill:#000000;fill-opacity:1;fill-rule:nonzero;stroke:none"
         x="-4.7888241"
         dx="0 0 0.13921 -0.111368 0.111368 0.18097299 0 0 0.13921"
         y="26.644794">shoreline</tspan></text>
    <text
       id="text61"
       xml:space="preserve"
       transform="matrix(1.3333333,0,0,1.3331459,317.12173,104.11733)"><tspan
         id="tspan62"
         style="font-variant:normal;font-weight:700;font-stretch:normal;font-size:19.9214px;font-family:Arial;writing-mode:lr-tb;fill:#000000;fill-opacity:1;fill-rule:nonzero;stroke:none"
         x="0"
         y="0">C</tspan></text>
    <path
       id="path62"
       d="M 0,0 H 30.002"
       style="fill:none;stroke:#c0c0c0;stroke-width:0.96;stroke-linecap:round;stroke-linejoin:round;stroke-miterlimit:10;stroke-dasharray:9.375, 15;stroke-dashoffset:0;stroke-opacity:1"
       transform="matrix(1.3333333,0,0,-1.3333333,331.5228,739.78133)" />
    <path
       id="path63"
       d="M 0,0 H 30.002"
       style="fill:none;stroke:#ffff00;stroke-width:1.92;stroke-linecap:round;stroke-linejoin:round;stroke-miterlimit:10;stroke-dasharray:none;stroke-opacity:1"
       transform="matrix(1.3333333,0,0,-1.3333333,114.2272,607.95053)" />
    <text
       id="text63"
       xml:space="preserve"
       transform="matrix(1.3333333,0,0,1.3331556,161.59053,614.03)"><tspan
         id="tspan63"
         style="font-variant:normal;font-weight:normal;font-stretch:normal;font-size:12.0008px;font-family:Arial;writing-mode:lr-tb;fill:#000000;fill-opacity:1;fill-rule:nonzero;stroke:none"
         x="0"
         dx="0 -0.1920128"
         y="0">2005</tspan></text>
    <path
       id="path64"
       d="M 0,0 H 30.002"
       style="fill:none;stroke:#fcd4b6;stroke-width:1.92;stroke-linecap:round;stroke-linejoin:round;stroke-miterlimit:10;stroke-dasharray:none;stroke-opacity:1"
       transform="matrix(1.3333333,0,0,-1.3333333,114.2272,635.14853)" />
    <text
       id="text64"
       xml:space="preserve"
       transform="matrix(1.3333333,0,0,1.3331556,161.59053,641.228)"><tspan
         id="tspan64"
         style="font-variant:normal;font-weight:normal;font-stretch:normal;font-size:12.0008px;font-family:Arial;writing-mode:lr-tb;fill:#000000;fill-opacity:1;fill-rule:nonzero;stroke:none"
         x="0"
         dx="0 -0.1920128"
         y="0">2008</tspan></text>
    <path
       id="path65"
       d="M 0,0 H 30.002"
       style="fill:none;stroke:#fcb8c6;stroke-width:1.92;stroke-linecap:round;stroke-linejoin:round;stroke-miterlimit:10;stroke-dasharray:none;stroke-opacity:1"
       transform="matrix(1.3333333,0,0,-1.3333333,114.2272,662.3464)" />
    <text
       id="text65"
       xml:space="preserve"
       transform="matrix(1.3333333,0,0,1.3331556,161.59053,668.42587)"><tspan
         id="tspan65"
         style="font-variant:normal;font-weight:normal;font-stretch:normal;font-size:12.0008px;font-family:Arial;writing-mode:lr-tb;fill:#000000;fill-opacity:1;fill-rule:nonzero;stroke:none"
         x="0"
         dx="0 -0.1920128 0 -0.9120608"
         y="0">2011</tspan></text>
    <path
       id="path66"
       d="M 0,0 H 30.002"
       style="fill:none;stroke:#b6fcb6;stroke-width:1.92;stroke-linecap:round;stroke-linejoin:round;stroke-miterlimit:10;stroke-dasharray:none;stroke-opacity:1"
       transform="matrix(1.3333333,0,0,-1.3333333,114.2272,689.54427)" />
    <text
       id="text66"
       xml:space="preserve"
       transform="matrix(1.3333333,0,0,1.3331556,161.59053,695.62387)"><tspan
         id="tspan66"
         style="font-variant:normal;font-weight:normal;font-stretch:normal;font-size:12.0008px;font-family:Arial;writing-mode:lr-tb;fill:#000000;fill-opacity:1;fill-rule:nonzero;stroke:none"
         x="0"
         dx="0 -0.1920128"
         y="0">2014</tspan></text>
    <path
       id="path67"
       d="M 0,0 H 30.002"
       style="fill:none;stroke:#ccf2fc;stroke-width:1.92;stroke-linecap:round;stroke-linejoin:round;stroke-miterlimit:10;stroke-dasharray:none;stroke-opacity:1"
       transform="matrix(1.3333333,0,0,-1.3333333,114.2272,716.74227)" />
    <text
       id="text67"
       xml:space="preserve"
       transform="matrix(1.3333333,0,0,1.3331556,161.59053,722.82173)"><tspan
         id="tspan67"
         style="font-variant:normal;font-weight:normal;font-stretch:normal;font-size:12.0008px;font-family:Arial;writing-mode:lr-tb;fill:#000000;fill-opacity:1;fill-rule:nonzero;stroke:none"
         x="0"
         dx="0 -0.1920128"
         y="0">2017</tspan></text>
    <path
       id="path68"
       d="M 0,0 H 30.002"
       style="fill:none;stroke:#eebbfc;stroke-width:1.92;stroke-linecap:round;stroke-linejoin:round;stroke-miterlimit:10;stroke-dasharray:none;stroke-opacity:1"
       transform="matrix(1.3333333,0,0,-1.3333333,114.2272,743.6212)" />
    <text
       id="text68"
       xml:space="preserve"
       transform="matrix(1.3333333,0,0,1.3331556,161.59053,749.70067)"><tspan
         id="tspan68"
         style="font-variant:normal;font-weight:normal;font-stretch:normal;font-size:12.0008px;font-family:Arial;writing-mode:lr-tb;fill:#000000;fill-opacity:1;fill-rule:nonzero;stroke:none"
         x="0"
         dx="0 -0.1920128"
         y="0">2020</tspan></text>
    <path
       id="path69"
       d="M 0,0 H 30.002"
       style="fill:none;stroke:#b6c9fc;stroke-width:1.92;stroke-linecap:round;stroke-linejoin:round;stroke-miterlimit:10;stroke-dasharray:none;stroke-opacity:1"
       transform="matrix(1.3333333,0,0,-1.3333333,114.2272,770.81907)" />
    <text
       id="text69"
       xml:space="preserve"
       transform="matrix(1.3333333,0,0,1.3331556,161.59053,776.89853)"><tspan
         id="tspan69"
         style="font-variant:normal;font-weight:normal;font-stretch:normal;font-size:12.0008px;font-family:Arial;writing-mode:lr-tb;fill:#000000;fill-opacity:1;fill-rule:nonzero;stroke:none"
         x="0"
         dx="0 -0.1920128"
         y="0">2023</tspan></text>
    <path
       id="path70"
       d="M 0,0 H 30.002"
       style="fill:none;stroke:#c0c0c0;stroke-width:0.96;stroke-linecap:round;stroke-linejoin:round;stroke-miterlimit:10;stroke-dasharray:9.375, 15;stroke-dashoffset:0;stroke-opacity:1"
       transform="matrix(1.3333333,0,0,-1.3333333,331.5228,739.78133)" />
    <text
       id="text70"
       xml:space="preserve"
       transform="matrix(1.3333333,0,0,1.3331556,378.56573,745.8608)"><tspan
         id="tspan70"
         style="font-variant:normal;font-weight:normal;font-stretch:normal;font-size:12.0008px;font-family:Arial;writing-mode:lr-tb;fill:#000000;fill-opacity:1;fill-rule:nonzero;stroke:none"
         x="0"
         y="0">NULL</tspan><tspan
         id="tspan71"
         style="font-style:italic;font-variant:normal;font-weight:normal;font-stretch:normal;font-size:12.0008px;font-family:Arial;writing-mode:lr-tb;fill:#000000;fill-opacity:1;fill-rule:nonzero;stroke:none"
         x="46.32309"
         dx="0 0 0 -0.2160144 0 0 0 0 0 0 0 0 0 0 0 0 0 0 -0.1920128"
         y="-0.72004801">Rate not calculated</tspan><tspan
         id="tspan72"
         style="font-style:italic;font-variant:normal;font-weight:normal;font-stretch:normal;font-size:12.0008px;font-family:Arial;writing-mode:lr-tb;fill:#000000;fill-opacity:1;fill-rule:nonzero;stroke:none"
         x="46.335091"
         dx="0 -0.1920128 0 0 0 0 0 0 0 0 0.084005602 0 -0.1920128"
         y="12.960864">at this transect</tspan></text>
    <text
       id="text72"
       xml:space="preserve"
       transform="matrix(1.3333333,0,0,1.3331482,331.5228,556.43373)"><tspan
         id="tspan73"
         style="font-variant:normal;font-weight:700;font-stretch:normal;font-size:12.9609px;font-family:Arial;writing-mode:lr-tb;fill:#000000;fill-opacity:1;fill-rule:nonzero;stroke:none"
         x="0"
         dx="0 0 0 0 0 0 0.2332962 0 0 0 0 0 0 0.2332962"
         y="0">EPR(meter/year)</tspan></text>
    <path
       id="path73"
       d="M 0,0 H 30.002"
       style="fill:none;stroke:#b2b2b2;stroke-width:1.44;stroke-linecap:round;stroke-linejoin:round;stroke-miterlimit:10;stroke-dasharray:none;stroke-opacity:1"
       transform="matrix(1.3333333,0,0,-1.3333333,331.5228,576.9128)" />
    <text
       id="text73"
       xml:space="preserve"
       transform="matrix(1.3333333,0,0,1.3331556,378.56573,582.99227)"><tspan
         id="tspan74"
         style="font-variant:normal;font-weight:normal;font-stretch:normal;font-size:12.0008px;font-family:Arial;writing-mode:lr-tb;fill:#000000;fill-opacity:1;fill-rule:nonzero;stroke:none"
         x="0"
         dx="0 -0.1560104 0 0 0 0 0 -0.1920128 0 0 0 0 0.084005602 -0.2160144 0.084005602 0 0 0 0 -0.1920128"
         y="0">-74.980000 - -39.320000</tspan></text>
    <path
       id="path74"
       d="M 0,0 H 30.002"
       style="fill:none;stroke:#e60000;stroke-width:1.44;stroke-linecap:round;stroke-linejoin:round;stroke-miterlimit:10;stroke-dasharray:none;stroke-opacity:1"
       transform="matrix(1.3333333,0,0,-1.3333333,331.5228,604.11067)" />
    <text
       id="text74"
       xml:space="preserve"
       transform="matrix(1.3333333,0,0,1.3331556,378.56573,610.19027)"><tspan
         id="tspan75"
         style="font-variant:normal;font-weight:normal;font-stretch:normal;font-size:12.0008px;font-family:Arial;writing-mode:lr-tb;fill:#000000;fill-opacity:1;fill-rule:nonzero;stroke:none"
         x="0"
         dx="0 -0.1560104 0 0 0 0 0 -0.1920128 0 0 0 0 0.084005602 -0.2160144 0 0 0 0 0 0 0 -0.1920128"
         y="0">-39.319999 - 22.840000</tspan></text>
    <path
       id="path75"
       d="M 0,0 H 30.002"
       style="fill:none;stroke:#73b2ff;stroke-width:1.44;stroke-linecap:round;stroke-linejoin:round;stroke-miterlimit:10;stroke-dasharray:none;stroke-opacity:1"
       transform="matrix(1.3333333,0,0,-1.3333333,331.5228,631.30867)" />
    <text
       id="text75"
       xml:space="preserve"
       transform="matrix(1.3333333,0,0,1.3331556,378.56573,637.38813)"><tspan
         id="tspan76"
         style="font-variant:normal;font-weight:normal;font-stretch:normal;font-size:12.0008px;font-family:Arial;writing-mode:lr-tb;fill:#000000;fill-opacity:1;fill-rule:nonzero;stroke:none"
         x="0"
         dx="0 -0.1920128 0 0 0 0 0 0 -0.1920128 0 0 0.084005602 0 -0.9120608 0 0 0 -0.1920128"
         y="0">22.840001 - 117.920000</tspan></text>
    <path
       id="path76"
       d="M 0,0 H 30.002"
       style="fill:none;stroke:#e6e600;stroke-width:1.44;stroke-linecap:round;stroke-linejoin:round;stroke-miterlimit:10;stroke-dasharray:none;stroke-opacity:1"
       transform="matrix(1.3333333,0,0,-1.3333333,331.5228,658.50653)" />
    <text
       id="text76"
       xml:space="preserve"
       transform="matrix(1.3333333,0,0,1.3331556,378.56573,664.586)"><tspan
         id="tspan77"
         style="font-variant:normal;font-weight:normal;font-stretch:normal;font-size:12.0008px;font-family:Arial;writing-mode:lr-tb;fill:#000000;fill-opacity:1;fill-rule:nonzero;stroke:none"
         x="0"
         dx="0 -0.9120608 0 -0.1920128 0 0 0 0 0 0 -0.1920128 0 0.084005602 0 0 0 -0.1920128"
         y="0">117.920001 - 162.540000</tspan></text>
    <path
       id="path77"
       d="M 0,0 H 30.002"
       style="fill:none;stroke:#e6e600;stroke-width:1.44;stroke-linecap:round;stroke-linejoin:round;stroke-miterlimit:10;stroke-dasharray:none;stroke-opacity:1"
       transform="matrix(1.3333333,0,0,-1.3333333,331.5228,685.38547)" />
    <text
       id="text77"
       xml:space="preserve"
       transform="matrix(1.3333333,0,0,1.3331556,378.56573,691.46493)"><tspan
         id="tspan78"
         style="font-variant:normal;font-weight:normal;font-stretch:normal;font-size:12.0008px;font-family:Arial;writing-mode:lr-tb;fill:#000000;fill-opacity:1;fill-rule:nonzero;stroke:none"
         x="0"
         dx="0 -0.1920128 0 0 0 0 0 0 -0.1920128 0 0 0 0.084005602 0 -0.1920128 0 0 0 0 0 0 0 -0.1920128"
         y="0">162.540001 - 190.980000</tspan></text>
    <path
       id="path78"
       d="M 0,0 H 30.002"
       style="fill:none;stroke:#e6e600;stroke-width:1.44;stroke-linecap:round;stroke-linejoin:round;stroke-miterlimit:10;stroke-dasharray:none;stroke-opacity:1"
       transform="matrix(1.3333333,0,0,-1.3333333,331.5228,712.58333)" />
    <text
       id="text78"
       xml:space="preserve"
       transform="matrix(1.3333333,0,0,1.3331556,378.56573,718.6628)"><tspan
         id="tspan79"
         style="font-variant:normal;font-weight:normal;font-stretch:normal;font-size:12.0008px;font-family:Arial;writing-mode:lr-tb;fill:#000000;fill-opacity:1;fill-rule:nonzero;stroke:none"
         x="0"
         dx="0 -0.1920128 0 0 0 0 0 0 -0.1920128 0 0 0 0.084005602 0 -0.1920128 0 0 0 0 0 0 0 -0.1920128"
         y="0">190.980001 - 798.010000</tspan></text>
  </g>
</svg>
