<?xml version="1.0" encoding="UTF-8" standalone="no"?>
<!-- Created with Inkscape (http://www.inkscape.org/) -->

<svg
   version="1.1"
   id="svg1"
   width="1152"
   height="768"
   viewBox="0 0 1152 768"
   sodipodi:docname="sce_thesis_style.pdf"
   xmlns:inkscape="http://www.inkscape.org/namespaces/inkscape"
   xmlns:sodipodi="http://sodipodi.sourceforge.net/DTD/sodipodi-0.dtd"
   xmlns="http://www.w3.org/2000/svg"
   xmlns:svg="http://www.w3.org/2000/svg">
  <defs
     id="defs1">
    <clipPath
       clipPathUnits="userSpaceOnUse"
       id="clipPath5">
      <path
         d="M 0,576 H 864 V 0 H 0 Z"
         transform="translate(-201.65871,-56.994099)"
         id="path5" />
    </clipPath>
    <clipPath
       clipPathUnits="userSpaceOnUse"
       id="clipPath7">
      <path
         d="M 0,576 H 864 V 0 H 0 Z"
         transform="translate(-355.22511,-49.222704)"
         id="path7" />
    </clipPath>
    <clipPath
       clipPathUnits="userSpaceOnUse"
       id="clipPath9">
      <path
         d="M 0,576 H 864 V 0 H 0 Z"
         transform="translate(-360.68701,-49.023399)"
         id="path9" />
    </clipPath>
    <clipPath
       clipPathUnits="userSpaceOnUse"
       id="clipPath11">
      <path
         d="M 0,576 H 864 V 0 H 0 Z"
         transform="translate(-587.38961,-54.656304)"
         id="path11" />
    </clipPath>
    <clipPath
       clipPathUnits="userSpaceOnUse"
       id="clipPath13">
      <path
         d="M 0,576 H 864 V 0 H 0 Z"
         transform="translate(-592.58501,-56.994099)"
         id="path13" />
    </clipPath>
    <clipPath
       clipPathUnits="userSpaceOnUse"
       id="clipPath15">
      <path
         d="M 0,576 H 864 V 0 H 0 Z"
         transform="translate(-735.79102,-49.222704)"
         id="path15" />
    </clipPath>
    <clipPath
       clipPathUnits="userSpaceOnUse"
       id="clipPath17">
      <path
         d="M 0,576 H 864 V 0 H 0 Z"
         transform="translate(-744.69822,-49.222704)"
         id="path17" />
    </clipPath>
    <clipPath
       clipPathUnits="userSpaceOnUse"
       id="clipPath19">
      <path
         d="M 0,576 H 864 V 0 H 0 Z"
         transform="translate(-756.06639,-49.023399)"
         id="path19" />
    </clipPath>
    <clipPath
       clipPathUnits="userSpaceOnUse"
       id="clipPath21">
      <path
         d="M 0,576 H 864 V 0 H 0 Z"
         transform="translate(-406.16701,-28.633801)"
         id="path21" />
    </clipPath>
    <clipPath
       clipPathUnits="userSpaceOnUse"
       id="clipPath23">
      <path
         d="M 0,576 H 864 V 0 H 0 Z"
         transform="translate(-423.33981,-37.993201)"
         id="path23" />
    </clipPath>
    <clipPath
       clipPathUnits="userSpaceOnUse"
       id="clipPath25">
      <path
         d="M 0,576 H 864 V 0 H 0 Z"
         transform="translate(-432.12111,-34.469701)"
         id="path25" />
    </clipPath>
    <clipPath
       clipPathUnits="userSpaceOnUse"
       id="clipPath27">
      <path
         d="M 0,576 H 864 V 0 H 0 Z"
         transform="translate(-434.81151,-28.633801)"
         id="path27" />
    </clipPath>
    <clipPath
       clipPathUnits="userSpaceOnUse"
       id="clipPath29">
      <path
         d="M 0,576 H 864 V 0 H 0 Z"
         transform="translate(-446.67481,-29.151398)"
         id="path29" />
    </clipPath>
    <clipPath
       clipPathUnits="userSpaceOnUse"
       id="clipPath31">
      <path
         d="M 0,576 H 864 V 0 H 0 Z"
         transform="translate(-462.75201,-34.064498)"
         id="path31" />
    </clipPath>
    <clipPath
       clipPathUnits="userSpaceOnUse"
       id="clipPath33">
      <path
         d="M 0,576 H 864 V 0 H 0 Z"
         transform="translate(-474.81051,-31.437503)"
         id="path33" />
    </clipPath>
    <clipPath
       clipPathUnits="userSpaceOnUse"
       id="clipPath35">
      <path
         d="M 0,576 H 864 V 0 H 0 Z"
         transform="translate(-477.57911,-37.037101)"
         id="path35" />
    </clipPath>
    <clipPath
       clipPathUnits="userSpaceOnUse"
       id="clipPath37">
      <path
         d="M 0,576 H 864 V 0 H 0 Z"
         transform="translate(-100.042,-108.7246)"
         id="path37" />
    </clipPath>
    <clipPath
       clipPathUnits="userSpaceOnUse"
       id="clipPath39">
      <path
         d="M 0,576 H 864 V 0 H 0 Z"
         transform="translate(-70.858402,-170.4258)"
         id="path39" />
    </clipPath>
    <clipPath
       clipPathUnits="userSpaceOnUse"
       id="clipPath41">
      <path
         d="M 0,576 H 864 V 0 H 0 Z"
         transform="translate(-82.226605,-170.2266)"
         id="path41" />
    </clipPath>
    <clipPath
       clipPathUnits="userSpaceOnUse"
       id="clipPath43">
      <path
         d="M 0,576 H 864 V 0 H 0 Z"
         transform="translate(-91.1338,-170.2266)"
         id="path43" />
    </clipPath>
    <clipPath
       clipPathUnits="userSpaceOnUse"
       id="clipPath45">
      <path
         d="M 0,576 H 864 V 0 H 0 Z"
         transform="translate(-100.041,-170.2266)"
         id="path45" />
    </clipPath>
    <clipPath
       clipPathUnits="userSpaceOnUse"
       id="clipPath47">
      <path
         d="M 0,576 H 864 V 0 H 0 Z"
         transform="translate(-70.661602,-239.70021)"
         id="path47" />
    </clipPath>
    <clipPath
       clipPathUnits="userSpaceOnUse"
       id="clipPath49">
      <path
         d="M 0,576 H 864 V 0 H 0 Z"
         transform="translate(-82.226605,-231.72951)"
         id="path49" />
    </clipPath>
    <clipPath
       clipPathUnits="userSpaceOnUse"
       id="clipPath51">
      <path
         d="M 0,576 H 864 V 0 H 0 Z"
         transform="translate(-91.1338,-231.72951)"
         id="path51" />
    </clipPath>
    <clipPath
       clipPathUnits="userSpaceOnUse"
       id="clipPath53">
      <path
         d="M 0,576 H 864 V 0 H 0 Z"
         transform="translate(-100.041,-231.72951)"
         id="path53" />
    </clipPath>
    <clipPath
       clipPathUnits="userSpaceOnUse"
       id="clipPath55">
      <path
         d="M 0,576 H 864 V 0 H 0 Z"
         transform="translate(-70.230502,-303.20651)"
         id="path55" />
    </clipPath>
    <clipPath
       clipPathUnits="userSpaceOnUse"
       id="clipPath57">
      <path
         d="M 0,576 H 864 V 0 H 0 Z"
         transform="translate(-82.226605,-293.23141)"
         id="path57" />
    </clipPath>
    <clipPath
       clipPathUnits="userSpaceOnUse"
       id="clipPath59">
      <path
         d="M 0,576 H 864 V 0 H 0 Z"
         transform="translate(-91.1338,-293.23141)"
         id="path59" />
    </clipPath>
    <clipPath
       clipPathUnits="userSpaceOnUse"
       id="clipPath61">
      <path
         d="M 0,576 H 864 V 0 H 0 Z"
         transform="translate(-100.041,-293.23141)"
         id="path61" />
    </clipPath>
    <clipPath
       clipPathUnits="userSpaceOnUse"
       id="clipPath63">
      <path
         d="M 0,576 H 864 V 0 H 0 Z"
         transform="translate(-76.764602,-354.93311)"
         id="path63" />
    </clipPath>
    <clipPath
       clipPathUnits="userSpaceOnUse"
       id="clipPath65">
      <path
         d="M 0,576 H 864 V 0 H 0 Z"
         transform="translate(-82.226605,-354.73391)"
         id="path65" />
    </clipPath>
    <clipPath
       clipPathUnits="userSpaceOnUse"
       id="clipPath67">
      <path
         d="M 0,576 H 864 V 0 H 0 Z"
         transform="translate(-91.1338,-354.73391)"
         id="path67" />
    </clipPath>
    <clipPath
       clipPathUnits="userSpaceOnUse"
       id="clipPath69">
      <path
         d="M 0,576 H 864 V 0 H 0 Z"
         transform="translate(-100.041,-354.73391)"
         id="path69" />
    </clipPath>
    <clipPath
       clipPathUnits="userSpaceOnUse"
       id="clipPath71">
      <path
         d="M 0,576 H 864 V 0 H 0 Z"
         transform="translate(-75.911604,-426.64211)"
         id="path71" />
    </clipPath>
    <clipPath
       clipPathUnits="userSpaceOnUse"
       id="clipPath73">
      <path
         d="M 0,576 H 864 V 0 H 0 Z"
         transform="translate(-82.226605,-416.23631)"
         id="path73" />
    </clipPath>
    <clipPath
       clipPathUnits="userSpaceOnUse"
       id="clipPath75">
      <path
         d="M 0,576 H 864 V 0 H 0 Z"
         transform="translate(-91.1338,-416.23631)"
         id="path75" />
    </clipPath>
    <clipPath
       clipPathUnits="userSpaceOnUse"
       id="clipPath77">
      <path
         d="M 0,576 H 864 V 0 H 0 Z"
         transform="translate(-100.041,-416.23631)"
         id="path77" />
    </clipPath>
    <clipPath
       clipPathUnits="userSpaceOnUse"
       id="clipPath79">
      <path
         d="M 0,576 H 864 V 0 H 0 Z"
         transform="translate(-71.221702,-483.55761)"
         id="path79" />
    </clipPath>
    <clipPath
       clipPathUnits="userSpaceOnUse"
       id="clipPath81">
      <path
         d="M 0,576 H 864 V 0 H 0 Z"
         transform="translate(-82.226605,-477.73881)"
         id="path81" />
    </clipPath>
    <clipPath
       clipPathUnits="userSpaceOnUse"
       id="clipPath83">
      <path
         d="M 0,576 H 864 V 0 H 0 Z"
         transform="translate(-91.1338,-477.73881)"
         id="path83" />
    </clipPath>
    <clipPath
       clipPathUnits="userSpaceOnUse"
       id="clipPath85">
      <path
         d="M 0,576 H 864 V 0 H 0 Z"
         transform="translate(-100.041,-477.73881)"
         id="path85" />
    </clipPath>
    <clipPath
       clipPathUnits="userSpaceOnUse"
       id="clipPath87">
      <path
         d="M 0,576 H 864 V 0 H 0 Z"
         transform="translate(-60.493702,-267.16891)"
         id="path87" />
    </clipPath>
    <clipPath
       clipPathUnits="userSpaceOnUse"
       id="clipPath89">
      <path
         d="M 0,576 H 864 V 0 H 0 Z"
         transform="translate(-57.655801,-290.5225)"
         id="path89" />
    </clipPath>
    <clipPath
       clipPathUnits="userSpaceOnUse"
       id="clipPath91">
      <path
         d="M 0,576 H 864 V 0 H 0 Z"
         transform="translate(-61.126502,-292.59471)"
         id="path91" />
    </clipPath>
    <clipPath
       clipPathUnits="userSpaceOnUse"
       id="clipPath93">
      <path
         d="M 108,63.36 H 777.6 V 506.88 H 108 Z"
         transform="translate(-138.4365,-312.14311)"
         id="path93" />
    </clipPath>
    <clipPath
       clipPathUnits="userSpaceOnUse"
       id="clipPath95">
      <path
         d="M 108,63.36 H 777.6 V 506.88 H 108 Z"
         transform="translate(-138.4365,-63.360399)"
         id="path95" />
    </clipPath>
    <clipPath
       clipPathUnits="userSpaceOnUse"
       id="clipPath97">
      <path
         d="M 108,63.36 H 777.6 V 506.88 H 108 Z"
         transform="translate(-199.86771,-63.360399)"
         id="path97" />
    </clipPath>
    <clipPath
       clipPathUnits="userSpaceOnUse"
       id="clipPath99">
      <path
         d="M 108,63.36 H 777.6 V 506.88 H 108 Z"
         transform="translate(-205.4521,-63.360399)"
         id="path99" />
    </clipPath>
    <clipPath
       clipPathUnits="userSpaceOnUse"
       id="clipPath101">
      <path
         d="M 108,63.36 H 777.6 V 506.88 H 108 Z"
         transform="translate(-356.23781,-63.360399)"
         id="path101" />
    </clipPath>
    <clipPath
       clipPathUnits="userSpaceOnUse"
       id="clipPath103">
      <path
         d="M 108,63.36 H 777.6 V 506.88 H 108 Z"
         transform="translate(-361.82231,-63.360399)"
         id="path103" />
    </clipPath>
    <clipPath
       clipPathUnits="userSpaceOnUse"
       id="clipPath105">
      <path
         d="M 108,63.36 H 777.6 V 506.88 H 108 Z"
         transform="translate(-590.79301,-63.360399)"
         id="path105" />
    </clipPath>
    <clipPath
       clipPathUnits="userSpaceOnUse"
       id="clipPath107">
      <path
         d="M 108,63.36 H 777.6 V 506.88 H 108 Z"
         transform="translate(-596.37791,-63.360399)"
         id="path107" />
    </clipPath>
    <clipPath
       clipPathUnits="userSpaceOnUse"
       id="clipPath109">
      <path
         d="M 108,63.36 H 777.6 V 506.88 H 108 Z"
         transform="translate(-747.16412,-63.360399)"
         id="path109" />
    </clipPath>
    <clipPath
       clipPathUnits="userSpaceOnUse"
       id="clipPath111">
      <path
         d="M 0,576 H 864 V 0 H 0 Z"
         transform="translate(-108,-63.360399)"
         id="path111" />
    </clipPath>
    <clipPath
       clipPathUnits="userSpaceOnUse"
       id="clipPath113">
      <path
         d="M 0,576 H 864 V 0 H 0 Z"
         transform="translate(-108,-63.360399)"
         id="path113" />
    </clipPath>
    <clipPath
       clipPathUnits="userSpaceOnUse"
       id="clipPath115">
      <path
         d="M 0,576 H 864 V 0 H 0 Z"
         transform="translate(-151.25391,-77.103504)"
         id="path115" />
    </clipPath>
    <clipPath
       clipPathUnits="userSpaceOnUse"
       id="clipPath117">
      <path
         d="M 0,576 H 864 V 0 H 0 Z"
         transform="translate(-156.856,-78.579099)"
         id="path117" />
    </clipPath>
    <clipPath
       clipPathUnits="userSpaceOnUse"
       id="clipPath119">
      <path
         d="M 0,576 H 864 V 0 H 0 Z"
         transform="translate(-160.0894,-78.022502)"
         id="path119" />
    </clipPath>
    <clipPath
       clipPathUnits="userSpaceOnUse"
       id="clipPath121">
      <path
         d="M 0,576 H 864 V 0 H 0 Z"
         transform="translate(-167.7246,-74.871099)"
         id="path121" />
    </clipPath>
    <clipPath
       clipPathUnits="userSpaceOnUse"
       id="clipPath123">
      <path
         d="M 0,576 H 864 V 0 H 0 Z"
         id="path123" />
    </clipPath>
    <clipPath
       clipPathUnits="userSpaceOnUse"
       id="clipPath125">
      <path
         d="M 0,576 H 864 V 0 H 0 Z"
         transform="translate(-175.54101,-78.000002)"
         id="path125" />
    </clipPath>
    <clipPath
       clipPathUnits="userSpaceOnUse"
       id="clipPath127">
      <path
         d="M 0,576 H 864 V 0 H 0 Z"
         transform="translate(-181.9863,-74.824202)"
         id="path127" />
    </clipPath>
    <clipPath
       clipPathUnits="userSpaceOnUse"
       id="clipPath129">
      <path
         d="M 0,576 H 864 V 0 H 0 Z"
         transform="translate(-191.0005,-80.835002)"
         id="path129" />
    </clipPath>
    <clipPath
       clipPathUnits="userSpaceOnUse"
       id="clipPath131">
      <path
         d="M 0,576 H 864 V 0 H 0 Z"
         transform="translate(-262.61721,-77.103504)"
         id="path131" />
    </clipPath>
    <clipPath
       clipPathUnits="userSpaceOnUse"
       id="clipPath133">
      <path
         d="M 0,576 H 864 V 0 H 0 Z"
         transform="translate(-268.21921,-78.579099)"
         id="path133" />
    </clipPath>
    <clipPath
       clipPathUnits="userSpaceOnUse"
       id="clipPath135">
      <path
         d="M 0,576 H 864 V 0 H 0 Z"
         transform="translate(-271.45261,-78.022502)"
         id="path135" />
    </clipPath>
    <clipPath
       clipPathUnits="userSpaceOnUse"
       id="clipPath137">
      <path
         d="M 0,576 H 864 V 0 H 0 Z"
         transform="translate(-279.0874,-74.871099)"
         id="path137" />
    </clipPath>
    <clipPath
       clipPathUnits="userSpaceOnUse"
       id="clipPath139">
      <path
         d="M 0,576 H 864 V 0 H 0 Z"
         id="path139" />
    </clipPath>
    <clipPath
       clipPathUnits="userSpaceOnUse"
       id="clipPath141">
      <path
         d="M 0,576 H 864 V 0 H 0 Z"
         transform="translate(-286.90431,-78.000002)"
         id="path141" />
    </clipPath>
    <clipPath
       clipPathUnits="userSpaceOnUse"
       id="clipPath143">
      <path
         d="M 0,576 H 864 V 0 H 0 Z"
         transform="translate(-293.34961,-74.824202)"
         id="path143" />
    </clipPath>
    <clipPath
       clipPathUnits="userSpaceOnUse"
       id="clipPath145">
      <path
         d="M 0,576 H 864 V 0 H 0 Z"
         transform="translate(-304.76371,-77.238302)"
         id="path145" />
    </clipPath>
    <clipPath
       clipPathUnits="userSpaceOnUse"
       id="clipPath147">
      <path
         d="M 0,576 H 864 V 0 H 0 Z"
         transform="translate(-457.74901,-77.103504)"
         id="path147" />
    </clipPath>
    <clipPath
       clipPathUnits="userSpaceOnUse"
       id="clipPath149">
      <path
         d="M 0,576 H 864 V 0 H 0 Z"
         transform="translate(-463.35161,-78.579099)"
         id="path149" />
    </clipPath>
    <clipPath
       clipPathUnits="userSpaceOnUse"
       id="clipPath151">
      <path
         d="M 0,576 H 864 V 0 H 0 Z"
         transform="translate(-466.58401,-78.022502)"
         id="path151" />
    </clipPath>
    <clipPath
       clipPathUnits="userSpaceOnUse"
       id="clipPath153">
      <path
         d="M 0,576 H 864 V 0 H 0 Z"
         transform="translate(-474.21971,-74.871099)"
         id="path153" />
    </clipPath>
    <clipPath
       clipPathUnits="userSpaceOnUse"
       id="clipPath155">
      <path
         d="M 0,576 H 864 V 0 H 0 Z"
         id="path155" />
    </clipPath>
    <clipPath
       clipPathUnits="userSpaceOnUse"
       id="clipPath157">
      <path
         d="M 0,576 H 864 V 0 H 0 Z"
         transform="translate(-482.03611,-78.000002)"
         id="path157" />
    </clipPath>
    <clipPath
       clipPathUnits="userSpaceOnUse"
       id="clipPath159">
      <path
         d="M 0,576 H 864 V 0 H 0 Z"
         transform="translate(-488.48141,-74.824202)"
         id="path159" />
    </clipPath>
    <clipPath
       clipPathUnits="userSpaceOnUse"
       id="clipPath161">
      <path
         d="M 0,576 H 864 V 0 H 0 Z"
         transform="translate(-498.29591,-82.288105)"
         id="path161" />
    </clipPath>
    <clipPath
       clipPathUnits="userSpaceOnUse"
       id="clipPath163">
      <path
         d="M 0,576 H 864 V 0 H 0 Z"
         transform="translate(-653.21192,-77.103504)"
         id="path163" />
    </clipPath>
    <clipPath
       clipPathUnits="userSpaceOnUse"
       id="clipPath165">
      <path
         d="M 0,576 H 864 V 0 H 0 Z"
         transform="translate(-658.81451,-78.579099)"
         id="path165" />
    </clipPath>
    <clipPath
       clipPathUnits="userSpaceOnUse"
       id="clipPath167">
      <path
         d="M 0,576 H 864 V 0 H 0 Z"
         transform="translate(-662.04692,-78.022502)"
         id="path167" />
    </clipPath>
    <clipPath
       clipPathUnits="userSpaceOnUse"
       id="clipPath169">
      <path
         d="M 0,576 H 864 V 0 H 0 Z"
         transform="translate(-669.68261,-74.871099)"
         id="path169" />
    </clipPath>
    <clipPath
       clipPathUnits="userSpaceOnUse"
       id="clipPath171">
      <path
         d="M 0,576 H 864 V 0 H 0 Z"
         id="path171" />
    </clipPath>
    <clipPath
       clipPathUnits="userSpaceOnUse"
       id="clipPath173">
      <path
         d="M 0,576 H 864 V 0 H 0 Z"
         transform="translate(-677.49902,-78.000002)"
         id="path173" />
    </clipPath>
    <clipPath
       clipPathUnits="userSpaceOnUse"
       id="clipPath175">
      <path
         d="M 0,576 H 864 V 0 H 0 Z"
         transform="translate(-683.94431,-74.824202)"
         id="path175" />
    </clipPath>
    <clipPath
       clipPathUnits="userSpaceOnUse"
       id="clipPath177">
      <path
         d="M 0,576 H 864 V 0 H 0 Z"
         transform="translate(-696.08591,-79.037102)"
         id="path177" />
    </clipPath>
  </defs>
  <sodipodi:namedview
     id="namedview1"
     pagecolor="#ffffff"
     bordercolor="#000000"
     borderopacity="0.25"
     inkscape:showpageshadow="2"
     inkscape:pageopacity="0.0"
     inkscape:pagecheckerboard="0"
     inkscape:deskcolor="#d1d1d1">
    <inkscape:page
       x="0"
       y="0"
       inkscape:label="1"
       id="page1"
       width="1152"
       height="768"
       margin="0"
       bleed="0" />
  </sodipodi:namedview>
  <g
     id="layer-MC0"
     inkscape:groupmode="layer"
     inkscape:label="Layer 1">
    <path
       id="path1"
       d="M 0,0 H 864 V 576 H 0 Z"
       style="fill:#ffffff;fill-opacity:1;fill-rule:nonzero;stroke:none"
       transform="matrix(1.3333333,0,0,-1.3333333,0,768)" />
    <path
       id="path2"
       d="M 108,63.36 H 777.6 V 506.88 H 108 Z"
       style="fill:#ffffff;fill-opacity:1;fill-rule:nonzero;stroke:none"
       transform="matrix(1.3333333,0,0,-1.3333333,0,768)" />
    <path
       id="path3"
       d="M 0,0 V 0.724 H 1.778 V 9.216 L -0.28,7.881 v 0.897 l 2.489,1.613 H 3.152 V 0.724 H 4.93 V 0 Z"
       style="fill:#262626;fill-opacity:1;fill-rule:nonzero;stroke:none"
       transform="matrix(1.3333333,0,0,-1.3333333,257.26493,702.36973)" />
    <path
       id="path4"
       d="M 0,0 H -0.766 V 1.818 C -0.278,2.079 0.212,2.277 0.707,2.413 1.201,2.55 1.685,2.619 2.159,2.619 3.221,2.619 4.06,2.361 4.675,1.847 5.29,1.332 5.598,0.633 5.598,-0.251 5.598,-1.25 4.901,-2.444 3.507,-3.834 3.397,-3.939 3.315,-4.019 3.26,-4.073 L 0.683,-6.649 h 4.259 v 1.257 h 0.8 v -2.379 h -6.584 v 0.745 l 3.097,3.088 c 0.684,0.685 1.172,1.312 1.464,1.884 0.292,0.572 0.437,1.173 0.437,1.803 0,0.687 -0.179,1.224 -0.538,1.612 C 3.261,1.749 2.768,1.942 2.14,1.942 1.488,1.942 0.984,1.781 0.628,1.457 0.273,1.134 0.064,0.647 0,0"
       style="fill:#262626;fill-opacity:1;fill-rule:nonzero;stroke:none"
       transform="matrix(1.3333333,0,0,-1.3333333,268.87827,692.00787)"
       clip-path="url(#clipPath5)" />
    <path
       id="path6"
       d="m 0,0 h -4.648 v 0.724 h 1.64 v 2.004 h -4.456 v 0.746 l 4.471,6.917 h 1.352 V 3.458 h 1.95 v -0.73 h -1.95 V 0.724 l 1.641,0 z m -3.008,3.458 v 5.43 l -3.485,-5.43 z"
       style="fill:#262626;fill-opacity:1;fill-rule:nonzero;stroke:none"
       transform="matrix(1.3333333,0,0,-1.3333333,473.63347,702.36973)"
       clip-path="url(#clipPath7)" />
    <path
       id="path8"
       d="m 0,0 c -1.107,0 -1.972,0.464 -2.594,1.394 -0.622,0.929 -0.932,2.229 -0.932,3.897 0,1.673 0.31,2.974 0.932,3.902 0.622,0.931 1.487,1.397 2.594,1.397 1.113,0 1.979,-0.466 2.599,-1.397 C 3.218,8.265 3.528,6.964 3.528,5.291 3.528,3.623 3.218,2.323 2.599,1.394 1.979,0.464 1.113,0 0,0 m 0,0.678 c 0.698,0 1.221,0.383 1.566,1.148 0.347,0.766 0.521,1.921 0.521,3.465 0,1.551 -0.174,2.708 -0.521,3.474 C 1.221,9.53 0.698,9.913 0,9.913 -0.697,9.913 -1.219,9.53 -1.566,8.765 -1.912,7.999 -2.085,6.842 -2.085,5.291 -2.085,3.747 -1.912,2.592 -1.566,1.826 -1.219,1.061 -0.697,0.678 0,0.678"
       style="fill:#262626;fill-opacity:1;fill-rule:nonzero;stroke:none"
       transform="matrix(1.3333333,0,0,-1.3333333,480.916,702.63547)"
       clip-path="url(#clipPath9)" />
    <path
       id="path10"
       d="m 0,0 c 0.774,-0.104 1.378,-0.39 1.812,-0.857 0.432,-0.467 0.649,-1.063 0.649,-1.788 0,-0.957 -0.304,-1.694 -0.91,-2.211 -0.607,-0.518 -1.475,-0.777 -2.606,-0.777 -1.124,0 -1.991,0.259 -2.6,0.777 -0.609,0.517 -0.912,1.254 -0.912,2.211 0,0.725 0.216,1.321 0.649,1.788 0.434,0.467 1.039,0.753 1.818,0.857 -0.688,0.124 -1.216,0.385 -1.584,0.783 -0.366,0.4 -0.548,0.909 -0.548,1.529 0,0.82 0.281,1.464 0.845,1.936 0.567,0.473 1.344,0.709 2.332,0.709 0.991,0 1.768,-0.236 2.332,-0.709 C 1.843,3.776 2.126,3.132 2.126,2.312 2.126,1.692 1.942,1.183 1.575,0.783 1.207,0.385 0.683,0.124 0,0 m 0.737,2.312 c 0,0.62 -0.157,1.102 -0.472,1.448 -0.314,0.347 -0.753,0.52 -1.32,0.52 -0.559,0 -0.998,-0.173 -1.314,-0.52 -0.317,-0.346 -0.475,-0.828 -0.475,-1.448 0,-0.625 0.158,-1.11 0.475,-1.457 0.316,-0.345 0.755,-0.518 1.314,-0.518 0.567,0 1.006,0.173 1.32,0.518 0.315,0.347 0.472,0.832 0.472,1.457 m 0.281,-4.957 c 0,0.729 -0.182,1.295 -0.545,1.698 -0.363,0.403 -0.871,0.605 -1.528,0.605 -0.656,0 -1.165,-0.202 -1.526,-0.605 -0.362,-0.403 -0.543,-0.969 -0.543,-1.698 0,-0.734 0.181,-1.302 0.543,-1.707 0.361,-0.402 0.87,-0.603 1.526,-0.603 0.657,0 1.165,0.201 1.528,0.603 0.363,0.405 0.545,0.973 0.545,1.707"
       style="fill:#262626;fill-opacity:1;fill-rule:nonzero;stroke:none"
       transform="matrix(1.3333333,0,0,-1.3333333,783.18613,695.12493)"
       clip-path="url(#clipPath11)" />
    <path
       id="path12"
       d="M 0,0 H -0.766 V 1.818 C -0.279,2.079 0.212,2.277 0.706,2.413 1.2,2.55 1.685,2.619 2.159,2.619 3.221,2.619 4.059,2.361 4.675,1.847 5.29,1.332 5.598,0.633 5.598,-0.251 5.598,-1.25 4.9,-2.444 3.506,-3.834 3.396,-3.939 3.314,-4.019 3.259,-4.073 L 0.683,-6.649 h 4.258 v 1.257 h 0.801 v -2.379 h -6.585 v 0.745 l 3.098,3.088 c 0.683,0.685 1.172,1.312 1.464,1.884 0.291,0.572 0.437,1.173 0.437,1.803 0,0.687 -0.179,1.224 -0.538,1.612 C 3.261,1.749 2.768,1.942 2.139,1.942 1.487,1.942 0.983,1.781 0.628,1.457 0.273,1.134 0.063,0.647 0,0"
       style="fill:#262626;fill-opacity:1;fill-rule:nonzero;stroke:none"
       transform="matrix(1.3333333,0,0,-1.3333333,790.11333,692.00787)"
       clip-path="url(#clipPath13)" />
    <path
       id="path14"
       d="M 0,0 V 0.724 H 1.778 V 9.216 L -0.28,7.881 v 0.897 l 2.489,1.613 H 3.152 V 0.724 H 4.931 V 0 Z"
       style="fill:#262626;fill-opacity:1;fill-rule:nonzero;stroke:none"
       transform="matrix(1.3333333,0,0,-1.3333333,981.05467,702.36973)"
       clip-path="url(#clipPath15)" />
    <path
       id="path16"
       d="M 0,0 V 0.724 H 1.778 V 9.216 L -0.28,7.881 v 0.897 l 2.489,1.613 H 3.152 V 0.724 H 4.931 V 0 Z"
       style="fill:#262626;fill-opacity:1;fill-rule:nonzero;stroke:none"
       transform="matrix(1.3333333,0,0,-1.3333333,992.93093,702.36973)"
       clip-path="url(#clipPath17)" />
    <path
       id="path18"
       d="m 0,0 c -1.107,0 -1.972,0.464 -2.595,1.394 -0.621,0.929 -0.931,2.229 -0.931,3.897 0,1.673 0.31,2.974 0.931,3.902 0.623,0.931 1.488,1.397 2.595,1.397 1.112,0 1.979,-0.466 2.599,-1.397 C 3.219,8.265 3.528,6.964 3.528,5.291 3.528,3.623 3.219,2.323 2.599,1.394 1.979,0.464 1.112,0 0,0 m 0,0.678 c 0.698,0 1.221,0.383 1.566,1.148 0.347,0.766 0.521,1.921 0.521,3.465 0,1.551 -0.174,2.708 -0.521,3.474 C 1.221,9.53 0.698,9.913 0,9.913 -0.697,9.913 -1.22,9.53 -1.566,8.765 -1.912,7.999 -2.085,6.842 -2.085,5.291 -2.085,3.747 -1.912,2.592 -1.566,1.826 -1.22,1.061 -0.697,0.678 0,0.678"
       style="fill:#262626;fill-opacity:1;fill-rule:nonzero;stroke:none"
       transform="matrix(1.3333333,0,0,-1.3333333,1008.0885,702.63547)"
       clip-path="url(#clipPath19)" />
    <path
       id="path20"
       d="M 0,0 V 0.931 H 1.679 V 12.076 H -2.18 v -2.047 h -1.079 v 3.094 H 8.393 V 10.029 H 7.312 v 2.047 H 3.454 V 0.931 H 5.133 L 5.133,0 Z"
       style="fill:#262626;fill-opacity:1;fill-rule:nonzero;stroke:none"
       transform="matrix(1.3333333,0,0,-1.3333333,541.556,729.8216)"
       clip-path="url(#clipPath21)" />
    <path
       id="path22"
       d="m 0,0 v -2.337 h -0.931 c -0.028,0.463 -0.157,0.809 -0.385,1.038 -0.229,0.229 -0.564,0.343 -1.004,0.343 -0.797,0 -1.409,-0.275 -1.834,-0.827 -0.424,-0.551 -0.636,-1.342 -0.636,-2.373 v -4.273 h 1.873 v -0.93 h -4.947 v 0.93 h 1.457 v 7.49 h -1.547 v 0.922 h 3.164 v -1.662 c 0.317,0.651 0.724,1.133 1.221,1.446 0.499,0.315 1.106,0.472 1.822,0.472 0.263,0 0.539,-0.02 0.83,-0.061 C -0.626,0.136 -0.321,0.077 0,0"
       style="fill:#262626;fill-opacity:1;fill-rule:nonzero;stroke:none"
       transform="matrix(1.3333333,0,0,-1.3333333,564.45307,717.3424)"
       clip-path="url(#clipPath23)" />
    <path
       id="path24"
       d="m 0,0 v -4.905 h 1.44 v -0.931 h -3.057 v 1.01 c -0.358,-0.434 -0.772,-0.753 -1.24,-0.96 -0.469,-0.204 -1.017,-0.306 -1.643,-0.306 -1.037,0 -1.86,0.276 -2.469,0.826 -0.61,0.552 -0.914,1.296 -0.914,2.234 0,0.968 0.348,1.718 1.046,2.25 0.697,0.532 1.682,0.799 2.953,0.799 h 2.267 v 0.641 c 0,0.71 -0.216,1.26 -0.647,1.648 -0.429,0.39 -1.034,0.585 -1.814,0.585 -0.645,0 -1.158,-0.146 -1.538,-0.439 C -5.997,2.159 -6.234,1.726 -6.328,1.15 h -0.835 v 1.89 c 0.562,0.24 1.109,0.42 1.64,0.54 0.53,0.122 1.046,0.183 1.549,0.183 1.296,0 2.282,-0.322 2.959,-0.965 C -0.338,2.157 0,1.224 0,0 m -1.617,-2.9 v 1.977 h -2.084 c -0.802,0 -1.401,-0.174 -1.795,-0.52 -0.391,-0.345 -0.587,-0.874 -0.587,-1.589 0,-0.651 0.199,-1.166 0.596,-1.547 0.4,-0.381 0.939,-0.571 1.62,-0.571 0.673,0 1.216,0.208 1.628,0.625 0.415,0.416 0.622,0.958 0.622,1.625"
       style="fill:#262626;fill-opacity:1;fill-rule:nonzero;stroke:none"
       transform="matrix(1.3333333,0,0,-1.3333333,576.16147,722.0404)"
       clip-path="url(#clipPath25)" />
    <path
       id="path26"
       d="M 0,0 V 0.931 H 1.457 V 8.403 H -0.09 v 0.94 H 3.074 V 7.681 c 0.3,0.633 0.689,1.111 1.164,1.434 0.479,0.323 1.034,0.484 1.668,0.484 1.031,0 1.79,-0.296 2.276,-0.889 C 8.667,8.117 8.91,7.195 8.91,5.942 V 0.931 h 1.444 V 0 H 5.887 v 0.931 h 1.397 v 4.5 c 0,1.143 -0.14,1.927 -0.422,2.351 C 6.581,8.207 6.087,8.42 5.378,8.42 4.628,8.42 4.056,8.146 3.662,7.597 3.271,7.049 3.074,6.251 3.074,5.203 V 0.931 H 4.48 L 4.48,0 Z"
       style="fill:#262626;fill-opacity:1;fill-rule:nonzero;stroke:none"
       transform="matrix(1.3333333,0,0,-1.3333333,579.74867,729.8216)"
       clip-path="url(#clipPath27)" />
    <path
       id="path28"
       d="M 0,0 V 2.18 H 0.934 C 0.956,1.483 1.174,0.962 1.586,0.615 2,0.271 2.611,0.098 3.42,0.098 c 0.727,0 1.281,0.136 1.662,0.408 0.381,0.271 0.571,0.669 0.571,1.192 0,0.409 -0.139,0.74 -0.42,0.99 C 4.956,2.941 4.369,3.212 3.474,3.498 L 2.303,3.895 C 1.501,4.151 0.92,4.474 0.56,4.859 0.199,5.248 0.02,5.741 0.02,6.339 0.02,7.194 0.333,7.864 0.959,8.35 1.585,8.837 2.452,9.081 3.561,9.081 4.054,9.081 4.572,9.017 5.115,8.887 5.661,8.758 6.224,8.57 6.803,8.324 V 6.285 H 5.872 C 5.848,6.89 5.636,7.36 5.236,7.7 4.839,8.04 4.298,8.209 3.614,8.209 2.934,8.209 2.419,8.089 2.069,7.85 1.721,7.609 1.547,7.249 1.547,6.77 1.547,6.376 1.679,6.06 1.943,5.821 2.208,5.585 2.735,5.345 3.526,5.099 L 4.81,4.702 C 5.694,4.427 6.331,4.082 6.719,3.67 7.108,3.258 7.304,2.726 7.304,2.075 7.304,1.19 6.966,0.493 6.288,-0.015 5.611,-0.521 4.679,-0.773 3.49,-0.773 2.887,-0.773 2.298,-0.709 1.724,-0.58 1.15,-0.45 0.575,-0.257 0,0"
       style="fill:#262626;fill-opacity:1;fill-rule:nonzero;stroke:none"
       transform="matrix(1.3333333,0,0,-1.3333333,595.5664,729.13147)"
       clip-path="url(#clipPath29)" />
    <path
       id="path30"
       d="M 0,0 C -0.036,1.091 -0.267,1.913 -0.692,2.467 -1.115,3.02 -1.726,3.296 -2.522,3.296 -3.268,3.296 -3.854,3.018 -4.28,2.461 -4.708,1.904 -4.969,1.084 -5.062,0 Z m 1.907,-0.931 h -6.969 v -0.07 c 0,-1.261 0.237,-2.211 0.711,-2.853 0.474,-0.64 1.174,-0.961 2.101,-0.961 0.709,0 1.29,0.185 1.744,0.557 0.453,0.373 0.772,0.925 0.953,1.656 H 1.749 C 1.49,-3.627 1.014,-4.397 0.317,-4.913 c -0.693,-0.516 -1.605,-0.774 -2.736,-0.774 -1.365,0 -2.462,0.45 -3.29,1.35 -0.829,0.9 -1.243,2.095 -1.243,3.583 0,1.476 0.406,2.664 1.22,3.567 0.816,0.903 1.885,1.355 3.21,1.355 1.411,0 2.495,-0.436 3.251,-1.308 0.755,-0.87 1.148,-2.133 1.178,-3.791"
       style="fill:#262626;fill-opacity:1;fill-rule:nonzero;stroke:none"
       transform="matrix(1.3333333,0,0,-1.3333333,617.00267,722.58067)"
       clip-path="url(#clipPath31)" />
    <path
       id="path32"
       d="M 0,0 C -0.229,-0.996 -0.669,-1.755 -1.319,-2.278 -1.97,-2.8 -2.811,-3.06 -3.842,-3.06 c -1.359,0 -2.453,0.45 -3.279,1.35 -0.825,0.9 -1.237,2.095 -1.237,3.583 0,1.492 0.412,2.686 1.237,3.58 0.826,0.895 1.92,1.342 3.279,1.342 0.593,0 1.181,-0.069 1.766,-0.208 C -1.489,6.45 -0.9,6.241 -0.31,5.96 V 3.569 H -1.249 C -1.373,4.389 -1.641,4.985 -2.053,5.36 -2.466,5.735 -3.057,5.923 -3.825,5.923 -4.697,5.923 -5.356,5.585 -5.803,4.908 -6.247,4.23 -6.469,3.22 -6.469,1.873 c 0,-1.348 0.221,-2.362 0.664,-3.043 0.443,-0.679 1.103,-1.018 1.98,-1.018 0.697,0 1.255,0.181 1.671,0.542 0.416,0.365 0.7,0.913 0.851,1.646 z"
       style="fill:#262626;fill-opacity:1;fill-rule:nonzero;stroke:none"
       transform="matrix(1.3333333,0,0,-1.3333333,633.08067,726.08333)"
       clip-path="url(#clipPath33)" />
    <path
       id="path34"
       d="M 0,0 H -1.426 V 0.939 H 0 v 2.9 h 1.626 v -2.9 h 3.04 V 0 h -3.04 v -5.935 c 0,-0.791 0.075,-1.297 0.228,-1.521 0.151,-0.221 0.432,-0.332 0.843,-0.332 0.422,0 0.73,0.124 0.922,0.372 0.194,0.249 0.297,0.652 0.31,1.209 h 1.22 C 5.103,-7.057 4.871,-7.678 4.455,-8.072 4.039,-8.464 3.406,-8.659 2.557,-8.659 1.625,-8.659 0.966,-8.453 0.579,-8.041 0.193,-7.627 0,-6.924 0,-5.935 Z"
       style="fill:#262626;fill-opacity:1;fill-rule:nonzero;stroke:none"
       transform="matrix(1.3333333,0,0,-1.3333333,636.77213,718.6172)"
       clip-path="url(#clipPath35)" />
    <path
       id="path36"
       d="m 0,0 c -1.107,0 -1.972,0.464 -2.595,1.394 -0.621,0.929 -0.931,2.229 -0.931,3.897 0,1.673 0.31,2.974 0.931,3.902 0.623,0.931 1.488,1.397 2.595,1.397 1.113,0 1.979,-0.466 2.599,-1.397 C 3.218,8.265 3.528,6.964 3.528,5.291 3.528,3.623 3.218,2.323 2.599,1.394 1.979,0.464 1.113,0 0,0 m 0,0.678 c 0.698,0 1.221,0.383 1.566,1.148 0.347,0.766 0.521,1.921 0.521,3.465 0,1.551 -0.174,2.708 -0.521,3.474 C 1.221,9.53 0.698,9.913 0,9.913 -0.697,9.913 -1.219,9.53 -1.566,8.765 -1.912,7.999 -2.085,6.842 -2.085,5.291 -2.085,3.747 -1.912,2.592 -1.566,1.826 -1.219,1.061 -0.697,0.678 0,0.678"
       style="fill:#262626;fill-opacity:1;fill-rule:nonzero;stroke:none"
       transform="matrix(1.3333333,0,0,-1.3333333,133.38933,623.03387)"
       clip-path="url(#clipPath37)" />
    <path
       id="path38"
       d="M 0,0 V 0.724 H 1.778 V 9.216 L -0.28,7.882 v 0.896 l 2.489,1.613 H 3.152 V 0.724 H 4.931 V 0 Z"
       style="fill:#262626;fill-opacity:1;fill-rule:nonzero;stroke:none"
       transform="matrix(1.3333333,0,0,-1.3333333,94.477867,540.7656)"
       clip-path="url(#clipPath39)" />
    <path
       id="path40"
       d="m 0,0 c -1.107,0 -1.972,0.465 -2.594,1.394 -0.622,0.93 -0.932,2.229 -0.932,3.898 0,1.673 0.31,2.974 0.932,3.902 0.622,0.931 1.487,1.396 2.594,1.396 1.113,0 1.979,-0.465 2.599,-1.396 C 3.219,8.266 3.528,6.965 3.528,5.292 3.528,3.623 3.219,2.324 2.599,1.394 1.979,0.465 1.113,0 0,0 m 0,0.679 c 0.699,0 1.221,0.383 1.566,1.148 0.348,0.766 0.521,1.92 0.521,3.465 C 2.087,6.842 1.914,8 1.566,8.766 1.221,9.531 0.699,9.914 0,9.914 -0.697,9.914 -1.219,9.531 -1.566,8.766 -1.912,8 -2.084,6.842 -2.084,5.292 -2.084,3.747 -1.912,2.593 -1.566,1.827 -1.219,1.062 -0.697,0.679 0,0.679"
       style="fill:#262626;fill-opacity:1;fill-rule:nonzero;stroke:none"
       transform="matrix(1.3333333,0,0,-1.3333333,109.63547,541.0312)"
       clip-path="url(#clipPath41)" />
    <path
       id="path42"
       d="m 0,0 c -1.107,0 -1.972,0.465 -2.594,1.394 -0.622,0.93 -0.932,2.229 -0.932,3.898 0,1.673 0.31,2.974 0.932,3.902 0.622,0.931 1.487,1.396 2.594,1.396 1.113,0 1.979,-0.465 2.599,-1.396 C 3.219,8.266 3.528,6.965 3.528,5.292 3.528,3.623 3.219,2.324 2.599,1.394 1.979,0.465 1.113,0 0,0 m 0,0.679 c 0.699,0 1.221,0.383 1.566,1.148 0.348,0.766 0.521,1.92 0.521,3.465 C 2.087,6.842 1.914,8 1.566,8.766 1.221,9.531 0.699,9.914 0,9.914 -0.697,9.914 -1.219,9.531 -1.566,8.766 -1.912,8 -2.084,6.842 -2.084,5.292 -2.084,3.747 -1.912,2.593 -1.566,1.827 -1.219,1.062 -0.697,0.679 0,0.679"
       style="fill:#262626;fill-opacity:1;fill-rule:nonzero;stroke:none"
       transform="matrix(1.3333333,0,0,-1.3333333,121.51173,541.0312)"
       clip-path="url(#clipPath43)" />
    <path
       id="path44"
       d="m 0,0 c -1.107,0 -1.972,0.465 -2.594,1.394 -0.622,0.93 -0.932,2.229 -0.932,3.898 0,1.673 0.31,2.974 0.932,3.902 0.622,0.931 1.487,1.396 2.594,1.396 1.113,0 1.979,-0.465 2.599,-1.396 C 3.219,8.266 3.528,6.965 3.528,5.292 3.528,3.623 3.219,2.324 2.599,1.394 1.979,0.465 1.113,0 0,0 m 0,0.679 c 0.699,0 1.221,0.383 1.566,1.148 0.348,0.766 0.521,1.92 0.521,3.465 C 2.087,6.842 1.914,8 1.566,8.766 1.221,9.531 0.699,9.914 0,9.914 -0.697,9.914 -1.219,9.531 -1.566,8.766 -1.912,8 -2.084,6.842 -2.084,5.292 -2.084,3.747 -1.912,2.593 -1.566,1.827 -1.219,1.062 -0.697,0.679 0,0.679"
       style="fill:#262626;fill-opacity:1;fill-rule:nonzero;stroke:none"
       transform="matrix(1.3333333,0,0,-1.3333333,133.388,541.0312)"
       clip-path="url(#clipPath45)" />
    <path
       id="path46"
       d="m 0,0 h -0.766 v 1.818 c 0.487,0.261 0.978,0.459 1.473,0.595 0.494,0.137 0.978,0.206 1.452,0.206 1.062,0 1.9,-0.258 2.516,-0.772 C 5.29,1.332 5.598,0.633 5.598,-0.251 5.598,-1.25 4.901,-2.444 3.506,-3.834 3.397,-3.939 3.315,-4.019 3.259,-4.073 L 0.683,-6.649 h 4.258 v 1.257 h 0.801 v -2.38 h -6.584 v 0.746 l 3.097,3.088 c 0.684,0.685 1.172,1.312 1.464,1.884 0.291,0.572 0.437,1.173 0.437,1.803 0,0.687 -0.179,1.224 -0.538,1.612 C 3.261,1.749 2.768,1.942 2.139,1.942 1.487,1.942 0.983,1.781 0.628,1.457 0.273,1.134 0.064,0.647 0,0"
       style="fill:#262626;fill-opacity:1;fill-rule:nonzero;stroke:none"
       transform="matrix(1.3333333,0,0,-1.3333333,94.215467,448.39973)"
       clip-path="url(#clipPath47)" />
    <path
       id="path48"
       d="m 0,0 c -1.107,0 -1.972,0.464 -2.594,1.394 -0.622,0.929 -0.932,2.229 -0.932,3.897 0,1.673 0.31,2.974 0.932,3.902 0.622,0.931 1.487,1.397 2.594,1.397 1.113,0 1.979,-0.466 2.599,-1.397 C 3.219,8.265 3.528,6.964 3.528,5.291 3.528,3.623 3.219,2.323 2.599,1.394 1.979,0.464 1.113,0 0,0 m 0,0.678 c 0.699,0 1.221,0.383 1.566,1.148 0.348,0.766 0.521,1.921 0.521,3.465 0,1.551 -0.173,2.708 -0.521,3.474 C 1.221,9.53 0.699,9.913 0,9.913 -0.697,9.913 -1.219,9.53 -1.566,8.765 -1.912,7.999 -2.084,6.842 -2.084,5.291 -2.084,3.747 -1.912,2.592 -1.566,1.826 -1.219,1.061 -0.697,0.678 0,0.678"
       style="fill:#262626;fill-opacity:1;fill-rule:nonzero;stroke:none"
       transform="matrix(1.3333333,0,0,-1.3333333,109.63547,459.02733)"
       clip-path="url(#clipPath49)" />
    <path
       id="path50"
       d="m 0,0 c -1.107,0 -1.972,0.464 -2.594,1.394 -0.622,0.929 -0.932,2.229 -0.932,3.897 0,1.673 0.31,2.974 0.932,3.902 0.622,0.931 1.487,1.397 2.594,1.397 1.113,0 1.979,-0.466 2.599,-1.397 C 3.219,8.265 3.528,6.964 3.528,5.291 3.528,3.623 3.219,2.323 2.599,1.394 1.979,0.464 1.113,0 0,0 m 0,0.678 c 0.699,0 1.221,0.383 1.566,1.148 0.348,0.766 0.521,1.921 0.521,3.465 0,1.551 -0.173,2.708 -0.521,3.474 C 1.221,9.53 0.699,9.913 0,9.913 -0.697,9.913 -1.219,9.53 -1.566,8.765 -1.912,7.999 -2.084,6.842 -2.084,5.291 -2.084,3.747 -1.912,2.592 -1.566,1.826 -1.219,1.061 -0.697,0.678 0,0.678"
       style="fill:#262626;fill-opacity:1;fill-rule:nonzero;stroke:none"
       transform="matrix(1.3333333,0,0,-1.3333333,121.51173,459.02733)"
       clip-path="url(#clipPath51)" />
    <path
       id="path52"
       d="m 0,0 c -1.107,0 -1.972,0.464 -2.594,1.394 -0.622,0.929 -0.932,2.229 -0.932,3.897 0,1.673 0.31,2.974 0.932,3.902 0.622,0.931 1.487,1.397 2.594,1.397 1.113,0 1.979,-0.466 2.599,-1.397 C 3.219,8.265 3.528,6.964 3.528,5.291 3.528,3.623 3.219,2.323 2.599,1.394 1.979,0.464 1.113,0 0,0 m 0,0.678 c 0.699,0 1.221,0.383 1.566,1.148 0.348,0.766 0.521,1.921 0.521,3.465 0,1.551 -0.173,2.708 -0.521,3.474 C 1.221,9.53 0.699,9.913 0,9.913 -0.697,9.913 -1.219,9.53 -1.566,8.765 -1.912,7.999 -2.084,6.842 -2.084,5.291 -2.084,3.747 -1.912,2.592 -1.566,1.826 -1.219,1.061 -0.697,0.678 0,0.678"
       style="fill:#262626;fill-opacity:1;fill-rule:nonzero;stroke:none"
       transform="matrix(1.3333333,0,0,-1.3333333,133.388,459.02733)"
       clip-path="url(#clipPath53)" />
    <path
       id="path54"
       d="m 0,0 c 0.534,0.2 1.045,0.352 1.534,0.457 0.489,0.105 0.949,0.158 1.378,0.158 0.999,0 1.778,-0.216 2.338,-0.648 0.56,-0.43 0.84,-1.028 0.84,-1.794 0,-0.613 -0.194,-1.127 -0.582,-1.54 -0.386,-0.412 -0.934,-0.692 -1.645,-0.838 0.839,-0.117 1.489,-0.421 1.951,-0.912 0.463,-0.489 0.694,-1.125 0.694,-1.905 0,-0.952 -0.32,-1.683 -0.96,-2.192 -0.641,-0.507 -1.562,-0.761 -2.765,-0.761 -0.534,0 -1.055,0.058 -1.564,0.173 -0.508,0.114 -1.012,0.286 -1.512,0.518 v 1.982 h 0.766 c 0.045,-0.656 0.266,-1.153 0.662,-1.49 0.397,-0.336 0.955,-0.505 1.674,-0.505 0.697,0 1.248,0.201 1.651,0.604 0.404,0.404 0.606,0.957 0.606,1.658 0,0.802 -0.208,1.41 -0.623,1.822 -0.414,0.413 -1.022,0.619 -1.824,0.619 h -0.65 v 0.698 H 2.31 c 0.798,0 1.396,0.165 1.794,0.495 0.399,0.331 0.599,0.829 0.599,1.493 0,0.597 -0.164,1.054 -0.492,1.37 -0.328,0.318 -0.8,0.477 -1.415,0.477 -0.616,0 -1.093,-0.146 -1.433,-0.438 C 1.024,-0.791 0.826,-1.224 0.766,-1.798 H 0 Z"
       style="fill:#262626;fill-opacity:1;fill-rule:nonzero;stroke:none"
       transform="matrix(1.3333333,0,0,-1.3333333,93.640667,363.72467)"
       clip-path="url(#clipPath55)" />
    <path
       id="path56"
       d="m 0,0 c -1.107,0 -1.972,0.464 -2.594,1.394 -0.622,0.93 -0.932,2.23 -0.932,3.898 0,1.672 0.31,2.973 0.932,3.902 0.622,0.931 1.487,1.396 2.594,1.396 1.113,0 1.979,-0.465 2.599,-1.396 C 3.219,8.265 3.528,6.964 3.528,5.292 3.528,3.624 3.219,2.324 2.599,1.394 1.979,0.464 1.113,0 0,0 m 0,0.678 c 0.699,0 1.221,0.383 1.566,1.149 0.348,0.765 0.521,1.92 0.521,3.465 C 2.087,6.842 1.914,8 1.566,8.766 1.221,9.531 0.699,9.914 0,9.914 -0.697,9.914 -1.219,9.531 -1.566,8.766 -1.912,8 -2.084,6.842 -2.084,5.292 c 0,-1.545 0.172,-2.7 0.518,-3.465 C -1.219,1.061 -0.697,0.678 0,0.678"
       style="fill:#262626;fill-opacity:1;fill-rule:nonzero;stroke:none"
       transform="matrix(1.3333333,0,0,-1.3333333,109.63547,377.0248)"
       clip-path="url(#clipPath57)" />
    <path
       id="path58"
       d="m 0,0 c -1.107,0 -1.972,0.464 -2.594,1.394 -0.622,0.93 -0.932,2.23 -0.932,3.898 0,1.672 0.31,2.973 0.932,3.902 0.622,0.931 1.487,1.396 2.594,1.396 1.113,0 1.979,-0.465 2.599,-1.396 C 3.219,8.265 3.528,6.964 3.528,5.292 3.528,3.624 3.219,2.324 2.599,1.394 1.979,0.464 1.113,0 0,0 m 0,0.678 c 0.699,0 1.221,0.383 1.566,1.149 0.348,0.765 0.521,1.92 0.521,3.465 C 2.087,6.842 1.914,8 1.566,8.766 1.221,9.531 0.699,9.914 0,9.914 -0.697,9.914 -1.219,9.531 -1.566,8.766 -1.912,8 -2.084,6.842 -2.084,5.292 c 0,-1.545 0.172,-2.7 0.518,-3.465 C -1.219,1.061 -0.697,0.678 0,0.678"
       style="fill:#262626;fill-opacity:1;fill-rule:nonzero;stroke:none"
       transform="matrix(1.3333333,0,0,-1.3333333,121.51173,377.0248)"
       clip-path="url(#clipPath59)" />
    <path
       id="path60"
       d="m 0,0 c -1.107,0 -1.972,0.464 -2.594,1.394 -0.622,0.93 -0.932,2.23 -0.932,3.898 0,1.672 0.31,2.973 0.932,3.902 0.622,0.931 1.487,1.396 2.594,1.396 1.113,0 1.979,-0.465 2.599,-1.396 C 3.219,8.265 3.528,6.964 3.528,5.292 3.528,3.624 3.219,2.324 2.599,1.394 1.979,0.464 1.113,0 0,0 m 0,0.678 c 0.699,0 1.221,0.383 1.566,1.149 0.348,0.765 0.521,1.92 0.521,3.465 C 2.087,6.842 1.914,8 1.566,8.766 1.221,9.531 0.699,9.914 0,9.914 -0.697,9.914 -1.219,9.531 -1.566,8.766 -1.912,8 -2.084,6.842 -2.084,5.292 c 0,-1.545 0.172,-2.7 0.518,-3.465 C -1.219,1.061 -0.697,0.678 0,0.678"
       style="fill:#262626;fill-opacity:1;fill-rule:nonzero;stroke:none"
       transform="matrix(1.3333333,0,0,-1.3333333,133.388,377.0248)"
       clip-path="url(#clipPath61)" />
    <path
       id="path62"
       d="m 0,0 h -4.648 v 0.724 h 1.64 v 2.004 h -4.456 v 0.746 l 4.471,6.917 h 1.352 V 3.458 h 1.95 v -0.73 h -1.95 V 0.724 l 1.641,0 z m -3.008,3.458 v 5.43 l -3.485,-5.43 z"
       style="fill:#262626;fill-opacity:1;fill-rule:nonzero;stroke:none"
       transform="matrix(1.3333333,0,0,-1.3333333,102.3528,294.75587)"
       clip-path="url(#clipPath63)" />
    <path
       id="path64"
       d="m 0,0 c -1.107,0 -1.972,0.464 -2.594,1.394 -0.622,0.93 -0.932,2.229 -0.932,3.898 0,1.672 0.31,2.973 0.932,3.902 0.622,0.931 1.487,1.396 2.594,1.396 1.113,0 1.979,-0.465 2.599,-1.396 C 3.219,8.265 3.528,6.964 3.528,5.292 3.528,3.623 3.219,2.324 2.599,1.394 1.979,0.464 1.113,0 0,0 m 0,0.678 c 0.699,0 1.221,0.383 1.566,1.149 0.348,0.765 0.521,1.92 0.521,3.465 C 2.087,6.842 1.914,8 1.566,8.765 1.221,9.531 0.699,9.914 0,9.914 -0.697,9.914 -1.219,9.531 -1.566,8.765 -1.912,8 -2.084,6.842 -2.084,5.292 c 0,-1.545 0.172,-2.7 0.518,-3.465 C -1.219,1.061 -0.697,0.678 0,0.678"
       style="fill:#262626;fill-opacity:1;fill-rule:nonzero;stroke:none"
       transform="matrix(1.3333333,0,0,-1.3333333,109.63547,295.02147)"
       clip-path="url(#clipPath65)" />
    <path
       id="path66"
       d="m 0,0 c -1.107,0 -1.972,0.464 -2.594,1.394 -0.622,0.93 -0.932,2.229 -0.932,3.898 0,1.672 0.31,2.973 0.932,3.902 0.622,0.931 1.487,1.396 2.594,1.396 1.113,0 1.979,-0.465 2.599,-1.396 C 3.219,8.265 3.528,6.964 3.528,5.292 3.528,3.623 3.219,2.324 2.599,1.394 1.979,0.464 1.113,0 0,0 m 0,0.678 c 0.699,0 1.221,0.383 1.566,1.149 0.348,0.765 0.521,1.92 0.521,3.465 C 2.087,6.842 1.914,8 1.566,8.765 1.221,9.531 0.699,9.914 0,9.914 -0.697,9.914 -1.219,9.531 -1.566,8.765 -1.912,8 -2.084,6.842 -2.084,5.292 c 0,-1.545 0.172,-2.7 0.518,-3.465 C -1.219,1.061 -0.697,0.678 0,0.678"
       style="fill:#262626;fill-opacity:1;fill-rule:nonzero;stroke:none"
       transform="matrix(1.3333333,0,0,-1.3333333,121.51173,295.02147)"
       clip-path="url(#clipPath67)" />
    <path
       id="path68"
       d="m 0,0 c -1.107,0 -1.972,0.464 -2.594,1.394 -0.622,0.93 -0.932,2.229 -0.932,3.898 0,1.672 0.31,2.973 0.932,3.902 0.622,0.931 1.487,1.396 2.594,1.396 1.113,0 1.979,-0.465 2.599,-1.396 C 3.219,8.265 3.528,6.964 3.528,5.292 3.528,3.623 3.219,2.324 2.599,1.394 1.979,0.464 1.113,0 0,0 m 0,0.678 c 0.699,0 1.221,0.383 1.566,1.149 0.348,0.765 0.521,1.92 0.521,3.465 C 2.087,6.842 1.914,8 1.566,8.765 1.221,9.531 0.699,9.914 0,9.914 -0.697,9.914 -1.219,9.531 -1.566,8.765 -1.912,8 -2.084,6.842 -2.084,5.292 c 0,-1.545 0.172,-2.7 0.518,-3.465 C -1.219,1.061 -0.697,0.678 0,0.678"
       style="fill:#262626;fill-opacity:1;fill-rule:nonzero;stroke:none"
       transform="matrix(1.3333333,0,0,-1.3333333,133.388,295.02147)"
       clip-path="url(#clipPath69)" />
    <path
       id="path70"
       d="m 0,0 v -1.122 h -4.677 v -2.925 c 0.238,0.164 0.515,0.286 0.831,0.368 0.317,0.083 0.671,0.124 1.063,0.124 1.103,0 1.973,-0.305 2.61,-0.916 0.639,-0.611 0.958,-1.446 0.958,-2.503 0,-1.079 -0.322,-1.921 -0.967,-2.526 -0.644,-0.604 -1.55,-0.906 -2.716,-0.906 -0.47,0 -0.951,0.058 -1.444,0.173 -0.491,0.114 -0.995,0.287 -1.51,0.519 v 1.982 h 0.772 c 0.041,-0.647 0.247,-1.141 0.618,-1.484 0.371,-0.341 0.893,-0.512 1.564,-0.512 0.72,0 1.273,0.237 1.66,0.711 0.388,0.474 0.582,1.155 0.582,2.043 0,0.884 -0.193,1.561 -0.578,2.033 -0.385,0.472 -0.94,0.709 -1.664,0.709 -0.41,0 -0.772,-0.074 -1.085,-0.219 -0.312,-0.146 -0.589,-0.372 -0.829,-0.676 H -5.401 V 0 Z"
       style="fill:#262626;fill-opacity:1;fill-rule:nonzero;stroke:none"
       transform="matrix(1.3333333,0,0,-1.3333333,101.21547,199.14387)"
       clip-path="url(#clipPath71)" />
    <path
       id="path72"
       d="m 0,0 c -1.107,0 -1.972,0.464 -2.594,1.394 -0.622,0.93 -0.932,2.229 -0.932,3.898 0,1.672 0.31,2.973 0.932,3.902 0.622,0.931 1.487,1.396 2.594,1.396 1.113,0 1.979,-0.465 2.599,-1.396 C 3.219,8.265 3.528,6.964 3.528,5.292 3.528,3.623 3.219,2.324 2.599,1.394 1.979,0.464 1.113,0 0,0 m 0,0.678 c 0.699,0 1.221,0.383 1.566,1.149 0.348,0.765 0.521,1.92 0.521,3.465 C 2.087,6.842 1.914,8 1.566,8.765 1.221,9.531 0.699,9.914 0,9.914 -0.697,9.914 -1.219,9.531 -1.566,8.765 -1.912,8 -2.084,6.842 -2.084,5.292 c 0,-1.545 0.172,-2.7 0.518,-3.465 C -1.219,1.061 -0.697,0.678 0,0.678"
       style="fill:#262626;fill-opacity:1;fill-rule:nonzero;stroke:none"
       transform="matrix(1.3333333,0,0,-1.3333333,109.63547,213.01827)"
       clip-path="url(#clipPath73)" />
    <path
       id="path74"
       d="m 0,0 c -1.107,0 -1.972,0.464 -2.594,1.394 -0.622,0.93 -0.932,2.229 -0.932,3.898 0,1.672 0.31,2.973 0.932,3.902 0.622,0.931 1.487,1.396 2.594,1.396 1.113,0 1.979,-0.465 2.599,-1.396 C 3.219,8.265 3.528,6.964 3.528,5.292 3.528,3.623 3.219,2.324 2.599,1.394 1.979,0.464 1.113,0 0,0 m 0,0.678 c 0.699,0 1.221,0.383 1.566,1.149 0.348,0.765 0.521,1.92 0.521,3.465 C 2.087,6.842 1.914,8 1.566,8.765 1.221,9.531 0.699,9.914 0,9.914 -0.697,9.914 -1.219,9.531 -1.566,8.765 -1.912,8 -2.084,6.842 -2.084,5.292 c 0,-1.545 0.172,-2.7 0.518,-3.465 C -1.219,1.061 -0.697,0.678 0,0.678"
       style="fill:#262626;fill-opacity:1;fill-rule:nonzero;stroke:none"
       transform="matrix(1.3333333,0,0,-1.3333333,121.51173,213.01827)"
       clip-path="url(#clipPath75)" />
    <path
       id="path76"
       d="m 0,0 c -1.107,0 -1.972,0.464 -2.594,1.394 -0.622,0.93 -0.932,2.229 -0.932,3.898 0,1.672 0.31,2.973 0.932,3.902 0.622,0.931 1.487,1.396 2.594,1.396 1.113,0 1.979,-0.465 2.599,-1.396 C 3.219,8.265 3.528,6.964 3.528,5.292 3.528,3.623 3.219,2.324 2.599,1.394 1.979,0.464 1.113,0 0,0 m 0,0.678 c 0.699,0 1.221,0.383 1.566,1.149 0.348,0.765 0.521,1.92 0.521,3.465 C 2.087,6.842 1.914,8 1.566,8.765 1.221,9.531 0.699,9.914 0,9.914 -0.697,9.914 -1.219,9.531 -1.566,8.765 -1.912,8 -2.084,6.842 -2.084,5.292 c 0,-1.545 0.172,-2.7 0.518,-3.465 C -1.219,1.061 -0.697,0.678 0,0.678"
       style="fill:#262626;fill-opacity:1;fill-rule:nonzero;stroke:none"
       transform="matrix(1.3333333,0,0,-1.3333333,133.388,213.01827)"
       clip-path="url(#clipPath77)" />
    <path
       id="path78"
       d="m 0,0 c 0.311,0.341 0.661,0.596 1.052,0.763 0.392,0.17 0.835,0.254 1.328,0.254 1.015,0 1.818,-0.306 2.408,-0.916 0.591,-0.61 0.886,-1.444 0.886,-2.501 0,-1.034 -0.318,-1.862 -0.953,-2.485 -0.637,-0.623 -1.485,-0.934 -2.547,-0.934 -1.153,0 -2.04,0.429 -2.66,1.289 -0.619,0.86 -0.93,2.087 -0.93,3.681 0,1.786 0.367,3.17 1.101,4.15 0.733,0.98 1.768,1.47 3.104,1.47 0.36,0 0.739,-0.035 1.135,-0.103 C 4.321,4.6 4.727,4.498 5.141,4.362 V 2.68 H 4.368 C 4.313,3.139 4.137,3.49 3.841,3.732 3.545,3.974 3.146,4.095 2.645,4.095 1.761,4.095 1.103,3.759 0.669,3.088 0.236,2.419 0.013,1.39 0,0 m 2.229,-5.141 c 0.642,0 1.135,0.236 1.481,0.707 0.347,0.472 0.52,1.15 0.52,2.034 0,0.884 -0.173,1.561 -0.52,2.032 C 3.364,0.105 2.871,0.341 2.229,0.341 1.577,0.341 1.08,0.113 0.737,-0.344 0.396,-0.799 0.225,-1.457 0.225,-2.319 c 0,-0.906 0.173,-1.603 0.519,-2.091 0.347,-0.487 0.842,-0.731 1.485,-0.731"
       style="fill:#262626;fill-opacity:1;fill-rule:nonzero;stroke:none"
       transform="matrix(1.3333333,0,0,-1.3333333,94.962267,123.25653)"
       clip-path="url(#clipPath79)" />
    <path
       id="path80"
       d="m 0,0 c -1.107,0 -1.972,0.464 -2.594,1.394 -0.622,0.93 -0.932,2.229 -0.932,3.898 0,1.672 0.31,2.973 0.932,3.902 0.622,0.931 1.487,1.396 2.594,1.396 1.113,0 1.979,-0.465 2.599,-1.396 C 3.219,8.265 3.528,6.964 3.528,5.292 3.528,3.623 3.219,2.324 2.599,1.394 1.979,0.464 1.113,0 0,0 m 0,0.678 c 0.699,0 1.221,0.383 1.566,1.149 0.348,0.765 0.521,1.92 0.521,3.465 C 2.087,6.842 1.914,8 1.566,8.765 1.221,9.531 0.699,9.914 0,9.914 -0.697,9.914 -1.219,9.531 -1.566,8.765 -1.912,8 -2.084,6.842 -2.084,5.292 c 0,-1.545 0.172,-2.7 0.518,-3.465 C -1.219,1.061 -0.697,0.678 0,0.678"
       style="fill:#262626;fill-opacity:1;fill-rule:nonzero;stroke:none"
       transform="matrix(1.3333333,0,0,-1.3333333,109.63547,131.01493)"
       clip-path="url(#clipPath81)" />
    <path
       id="path82"
       d="m 0,0 c -1.107,0 -1.972,0.464 -2.594,1.394 -0.622,0.93 -0.932,2.229 -0.932,3.898 0,1.672 0.31,2.973 0.932,3.902 0.622,0.931 1.487,1.396 2.594,1.396 1.113,0 1.979,-0.465 2.599,-1.396 C 3.219,8.265 3.528,6.964 3.528,5.292 3.528,3.623 3.219,2.324 2.599,1.394 1.979,0.464 1.113,0 0,0 m 0,0.678 c 0.699,0 1.221,0.383 1.566,1.149 0.348,0.765 0.521,1.92 0.521,3.465 C 2.087,6.842 1.914,8 1.566,8.765 1.221,9.531 0.699,9.914 0,9.914 -0.697,9.914 -1.219,9.531 -1.566,8.765 -1.912,8 -2.084,6.842 -2.084,5.292 c 0,-1.545 0.172,-2.7 0.518,-3.465 C -1.219,1.061 -0.697,0.678 0,0.678"
       style="fill:#262626;fill-opacity:1;fill-rule:nonzero;stroke:none"
       transform="matrix(1.3333333,0,0,-1.3333333,121.51173,131.01493)"
       clip-path="url(#clipPath83)" />
    <path
       id="path84"
       d="m 0,0 c -1.107,0 -1.972,0.464 -2.594,1.394 -0.622,0.93 -0.932,2.229 -0.932,3.898 0,1.672 0.31,2.973 0.932,3.902 0.622,0.931 1.487,1.396 2.594,1.396 1.113,0 1.979,-0.465 2.599,-1.396 C 3.219,8.265 3.528,6.964 3.528,5.292 3.528,3.623 3.219,2.324 2.599,1.394 1.979,0.464 1.113,0 0,0 m 0,0.678 c 0.699,0 1.221,0.383 1.566,1.149 0.348,0.765 0.521,1.92 0.521,3.465 C 2.087,6.842 1.914,8 1.566,8.765 1.221,9.531 0.699,9.914 0,9.914 -0.697,9.914 -1.219,9.531 -1.566,8.765 -1.912,8 -2.084,6.842 -2.084,5.292 c 0,-1.545 0.172,-2.7 0.518,-3.465 C -1.219,1.061 -0.697,0.678 0,0.678"
       style="fill:#262626;fill-opacity:1;fill-rule:nonzero;stroke:none"
       transform="matrix(1.3333333,0,0,-1.3333333,133.388,131.01493)"
       clip-path="url(#clipPath85)" />
    <path
       id="path86"
       d="m 0,0 h -2.99 l 0.011,1.01 c 0.996,0.03 1.733,0.319 2.211,0.866 0.476,0.548 0.715,1.381 0.715,2.501 0,1.042 -0.207,1.837 -0.619,2.385 -0.412,0.549 -1.015,0.824 -1.806,0.824 -0.633,0 -1.12,-0.166 -1.46,-0.498 C -4.277,6.758 -4.608,6.06 -4.93,4.992 L -5.451,3.26 C -5.831,2.006 -6.306,1.122 -6.874,0.61 -7.442,0.099 -8.221,-0.157 -9.211,-0.157 c -1.114,0 -1.978,0.394 -2.593,1.183 -0.615,0.792 -0.923,1.903 -0.923,3.333 0,0.61 0.067,1.278 0.2,2.003 0.131,0.728 0.323,1.501 0.574,2.321 h 2.796 V 7.689 c -0.926,-0.099 -1.596,-0.408 -2.009,-0.927 -0.414,-0.518 -0.621,-1.307 -0.621,-2.368 0,-0.925 0.189,-1.629 0.568,-2.113 0.377,-0.483 0.927,-0.725 1.648,-0.725 0.626,0 1.118,0.18 1.477,0.543 0.356,0.363 0.71,1.134 1.063,2.314 l 0.484,1.626 c 0.356,1.189 0.812,2.036 1.366,2.542 0.554,0.508 1.296,0.763 2.228,0.763 1.271,0 2.229,-0.408 2.874,-1.224 C 0.566,7.307 0.889,6.094 0.889,4.483 0.889,3.762 0.815,3.026 0.667,2.278 0.521,1.532 0.298,0.772 0,0"
       style="fill:#262626;fill-opacity:1;fill-rule:nonzero;stroke:none"
       transform="matrix(1.3333333,0,0,-1.3333333,80.658267,411.7748)"
       clip-path="url(#clipPath87)" />
    <path
       id="path88"
       d="m 0,0 c 1.225,-0.388 2.152,-1.038 2.782,-1.949 0.63,-0.911 0.945,-2.064 0.945,-3.456 0,-0.858 -0.146,-1.653 -0.439,-2.386 -0.294,-0.73 -0.725,-1.381 -1.294,-1.948 -0.656,-0.657 -1.401,-1.146 -2.236,-1.466 -0.836,-0.318 -1.781,-0.479 -2.835,-0.479 -2.04,0 -3.685,0.589 -4.936,1.767 -1.25,1.18 -1.876,2.733 -1.876,4.66 0,0.715 0.094,1.476 0.282,2.284 0.187,0.81 0.471,1.68 0.852,2.61 h 3.023 v -0.992 c -1.101,-0.216 -1.911,-0.651 -2.433,-1.306 -0.523,-0.652 -0.784,-1.568 -0.784,-2.744 0,-1.402 0.497,-2.462 1.491,-3.185 0.993,-0.72 2.454,-1.079 4.381,-1.079 1.922,0 3.38,0.359 4.374,1.079 0.992,0.723 1.488,1.783 1.488,3.185 0,0.978 -0.233,1.784 -0.698,2.415 C 1.62,-2.356 0.924,-1.898 0,-1.617 Z"
       style="fill:#262626;fill-opacity:1;fill-rule:nonzero;stroke:none"
       transform="matrix(1.3333333,0,0,-1.3333333,76.8744,380.63667)"
       clip-path="url(#clipPath89)" />
    <path
       id="path90"
       d="m 0,0 h -0.931 v 1.671 h -11.25 V 0 h -0.942 v 10.564 h 2.919 v -1.08 h -1.836 v -6.03 h 4.393 V 7.751 H -9.29 v 1.083 h 4.36 V 7.751 H -6.576 V 3.454 h 5.496 v 6.171 h -1.839 v 1.08 H 0 Z"
       style="fill:#262626;fill-opacity:1;fill-rule:nonzero;stroke:none"
       transform="matrix(1.3333333,0,0,-1.3333333,81.502,377.87373)"
       clip-path="url(#clipPath91)" />
    <path
       id="path92"
       d="m 0,0 2.036,-2.596 2.036,0.25 2.035,1.276 2.037,0.479 2.035,-2.139 4.072,-12.875 2.036,2.505 2.036,19.248 2.035,28.929 2.037,24.374 2.035,9.661 2.036,-0.012 2.036,-1.189 2.036,2.474 4.072,8.862 2.036,3.316 2.036,2.637 2.035,2.385 2.036,2.788 2.036,3.948 4.072,10.765 4.072,7.163 2.036,9.952 2.035,22.233 2.036,16.547 2.036,-26.953 2.036,-99.11 2.036,-133.412 2.036,-102.138 2.036,-27.992 2.035,17.749 2.037,21.535 2.035,3.441 2.036,-5.907 2.036,-4.444 2.036,0.156 2.036,1.93 2.036,1.093 2.035,-0.032 4.072,-1.009 2.036,0.212 2.036,1.433 2.036,1.807 2.036,-0.648 2.036,-5.51 2.036,-4.88 2.035,6.941 2.036,26.82 2.036,36.053 2.036,27.99 2.036,8.8 2.036,-5.067 2.036,-10.88 2.036,-7.775 2.035,5.383 2.036,27.189 2.036,39.402 2.036,29.761 2.036,4.033 2.036,-6.184 2.036,9.459 2.036,37.5 2.035,44.8 2.037,26.861 2.035,1.211 2.036,-10.653 2.036,-8.363 2.036,-2.455 2.036,0.497 2.035,0.7 2.037,-0.337 2.035,-2.156 2.036,-4.297 2.036,-5.711 2.036,-6.294 2.036,-7.184 2.036,-9.689 2.036,-13.543 2.036,-15.378 2.035,-13.239 2.036,-7.869 2.036,-2.688 2.036,1.338 2.036,3.018 2.036,-0.174 2.036,-8.301 2.036,-14.829 2.035,-12.821 2.036,-2.941 2.036,5.642 2.036,7.99 2.036,5.311 2.036,2.756 2.036,1.627 2.035,-0.072 2.037,-6.249 2.035,-17.156 2.036,-28.253 2.036,-35.053 2.036,-37.171 2.036,-33.006 2.036,-21.753 2.036,-6.183 2.036,3.192 2.035,3.933 2.036,0.092 2.036,-0.965 2.036,1.299 2.036,2.355 2.035,-1.975 2.037,-9.869 2.035,-6.189 2.036,16.054 2.036,49.34 4.072,131.541 2.036,47.538 2.036,29.435 2.036,11.38 2.035,-2.093 2.037,-7.105 2.035,-4.523 2.036,-1.291 2.036,-0.382 2.036,-1.158 2.036,-1.542 2.036,-1.122 2.035,-0.416 2.037,-0.228 2.035,-0.605 2.036,-1.179 2.036,-1.659 2.036,-2.037 2.036,-2.315 4.072,-5.089 6.107,-7.976 2.036,-2.797 4.071,-6.201 6.109,-10.103 4.071,-7.285 12.215,-22.716 2.036,-4.165 4.072,-9.181 2.036,-4.611 2.036,-3.83 2.036,-1.141 2.036,3.474 2.035,4.173 2.036,-6.386 2.036,-27.003 2.036,-38.499 2.036,-28.608 2.036,-2.309 4.072,28.38 2.035,2.583 2.036,-3.236 2.036,-1.449 2.037,3.587 2.035,6.775 2.036,7.493 2.036,2.277 2.035,-10.939 2.036,-28.65 2.036,-34.684 2.037,-24.437 2.035,-5.756 2.036,4.406 2.036,4.066 2.036,-0.415 2.035,-2.114 2.036,-0.999 2.037,-0.038 2.036,-0.868 2.035,-2.918 2.036,-3.708 2.036,-2.588 2.036,-0.514 4.072,1.125 2.036,0.031 4.071,-0.286 14.251,0.091 4.072,-0.182 2.036,0.089 2.035,0.4 2.037,0.252 2.036,-0.635 2.036,-1.612 2.035,-0.352 2.036,3.612 2.036,5.79 2.035,-1.559 4.073,-36.072 2.036,19.059 2.035,86.088 2.036,120.287 2.036,94.184 2.036,27.541 2.036,-13.997 2.036,-17.192 2.036,-0.8 2.036,5.133 2.035,-1.438 2.036,-9.79 2.036,-11.178 2.037,-6.505 2.035,-3.444 2.036,-5.113 2.036,-9.848 4.071,-24.923 2.036,-11.432 2.036,-13.125 2.037,-17.392 2.035,-19.684 2.036,-16.552 2.036,-8.941 2.035,-3.122 2.036,-1.451 2.036,-2.38 2.037,-1.561 2.035,1.668 2.036,3.024 2.036,-3.418 2.036,-16.403 2.035,-13.642 2.036,20.594 2.037,76.765 2.036,99.85 2.035,70.82 2.036,11.036 2.036,-24.035 2.036,-25.974 2.035,-12.219 2.037,-5.215 2.036,-5.968 2.035,-8.921 4.072,-20.682 2.036,-7.55 2.035,-2.041 2.037,4.091 2.036,5.62 2.036,1.885 2.035,-3.537 4.072,-12.915 2.036,-5.84 4.072,-10.439 2.036,-4.657 2.036,-4.03 4.071,-6.978 2.036,-4.277 2.035,-4.839 2.037,-4.227 2.036,-2.549 2.036,-1.385 2.035,-1.626 2.036,-2.922 4.072,-7.256 2.036,-2.156 2.036,1.083 4.072,12.114 2.035,-5.119 2.036,-28.074 2.036,-62.736 2.037,-109.104"
       style="fill:none;stroke:#000000;stroke-width:1.5;stroke-linecap:round;stroke-linejoin:round;stroke-miterlimit:4;stroke-dasharray:none;stroke-opacity:1"
       transform="matrix(1.3333333,0,0,-1.3333333,184.582,351.8092)"
       clip-path="url(#clipPath93)" />
    <path
       id="path94"
       d="M 0,0 V 443.52"
       style="fill:none;stroke:#808080;stroke-width:1.5;stroke-linecap:butt;stroke-linejoin:round;stroke-miterlimit:4;stroke-dasharray:5.55, 2.4;stroke-dashoffset:0;stroke-opacity:1"
       transform="matrix(1.3333333,0,0,-1.3333333,184.582,683.51947)"
       clip-path="url(#clipPath95)" />
    <path
       id="path96"
       d="M 0,0 V 443.52"
       style="fill:none;stroke:#808080;stroke-width:1.5;stroke-linecap:butt;stroke-linejoin:round;stroke-miterlimit:4;stroke-dasharray:5.55, 2.4;stroke-dashoffset:0;stroke-opacity:1"
       transform="matrix(1.3333333,0,0,-1.3333333,266.49027,683.51947)"
       clip-path="url(#clipPath97)" />
    <path
       id="path98"
       d="M 0,0 V 443.52"
       style="fill:none;stroke:#808080;stroke-width:1.5;stroke-linecap:butt;stroke-linejoin:round;stroke-miterlimit:4;stroke-dasharray:5.55, 2.4;stroke-dashoffset:0;stroke-opacity:1"
       transform="matrix(1.3333333,0,0,-1.3333333,273.93613,683.51947)"
       clip-path="url(#clipPath99)" />
    <path
       id="path100"
       d="M 0,0 V 443.52"
       style="fill:none;stroke:#808080;stroke-width:1.5;stroke-linecap:butt;stroke-linejoin:round;stroke-miterlimit:4;stroke-dasharray:5.55, 2.4;stroke-dashoffset:0;stroke-opacity:1"
       transform="matrix(1.3333333,0,0,-1.3333333,474.98373,683.51947)"
       clip-path="url(#clipPath101)" />
    <path
       id="path102"
       d="M 0,0 V 443.52"
       style="fill:none;stroke:#808080;stroke-width:1.5;stroke-linecap:butt;stroke-linejoin:round;stroke-miterlimit:4;stroke-dasharray:5.55, 2.4;stroke-dashoffset:0;stroke-opacity:1"
       transform="matrix(1.3333333,0,0,-1.3333333,482.42973,683.51947)"
       clip-path="url(#clipPath103)" />
    <path
       id="path104"
       d="M 0,0 V 443.52"
       style="fill:none;stroke:#808080;stroke-width:1.5;stroke-linecap:butt;stroke-linejoin:round;stroke-miterlimit:4;stroke-dasharray:5.55, 2.4;stroke-dashoffset:0;stroke-opacity:1"
       transform="matrix(1.3333333,0,0,-1.3333333,787.724,683.51947)"
       clip-path="url(#clipPath105)" />
    <path
       id="path106"
       d="M 0,0 V 443.52"
       style="fill:none;stroke:#808080;stroke-width:1.5;stroke-linecap:butt;stroke-linejoin:round;stroke-miterlimit:4;stroke-dasharray:5.55, 2.4;stroke-dashoffset:0;stroke-opacity:1"
       transform="matrix(1.3333333,0,0,-1.3333333,795.17053,683.51947)"
       clip-path="url(#clipPath107)" />
    <path
       id="path108"
       d="M 0,0 V 443.52"
       style="fill:none;stroke:#808080;stroke-width:1.5;stroke-linecap:butt;stroke-linejoin:round;stroke-miterlimit:4;stroke-dasharray:5.55, 2.4;stroke-dashoffset:0;stroke-opacity:1"
       transform="matrix(1.3333333,0,0,-1.3333333,996.2188,683.51947)"
       clip-path="url(#clipPath109)" />
    <path
       id="path110"
       d="M 0,0 V 443.52"
       style="fill:none;stroke:#808080;stroke-width:0.5;stroke-linecap:square;stroke-linejoin:miter;stroke-miterlimit:4;stroke-dasharray:none;stroke-opacity:1"
       transform="matrix(1.3333333,0,0,-1.3333333,144,683.51947)"
       clip-path="url(#clipPath111)" />
    <path
       id="path112"
       d="M 0,0 H 669.6"
       style="fill:none;stroke:#808080;stroke-width:0.5;stroke-linecap:square;stroke-linejoin:miter;stroke-miterlimit:4;stroke-dasharray:none;stroke-opacity:1"
       transform="matrix(1.3333333,0,0,-1.3333333,144,683.51947)"
       clip-path="url(#clipPath113)" />
    <path
       id="path114"
       d="M 0,0 C 0,-0.348 -0.067,-0.668 -0.202,-0.962 -0.337,-1.254 -0.545,-1.507 -0.827,-1.721 -1.108,-1.934 -1.462,-2.1 -1.89,-2.22 c -0.427,-0.119 -0.934,-0.177 -1.52,-0.177 -1.028,0 -1.828,0.179 -2.402,0.54 -0.574,0.359 -0.939,0.878 -1.095,1.557 l 1.083,0.218 c 0.055,-0.215 0.139,-0.411 0.252,-0.587 0.114,-0.175 0.267,-0.326 0.459,-0.454 0.194,-0.126 0.433,-0.225 0.718,-0.296 0.285,-0.07 0.627,-0.105 1.026,-0.105 0.332,0 0.638,0.028 0.915,0.085 0.277,0.057 0.516,0.144 0.714,0.26 0.199,0.117 0.354,0.269 0.465,0.453 0.111,0.187 0.167,0.409 0.167,0.666 0,0.27 -0.061,0.489 -0.184,0.657 -0.122,0.169 -0.295,0.307 -0.519,0.416 -0.223,0.11 -0.488,0.202 -0.797,0.275 -0.308,0.075 -0.649,0.155 -1.024,0.24 -0.231,0.052 -0.463,0.107 -0.695,0.167 -0.233,0.062 -0.455,0.134 -0.668,0.218 -0.212,0.083 -0.412,0.182 -0.6,0.294 -0.187,0.114 -0.35,0.25 -0.487,0.409 -0.137,0.158 -0.244,0.342 -0.323,0.551 -0.077,0.209 -0.116,0.45 -0.116,0.724 0,0.39 0.079,0.724 0.236,1.003 0.159,0.28 0.379,0.51 0.66,0.69 0.281,0.18 0.613,0.311 0.996,0.392 0.383,0.083 0.798,0.124 1.243,0.124 0.511,0 0.948,-0.04 1.311,-0.121 0.364,-0.08 0.67,-0.2 0.92,-0.361 0.25,-0.16 0.45,-0.358 0.6,-0.595 0.152,-0.236 0.272,-0.51 0.362,-0.823 L -1.295,4.007 c -0.054,0.2 -0.133,0.378 -0.237,0.534 -0.103,0.156 -0.239,0.287 -0.408,0.393 -0.168,0.104 -0.372,0.184 -0.612,0.24 -0.24,0.055 -0.522,0.082 -0.845,0.082 -0.384,0 -0.706,-0.034 -0.966,-0.104 C -4.622,5.084 -4.831,4.991 -4.989,4.873 -5.146,4.757 -5.26,4.619 -5.329,4.461 -5.397,4.304 -5.432,4.133 -5.432,3.949 -5.432,3.703 -5.371,3.5 -5.248,3.342 -5.124,3.184 -4.957,3.052 -4.746,2.946 -4.534,2.841 -4.291,2.753 -4.014,2.684 -3.737,2.613 -3.441,2.543 -3.129,2.472 -2.875,2.414 -2.622,2.354 -2.37,2.293 -2.117,2.233 -1.876,2.161 -1.646,2.076 -1.416,1.992 -1.2,1.894 -0.999,1.779 -0.798,1.667 -0.623,1.529 -0.474,1.365 -0.325,1.201 -0.209,1.008 -0.125,0.784 -0.042,0.562 0,0.3 0,0"
       style="fill:#808080;fill-opacity:1;fill-rule:nonzero;stroke:none"
       transform="matrix(1.3333333,0,0,-1.3333333,201.67187,665.19533)"
       clip-path="url(#clipPath115)" />
    <path
       id="path116"
       d="M 0,0 C -0.059,0.669 -0.229,1.156 -0.51,1.463 -0.791,1.769 -1.195,1.922 -1.723,1.922 -1.899,1.922 -2.084,1.894 -2.278,1.838 -2.47,1.781 -2.648,1.681 -2.813,1.536 -2.976,1.391 -3.115,1.194 -3.229,0.945 -3.342,0.698 -3.407,0.383 -3.422,0 Z m -3.433,-0.808 c 0,-0.333 0.034,-0.638 0.101,-0.919 0.069,-0.278 0.175,-0.518 0.317,-0.719 0.143,-0.2 0.325,-0.357 0.548,-0.469 0.222,-0.111 0.49,-0.167 0.802,-0.167 0.457,0 0.824,0.092 1.099,0.275 0.276,0.184 0.463,0.416 0.561,0.698 L 0.919,-2.372 C 0.853,-2.548 0.76,-2.725 0.642,-2.902 0.523,-3.08 0.363,-3.24 0.164,-3.384 c -0.2,-0.142 -0.448,-0.261 -0.747,-0.352 -0.299,-0.092 -0.659,-0.137 -1.082,-0.137 -0.937,0 -1.651,0.279 -2.141,0.838 -0.49,0.558 -0.735,1.389 -0.735,2.491 0,0.594 0.074,1.097 0.221,1.508 0.149,0.413 0.352,0.748 0.61,1.005 0.258,0.258 0.56,0.444 0.903,0.558 0.344,0.117 0.711,0.175 1.101,0.175 0.531,0 0.976,-0.086 1.333,-0.259 C -0.016,2.272 0.271,2.034 0.488,1.73 0.705,1.429 0.859,1.072 0.951,0.662 1.043,0.252 1.089,-0.191 1.089,-0.667 v -0.141 z"
       style="fill:#808080;fill-opacity:1;fill-rule:nonzero;stroke:none"
       transform="matrix(1.3333333,0,0,-1.3333333,209.14133,663.22787)"
       clip-path="url(#clipPath117)" />
    <path
       id="path118"
       d="m 0,0 c 0,-0.362 0.026,-0.696 0.079,-1.001 0.053,-0.306 0.143,-0.568 0.268,-0.79 0.125,-0.22 0.29,-0.391 0.495,-0.512 0.205,-0.121 0.458,-0.181 0.759,-0.181 0.375,0 0.689,0.101 0.94,0.303 0.252,0.204 0.408,0.517 0.466,0.94 L 4.073,-1.312 C 4.038,-1.573 3.961,-1.825 3.844,-2.068 3.728,-2.311 3.569,-2.523 3.368,-2.707 3.167,-2.89 2.92,-3.037 2.631,-3.15 2.342,-3.261 2.008,-3.316 1.629,-3.316 c -0.496,0 -0.918,0.083 -1.265,0.251 -0.348,0.169 -0.63,0.4 -0.848,0.695 -0.216,0.295 -0.373,0.642 -0.471,1.043 -0.097,0.401 -0.146,0.836 -0.146,1.305 0,0.424 0.036,0.8 0.105,1.126 0.07,0.327 0.169,0.612 0.297,0.855 0.127,0.245 0.277,0.451 0.448,0.617 0.172,0.166 0.358,0.299 0.559,0.398 0.201,0.1 0.413,0.172 0.635,0.217 C 1.167,3.236 1.392,3.259 1.618,3.259 1.973,3.259 2.29,3.21 2.567,3.112 2.844,3.015 3.084,2.881 3.285,2.711 3.486,2.541 3.649,2.341 3.774,2.109 3.899,1.88 3.987,1.631 4.039,1.365 L 2.953,1.284 C 2.899,1.636 2.761,1.914 2.537,2.121 2.314,2.328 1.998,2.432 1.588,2.432 1.288,2.432 1.038,2.382 0.836,2.282 0.635,2.184 0.472,2.033 0.347,1.832 0.222,1.631 0.132,1.378 0.079,1.072 0.026,0.768 0,0.41 0,0"
       style="fill:#808080;fill-opacity:1;fill-rule:nonzero;stroke:none"
       transform="matrix(1.3333333,0,0,-1.3333333,213.45253,663.97)"
       clip-path="url(#clipPath119)" />
    <path
       id="path120"
       d="m 0,0 c -0.16,-0.043 -0.323,-0.077 -0.49,-0.102 -0.165,-0.026 -0.357,-0.039 -0.575,-0.039 -0.844,0 -1.266,0.479 -1.266,1.436 v 4.23 h -0.733 v 0.767 h 0.772 l 0.312,1.419 h 0.703 V 6.292 h 1.172 V 5.525 H -1.277 V 1.523 c 0,-0.304 0.049,-0.518 0.148,-0.642 0.1,-0.123 0.273,-0.184 0.52,-0.184 0.102,0 0.201,0.007 0.296,0.023 0.096,0.015 0.2,0.036 0.313,0.059 z"
       style="fill:#808080;fill-opacity:1;fill-rule:nonzero;stroke:none"
       transform="matrix(1.3333333,0,0,-1.3333333,223.6328,668.17187)"
       clip-path="url(#clipPath121)" />
    <path
       id="path122"
       d="m 168.615,81.163 h 1.056 v -6.339 h -1.056 z m 0,2.357 h 1.056 v -1.008 h -1.056 z"
       style="fill:#808080;fill-opacity:1;fill-rule:nonzero;stroke:none"
       transform="matrix(1.3333333,0,0,-1.3333333,0,768)"
       clip-path="url(#clipPath123)" />
    <path
       id="path124"
       d="m 0,0 c 0,0.492 -0.038,0.898 -0.114,1.219 -0.076,0.32 -0.188,0.575 -0.334,0.766 -0.146,0.192 -0.325,0.326 -0.536,0.402 -0.211,0.076 -0.45,0.114 -0.715,0.114 -0.27,0 -0.513,-0.04 -0.731,-0.12 C -2.646,2.301 -2.831,2.164 -2.983,1.971 -3.134,1.778 -3.25,1.521 -3.332,1.2 -3.412,0.88 -3.452,0.48 -3.452,0 c 0,-0.492 0.043,-0.9 0.13,-1.223 0.086,-0.322 0.204,-0.579 0.354,-0.77 0.152,-0.192 0.329,-0.326 0.534,-0.405 0.205,-0.078 0.429,-0.117 0.67,-0.117 0.27,0 0.514,0.038 0.733,0.115 0.219,0.076 0.405,0.21 0.557,0.401 0.152,0.191 0.269,0.449 0.35,0.772 C -0.041,-0.901 0,-0.492 0,0 m 1.108,0 c 0,-1.11 -0.244,-1.937 -0.733,-2.48 -0.488,-0.543 -1.197,-0.814 -2.126,-0.814 -0.441,0 -0.836,0.065 -1.185,0.198 -0.348,0.134 -0.641,0.338 -0.881,0.612 -0.24,0.273 -0.424,0.616 -0.552,1.027 -0.126,0.413 -0.189,0.898 -0.189,1.457 0,2.188 0.947,3.281 2.841,3.281 0.492,0 0.917,-0.068 1.275,-0.206 C -0.085,2.938 0.208,2.733 0.437,2.46 0.666,2.188 0.834,1.846 0.943,1.435 1.053,1.024 1.108,0.546 1.108,0"
       style="fill:#808080;fill-opacity:1;fill-rule:nonzero;stroke:none"
       transform="matrix(1.3333333,0,0,-1.3333333,234.05467,664)"
       clip-path="url(#clipPath125)" />
    <path
       id="path126"
       d="M 0,0 V 4.02 C 0,4.328 -0.022,4.586 -0.067,4.792 -0.112,5 -0.186,5.166 -0.287,5.293 -0.388,5.42 -0.522,5.51 -0.688,5.562 -0.854,5.615 -1.061,5.642 -1.307,5.642 -1.557,5.642 -1.783,5.598 -1.984,5.51 -2.185,5.423 -2.357,5.296 -2.5,5.13 -2.642,4.963 -2.752,4.758 -2.831,4.515 -2.909,4.271 -2.947,3.99 -2.947,3.673 V 0 h -1.054 v 4.985 c 0,0.134 -10e-4,0.274 -0.004,0.42 -0.001,0.147 -0.004,0.284 -0.009,0.414 -0.004,0.132 -0.008,0.244 -0.011,0.338 -0.004,0.094 -0.008,0.155 -0.012,0.182 h 0.996 C -3.038,6.32 -3.034,6.268 -3.03,6.182 -3.025,6.095 -3.02,5.996 -3.015,5.885 -3.009,5.773 -3.004,5.661 -3,5.546 -2.996,5.431 -2.994,5.334 -2.994,5.255 h 0.018 c 0.101,0.183 0.213,0.35 0.334,0.499 0.121,0.148 0.262,0.274 0.422,0.377 0.16,0.103 0.343,0.183 0.55,0.24 0.207,0.058 0.447,0.086 0.721,0.086 0.351,0 0.654,-0.043 0.908,-0.129 C 0.212,6.241 0.421,6.108 0.585,5.929 0.75,5.75 0.871,5.519 0.947,5.234 1.023,4.952 1.061,4.615 1.061,4.224 V 0 Z"
       style="fill:#808080;fill-opacity:1;fill-rule:nonzero;stroke:none"
       transform="matrix(1.3333333,0,0,-1.3333333,242.6484,668.2344)"
       clip-path="url(#clipPath127)" />
    <path
       id="path128"
       d="M 0,0 C -0.062,0.156 -0.123,0.314 -0.18,0.475 -0.236,0.636 -0.286,0.781 -0.328,0.911 -0.371,1.043 -0.407,1.152 -0.437,1.239 -0.466,1.328 -0.482,1.382 -0.486,1.4 -0.495,1.382 -0.513,1.327 -0.54,1.237 -0.566,1.147 -0.602,1.036 -0.647,0.902 -0.692,0.77 -0.743,0.623 -0.801,0.463 -0.857,0.303 -0.915,0.146 -0.973,-0.011 l -1.054,-2.714 h 3.088 z m 2.338,-6.011 -0.943,2.414 h -3.761 l -0.951,-2.414 h -1.159 l 3.368,8.255 H 0.165 L 3.48,-6.011 Z"
       style="fill:#808080;fill-opacity:1;fill-rule:nonzero;stroke:none"
       transform="matrix(1.3333333,0,0,-1.3333333,254.66733,660.22)"
       clip-path="url(#clipPath129)" />
    <path
       id="path130"
       d="M 0,0 C 0,-0.348 -0.067,-0.668 -0.203,-0.962 -0.337,-1.254 -0.545,-1.507 -0.827,-1.721 -1.108,-1.934 -1.462,-2.1 -1.89,-2.22 c -0.427,-0.119 -0.934,-0.177 -1.521,-0.177 -1.027,0 -1.828,0.179 -2.401,0.54 -0.574,0.359 -0.939,0.878 -1.095,1.557 l 1.083,0.218 c 0.055,-0.215 0.139,-0.411 0.252,-0.587 0.114,-0.175 0.266,-0.326 0.459,-0.454 0.194,-0.126 0.433,-0.225 0.718,-0.296 0.285,-0.07 0.627,-0.105 1.026,-0.105 0.332,0 0.637,0.028 0.915,0.085 0.277,0.057 0.516,0.144 0.714,0.26 0.199,0.117 0.354,0.269 0.465,0.453 0.111,0.187 0.167,0.409 0.167,0.666 0,0.27 -0.061,0.489 -0.184,0.657 -0.123,0.169 -0.295,0.307 -0.519,0.416 -0.223,0.11 -0.488,0.202 -0.797,0.275 -0.308,0.075 -0.649,0.155 -1.024,0.24 -0.231,0.052 -0.463,0.107 -0.696,0.167 -0.232,0.062 -0.454,0.134 -0.667,0.218 -0.213,0.083 -0.412,0.182 -0.6,0.294 -0.187,0.114 -0.35,0.25 -0.488,0.409 -0.136,0.158 -0.243,0.342 -0.322,0.551 -0.077,0.209 -0.116,0.45 -0.116,0.724 0,0.39 0.079,0.724 0.236,1.003 0.159,0.28 0.379,0.51 0.66,0.69 0.281,0.18 0.613,0.311 0.996,0.392 0.383,0.083 0.798,0.124 1.243,0.124 0.511,0 0.948,-0.04 1.31,-0.121 0.364,-0.08 0.671,-0.2 0.921,-0.361 0.25,-0.16 0.45,-0.358 0.6,-0.595 0.151,-0.236 0.272,-0.51 0.362,-0.823 L -1.295,4.007 c -0.054,0.2 -0.133,0.378 -0.237,0.534 -0.104,0.156 -0.24,0.287 -0.408,0.393 -0.168,0.104 -0.372,0.184 -0.612,0.24 -0.24,0.055 -0.522,0.082 -0.845,0.082 -0.384,0 -0.706,-0.034 -0.966,-0.104 C -4.622,5.084 -4.831,4.991 -4.989,4.873 -5.147,4.757 -5.26,4.619 -5.329,4.461 -5.397,4.304 -5.432,4.133 -5.432,3.949 -5.432,3.703 -5.371,3.5 -5.248,3.342 -5.125,3.184 -4.957,3.052 -4.746,2.946 -4.534,2.841 -4.291,2.753 -4.014,2.684 -3.737,2.613 -3.442,2.543 -3.129,2.472 -2.875,2.414 -2.623,2.354 -2.37,2.293 -2.118,2.233 -1.876,2.161 -1.646,2.076 -1.416,1.992 -1.201,1.894 -1,1.779 -0.798,1.667 -0.623,1.529 -0.474,1.365 -0.326,1.201 -0.209,1.008 -0.125,0.784 -0.042,0.562 0,0.3 0,0"
       style="fill:#808080;fill-opacity:1;fill-rule:nonzero;stroke:none"
       transform="matrix(1.3333333,0,0,-1.3333333,350.15627,665.19533)"
       clip-path="url(#clipPath131)" />
    <path
       id="path132"
       d="M 0,0 C -0.059,0.669 -0.229,1.156 -0.51,1.463 -0.791,1.769 -1.196,1.922 -1.723,1.922 -1.899,1.922 -2.084,1.894 -2.278,1.838 -2.471,1.781 -2.649,1.681 -2.813,1.536 -2.976,1.391 -3.115,1.194 -3.229,0.945 -3.342,0.698 -3.407,0.383 -3.422,0 Z m -3.433,-0.808 c 0,-0.333 0.034,-0.638 0.101,-0.919 0.069,-0.278 0.174,-0.518 0.317,-0.719 0.142,-0.2 0.325,-0.357 0.548,-0.469 0.222,-0.111 0.489,-0.167 0.802,-0.167 0.457,0 0.824,0.092 1.099,0.275 0.276,0.184 0.463,0.416 0.561,0.698 L 0.919,-2.372 C 0.853,-2.548 0.76,-2.725 0.641,-2.902 0.522,-3.08 0.363,-3.24 0.163,-3.384 c -0.199,-0.142 -0.447,-0.261 -0.746,-0.352 -0.299,-0.092 -0.66,-0.137 -1.082,-0.137 -0.938,0 -1.651,0.279 -2.141,0.838 -0.49,0.558 -0.735,1.389 -0.735,2.491 0,0.594 0.074,1.097 0.221,1.508 0.149,0.413 0.352,0.748 0.61,1.005 0.258,0.258 0.56,0.444 0.903,0.558 0.344,0.117 0.711,0.175 1.101,0.175 0.531,0 0.976,-0.086 1.333,-0.259 C -0.016,2.272 0.271,2.034 0.487,1.73 0.705,1.429 0.859,1.072 0.951,0.662 1.043,0.252 1.089,-0.191 1.089,-0.667 v -0.141 z"
       style="fill:#808080;fill-opacity:1;fill-rule:nonzero;stroke:none"
       transform="matrix(1.3333333,0,0,-1.3333333,357.6256,663.22787)"
       clip-path="url(#clipPath133)" />
    <path
       id="path134"
       d="m 0,0 c 0,-0.362 0.026,-0.696 0.079,-1.001 0.053,-0.306 0.143,-0.568 0.268,-0.79 0.125,-0.22 0.29,-0.391 0.495,-0.512 0.205,-0.121 0.458,-0.181 0.759,-0.181 0.375,0 0.688,0.101 0.94,0.303 0.252,0.204 0.408,0.517 0.466,0.94 L 4.072,-1.312 C 4.037,-1.573 3.961,-1.825 3.844,-2.068 3.728,-2.311 3.568,-2.523 3.367,-2.707 3.166,-2.89 2.92,-3.037 2.63,-3.15 2.342,-3.261 2.008,-3.316 1.629,-3.316 c -0.496,0 -0.918,0.083 -1.265,0.251 -0.348,0.169 -0.631,0.4 -0.848,0.695 -0.216,0.295 -0.373,0.642 -0.471,1.043 -0.097,0.401 -0.146,0.836 -0.146,1.305 0,0.424 0.035,0.8 0.105,1.126 0.07,0.327 0.169,0.612 0.296,0.855 0.128,0.245 0.277,0.451 0.449,0.617 0.172,0.166 0.358,0.299 0.558,0.398 0.202,0.1 0.413,0.172 0.636,0.217 0.224,0.045 0.449,0.068 0.675,0.068 0.355,0 0.671,-0.049 0.949,-0.147 C 2.844,3.015 3.083,2.881 3.285,2.711 3.486,2.541 3.649,2.341 3.774,2.109 3.899,1.88 3.987,1.631 4.039,1.365 L 2.953,1.284 C 2.899,1.636 2.76,1.914 2.537,2.121 2.314,2.328 1.998,2.432 1.588,2.432 1.288,2.432 1.037,2.382 0.836,2.282 0.635,2.184 0.472,2.033 0.347,1.832 0.222,1.631 0.132,1.378 0.079,1.072 0.026,0.768 0,0.41 0,0"
       style="fill:#808080;fill-opacity:1;fill-rule:nonzero;stroke:none"
       transform="matrix(1.3333333,0,0,-1.3333333,361.9368,663.97)"
       clip-path="url(#clipPath135)" />
    <path
       id="path136"
       d="m 0,0 c -0.16,-0.043 -0.323,-0.077 -0.489,-0.102 -0.165,-0.026 -0.357,-0.039 -0.576,-0.039 -0.844,0 -1.266,0.479 -1.266,1.436 v 4.23 h -0.732 v 0.767 h 0.772 l 0.311,1.419 h 0.703 V 6.292 h 1.172 V 5.525 H -1.277 V 1.523 c 0,-0.304 0.049,-0.518 0.148,-0.642 0.1,-0.123 0.274,-0.184 0.52,-0.184 0.102,0 0.201,0.007 0.296,0.023 0.096,0.015 0.201,0.036 0.313,0.059 z"
       style="fill:#808080;fill-opacity:1;fill-rule:nonzero;stroke:none"
       transform="matrix(1.3333333,0,0,-1.3333333,372.11653,668.17187)"
       clip-path="url(#clipPath137)" />
    <path
       id="path138"
       d="m 279.979,81.163 h 1.056 v -6.339 h -1.056 z m 0,2.357 h 1.056 v -1.008 h -1.056 z"
       style="fill:#808080;fill-opacity:1;fill-rule:nonzero;stroke:none"
       transform="matrix(1.3333333,0,0,-1.3333333,0,768)"
       clip-path="url(#clipPath139)" />
    <path
       id="path140"
       d="m 0,0 c 0,0.492 -0.038,0.898 -0.114,1.219 -0.076,0.32 -0.188,0.575 -0.334,0.766 -0.146,0.192 -0.325,0.326 -0.536,0.402 -0.212,0.076 -0.45,0.114 -0.715,0.114 -0.27,0 -0.513,-0.04 -0.731,-0.12 C -2.646,2.301 -2.831,2.164 -2.983,1.971 -3.134,1.778 -3.25,1.521 -3.332,1.2 -3.412,0.88 -3.452,0.48 -3.452,0 c 0,-0.492 0.043,-0.9 0.13,-1.223 0.086,-0.322 0.204,-0.579 0.354,-0.77 0.151,-0.192 0.329,-0.326 0.534,-0.405 0.205,-0.078 0.429,-0.117 0.67,-0.117 0.27,0 0.514,0.038 0.733,0.115 0.219,0.076 0.404,0.21 0.557,0.401 0.152,0.191 0.269,0.449 0.35,0.772 C -0.041,-0.901 0,-0.492 0,0 m 1.108,0 c 0,-1.11 -0.244,-1.937 -0.733,-2.48 -0.489,-0.543 -1.197,-0.814 -2.126,-0.814 -0.441,0 -0.836,0.065 -1.185,0.198 -0.348,0.134 -0.642,0.338 -0.881,0.612 -0.241,0.273 -0.424,0.616 -0.552,1.027 -0.126,0.413 -0.189,0.898 -0.189,1.457 0,2.188 0.947,3.281 2.841,3.281 0.492,0 0.917,-0.068 1.275,-0.206 C -0.085,2.938 0.208,2.733 0.437,2.46 0.666,2.188 0.834,1.846 0.943,1.435 1.053,1.024 1.108,0.546 1.108,0"
       style="fill:#808080;fill-opacity:1;fill-rule:nonzero;stroke:none"
       transform="matrix(1.3333333,0,0,-1.3333333,382.53907,664)"
       clip-path="url(#clipPath141)" />
    <path
       id="path142"
       d="M 0,0 V 4.02 C 0,4.328 -0.022,4.586 -0.068,4.792 -0.113,5 -0.186,5.166 -0.287,5.293 -0.388,5.42 -0.522,5.51 -0.688,5.562 -0.854,5.615 -1.061,5.642 -1.307,5.642 -1.557,5.642 -1.783,5.598 -1.984,5.51 -2.185,5.423 -2.357,5.296 -2.5,5.13 -2.642,4.963 -2.753,4.758 -2.832,4.515 -2.909,4.271 -2.948,3.99 -2.948,3.673 V 0 h -1.053 v 4.985 c 0,0.134 -0.002,0.274 -0.004,0.42 -0.001,0.147 -0.005,0.284 -0.01,0.414 -0.004,0.132 -0.007,0.244 -0.011,0.338 -0.004,0.094 -0.007,0.155 -0.011,0.182 h 0.995 C -3.038,6.32 -3.034,6.268 -3.03,6.182 -3.025,6.095 -3.02,5.996 -3.015,5.885 -3.009,5.773 -3.004,5.661 -3,5.546 -2.997,5.431 -2.995,5.334 -2.995,5.255 h 0.019 c 0.101,0.183 0.213,0.35 0.334,0.499 0.121,0.148 0.262,0.274 0.422,0.377 0.16,0.103 0.343,0.183 0.549,0.24 0.208,0.058 0.448,0.086 0.722,0.086 0.351,0 0.654,-0.043 0.907,-0.129 C 0.212,6.241 0.421,6.108 0.585,5.929 0.75,5.75 0.871,5.519 0.947,5.234 1.023,4.952 1.061,4.615 1.061,4.224 V 0 Z"
       style="fill:#808080;fill-opacity:1;fill-rule:nonzero;stroke:none"
       transform="matrix(1.3333333,0,0,-1.3333333,391.1328,668.2344)"
       clip-path="url(#clipPath143)" />
    <path
       id="path144"
       d="m 0,0 c 0,0.262 -0.048,0.484 -0.145,0.668 -0.095,0.184 -0.232,0.334 -0.412,0.45 -0.179,0.117 -0.395,0.203 -0.647,0.259 -0.253,0.055 -0.535,0.082 -0.847,0.082 h -2.085 v -2.978 h 2.173 c 0.285,0 0.547,0.024 0.787,0.07 0.241,0.048 0.449,0.13 0.623,0.248 0.174,0.117 0.309,0.273 0.407,0.469 C -0.049,-0.538 0,-0.293 0,0 m -0.475,3.703 c 0,0.445 -0.152,0.764 -0.457,0.955 -0.304,0.192 -0.745,0.287 -1.324,0.287 h -1.88 V 2.331 h 1.88 c 0.329,0 0.607,0.032 0.833,0.096 0.226,0.065 0.409,0.157 0.549,0.275 0.141,0.12 0.243,0.264 0.306,0.432 0.062,0.169 0.093,0.358 0.093,0.569 M 1.13,-0.088 c 0,-0.419 -0.082,-0.775 -0.245,-1.07 -0.164,-0.295 -0.385,-0.535 -0.662,-0.72 -0.278,-0.185 -0.6,-0.321 -0.968,-0.407 -0.366,-0.086 -0.752,-0.129 -1.158,-0.129 h -3.353 v 8.255 h 3 c 0.458,0 0.866,-0.038 1.225,-0.114 C -0.671,5.65 -0.366,5.53 -0.116,5.367 0.133,5.203 0.324,4.995 0.454,4.742 0.585,4.491 0.65,4.189 0.65,3.837 0.65,3.606 0.618,3.39 0.553,3.187 0.489,2.983 0.392,2.799 0.26,2.633 0.13,2.467 -0.033,2.324 -0.231,2.205 -0.428,2.087 -0.658,1.998 -0.919,1.939 -0.588,1.9 -0.294,1.824 -0.038,1.711 0.219,1.597 0.432,1.452 0.604,1.275 0.776,1.101 0.907,0.896 0.996,0.664 1.085,0.432 1.13,0.181 1.13,-0.088"
       style="fill:#808080;fill-opacity:1;fill-rule:nonzero;stroke:none"
       transform="matrix(1.3333333,0,0,-1.3333333,406.3516,665.0156)"
       clip-path="url(#clipPath145)" />
    <path
       id="path146"
       d="M 0,0 C 0,-0.348 -0.067,-0.668 -0.202,-0.962 -0.337,-1.254 -0.546,-1.507 -0.827,-1.721 -1.108,-1.934 -1.462,-2.1 -1.89,-2.22 c -0.427,-0.119 -0.934,-0.177 -1.52,-0.177 -1.027,0 -1.828,0.179 -2.402,0.54 -0.574,0.359 -0.939,0.878 -1.095,1.557 l 1.084,0.218 c 0.054,-0.215 0.138,-0.411 0.251,-0.587 0.113,-0.175 0.266,-0.326 0.459,-0.454 0.194,-0.126 0.433,-0.225 0.718,-0.296 0.286,-0.07 0.627,-0.105 1.026,-0.105 0.332,0 0.638,0.028 0.915,0.085 0.277,0.057 0.516,0.144 0.714,0.26 0.199,0.117 0.354,0.269 0.466,0.453 0.11,0.187 0.166,0.409 0.166,0.666 0,0.27 -0.061,0.489 -0.184,0.657 -0.122,0.169 -0.295,0.307 -0.52,0.416 -0.221,0.11 -0.487,0.202 -0.796,0.275 -0.307,0.075 -0.649,0.155 -1.024,0.24 -0.231,0.052 -0.463,0.107 -0.695,0.167 -0.233,0.062 -0.455,0.134 -0.668,0.218 -0.212,0.083 -0.412,0.182 -0.6,0.294 -0.187,0.114 -0.35,0.25 -0.487,0.409 -0.137,0.158 -0.244,0.342 -0.323,0.551 -0.077,0.209 -0.116,0.45 -0.116,0.724 0,0.39 0.079,0.724 0.236,1.003 0.159,0.28 0.379,0.51 0.66,0.69 0.281,0.18 0.613,0.311 0.996,0.392 0.384,0.083 0.798,0.124 1.243,0.124 0.511,0 0.948,-0.04 1.311,-0.121 0.363,-0.08 0.67,-0.2 0.92,-0.361 0.25,-0.16 0.45,-0.358 0.6,-0.595 0.152,-0.236 0.272,-0.51 0.362,-0.823 L -1.296,4.007 c -0.054,0.2 -0.132,0.378 -0.235,0.534 -0.105,0.156 -0.24,0.287 -0.409,0.393 -0.168,0.104 -0.372,0.184 -0.612,0.24 -0.24,0.055 -0.521,0.082 -0.845,0.082 -0.384,0 -0.706,-0.034 -0.966,-0.104 C -4.622,5.084 -4.83,4.991 -4.989,4.873 -5.146,4.757 -5.26,4.619 -5.328,4.461 -5.397,4.304 -5.432,4.133 -5.432,3.949 -5.432,3.703 -5.37,3.5 -5.248,3.342 -5.124,3.184 -4.957,3.052 -4.745,2.946 -4.534,2.841 -4.29,2.753 -4.015,2.684 -3.736,2.613 -3.441,2.543 -3.129,2.472 -2.875,2.414 -2.622,2.354 -2.37,2.293 -2.117,2.233 -1.876,2.161 -1.646,2.076 -1.416,1.992 -1.2,1.894 -0.999,1.779 -0.798,1.667 -0.623,1.529 -0.475,1.365 -0.325,1.201 -0.209,1.008 -0.125,0.784 -0.042,0.562 0,0.3 0,0"
       style="fill:#808080;fill-opacity:1;fill-rule:nonzero;stroke:none"
       transform="matrix(1.3333333,0,0,-1.3333333,610.332,665.19533)"
       clip-path="url(#clipPath147)" />
    <path
       id="path148"
       d="M 0,0 C -0.06,0.669 -0.229,1.156 -0.511,1.463 -0.792,1.769 -1.196,1.922 -1.724,1.922 -1.899,1.922 -2.085,1.894 -2.278,1.838 -2.471,1.781 -2.649,1.681 -2.813,1.536 -2.977,1.391 -3.115,1.194 -3.229,0.945 -3.343,0.698 -3.407,0.383 -3.422,0 Z m -3.434,-0.808 c 0,-0.333 0.035,-0.638 0.102,-0.919 0.068,-0.278 0.174,-0.518 0.316,-0.719 0.143,-0.2 0.326,-0.357 0.548,-0.469 0.223,-0.111 0.49,-0.167 0.803,-0.167 0.457,0 0.823,0.092 1.099,0.275 0.276,0.184 0.462,0.416 0.56,0.698 L 0.918,-2.372 C 0.853,-2.548 0.76,-2.725 0.641,-2.902 0.522,-3.08 0.362,-3.24 0.163,-3.384 c -0.199,-0.142 -0.448,-0.261 -0.746,-0.352 -0.299,-0.092 -0.66,-0.137 -1.082,-0.137 -0.938,0 -1.651,0.279 -2.142,0.838 -0.49,0.558 -0.735,1.389 -0.735,2.491 0,0.594 0.074,1.097 0.222,1.508 0.148,0.413 0.351,0.748 0.609,1.005 0.259,0.258 0.56,0.444 0.903,0.558 0.344,0.117 0.711,0.175 1.101,0.175 0.531,0 0.976,-0.086 1.334,-0.259 C -0.016,2.272 0.271,2.034 0.487,1.73 0.705,1.429 0.859,1.072 0.95,0.662 1.043,0.252 1.089,-0.191 1.089,-0.667 v -0.141 z"
       style="fill:#808080;fill-opacity:1;fill-rule:nonzero;stroke:none"
       transform="matrix(1.3333333,0,0,-1.3333333,617.80213,663.22787)"
       clip-path="url(#clipPath149)" />
    <path
       id="path150"
       d="m 0,0 c 0,-0.362 0.026,-0.696 0.079,-1.001 0.054,-0.306 0.144,-0.568 0.269,-0.79 0.125,-0.22 0.29,-0.391 0.495,-0.512 0.204,-0.121 0.458,-0.181 0.759,-0.181 0.375,0 0.688,0.101 0.939,0.303 0.253,0.204 0.408,0.517 0.467,0.94 L 4.073,-1.312 C 4.038,-1.573 3.962,-1.825 3.844,-2.068 3.728,-2.311 3.569,-2.523 3.368,-2.707 3.167,-2.89 2.921,-3.037 2.631,-3.15 2.343,-3.261 2.009,-3.316 1.63,-3.316 c -0.496,0 -0.918,0.083 -1.266,0.251 -0.347,0.169 -0.63,0.4 -0.847,0.695 -0.216,0.295 -0.373,0.642 -0.471,1.043 -0.098,0.401 -0.147,0.836 -0.147,1.305 0,0.424 0.036,0.8 0.106,1.126 0.07,0.327 0.169,0.612 0.296,0.855 0.128,0.245 0.277,0.451 0.448,0.617 0.173,0.166 0.359,0.299 0.559,0.398 0.201,0.1 0.413,0.172 0.635,0.217 0.224,0.045 0.45,0.068 0.675,0.068 C 1.974,3.259 2.29,3.21 2.567,3.112 2.845,3.015 3.084,2.881 3.285,2.711 3.486,2.541 3.649,2.341 3.774,2.109 3.899,1.88 3.988,1.631 4.039,1.365 L 2.953,1.284 C 2.899,1.636 2.761,1.914 2.537,2.121 2.314,2.328 1.999,2.432 1.589,2.432 1.288,2.432 1.038,2.382 0.837,2.282 0.636,2.184 0.473,2.033 0.348,1.832 0.223,1.631 0.133,1.378 0.079,1.072 0.026,0.768 0,0.41 0,0"
       style="fill:#808080;fill-opacity:1;fill-rule:nonzero;stroke:none"
       transform="matrix(1.3333333,0,0,-1.3333333,622.112,663.97)"
       clip-path="url(#clipPath151)" />
    <path
       id="path152"
       d="m 0,0 c -0.16,-0.043 -0.323,-0.077 -0.489,-0.102 -0.165,-0.026 -0.358,-0.039 -0.576,-0.039 -0.844,0 -1.266,0.479 -1.266,1.436 v 4.23 h -0.733 v 0.767 h 0.772 l 0.312,1.419 h 0.703 V 6.292 h 1.172 V 5.525 H -1.277 V 1.523 c 0,-0.304 0.049,-0.518 0.148,-0.642 0.1,-0.123 0.274,-0.184 0.52,-0.184 0.102,0 0.201,0.007 0.296,0.023 0.096,0.015 0.2,0.036 0.313,0.059 z"
       style="fill:#808080;fill-opacity:1;fill-rule:nonzero;stroke:none"
       transform="matrix(1.3333333,0,0,-1.3333333,632.29293,668.17187)"
       clip-path="url(#clipPath153)" />
    <path
       id="path154"
       d="m 475.11,81.163 h 1.056 v -6.339 h -1.056 z m 0,2.357 h 1.056 v -1.008 h -1.056 z"
       style="fill:#808080;fill-opacity:1;fill-rule:nonzero;stroke:none"
       transform="matrix(1.3333333,0,0,-1.3333333,0,768)"
       clip-path="url(#clipPath155)" />
    <path
       id="path156"
       d="m 0,0 c 0,0.492 -0.038,0.898 -0.114,1.219 -0.076,0.32 -0.188,0.575 -0.334,0.766 -0.146,0.192 -0.325,0.326 -0.536,0.402 -0.211,0.076 -0.45,0.114 -0.714,0.114 -0.271,0 -0.514,-0.04 -0.732,-0.12 C -2.646,2.301 -2.83,2.164 -2.983,1.971 -3.134,1.778 -3.25,1.521 -3.332,1.2 -3.412,0.88 -3.452,0.48 -3.452,0 c 0,-0.492 0.044,-0.9 0.13,-1.223 0.086,-0.322 0.204,-0.579 0.354,-0.77 0.152,-0.192 0.329,-0.326 0.534,-0.405 0.205,-0.078 0.428,-0.117 0.669,-0.117 0.271,0 0.515,0.038 0.734,0.115 0.219,0.076 0.404,0.21 0.556,0.401 0.154,0.191 0.27,0.449 0.351,0.772 C -0.041,-0.901 0,-0.492 0,0 m 1.108,0 c 0,-1.11 -0.244,-1.937 -0.733,-2.48 -0.488,-0.543 -1.197,-0.814 -2.126,-0.814 -0.441,0 -0.836,0.065 -1.186,0.198 -0.346,0.134 -0.64,0.338 -0.88,0.612 -0.241,0.273 -0.424,0.616 -0.551,1.027 -0.127,0.413 -0.19,0.898 -0.19,1.457 0,2.188 0.947,3.281 2.84,3.281 0.493,0 0.918,-0.068 1.276,-0.206 C -0.085,2.938 0.208,2.733 0.437,2.46 0.666,2.188 0.835,1.846 0.943,1.435 1.054,1.024 1.108,0.546 1.108,0"
       style="fill:#808080;fill-opacity:1;fill-rule:nonzero;stroke:none"
       transform="matrix(1.3333333,0,0,-1.3333333,642.7148,664)"
       clip-path="url(#clipPath157)" />
    <path
       id="path158"
       d="M 0,0 V 4.02 C 0,4.328 -0.022,4.586 -0.067,4.792 -0.112,5 -0.186,5.166 -0.287,5.293 -0.389,5.42 -0.521,5.51 -0.688,5.562 -0.854,5.615 -1.061,5.642 -1.307,5.642 -1.557,5.642 -1.782,5.598 -1.983,5.51 -2.186,5.423 -2.357,5.296 -2.499,5.13 -2.642,4.963 -2.753,4.758 -2.831,4.515 -2.909,4.271 -2.947,3.99 -2.947,3.673 V 0 h -1.054 v 4.985 c 0,0.134 -0.002,0.274 -0.004,0.42 -0.001,0.147 -0.005,0.284 -0.01,0.414 -0.004,0.132 -0.006,0.244 -0.01,0.338 -0.004,0.094 -0.008,0.155 -0.012,0.182 h 0.996 C -3.037,6.32 -3.034,6.268 -3.03,6.182 -3.025,6.095 -3.021,5.996 -3.015,5.885 -3.009,5.773 -3.004,5.661 -3,5.546 -2.996,5.431 -2.994,5.334 -2.994,5.255 h 0.018 c 0.102,0.183 0.212,0.35 0.334,0.499 0.121,0.148 0.262,0.274 0.422,0.377 0.159,0.103 0.343,0.183 0.549,0.24 0.208,0.058 0.448,0.086 0.722,0.086 0.351,0 0.654,-0.043 0.908,-0.129 C 0.213,6.241 0.421,6.108 0.585,5.929 0.75,5.75 0.87,5.519 0.947,5.234 1.023,4.952 1.062,4.615 1.062,4.224 V 0 Z"
       style="fill:#808080;fill-opacity:1;fill-rule:nonzero;stroke:none"
       transform="matrix(1.3333333,0,0,-1.3333333,651.30853,668.2344)"
       clip-path="url(#clipPath159)" />
    <path
       id="path160"
       d="m 0,0 c -0.469,0 -0.884,-0.078 -1.245,-0.234 -0.361,-0.157 -0.664,-0.379 -0.909,-0.667 -0.244,-0.289 -0.428,-0.637 -0.553,-1.043 -0.125,-0.407 -0.188,-0.858 -0.188,-1.354 0,-0.496 0.068,-0.951 0.203,-1.363 0.134,-0.411 0.328,-0.766 0.579,-1.064 0.253,-0.296 0.561,-0.526 0.926,-0.691 0.366,-0.164 0.777,-0.246 1.234,-0.246 0.32,0 0.612,0.042 0.876,0.126 0.264,0.085 0.502,0.203 0.714,0.354 0.214,0.153 0.404,0.333 0.572,0.542 0.169,0.21 0.317,0.442 0.446,0.696 L 3.568,-5.401 C 3.42,-5.711 3.235,-5.998 3.017,-6.265 2.798,-6.529 2.541,-6.76 2.246,-6.954 1.953,-7.149 1.619,-7.303 1.245,-7.416 0.873,-7.526 0.456,-7.582 -0.006,-7.582 c -0.667,0 -1.252,0.105 -1.755,0.318 -0.502,0.214 -0.922,0.511 -1.26,0.893 -0.337,0.381 -0.59,0.833 -0.759,1.355 -0.167,0.524 -0.251,1.097 -0.251,1.718 0,0.645 0.089,1.227 0.266,1.745 0.178,0.521 0.437,0.963 0.779,1.328 0.341,0.365 0.763,0.646 1.263,0.844 0.5,0.197 1.071,0.296 1.712,0.296 0.878,0 1.613,-0.172 2.203,-0.516 0.59,-0.343 1.024,-0.853 1.301,-1.53 L 2.432,-1.481 C 2.354,-1.286 2.248,-1.1 2.115,-0.923 1.982,-0.745 1.816,-0.588 1.616,-0.452 1.418,-0.314 1.185,-0.205 0.917,-0.124 0.649,-0.041 0.344,0 0,0"
       style="fill:#808080;fill-opacity:1;fill-rule:nonzero;stroke:none"
       transform="matrix(1.3333333,0,0,-1.3333333,664.39453,658.28253)"
       clip-path="url(#clipPath161)" />
    <path
       id="path162"
       d="M 0,0 C 0,-0.348 -0.067,-0.668 -0.202,-0.962 -0.337,-1.254 -0.546,-1.507 -0.827,-1.721 -1.108,-1.934 -1.462,-2.1 -1.89,-2.22 c -0.427,-0.119 -0.934,-0.177 -1.52,-0.177 -1.028,0 -1.828,0.179 -2.402,0.54 -0.574,0.359 -0.939,0.878 -1.095,1.557 l 1.084,0.218 c 0.054,-0.215 0.138,-0.411 0.251,-0.587 0.113,-0.175 0.266,-0.326 0.459,-0.454 0.194,-0.126 0.433,-0.225 0.718,-0.296 0.285,-0.07 0.627,-0.105 1.026,-0.105 0.332,0 0.638,0.028 0.915,0.085 0.277,0.057 0.516,0.144 0.714,0.26 0.199,0.117 0.354,0.269 0.466,0.453 0.11,0.187 0.166,0.409 0.166,0.666 0,0.27 -0.061,0.489 -0.184,0.657 -0.122,0.169 -0.295,0.307 -0.52,0.416 -0.221,0.11 -0.487,0.202 -0.796,0.275 -0.307,0.075 -0.649,0.155 -1.024,0.24 -0.231,0.052 -0.463,0.107 -0.695,0.167 -0.233,0.062 -0.455,0.134 -0.668,0.218 -0.212,0.083 -0.412,0.182 -0.6,0.294 -0.187,0.114 -0.35,0.25 -0.487,0.409 -0.137,0.158 -0.244,0.342 -0.323,0.551 -0.077,0.209 -0.116,0.45 -0.116,0.724 0,0.39 0.079,0.724 0.236,1.003 0.159,0.28 0.379,0.51 0.66,0.69 0.281,0.18 0.613,0.311 0.996,0.392 0.384,0.083 0.798,0.124 1.243,0.124 0.511,0 0.948,-0.04 1.311,-0.121 0.363,-0.08 0.67,-0.2 0.92,-0.361 0.25,-0.16 0.45,-0.358 0.6,-0.595 0.152,-0.236 0.272,-0.51 0.362,-0.823 L -1.296,4.007 c -0.054,0.2 -0.132,0.378 -0.236,0.534 -0.104,0.156 -0.239,0.287 -0.408,0.393 -0.168,0.104 -0.372,0.184 -0.612,0.24 -0.24,0.055 -0.521,0.082 -0.845,0.082 -0.384,0 -0.706,-0.034 -0.966,-0.104 C -4.622,5.084 -4.83,4.991 -4.989,4.873 -5.146,4.757 -5.26,4.619 -5.329,4.461 -5.397,4.304 -5.432,4.133 -5.432,3.949 -5.432,3.703 -5.37,3.5 -5.248,3.342 -5.124,3.184 -4.957,3.052 -4.745,2.946 -4.534,2.841 -4.29,2.753 -4.015,2.684 -3.736,2.613 -3.441,2.543 -3.129,2.472 -2.876,2.414 -2.622,2.354 -2.37,2.293 -2.117,2.233 -1.876,2.161 -1.646,2.076 -1.416,1.992 -1.2,1.894 -0.999,1.779 -0.798,1.667 -0.623,1.529 -0.475,1.365 -0.325,1.201 -0.209,1.008 -0.126,0.784 -0.042,0.562 0,0.3 0,0"
       style="fill:#808080;fill-opacity:1;fill-rule:nonzero;stroke:none"
       transform="matrix(1.3333333,0,0,-1.3333333,870.9492,665.19533)"
       clip-path="url(#clipPath163)" />
    <path
       id="path164"
       d="M 0,0 C -0.06,0.669 -0.229,1.156 -0.511,1.463 -0.792,1.769 -1.196,1.922 -1.724,1.922 -1.899,1.922 -2.085,1.894 -2.278,1.838 -2.471,1.781 -2.649,1.681 -2.813,1.536 -2.977,1.391 -3.115,1.194 -3.229,0.945 -3.343,0.698 -3.407,0.383 -3.422,0 Z m -3.434,-0.808 c 0,-0.333 0.035,-0.638 0.102,-0.919 0.068,-0.278 0.174,-0.518 0.316,-0.719 0.143,-0.2 0.326,-0.357 0.548,-0.469 0.223,-0.111 0.49,-0.167 0.803,-0.167 0.457,0 0.823,0.092 1.099,0.275 0.276,0.184 0.462,0.416 0.56,0.698 L 0.918,-2.372 C 0.853,-2.548 0.76,-2.725 0.641,-2.902 0.522,-3.08 0.362,-3.24 0.163,-3.384 c -0.199,-0.142 -0.448,-0.261 -0.747,-0.352 -0.298,-0.092 -0.659,-0.137 -1.081,-0.137 -0.938,0 -1.651,0.279 -2.142,0.838 -0.49,0.558 -0.735,1.389 -0.735,2.491 0,0.594 0.074,1.097 0.222,1.508 0.148,0.413 0.351,0.748 0.609,1.005 0.259,0.258 0.56,0.444 0.903,0.558 0.344,0.117 0.711,0.175 1.101,0.175 0.531,0 0.976,-0.086 1.334,-0.259 C -0.016,2.272 0.271,2.034 0.487,1.73 0.705,1.429 0.859,1.072 0.95,0.662 1.043,0.252 1.089,-0.191 1.089,-0.667 v -0.141 z"
       style="fill:#808080;fill-opacity:1;fill-rule:nonzero;stroke:none"
       transform="matrix(1.3333333,0,0,-1.3333333,878.41933,663.22787)"
       clip-path="url(#clipPath165)" />
    <path
       id="path166"
       d="m 0,0 c 0,-0.362 0.026,-0.696 0.079,-1.001 0.054,-0.306 0.144,-0.568 0.269,-0.79 0.125,-0.22 0.29,-0.391 0.494,-0.512 0.205,-0.121 0.459,-0.181 0.76,-0.181 0.375,0 0.688,0.101 0.939,0.303 0.253,0.204 0.408,0.517 0.467,0.94 L 4.073,-1.312 C 4.038,-1.573 3.962,-1.825 3.844,-2.068 3.728,-2.311 3.569,-2.523 3.368,-2.707 3.167,-2.89 2.921,-3.037 2.631,-3.15 2.342,-3.261 2.009,-3.316 1.63,-3.316 c -0.496,0 -0.918,0.083 -1.266,0.251 -0.347,0.169 -0.63,0.4 -0.847,0.695 -0.216,0.295 -0.373,0.642 -0.471,1.043 -0.098,0.401 -0.147,0.836 -0.147,1.305 0,0.424 0.036,0.8 0.106,1.126 0.07,0.327 0.169,0.612 0.296,0.855 0.128,0.245 0.277,0.451 0.448,0.617 0.173,0.166 0.358,0.299 0.559,0.398 0.201,0.1 0.413,0.172 0.635,0.217 0.224,0.045 0.45,0.068 0.675,0.068 C 1.974,3.259 2.29,3.21 2.567,3.112 2.845,3.015 3.084,2.881 3.285,2.711 3.486,2.541 3.649,2.341 3.774,2.109 3.899,1.88 3.988,1.631 4.039,1.365 L 2.953,1.284 C 2.899,1.636 2.761,1.914 2.537,2.121 2.314,2.328 1.998,2.432 1.589,2.432 1.288,2.432 1.038,2.382 0.837,2.282 0.636,2.184 0.473,2.033 0.348,1.832 0.223,1.631 0.133,1.378 0.079,1.072 0.026,0.768 0,0.41 0,0"
       style="fill:#808080;fill-opacity:1;fill-rule:nonzero;stroke:none"
       transform="matrix(1.3333333,0,0,-1.3333333,882.7292,663.97)"
       clip-path="url(#clipPath167)" />
    <path
       id="path168"
       d="m 0,0 c -0.16,-0.043 -0.323,-0.077 -0.489,-0.102 -0.165,-0.026 -0.358,-0.039 -0.576,-0.039 -0.844,0 -1.266,0.479 -1.266,1.436 v 4.23 h -0.733 v 0.767 h 0.772 l 0.312,1.419 h 0.703 V 6.292 h 1.172 V 5.525 H -1.277 V 1.523 c 0,-0.304 0.049,-0.518 0.148,-0.642 0.1,-0.123 0.273,-0.184 0.52,-0.184 0.102,0 0.201,0.007 0.296,0.023 0.096,0.015 0.2,0.036 0.313,0.059 z"
       style="fill:#808080;fill-opacity:1;fill-rule:nonzero;stroke:none"
       transform="matrix(1.3333333,0,0,-1.3333333,892.91013,668.17187)"
       clip-path="url(#clipPath169)" />
    <path
       id="path170"
       d="m 670.573,81.163 h 1.056 v -6.339 h -1.056 z m 0,2.357 h 1.056 v -1.008 h -1.056 z"
       style="fill:#808080;fill-opacity:1;fill-rule:nonzero;stroke:none"
       transform="matrix(1.3333333,0,0,-1.3333333,0,768)"
       clip-path="url(#clipPath171)" />
    <path
       id="path172"
       d="m 0,0 c 0,0.492 -0.038,0.898 -0.114,1.219 -0.076,0.32 -0.188,0.575 -0.334,0.766 -0.147,0.192 -0.325,0.326 -0.536,0.402 -0.211,0.076 -0.45,0.114 -0.714,0.114 -0.271,0 -0.514,-0.04 -0.732,-0.12 C -2.646,2.301 -2.83,2.164 -2.983,1.971 -3.134,1.778 -3.251,1.521 -3.332,1.2 -3.412,0.88 -3.452,0.48 -3.452,0 c 0,-0.492 0.044,-0.9 0.13,-1.223 0.086,-0.322 0.204,-0.579 0.354,-0.77 0.152,-0.192 0.329,-0.326 0.534,-0.405 0.205,-0.078 0.428,-0.117 0.669,-0.117 0.271,0 0.515,0.038 0.734,0.115 0.219,0.076 0.404,0.21 0.556,0.401 0.154,0.191 0.27,0.449 0.351,0.772 C -0.041,-0.901 0,-0.492 0,0 m 1.108,0 c 0,-1.11 -0.244,-1.937 -0.733,-2.48 -0.488,-0.543 -1.197,-0.814 -2.126,-0.814 -0.441,0 -0.836,0.065 -1.186,0.198 -0.346,0.134 -0.64,0.338 -0.88,0.612 -0.241,0.273 -0.424,0.616 -0.551,1.027 -0.127,0.413 -0.19,0.898 -0.19,1.457 0,2.188 0.947,3.281 2.84,3.281 0.493,0 0.918,-0.068 1.276,-0.206 C -0.085,2.938 0.208,2.733 0.437,2.46 0.666,2.188 0.835,1.846 0.943,1.435 1.054,1.024 1.108,0.546 1.108,0"
       style="fill:#808080;fill-opacity:1;fill-rule:nonzero;stroke:none"
       transform="matrix(1.3333333,0,0,-1.3333333,903.332,664)"
       clip-path="url(#clipPath173)" />
    <path
       id="path174"
       d="M 0,0 V 4.02 C 0,4.328 -0.022,4.586 -0.067,4.792 -0.112,5 -0.186,5.166 -0.287,5.293 -0.389,5.42 -0.522,5.51 -0.688,5.562 -0.854,5.615 -1.061,5.642 -1.307,5.642 -1.557,5.642 -1.782,5.598 -1.983,5.51 -2.186,5.423 -2.357,5.296 -2.499,5.13 -2.642,4.963 -2.753,4.758 -2.831,4.515 -2.909,4.271 -2.947,3.99 -2.947,3.673 V 0 h -1.054 v 4.985 c 0,0.134 -0.002,0.274 -0.004,0.42 -0.002,0.147 -0.005,0.284 -0.01,0.414 -0.004,0.132 -0.007,0.244 -0.01,0.338 -0.004,0.094 -0.008,0.155 -0.012,0.182 h 0.996 C -3.038,6.32 -3.034,6.268 -3.03,6.182 -3.025,6.095 -3.021,5.996 -3.015,5.885 -3.009,5.773 -3.004,5.661 -3,5.546 -2.996,5.431 -2.994,5.334 -2.994,5.255 h 0.018 c 0.102,0.183 0.212,0.35 0.334,0.499 0.121,0.148 0.262,0.274 0.422,0.377 0.159,0.103 0.343,0.183 0.549,0.24 0.208,0.058 0.448,0.086 0.722,0.086 0.351,0 0.654,-0.043 0.908,-0.129 C 0.212,6.241 0.421,6.108 0.585,5.929 0.75,5.75 0.87,5.519 0.946,5.234 1.023,4.952 1.062,4.615 1.062,4.224 V 0 Z"
       style="fill:#808080;fill-opacity:1;fill-rule:nonzero;stroke:none"
       transform="matrix(1.3333333,0,0,-1.3333333,911.92573,668.2344)"
       clip-path="url(#clipPath175)" />
    <path
       id="path176"
       d="m 0,0 c 0,0.559 -0.081,1.036 -0.242,1.433 -0.16,0.395 -0.384,0.72 -0.673,0.974 -0.289,0.254 -0.635,0.441 -1.037,0.559 -0.402,0.12 -0.844,0.18 -1.323,0.18 h -1.589 v -6.463 h 1.84 c 0.433,0 0.835,0.07 1.204,0.21 0.369,0.141 0.688,0.35 0.958,0.628 0.269,0.278 0.48,0.624 0.633,1.037 C -0.076,-1.028 0,-0.548 0,0 m 1.125,0 c 0,-0.687 -0.104,-1.295 -0.312,-1.821 -0.207,-0.525 -0.491,-0.964 -0.851,-1.318 -0.358,-0.352 -0.782,-0.62 -1.273,-0.802 -0.49,-0.182 -1.018,-0.272 -1.585,-0.272 h -3.087 v 8.255 h 2.73 c 0.637,0 1.224,-0.079 1.761,-0.238 C -0.955,3.646 -0.493,3.403 -0.107,3.073 0.28,2.743 0.582,2.323 0.799,1.814 1.016,1.308 1.125,0.702 1.125,0"
       style="fill:#808080;fill-opacity:1;fill-rule:nonzero;stroke:none"
       transform="matrix(1.3333333,0,0,-1.3333333,928.11453,662.6172)"
       clip-path="url(#clipPath177)" />
  </g>
</svg>
