<?xml version="1.0" encoding="UTF-8" standalone="no"?>
<!-- Created with Inkscape (http://www.inkscape.org/) -->

<svg
   version="1.1"
   id="svg1"
   width="384.33466"
   height="423.052"
   viewBox="0 0 384.33466 423.052"
   sodipodi:docname="sust.pdf"
   xmlns:inkscape="http://www.inkscape.org/namespaces/inkscape"
   xmlns:sodipodi="http://sodipodi.sourceforge.net/DTD/sodipodi-0.dtd"
   xmlns="http://www.w3.org/2000/svg"
   xmlns:svg="http://www.w3.org/2000/svg">
  <defs
     id="defs1">
    <clipPath
       clipPathUnits="userSpaceOnUse"
       id="clipPath2">
      <path
         d="M 0,317.289 H 288.251 V 0 H 0 Z"
         transform="translate(-89.182802,-248.05681)"
         id="path2" />
    </clipPath>
    <clipPath
       clipPathUnits="userSpaceOnUse"
       id="clipPath4">
      <path
         d="M 0,317.289 H 288.251 V 0 H 0 Z"
         transform="translate(-144.14961,-282.41231)"
         id="path4" />
    </clipPath>
    <clipPath
       clipPathUnits="userSpaceOnUse"
       id="clipPath6">
      <path
         d="M 0,317.289 H 288.251 V 0 H 0 Z"
         transform="translate(-248.16721,-146.9469)"
         id="path6" />
    </clipPath>
    <clipPath
       clipPathUnits="userSpaceOnUse"
       id="clipPath8">
      <path
         d="M 0,317.289 H 288.251 V 0 H 0 Z"
         transform="translate(-15.3181,-193.11741)"
         id="path8" />
    </clipPath>
    <clipPath
       clipPathUnits="userSpaceOnUse"
       id="clipPath10">
      <path
         d="M 0,317.289 H 288.251 V 0 H 0 Z"
         transform="translate(-74.052902,-260.36781)"
         id="path10" />
    </clipPath>
    <clipPath
       clipPathUnits="userSpaceOnUse"
       id="clipPath12">
      <path
         d="M 0,317.289 H 288.251 V 0 H 0 Z"
         transform="translate(-96.830305,-268.93471)"
         id="path12" />
    </clipPath>
    <clipPath
       clipPathUnits="userSpaceOnUse"
       id="clipPath14">
      <path
         d="M 0,317.289 H 288.251 V 0 H 0 Z"
         transform="translate(-123.2883,-286.15101)"
         id="path14" />
    </clipPath>
    <clipPath
       clipPathUnits="userSpaceOnUse"
       id="clipPath16">
      <path
         d="M 0,317.289 H 288.251 V 0 H 0 Z"
         transform="translate(-152.802,-302.33221)"
         id="path16" />
    </clipPath>
    <clipPath
       clipPathUnits="userSpaceOnUse"
       id="clipPath18">
      <path
         d="M 0,317.289 H 288.251 V 0 H 0 Z"
         transform="translate(-156.8713,-289.82441)"
         id="path18" />
    </clipPath>
    <clipPath
       clipPathUnits="userSpaceOnUse"
       id="clipPath20">
      <path
         d="M 0,317.289 H 288.251 V 0 H 0 Z"
         transform="translate(-178.22871,-286.67891)"
         id="path20" />
    </clipPath>
    <clipPath
       clipPathUnits="userSpaceOnUse"
       id="clipPath22">
      <path
         d="M 0,317.289 H 288.251 V 0 H 0 Z"
         transform="translate(-189.1408,-270.60031)"
         id="path22" />
    </clipPath>
    <clipPath
       clipPathUnits="userSpaceOnUse"
       id="clipPath24">
      <path
         d="M 0,317.289 H 288.251 V 0 H 0 Z"
         transform="translate(-209.7307,-263.61881)"
         id="path24" />
    </clipPath>
    <clipPath
       clipPathUnits="userSpaceOnUse"
       id="clipPath26">
      <path
         d="M 0,317.289 H 288.251 V 0 H 0 Z"
         transform="translate(-31.316601,-175.61541)"
         id="path26" />
    </clipPath>
    <clipPath
       clipPathUnits="userSpaceOnUse"
       id="clipPath28">
      <path
         d="M 0,317.289 H 288.251 V 0 H 0 Z"
         transform="translate(-15.801,-160.8913)"
         id="path28" />
    </clipPath>
    <clipPath
       clipPathUnits="userSpaceOnUse"
       id="clipPath30">
      <path
         d="M 0,317.289 H 288.251 V 0 H 0 Z"
         transform="translate(-18.6984,-129.22581)"
         id="path30" />
    </clipPath>
    <clipPath
       clipPathUnits="userSpaceOnUse"
       id="clipPath32">
      <path
         d="M 0,317.289 H 288.251 V 0 H 0 Z"
         transform="translate(-16.3264,-109.50021)"
         id="path32" />
    </clipPath>
    <clipPath
       clipPathUnits="userSpaceOnUse"
       id="clipPath34">
      <path
         d="M 0,317.289 H 288.251 V 0 H 0 Z"
         transform="translate(-34.631101,-93.1213)"
         id="path34" />
    </clipPath>
    <clipPath
       clipPathUnits="userSpaceOnUse"
       id="clipPath36">
      <path
         d="M 0,317.289 H 288.251 V 0 H 0 Z"
         transform="translate(-60.691601,-74.175002)"
         id="path36" />
    </clipPath>
    <clipPath
       clipPathUnits="userSpaceOnUse"
       id="clipPath38">
      <path
         d="M 0,317.289 H 288.251 V 0 H 0 Z"
         transform="translate(-91.5568,-70.420104)"
         id="path38" />
    </clipPath>
    <clipPath
       clipPathUnits="userSpaceOnUse"
       id="clipPath40">
      <path
         d="M 0,317.289 H 288.251 V 0 H 0 Z"
         transform="translate(-117.757,-67.162299)"
         id="path40" />
    </clipPath>
    <clipPath
       clipPathUnits="userSpaceOnUse"
       id="clipPath42">
      <path
         d="M 0,317.289 H 288.251 V 0 H 0 Z"
         transform="translate(-120.96411,-54.731604)"
         id="path42" />
    </clipPath>
    <clipPath
       clipPathUnits="userSpaceOnUse"
       id="clipPath44">
      <path
         d="M 0,317.289 H 288.251 V 0 H 0 Z"
         transform="translate(-133.28541,-71.550902)"
         id="path44" />
    </clipPath>
    <clipPath
       clipPathUnits="userSpaceOnUse"
       id="clipPath46">
      <path
         d="M 0,317.289 H 288.251 V 0 H 0 Z"
         transform="translate(-155.1867,-63.677904)"
         id="path46" />
    </clipPath>
    <clipPath
       clipPathUnits="userSpaceOnUse"
       id="clipPath48">
      <path
         d="M 0,317.289 H 288.251 V 0 H 0 Z"
         transform="translate(-185.5002,-71.550902)"
         id="path48" />
    </clipPath>
    <clipPath
       clipPathUnits="userSpaceOnUse"
       id="clipPath50">
      <path
         d="M 0,317.289 H 288.251 V 0 H 0 Z"
         transform="translate(-204.3859,-61.158399)"
         id="path50" />
    </clipPath>
    <clipPath
       clipPathUnits="userSpaceOnUse"
       id="clipPath52">
      <path
         d="M 0,317.289 H 288.251 V 0 H 0 Z"
         transform="translate(-227.2063,-69.893702)"
         id="path52" />
    </clipPath>
    <clipPath
       clipPathUnits="userSpaceOnUse"
       id="clipPath54">
      <path
         d="M 0,317.289 H 288.251 V 0 H 0 Z"
         transform="translate(-234.90741,-85.727702)"
         id="path54" />
    </clipPath>
    <clipPath
       clipPathUnits="userSpaceOnUse"
       id="clipPath56">
      <path
         d="M 0,317.289 H 288.251 V 0 H 0 Z"
         transform="translate(-255.802,-89.631002)"
         id="path56" />
    </clipPath>
    <clipPath
       clipPathUnits="userSpaceOnUse"
       id="clipPath58">
      <path
         d="M 0,317.289 H 288.251 V 0 H 0 Z"
         transform="translate(-262.8166,-100.0842)"
         id="path58" />
    </clipPath>
    <clipPath
       clipPathUnits="userSpaceOnUse"
       id="clipPath60">
      <path
         d="M 0,317.289 H 288.251 V 0 H 0 Z"
         transform="translate(-272.884,-116.90451)"
         id="path60" />
    </clipPath>
    <clipPath
       clipPathUnits="userSpaceOnUse"
       id="clipPath62">
      <path
         d="M 0,317.289 H 288.251 V 0 H 0 Z"
         transform="translate(-277.48461,-129.96891)"
         id="path62" />
    </clipPath>
    <clipPath
       clipPathUnits="userSpaceOnUse"
       id="clipPath64">
      <path
         d="M 0,317.289 H 288.251 V 0 H 0 Z"
         transform="translate(-270.17301,-149.0563)"
         id="path64" />
    </clipPath>
    <clipPath
       clipPathUnits="userSpaceOnUse"
       id="clipPath66">
      <path
         d="M 0,317.289 H 288.251 V 0 H 0 Z"
         transform="translate(-272.52261,-170.2209)"
         id="path66" />
    </clipPath>
    <clipPath
       clipPathUnits="userSpaceOnUse"
       id="clipPath68">
      <path
         d="M 0,317.289 H 288.251 V 0 H 0 Z"
         transform="translate(-36.364001,-227.902)"
         id="path68" />
    </clipPath>
    <clipPath
       clipPathUnits="userSpaceOnUse"
       id="clipPath70">
      <path
         d="M 0,317.289 H 288.251 V 0 H 0 Z"
         transform="translate(-251.87031,-227.902)"
         id="path70" />
    </clipPath>
    <clipPath
       clipPathUnits="userSpaceOnUse"
       id="clipPath72">
      <path
         d="M 0,317.289 H 288.251 V 0 H 0 Z"
         transform="translate(-143.7268,-182.3454)"
         id="path72" />
    </clipPath>
    <clipPath
       clipPathUnits="userSpaceOnUse"
       id="clipPath74">
      <path
         d="M 0,317.289 H 288.251 V 0 H 0 Z"
         transform="translate(-126.0022,-205.42941)"
         id="path74" />
    </clipPath>
    <clipPath
       clipPathUnits="userSpaceOnUse"
       id="clipPath76">
      <path
         d="M 0,317.289 H 288.251 V 0 H 0 Z"
         transform="translate(-161.4523,-205.42941)"
         id="path76" />
    </clipPath>
    <clipPath
       clipPathUnits="userSpaceOnUse"
       id="clipPath78">
      <path
         d="M 0,317.289 H 288.251 V 0 H 0 Z"
         transform="translate(-62.193602,-135.6291)"
         id="path78" />
    </clipPath>
    <clipPath
       clipPathUnits="userSpaceOnUse"
       id="clipPath80">
      <path
         d="M 0,317.289 H 288.251 V 0 H 0 Z"
         transform="translate(-144.09981,-87.728702)"
         id="path80" />
    </clipPath>
    <clipPath
       clipPathUnits="userSpaceOnUse"
       id="clipPath82">
      <path
         d="M 0,317.289 H 288.251 V 0 H 0 Z"
         transform="translate(-144.09981,-87.728702)"
         id="path82" />
    </clipPath>
    <clipPath
       clipPathUnits="userSpaceOnUse"
       id="clipPath84">
      <path
         d="M 0,317.289 H 288.251 V 0 H 0 Z"
         transform="translate(-144.09981,-87.728702)"
         id="path84" />
    </clipPath>
    <clipPath
       clipPathUnits="userSpaceOnUse"
       id="clipPath86">
      <path
         d="M 0,317.289 H 288.251 V 0 H 0 Z"
         transform="translate(-139.8088,-113.3049)"
         id="path86" />
    </clipPath>
    <clipPath
       clipPathUnits="userSpaceOnUse"
       id="clipPath88">
      <path
         d="M 0,317.289 H 288.251 V 0 H 0 Z"
         transform="translate(-139.8078,-106.0705)"
         id="path88" />
    </clipPath>
    <clipPath
       clipPathUnits="userSpaceOnUse"
       id="clipPath90">
      <path
         d="M 0,317.289 H 288.251 V 0 H 0 Z"
         transform="translate(-139.8078,-98.592902)"
         id="path90" />
    </clipPath>
    <clipPath
       clipPathUnits="userSpaceOnUse"
       id="clipPath92">
      <path
         d="M 0,317.289 H 288.251 V 0 H 0 Z"
         transform="translate(-144.4572,-119.10081)"
         id="path92" />
    </clipPath>
    <clipPath
       clipPathUnits="userSpaceOnUse"
       id="clipPath94">
      <path
         d="M 0,317.289 H 288.251 V 0 H 0 Z"
         transform="translate(-144.09981,-87.728702)"
         id="path94" />
    </clipPath>
    <clipPath
       clipPathUnits="userSpaceOnUse"
       id="clipPath96">
      <path
         d="M 0,317.289 H 288.251 V 0 H 0 Z"
         transform="translate(-144.09981,-87.728702)"
         id="path96" />
    </clipPath>
    <clipPath
       clipPathUnits="userSpaceOnUse"
       id="clipPath98">
      <path
         d="M 0,317.289 H 288.251 V 0 H 0 Z"
         transform="translate(-144.09981,-87.728702)"
         id="path98" />
    </clipPath>
    <clipPath
       clipPathUnits="userSpaceOnUse"
       id="clipPath100">
      <path
         d="M 0,317.289 H 288.251 V 0 H 0 Z"
         transform="translate(-148.38981,-113.3049)"
         id="path100" />
    </clipPath>
    <clipPath
       clipPathUnits="userSpaceOnUse"
       id="clipPath102">
      <path
         d="M 0,317.289 H 288.251 V 0 H 0 Z"
         transform="translate(-148.3908,-106.0705)"
         id="path102" />
    </clipPath>
    <clipPath
       clipPathUnits="userSpaceOnUse"
       id="clipPath104">
      <path
         d="M 0,317.289 H 288.251 V 0 H 0 Z"
         transform="translate(-148.3908,-98.592902)"
         id="path104" />
    </clipPath>
    <clipPath
       clipPathUnits="userSpaceOnUse"
       id="clipPath106">
      <path
         d="M 0,317.289 H 288.251 V 0 H 0 Z"
         transform="translate(-222.06861,-158.8356)"
         id="path106" />
    </clipPath>
    <clipPath
       clipPathUnits="userSpaceOnUse"
       id="clipPath108">
      <path
         d="M 0,317.289 H 288.251 V 0 H 0 Z"
         transform="translate(-221.9182,-158.6569)"
         id="path108" />
    </clipPath>
    <clipPath
       clipPathUnits="userSpaceOnUse"
       id="clipPath110">
      <path
         d="M 0,317.289 H 288.251 V 0 H 0 Z"
         transform="translate(-100.0119,-12.0363)"
         id="path110" />
    </clipPath>
    <clipPath
       clipPathUnits="userSpaceOnUse"
       id="clipPath112">
      <path
         d="M 0,317.289 H 288.251 V 0 H 0 Z"
         transform="translate(-185.79021,-23.355601)"
         id="path112" />
    </clipPath>
    <clipPath
       clipPathUnits="userSpaceOnUse"
       id="clipPath114">
      <path
         d="M 0,317.289 H 288.251 V 0 H 0 Z"
         transform="translate(-171.20721,-38.109503)"
         id="path114" />
    </clipPath>
    <clipPath
       clipPathUnits="userSpaceOnUse"
       id="clipPath116">
      <path
         d="M 0,317.289 H 288.251 V 0 H 0 Z"
         transform="translate(-113.55,-38.109503)"
         id="path116" />
    </clipPath>
  </defs>
  <sodipodi:namedview
     id="namedview1"
     pagecolor="#ffffff"
     bordercolor="#000000"
     borderopacity="0.25"
     inkscape:showpageshadow="2"
     inkscape:pageopacity="0.0"
     inkscape:pagecheckerboard="0"
     inkscape:deskcolor="#d1d1d1">
    <inkscape:page
       x="0"
       y="0"
       inkscape:label="1"
       id="page1"
       width="384.33466"
       height="423.052"
       margin="0 0 0 0.00024414"
       bleed="0" />
  </sodipodi:namedview>
  <g
     id="layer-MC0"
     inkscape:groupmode="layer"
     inkscape:label="Layer 1">
    <path
       id="path1"
       d="m 0,0 c 12.516,11.842 27.277,22.109 44.073,30.67 6.8,3.466 14.851,3.508 21.653,0.045 17.437,-8.879 32.685,-19.596 45.513,-32.009 12.263,-11.866 22.422,-25.366 30.274,-40.213 0.765,-1.449 2.266,-2.358 3.906,-2.358 h 30.756 c 3.195,0 5.321,3.319 3.969,6.213 -0.01,0.021 -0.021,0.042 -0.031,0.063 -10.382,22.189 -24.67,42.171 -42.467,59.393 -16.458,15.924 -36.115,29.603 -58.426,40.66 -7.519,3.726 -15.923,5.695 -24.303,5.695 -8.338,0 -16.687,-1.951 -24.145,-5.642 -21.596,-10.69 -40.72,-23.844 -56.839,-39.096 -17.707,-16.753 -32.05,-36.204 -42.63,-57.812 -0.52,-1.063 -1.03,-2.13 -1.531,-3.201 -1.365,-2.923 0.786,-6.273 4.011,-6.273 h 30.686 c 1.637,0 3.138,0.907 3.904,2.356 C -23.488,-26.12 -12.866,-12.174 0,0"
       style="fill:#fff200;fill-opacity:1;fill-rule:nonzero;stroke:none"
       transform="matrix(1.3333333,0,0,-1.3333333,118.9104,92.3096)"
       clip-path="url(#clipPath2)" />
    <path
       id="path3"
       d="m 0,0 c 3.869,0 7.73,-0.895 11.246,-2.685 17.51,-8.916 32.91,-19.747 45.773,-32.193 12.322,-11.924 22.576,-25.544 30.475,-40.483 0.583,-1.102 1.716,-1.786 2.958,-1.786 h 30.756 c 1.136,0 2.179,0.572 2.789,1.531 0.616,0.968 0.692,2.118 0.208,3.155 -10.356,22.132 -24.569,42.008 -42.272,59.138 C 65.556,2.523 45.989,16.139 23.776,27.147 16.405,30.8 8.167,32.73 -0.05,32.73 -8.223,32.73 -16.407,30.818 -23.719,27.2 -45.22,16.557 -64.255,3.465 -80.297,-11.713 -97.91,-28.378 -112.176,-47.726 -122.7,-69.218 c -0.517,-1.057 -1.025,-2.119 -1.522,-3.184 -0.49,-1.049 -0.414,-2.212 0.21,-3.192 0.619,-0.973 1.677,-1.553 2.828,-1.553 h 30.686 c 1.241,0 2.374,0.683 2.956,1.784 8.191,15.489 18.902,29.548 31.838,41.787 12.549,11.874 27.462,22.252 44.323,30.847 C -7.812,-0.91 -3.902,0 0,0 M 121.208,-79.293 H 90.452 c -2.04,0 -3.9,1.122 -4.854,2.929 -7.795,14.738 -17.912,28.177 -30.072,39.944 -12.709,12.297 -27.934,23.004 -45.255,31.823 -6.449,3.285 -14.179,3.268 -20.677,-0.045 -16.679,-8.501 -31.423,-18.76 -43.823,-30.493 -12.765,-12.077 -23.334,-25.95 -31.417,-41.231 -0.954,-1.806 -2.813,-2.927 -4.852,-2.927 h -30.686 c -1.889,0 -3.623,0.952 -4.638,2.547 -1.011,1.587 -1.139,3.551 -0.345,5.252 0.504,1.077 1.017,2.15 1.54,3.219 10.636,21.724 25.055,41.279 42.856,58.12 16.197,15.325 35.408,28.54 57.101,39.278 7.605,3.764 16.118,5.753 24.62,5.753 8.545,0 17.113,-2.007 24.779,-5.806 22.412,-11.106 42.16,-24.85 58.696,-40.851 17.891,-17.312 32.256,-37.401 42.693,-59.709 0.82,-1.753 0.693,-3.702 -0.31,-5.278 -1.007,-1.582 -2.726,-2.525 -4.6,-2.525"
       style="fill:#231f20;fill-opacity:1;fill-rule:nonzero;stroke:none"
       transform="matrix(1.3333333,0,0,-1.3333333,192.19947,46.502267)"
       clip-path="url(#clipPath4)" />
    <path
       id="path5"
       d="M 0,0 C 0,-15.775 -6.144,-30.606 -17.298,-41.761 -28.453,-52.917 -43.284,-59.059 -59.06,-59.059 h -89.962 c -15.776,0 -30.607,6.142 -41.762,17.298 -11.11,11.109 -17.248,25.867 -17.298,41.571 0.035,1.234 0.675,18.73 9.226,41.474 1.083,2.883 -1.062,5.959 -4.142,5.959 h -29.851 c -1.88,0 -3.558,-1.186 -4.174,-2.962 -2.919,-8.41 -5.268,-16.989 -7.017,-25.675 -2.558,-12.704 -2.973,-21.521 -3.04,-23.92 l -0.014,-0.528 0.002,-0.528 c 0.08,-25.539 10.071,-49.549 28.131,-67.61 18.141,-18.142 42.261,-28.133 67.917,-28.133 h 94.006 c 25.655,0 49.775,9.991 67.917,28.133 18.141,18.142 28.132,42.262 28.132,67.917 0,0.258 -0.142,21.674 -10.071,50.331 -0.617,1.779 -2.294,2.975 -4.177,2.975 H -5.081 c -3.094,0 -5.219,-3.093 -4.13,-5.989 C -0.45,17.952 0,0.196 0,0"
       style="fill:#231f20;fill-opacity:1;fill-rule:nonzero;stroke:none"
       transform="matrix(1.3333333,0,0,-1.3333333,330.8896,227.1228)"
       clip-path="url(#clipPath6)" />
    <path
       id="path7"
       d="m 0,0 c -1.425,0 -2.695,-0.901 -3.16,-2.241 -2.903,-8.366 -5.252,-16.957 -6.979,-25.535 -2.541,-12.619 -2.953,-21.36 -3.019,-23.738 l -0.014,-0.528 0.002,-0.494 c 0.079,-25.253 9.958,-48.996 27.817,-66.856 17.938,-17.939 41.789,-27.818 67.158,-27.818 h 94.006 c 25.368,0 49.219,9.879 67.158,27.818 17.939,17.939 27.818,41.789 27.818,67.159 0,0.211 -0.137,21.479 -10.011,49.979 C 260.308,-0.906 259.037,0 257.612,0 h -29.844 c -1.112,0 -2.112,-0.524 -2.745,-1.437 -0.637,-0.92 -0.775,-2.051 -0.381,-3.101 8.881,-23.622 9.28,-41.463 9.28,-41.632 0,-16.061 -6.255,-31.162 -17.612,-42.52 -11.357,-11.358 -26.458,-17.613 -42.52,-17.613 H 83.827 c -16.063,0 -31.163,6.255 -42.521,17.613 -11.306,11.306 -17.561,26.338 -17.611,42.326 0.021,0.787 0.611,18.76 9.294,41.855 0.388,1.035 0.249,2.153 -0.383,3.065 C 31.971,-0.527 30.967,0 29.852,0 Z M 175.811,-149.356 H 81.805 c -25.942,0 -50.332,10.102 -68.676,28.447 -18.262,18.263 -28.364,42.542 -28.445,68.366 l -0.002,0.526 0.015,0.562 c 0.067,2.422 0.486,11.317 3.06,24.103 1.746,8.672 4.12,17.357 7.056,25.815 0.764,2.203 2.849,3.683 5.187,3.683 h 29.852 c 1.802,0 3.491,-0.886 4.519,-2.369 1.023,-1.477 1.257,-3.361 0.627,-5.041 -8.558,-22.762 -9.137,-40.387 -9.158,-41.126 0.049,-15.384 6.08,-29.88 16.984,-40.783 10.952,-10.952 25.513,-16.983 41.003,-16.983 h 89.963 c 15.489,0 30.05,6.031 41.002,16.983 10.951,10.951 16.982,25.511 16.984,40.995 -0.006,0.287 -0.52,17.95 -9.142,40.885 -0.637,1.693 -0.404,3.592 0.624,5.077 1.025,1.479 2.71,2.362 4.51,2.362 h 29.844 c 2.339,0 4.425,-1.486 5.191,-3.697 10.014,-28.902 10.13,-50.468 10.13,-50.682 0,-25.943 -10.102,-50.332 -28.446,-68.676 -18.345,-18.345 -42.735,-28.447 -68.676,-28.447"
       style="fill:#231f20;fill-opacity:1;fill-rule:nonzero;stroke:none"
       transform="matrix(1.3333333,0,0,-1.3333333,20.424133,165.56213)"
       clip-path="url(#clipPath8)" />
    <path
       id="path9"
       d="m 0,0 c 0.377,-0.055 0.765,-0.031 1.161,0.071 0.397,0.102 0.78,0.246 1.151,0.432 0.37,0.186 0.715,0.394 1.036,0.624 0.317,0.231 0.6,0.442 0.833,0.651 0.381,0.339 0.708,0.705 0.984,1.102 0.276,0.396 0.486,0.784 0.631,1.165 0.143,0.382 0.218,0.73 0.218,1.05 C 6.013,5.416 5.925,5.679 5.748,5.883 5.531,6.133 5.2,6.269 4.753,6.289 4.303,6.312 3.785,6.244 3.182,6.104 2.58,5.96 1.921,5.755 1.202,5.486 0.843,5.351 0.477,5.212 0.107,5.062 -0.258,4.907 -0.629,4.748 -1.006,4.587 c 0.075,0.214 0.177,0.481 0.304,0.801 0.125,0.321 0.267,0.645 0.428,0.97 0.158,0.327 0.334,0.64 0.527,0.94 0.193,0.3 0.395,0.545 0.607,0.733 C 1.203,8.336 1.687,8.579 2.313,8.753 2.944,8.92 3.667,9.035 4.479,9.096 5.291,9.156 6.166,9.167 7.102,9.125 8.044,9.075 9.009,8.99 9.988,8.874 l 5.158,-6.277 c 0.799,0.656 1.595,1.316 2.413,1.951 L 9.278,14.957 c 1.102,0.867 2.194,1.745 3.316,2.582 l -0.883,1.157 C 10.701,17.941 9.714,17.155 8.725,16.373 L 7.241,15.198 5.778,13.996 7.827,11.503 C 7.212,11.537 6.569,11.551 5.899,11.546 5.227,11.545 4.564,11.473 3.899,11.348 3.234,11.222 2.581,11.026 1.94,10.76 1.62,10.627 1.311,10.467 1.011,10.281 0.714,10.091 0.429,9.873 0.154,9.628 -0.293,9.23 -0.706,8.772 -1.083,8.255 -1.459,7.738 -1.81,7.205 -2.116,6.635 -2.426,6.068 -2.706,5.508 -2.955,4.953 -3.205,4.396 -3.428,3.889 -3.623,3.429 -4.209,3.166 -4.799,2.892 -5.391,2.61 -5.983,2.327 -6.576,2.008 -7.168,1.653 -7.76,1.297 -8.349,0.896 -8.932,0.451 c -0.583,-0.445 -1.155,-0.955 -1.714,-1.53 l -1.358,-1.409 1.053,-1.005 1.376,1.428 c 0.432,0.445 0.891,0.842 1.371,1.192 0.482,0.349 0.943,0.65 1.386,0.902 0.441,0.253 0.845,0.461 1.212,0.626 0.365,0.164 0.648,0.287 0.847,0.37 -0.223,-0.521 -0.485,-1.096 -0.781,-1.728 -0.297,-0.632 -0.551,-1.251 -0.762,-1.858 -0.212,-0.606 -0.337,-1.168 -0.38,-1.682 -0.041,-0.515 0.083,-0.912 0.372,-1.193 0.218,-0.211 0.496,-0.325 0.833,-0.342 0.338,-0.018 0.701,0.039 1.089,0.171 0.389,0.13 0.784,0.327 1.189,0.587 0.404,0.26 0.776,0.56 1.12,0.898 0.213,0.211 0.437,0.466 0.673,0.767 0.236,0.299 0.455,0.626 0.656,0.981 0.202,0.355 0.365,0.728 0.492,1.117 0.127,0.388 0.182,0.783 0.171,1.176 z"
       style="fill:#231f20;fill-opacity:1;fill-rule:nonzero;stroke:none"
       transform="matrix(1.3333333,0,0,-1.3333333,98.7372,75.894933)"
       clip-path="url(#clipPath10)" />
    <path
       id="path11"
       d="m 0,0 2.511,1.831 -6.888,9.577 c -0.119,0.166 -0.162,0.373 -0.127,0.624 0.034,0.25 0.137,0.522 0.311,0.811 0.172,0.29 0.403,0.585 0.693,0.885 0.29,0.3 0.634,0.589 1.03,0.867 l 0.677,0.475 -0.826,1.197 -1.887,-1.323 c -0.63,-0.44 -1.26,-0.88 -1.878,-1.338 -0.306,-0.223 -0.507,-0.471 -0.601,-0.744 -0.094,-0.273 -0.067,-0.51 0.081,-0.713 l 0.047,-0.064 c -0.411,-0.079 -0.835,-0.202 -1.273,-0.371 -0.44,-0.167 -0.865,-0.36 -1.276,-0.58 -0.412,-0.218 -0.798,-0.444 -1.156,-0.678 -0.358,-0.234 -0.667,-0.45 -0.925,-0.647 l -0.713,-0.541 0.89,-1.15 0.707,0.537 c 0.387,0.293 0.767,0.532 1.142,0.717 0.375,0.185 0.722,0.312 1.04,0.379 0.318,0.068 0.599,0.08 0.841,0.036 0.242,-0.045 0.426,-0.152 0.548,-0.316 z"
       style="fill:#231f20;fill-opacity:1;fill-rule:nonzero;stroke:none"
       transform="matrix(1.3333333,0,0,-1.3333333,129.10707,64.4724)"
       clip-path="url(#clipPath12)" />
    <path
       id="path13"
       d="m 0,0 c -0.761,0.128 -1.614,0.16 -2.575,0.12 -0.958,-0.048 -1.984,-0.141 -3.044,-0.338 -1.064,-0.192 -2.159,-0.441 -3.285,-0.748 -1.119,-0.321 -2.221,-0.685 -3.311,-1.08 l -0.031,0.05 c 0.717,0.59 1.425,1.222 2.126,1.897 0.7,0.676 1.317,1.326 1.83,1.989 0.514,0.659 0.883,1.292 1.104,1.898 0.224,0.602 0.213,1.128 -0.042,1.583 -0.185,0.335 -0.477,0.575 -0.877,0.72 -0.401,0.148 -0.871,0.207 -1.419,0.195 -0.549,-0.014 -1.151,-0.098 -1.806,-0.253 -0.653,-0.158 -1.336,-0.347 -2.026,-0.606 -0.693,-0.256 -1.392,-0.554 -2.098,-0.895 -0.706,-0.341 -1.379,-0.694 -2.004,-1.081 -0.064,0.029 -0.156,0.077 -0.275,0.143 -0.12,0.066 -0.246,0.131 -0.38,0.195 -0.134,0.065 -0.257,0.124 -0.369,0.179 -0.114,0.053 -0.197,0.087 -0.251,0.099 4.145,2.563 8.366,4.996 12.65,7.303 l -0.688,1.281 c -4.036,-2.175 -8.018,-4.459 -11.937,-6.854 -3.922,-2.391 -7.76,-4.928 -11.533,-7.562 l 0.834,-1.192 c 0.631,0.438 1.255,0.888 1.891,1.316 l 1.912,1.287 c 1.266,0.869 2.565,1.686 3.851,2.524 0.107,-0.017 0.237,-0.053 0.392,-0.107 0.153,-0.053 0.31,-0.113 0.47,-0.178 0.161,-0.067 0.312,-0.13 0.454,-0.19 0.142,-0.061 0.248,-0.109 0.317,-0.144 -0.4,-0.342 -0.762,-0.698 -1.09,-1.063 -0.328,-0.365 -0.595,-0.719 -0.802,-1.061 -0.205,-0.341 -0.338,-0.661 -0.396,-0.958 -0.06,-0.298 -0.02,-0.551 0.119,-0.76 0.098,-0.149 0.238,-0.26 0.421,-0.334 0.183,-0.075 0.403,-0.103 0.66,-0.086 0.256,0.016 0.545,0.086 0.866,0.207 0.321,0.121 0.664,0.3 1.029,0.535 0.376,0.241 0.751,0.541 1.137,0.878 0.386,0.337 0.735,0.697 1.047,1.081 0.311,0.384 0.567,0.779 0.769,1.183 0.2,0.405 0.304,0.792 0.312,1.161 0.053,0.041 0.096,0.072 0.13,0.093 0.034,0.02 0.073,0.044 0.119,0.072 0.433,0.258 0.945,0.52 1.535,0.784 0.591,0.264 1.168,0.472 1.732,0.624 0.56,0.155 1.077,0.214 1.535,0.201 0.458,-0.015 0.768,-0.163 0.929,-0.443 0.141,-0.246 0.134,-0.55 -0.019,-0.912 -0.153,-0.363 -0.41,-0.749 -0.758,-1.175 -0.348,-0.427 -0.772,-0.87 -1.272,-1.33 -0.499,-0.459 -1.033,-0.912 -1.6,-1.358 -0.56,-0.457 -1.132,-0.894 -1.715,-1.31 -0.582,-0.418 -1.134,-0.786 -1.651,-1.111 -0.295,-0.191 -0.626,-0.397 -0.993,-0.619 -0.367,-0.222 -0.664,-0.398 -0.89,-0.529 -0.244,-0.125 -0.509,-0.261 -0.794,-0.407 -0.285,-0.147 -0.57,-0.294 -0.848,-0.451 -0.277,-0.16 -0.542,-0.313 -0.796,-0.46 -0.255,-0.147 -0.481,-0.283 -0.679,-0.408 l 0.654,-1.529 c 0.669,0.406 1.339,0.799 2.019,1.164 0.683,0.36 1.369,0.702 2.058,1.026 1.373,0.658 2.741,1.2 4.065,1.685 1.32,0.492 2.617,0.867 3.845,1.195 1.225,0.331 2.373,0.563 3.419,0.738 1.048,0.17 1.971,0.293 2.797,0.324 0.823,0.037 1.484,0.017 1.988,-0.059 C -0.828,-1.243 -0.42,-0.615 0,0"
       style="fill:#231f20;fill-opacity:1;fill-rule:nonzero;stroke:none"
       transform="matrix(1.3333333,0,0,-1.3333333,164.3844,41.517333)"
       clip-path="url(#clipPath14)" />
    <path
       id="path15"
       d="M 0,0 C -0.578,0.137 -1.227,0.292 -1.947,0.463 -2.67,0.64 -3.427,0.824 -4.219,1.018 -5.014,1.214 -5.773,1.423 -6.501,1.658 -6.865,1.771 -7.211,1.899 -7.539,2.032 -7.867,2.16 -8.178,2.3 -8.471,2.453 -9.057,2.754 -9.489,3.102 -9.763,3.529 -4.203,3.657 1.331,2.739 6.528,0.841 L 7.026,2.208 C 3.236,3.593 -0.726,4.465 -4.75,4.826 -8.777,5.172 -12.872,4.989 -16.836,4.261 -20.807,3.537 -24.683,2.301 -28.345,0.547 l -0.342,-0.164 -0.323,-0.158 -0.573,-0.289 -1.145,-0.579 c -0.761,-0.387 -1.527,-0.767 -2.287,-1.162 l -2.27,-1.197 c -0.757,-0.397 -1.514,-0.798 -2.262,-1.215 l 0.696,-1.278 c 1.162,0.651 2.347,1.254 3.521,1.879 1.173,0.63 2.363,1.22 3.549,1.822 l 0.89,0.449 0.445,0.225 0.228,0.115 0.26,0.124 c 0.69,0.338 1.391,0.65 2.096,0.951 1.411,0.598 2.854,1.114 4.317,1.558 -0.254,-0.225 -0.487,-0.449 -0.7,-0.671 -0.211,-0.228 -0.401,-0.457 -0.572,-0.682 -0.344,-0.446 -0.602,-0.902 -0.786,-1.346 -0.37,-0.884 -0.38,-1.693 -0.094,-2.4 0.205,-0.508 0.547,-0.918 1.011,-1.241 0.468,-0.332 1.014,-0.551 1.644,-0.698 0.316,-0.074 0.645,-0.12 0.99,-0.149 0.348,-0.034 0.708,-0.041 1.087,-0.029 0.759,0.013 1.553,0.129 2.405,0.315 1.024,0.232 2.064,0.55 3.151,0.961 1.087,0.412 2.128,0.947 3.162,1.606 0.372,-0.338 0.639,-0.695 0.807,-1.064 0.168,-0.367 0.251,-0.719 0.255,-1.055 0.007,-0.548 -0.178,-1.046 -0.536,-1.498 -0.357,-0.466 -0.827,-0.853 -1.403,-1.216 -0.288,-0.174 -0.598,-0.343 -0.928,-0.5 -0.331,-0.149 -0.681,-0.302 -1.054,-0.435 -0.374,-0.131 -0.752,-0.266 -1.142,-0.368 -0.387,-0.121 -0.786,-0.203 -1.191,-0.299 -1.036,-0.219 -2.006,-0.341 -2.944,-0.352 -0.941,-0.004 -1.849,0.064 -2.752,0.232 -0.898,0.162 -1.795,0.407 -2.689,0.725 -0.894,0.328 -1.823,0.675 -2.715,1.128 -0.897,0.449 -1.781,0.963 -2.653,1.542 -0.872,0.577 -1.742,1.194 -2.597,1.832 l -0.107,-0.056 -1.623,-1.852 c 0.791,-0.641 1.615,-1.266 2.468,-1.876 0.854,-0.612 1.743,-1.147 2.681,-1.635 0.937,-0.487 1.924,-0.883 2.957,-1.189 1.02,-0.314 2.175,-0.438 3.187,-0.568 1.053,-0.12 2.139,-0.131 3.286,-0.06 1.147,0.072 2.376,0.273 3.736,0.569 1.318,0.287 2.486,0.6 3.532,0.99 1.046,0.385 1.951,0.817 2.722,1.307 0.769,0.493 1.393,1.04 1.857,1.663 0.462,0.631 0.736,1.287 0.784,2.007 0.03,0.435 -0.026,0.877 -0.174,1.328 -0.149,0.449 -0.391,0.876 -0.732,1.292 -0.34,0.42 -0.781,0.79 -1.327,1.138 -0.545,0.337 -1.186,0.627 -1.917,0.826 l -0.297,-0.013 c -0.067,-0.064 -0.207,-0.167 -0.415,-0.33 -0.208,-0.16 -0.472,-0.346 -0.788,-0.558 -0.316,-0.212 -0.675,-0.45 -1.072,-0.692 -0.399,-0.247 -0.822,-0.491 -1.271,-0.722 -0.447,-0.244 -0.914,-0.449 -1.396,-0.658 -0.485,-0.196 -0.981,-0.362 -1.498,-0.476 -0.465,-0.108 -0.885,-0.165 -1.266,-0.153 -0.379,0 -0.712,0.049 -0.999,0.147 -0.288,0.099 -0.523,0.232 -0.709,0.422 -0.186,0.187 -0.321,0.41 -0.401,0.668 -0.111,0.353 -0.107,0.753 0.019,1.203 0.125,0.454 0.371,0.915 0.741,1.406 0.37,0.492 0.861,0.976 1.476,1.467 0.31,0.239 0.648,0.479 1.018,0.705 0.372,0.221 0.773,0.443 1.207,0.647 0.399,0.063 0.797,0.13 1.198,0.188 l 1.203,0.155 c 0.336,-0.489 0.799,-0.902 1.383,-1.248 0.586,-0.358 1.24,-0.651 1.967,-0.92 0.362,-0.128 0.736,-0.257 1.12,-0.377 0.385,-0.114 0.78,-0.229 1.186,-0.337 0.407,-0.104 0.815,-0.207 1.223,-0.311 0.408,-0.096 0.817,-0.192 1.228,-0.289 0.822,-0.181 1.626,-0.359 2.419,-0.534 0.789,-0.172 1.526,-0.331 2.21,-0.48 -1.028,-0.589 -1.801,-1.32 -2.343,-2.128 -0.544,-0.82 -0.853,-1.691 -0.969,-2.607 -0.142,-1.109 0.011,-2.219 0.374,-3.355 0.364,-1.136 0.955,-2.219 1.709,-3.302 0.616,0.248 1.25,0.481 1.899,0.691 -0.443,1.029 -0.785,1.979 -0.97,2.879 -0.189,0.889 -0.214,1.751 -0.037,2.576 0.189,0.876 0.62,1.715 1.343,2.489 0.362,0.382 0.796,0.749 1.311,1.098 0.51,0.335 1.106,0.665 1.78,0.944 C 2.542,-1.397 1.937,-0.846 1.309,-0.317 1.015,-0.24 0.578,-0.134 0,0"
       style="fill:#231f20;fill-opacity:1;fill-rule:nonzero;stroke:none"
       transform="matrix(1.3333333,0,0,-1.3333333,203.736,19.9424)"
       clip-path="url(#clipPath16)" />
    <path
       id="path17"
       d="M 0,0 C 0.203,-0.086 0.401,-0.184 0.6,-0.278 L 0.898,-0.421 1.05,-0.493 1.224,-0.581 2.615,-1.287 7.932,9.244 c 0.092,0.183 0.256,0.316 0.493,0.4 0.236,0.083 0.523,0.117 0.861,0.101 0.337,-0.016 0.705,-0.08 1.107,-0.195 0.401,-0.111 0.813,-0.285 1.24,-0.511 l 0.728,-0.385 0.677,1.287 c -1.348,0.726 -2.716,1.408 -4.079,2.1 -0.337,0.17 -0.647,0.235 -0.932,0.194 C 7.744,12.194 7.547,12.061 7.436,11.836 L 7.4,11.765 C 7.334,11.848 7.273,11.928 7.195,12.012 7.109,12.099 7.021,12.185 6.929,12.271 6.743,12.442 6.544,12.613 6.332,12.782 5.903,13.113 5.454,13.419 4.988,13.701 4.519,13.972 4.061,14.229 3.601,14.427 3.143,14.63 2.735,14.804 2.373,14.923 2.043,15.036 1.713,15.152 1.38,15.26 L 0.932,13.876 C 1.254,13.772 1.573,13.659 1.894,13.55 2.419,13.374 2.881,13.145 3.292,12.91 3.699,12.665 4.029,12.409 4.287,12.154 4.543,11.9 4.717,11.642 4.817,11.401 4.916,11.159 4.923,10.945 4.839,10.758 Z"
       style="fill:#231f20;fill-opacity:1;fill-rule:nonzero;stroke:none"
       transform="matrix(1.3333333,0,0,-1.3333333,209.16173,36.619467)"
       clip-path="url(#clipPath18)" />
    <path
       id="path19"
       d="M 0,0 C 0.794,-0.191 1.596,-0.375 2.389,-0.577 2.357,-0.402 2.314,-0.221 2.256,-0.04 2.197,0.142 2.119,0.316 2.021,0.483 c 0.583,-0.03 1.162,-0.16 1.746,-0.37 0.585,-0.211 1.124,-0.471 1.617,-0.78 0.536,-0.339 1.021,-0.722 1.433,-1.179 0.416,-0.453 0.708,-0.9 0.876,-1.341 l -4.819,-7.384 c 0.866,-0.57 1.743,-1.126 2.594,-1.717 l 7.432,11.031 1.75,-1.192 0.875,-0.596 0.865,-0.612 0.836,1.191 C 8.65,3.544 -0.32,8.941 -9.57,13.749 l -0.67,-1.292 C -3.275,8.818 3.553,4.89 10.144,0.567 L 8.818,-1.463 C 8.143,-0.699 7.316,0.012 6.319,0.627 5.519,1.129 4.693,1.537 3.848,1.849 2.999,2.157 2.192,2.294 1.444,2.284 L 1.343,2.346 C 0.947,2.998 0.431,3.637 -0.209,4.251 -0.855,4.856 -1.618,5.412 -2.493,5.917 -3.516,6.515 -4.499,6.924 -5.425,7.17 -6.351,7.417 -7.19,7.532 -7.944,7.516 -8.7,7.494 -9.35,7.338 -9.884,7.062 -10.42,6.786 -10.808,6.417 -11.053,5.957 c -0.21,-0.397 -0.305,-0.835 -0.289,-1.314 0.018,-0.48 0.171,-0.976 0.461,-1.487 0.292,-0.51 0.717,-1.045 1.293,-1.578 0.573,-0.536 1.317,-1.054 2.229,-1.56 0.78,-0.451 1.458,-0.763 2.034,-0.939 0.575,-0.176 1.059,-0.261 1.452,-0.255 0.393,0.007 0.707,0.074 0.938,0.198 0.232,0.126 0.396,0.269 0.49,0.428 0.111,0.187 0.148,0.411 0.113,0.671 C -2.367,0.383 -2.481,0.652 -2.668,0.94 -2.855,1.227 -3.11,1.517 -3.432,1.809 -3.754,2.101 -4.142,2.378 -4.595,2.639 -5.083,2.918 -5.527,3.124 -5.939,3.231 -6.35,3.341 -6.711,3.392 -7.022,3.383 -7.333,3.374 -7.592,3.318 -7.796,3.217 -8.002,3.115 -8.144,2.992 -8.224,2.848 l -0.197,0.087 c -0.098,0.279 -0.139,0.55 -0.121,0.812 0.018,0.262 0.087,0.503 0.207,0.723 0.155,0.283 0.392,0.51 0.71,0.681 0.318,0.171 0.704,0.266 1.157,0.283 0.454,0.016 0.958,-0.047 1.513,-0.192 0.557,-0.14 1.137,-0.404 1.756,-0.758 0.859,-0.494 1.577,-1.114 2.15,-1.856 0.566,-0.754 0.882,-1.611 0.948,-2.567 z"
       style="fill:#231f20;fill-opacity:1;fill-rule:nonzero;stroke:none"
       transform="matrix(1.3333333,0,0,-1.3333333,237.63827,40.813467)"
       clip-path="url(#clipPath20)" />
    <path
       id="path21"
       d="M 0,0 C 0.843,-0.603 1.668,-1.229 2.503,-1.841 L 9.55,7.62 c 0.122,0.163 0.306,0.267 0.555,0.309 0.249,0.041 0.539,0.026 0.871,-0.047 0.333,-0.07 0.682,-0.205 1.055,-0.392 0.373,-0.188 0.752,-0.429 1.136,-0.725 l 0.656,-0.506 0.893,1.15 c -1.22,0.939 -2.434,1.885 -3.677,2.789 -0.305,0.226 -0.601,0.343 -0.891,0.351 C 9.86,10.557 9.643,10.459 9.495,10.257 L 9.448,10.193 C 9.249,10.562 9.004,10.929 8.711,11.297 8.414,11.659 8.1,12.003 7.769,12.331 7.437,12.659 7.107,12.958 6.776,13.229 6.445,13.5 6.147,13.73 5.882,13.918 5.64,14.092 5.396,14.262 5.149,14.428 L 4.321,13.232 C 4.566,13.067 4.809,12.898 5.05,12.726 5.444,12.445 5.786,12.154 6.075,11.852 6.364,11.55 6.588,11.257 6.749,10.974 6.909,10.69 7.004,10.426 7.034,10.182 7.065,9.938 7.021,9.733 6.901,9.567 Z"
       style="fill:#231f20;fill-opacity:1;fill-rule:nonzero;stroke:none"
       transform="matrix(1.3333333,0,0,-1.3333333,252.18773,62.2516)"
       clip-path="url(#clipPath22)" />
    <path
       id="path23"
       d="m 0,0 2.23,-1.023 c 0.002,0.176 -0.009,0.36 -0.032,0.55 C 2.176,-0.282 2.132,-0.096 2.066,0.088 2.629,-0.057 3.181,-0.287 3.72,-0.599 4.263,-0.908 4.743,-1.268 5.165,-1.671 5.627,-2.108 6.022,-2.587 6.35,-3.107 6.675,-3.629 6.889,-4.112 6.963,-4.585 l -6.14,-6.329 2.18,-2.198 9.422,9.388 2.995,-3.02 1.053,1.005 C 9.215,1.884 1.321,8.888 -7.002,15.258 L -7.886,14.104 C -4.739,11.719 -1.688,9.203 1.318,6.637 L 3.555,4.688 C 4.298,4.036 5.022,3.361 5.757,2.699 L 6.855,1.701 7.935,0.681 C 8.65,-0.002 9.377,-0.675 10.084,-1.367 L 8.396,-3.107 C 7.879,-2.224 7.178,-1.388 6.327,-0.577 5.644,0.081 4.897,0.628 4.116,1.087 3.335,1.547 2.576,1.845 1.842,1.978 L 1.753,2.058 C 1.479,2.769 1.081,3.486 0.56,4.207 0.038,4.927 -0.602,5.629 -1.385,6.274 -2.296,7.036 -3.183,7.63 -4.047,8.046 -4.92,8.451 -5.731,8.711 -6.48,8.826 -7.229,8.94 -7.89,8.91 -8.462,8.735 -9.037,8.56 -9.487,8.261 -9.808,7.851 -10.085,7.498 -10.255,7.084 -10.321,6.61 c -0.07,-0.477 -0.009,-0.995 0.182,-1.554 0.191,-0.56 0.523,-1.151 0.994,-1.775 0.476,-0.619 1.106,-1.269 1.903,-1.939 0.69,-0.577 1.303,-1.001 1.84,-1.274 0.531,-0.279 0.986,-0.456 1.371,-0.524 0.385,-0.068 0.703,-0.061 0.955,0.021 0.252,0.082 0.439,0.193 0.56,0.332 0.144,0.164 0.221,0.376 0.233,0.637 C -2.271,0.796 -2.33,1.085 -2.46,1.404 -2.59,1.723 -2.785,2.058 -3.046,2.407 -3.307,2.756 -3.645,3.092 -4.045,3.429 -4.477,3.79 -4.884,4.063 -5.266,4.25 -5.646,4.435 -5.99,4.553 -6.296,4.602 -6.602,4.653 -6.865,4.644 -7.086,4.579 -7.307,4.515 -7.469,4.418 -7.573,4.291 l -0.18,0.119 c -0.048,0.292 -0.04,0.565 0.024,0.818 0.063,0.254 0.173,0.479 0.331,0.673 0.203,0.252 0.476,0.434 0.821,0.547 0.345,0.112 0.742,0.137 1.194,0.075 0.451,-0.063 0.93,-0.225 1.448,-0.47 0.517,-0.248 1.05,-0.601 1.599,-1.06 0.767,-0.631 1.348,-1.39 1.773,-2.229 C -0.14,1.922 0.02,1.026 -0.088,0.078 Z"
       style="fill:#231f20;fill-opacity:1;fill-rule:nonzero;stroke:none"
       transform="matrix(1.3333333,0,0,-1.3333333,279.64093,71.560267)"
       clip-path="url(#clipPath24)" />
    <path
       id="path25"
       d="M 0,0 C 0.362,0.205 0.684,0.335 0.969,0.392 1.254,0.449 1.503,0.442 1.717,0.375 2.088,0.255 2.351,-0.046 2.515,-0.529 2.679,-1.011 2.75,-1.622 2.74,-2.363 2.728,-3.104 2.639,-3.949 2.476,-4.9 2.313,-5.851 2.087,-6.861 1.802,-7.935 c -0.367,-1.391 -0.769,-2.653 -1.2,-3.792 -0.436,-1.137 -0.872,-2.163 -1.321,-3.078 -0.448,-0.915 -0.882,-1.72 -1.318,-2.415 -0.44,-0.696 -0.821,-1.296 -1.18,-1.796 0.377,-0.516 0.766,-1.029 1.152,-1.537 0.257,0.321 0.597,0.853 1.038,1.592 0.433,0.739 0.909,1.644 1.408,2.714 0.509,1.072 1.014,2.284 1.535,3.633 0.521,1.348 0.982,2.794 1.395,4.343 0.369,1.398 0.65,2.717 0.832,3.966 0.179,1.25 0.258,2.36 0.215,3.336 C 4.319,0.007 4.162,0.818 3.888,1.464 3.612,2.11 3.203,2.528 2.66,2.711 2.159,2.88 1.547,2.826 0.82,2.541 1.176,3.623 1.551,4.7 1.929,5.775 L 0.558,6.262 C 0.177,5.177 -0.201,4.091 -0.561,2.999 l -12.624,4.187 c -0.307,-0.92 -0.605,-1.844 -0.894,-2.77 L -1.388,0.435 C -1.733,-0.656 -2.06,-1.752 -2.382,-2.849 l 1.397,-0.407 C -0.666,-2.168 -0.342,-1.082 0,0"
       style="fill:#ffffff;fill-opacity:1;fill-rule:nonzero;stroke:none"
       transform="matrix(1.3333333,0,0,-1.3333333,41.755467,188.89813)"
       clip-path="url(#clipPath26)" />
    <path
       id="path27"
       d="M 0,0 C 1.199,1.293 2.282,2.686 3.269,4.182 4.255,5.68 5.129,7.198 5.892,8.748 L 6.103,8.694 C 6.135,8.404 6.178,8.013 6.231,7.521 6.287,7.028 6.333,6.484 6.389,5.885 6.438,5.287 6.491,4.656 6.546,3.991 6.597,3.328 6.645,2.67 6.676,2.021 6.711,1.372 6.725,0.751 6.726,0.158 6.727,-0.435 6.699,-0.958 6.641,-1.413 l -6.662,1.31 z M 8.243,-1.728 C 8.355,-0.591 8.396,0.553 8.38,1.708 8.365,2.863 8.316,3.998 8.243,5.109 8.166,6.222 8.077,7.285 7.968,8.298 7.864,9.314 7.77,10.242 7.684,11.081 L 5.633,11.647 C 5.347,10.992 4.996,10.279 4.57,9.508 4.147,8.736 3.68,7.95 3.165,7.145 2.654,6.34 2.107,5.542 1.53,4.747 0.955,3.951 0.36,3.21 -0.246,2.522 -0.859,1.836 -1.462,1.222 -2.086,0.691 -2.711,0.16 -3.315,-0.252 -3.913,-0.539 -4.02,-1.113 -4.133,-1.686 -4.23,-2.263 l 13.484,-2.4 C 9.053,-5.79 8.867,-6.919 8.692,-8.049 l 1.438,-0.22 c 1.082,7.006 2.682,13.994 4.723,20.831 l -1.395,0.416 C 11.984,8.038 10.743,3.026 9.748,-2.023 Z"
       style="fill:#ffffff;fill-opacity:1;fill-rule:nonzero;stroke:none"
       transform="matrix(1.3333333,0,0,-1.3333333,21.068,208.53027)"
       clip-path="url(#clipPath28)" />
    <path
       id="path29"
       d="M 0,0 C 0.41,-0.152 0.804,-0.373 1.181,-0.66 1.559,-0.947 1.909,-1.28 2.233,-1.658 2.557,-2.036 2.845,-2.431 3.103,-2.842 3.381,-3.248 3.616,-3.649 3.809,-4.048 4,-4.445 4.134,-4.808 4.211,-5.136 4.305,-5.527 4.334,-5.913 4.317,-6.289 4.312,-6.663 4.263,-7.004 4.171,-7.314 4.078,-7.625 3.947,-7.889 3.776,-8.104 3.604,-8.32 3.405,-8.463 3.177,-8.529 3.012,-8.577 2.835,-8.575 2.646,-8.525 c -0.19,0.05 -0.39,0.164 -0.598,0.34 0.007,0.355 -0.015,0.724 -0.068,1.107 -0.056,0.383 -0.1,0.766 -0.192,1.139 -0.109,0.46 -0.244,0.854 -0.405,1.182 -0.162,0.327 -0.334,0.593 -0.518,0.797 -0.183,0.204 -0.372,0.345 -0.566,0.42 -0.195,0.076 -0.381,0.096 -0.56,0.058 -0.189,-0.039 -0.361,-0.142 -0.514,-0.31 -0.153,-0.169 -0.274,-0.391 -0.362,-0.667 -0.088,-0.275 -0.133,-0.609 -0.136,-1.001 -0.003,-0.391 0.052,-0.828 0.165,-1.308 0.094,-0.376 0.194,-0.747 0.37,-1.094 0.165,-0.35 0.348,-0.667 0.547,-0.951 -0.081,-0.266 -0.188,-0.473 -0.321,-0.623 -0.132,-0.147 -0.28,-0.246 -0.445,-0.293 -0.222,-0.065 -0.464,-0.045 -0.728,0.058 -0.263,0.105 -0.521,0.278 -0.773,0.521 -0.251,0.242 -0.484,0.542 -0.696,0.899 -0.2,0.36 -0.345,0.762 -0.449,1.197 -0.086,0.367 -0.139,0.793 -0.158,1.28 -0.019,0.485 -0.005,0.989 0.044,1.509 0.068,0.525 0.177,1.039 0.32,1.54 0.143,0.502 0.318,0.956 0.526,1.365 0.208,0.408 0.448,0.746 0.722,1.014 0.273,0.27 0.575,0.427 0.908,0.48 C -0.824,0.198 -0.41,0.153 0,0 m -0.922,11.162 c 0.08,0.262 0.184,0.463 0.327,0.606 0.058,0.057 0.119,0.107 0.184,0.144 0.095,0.066 0.197,0.108 0.305,0.134 0.182,0.044 0.369,0.064 0.561,0.059 C 0.76,12.095 1.064,12.017 1.368,11.89 1.492,11.84 1.617,11.787 1.741,11.714 2.178,11.439 2.605,11.063 3.015,10.586 2.48,10.124 1.976,9.528 1.501,8.793 1.007,8.057 0.669,7.114 0.394,5.957 0.215,6.212 0.042,6.489 -0.124,6.788 c -0.166,0.3 -0.318,0.624 -0.459,0.974 -0.132,0.348 -0.224,0.725 -0.304,1.126 -0.077,0.4 -0.123,0.823 -0.135,1.266 -0.012,0.409 0.022,0.746 0.1,1.008 M 2.14,5.473 C 2.277,5.912 2.446,6.334 2.646,6.734 2.845,7.135 3.076,7.509 3.335,7.856 3.59,8.204 3.917,8.514 4.253,8.783 4.33,8.638 4.405,8.488 4.479,8.333 4.548,8.179 4.633,8.02 4.72,7.856 L 4.927,5.244 C 4.945,5.026 4.957,4.808 4.981,4.591 L 5.067,3.941 5.236,2.643 5.404,1.344 C 5.468,0.912 5.558,0.484 5.633,0.055 L 5.867,-1.233 5.983,-1.878 6.042,-2.2 6.117,-2.519 6.715,-5.067 c 0.09,-0.427 0.216,-0.845 0.339,-1.264 l 0.363,-1.258 0.362,-1.258 0.426,-1.237 0.426,-1.238 c 0.144,-0.412 0.274,-0.829 0.447,-1.231 l 1.36,0.518 C 8.996,-8.221 7.901,-4.278 7.17,-0.267 L 6.895,1.237 C 6.809,1.74 6.759,2.248 6.689,2.753 6.566,3.766 6.397,4.773 6.343,5.794 L 6.222,7.32 6.161,8.083 C 6.138,8.337 6.143,8.593 6.132,8.848 l -0.082,2.983 0.024,0.659 0.038,0.765 c 0.031,0.52 0.067,1.048 0.108,1.578 0.081,1.062 0.189,2.136 0.304,3.21 0.239,2.152 0.537,4.313 0.886,6.471 L 5.974,24.746 C 5.621,22.566 5.32,20.381 5.078,18.202 4.961,17.114 4.852,16.025 4.77,14.946 4.729,14.406 4.691,13.87 4.66,13.338 L 4.621,12.553 4.596,11.849 v -0.05 C 4.577,11.816 4.558,11.834 4.54,11.85 L 4.442,11.944 C 4.41,11.978 4.377,12.047 4.345,12.084 4.278,12.175 4.213,12.265 4.148,12.353 4.019,12.537 3.883,12.711 3.749,12.883 3.46,13.25 3.159,13.579 2.843,13.865 2.526,14.15 2.193,14.382 1.839,14.556 1.484,14.729 1.109,14.833 0.714,14.862 0.188,14.9 -0.293,14.804 -0.73,14.567 -1.168,14.33 -1.546,13.982 -1.866,13.521 -2.013,13.307 -2.148,13.072 -2.265,12.813 -2.324,12.684 -2.379,12.548 -2.429,12.404 -2.453,12.333 -2.478,12.261 -2.502,12.188 -2.525,12.115 -2.547,12.022 -2.569,11.939 -2.58,11.889 -2.592,11.833 -2.604,11.778 -2.747,11.105 -2.799,10.384 -2.778,9.59 -2.764,9.102 -2.724,8.604 -2.656,8.101 -2.627,7.85 -2.574,7.599 -2.506,7.35 -2.441,7.101 -2.367,6.853 -2.283,6.605 -2.115,6.111 -1.905,5.627 -1.652,5.151 -1.394,4.678 -1.11,4.222 -0.731,3.793 -0.961,3.459 -1.207,3.202 -1.47,3.026 -1.733,2.851 -2.009,2.744 -2.297,2.71 -2.749,2.655 -3.207,2.762 -3.672,3.036 -4.137,3.312 -4.576,3.715 -4.94,4.253 c -0.374,0.537 -0.692,1.182 -0.953,1.93 -0.13,0.374 -0.236,0.765 -0.318,1.171 -0.082,0.408 -0.106,0.833 -0.123,1.27 -0.018,0.585 -0.004,1.148 0.04,1.688 0.021,0.269 0.05,0.533 0.087,0.791 0.019,0.129 0.04,0.256 0.061,0.382 0.012,0.062 0.022,0.127 0.036,0.186 l 0.01,0.046 0.011,0.063 0.021,0.126 c 0.005,0.026 0.009,0.052 0.014,0.077 l 0.052,0.245 c 0.008,0.043 0.017,0.06 0.025,0.091 l 0.027,0.093 c 0.036,0.125 0.074,0.253 0.114,0.369 0.081,0.236 0.166,0.466 0.26,0.683 0.186,0.439 0.402,0.845 0.638,1.232 0.488,0.784 1.061,1.474 1.718,2.074 0.656,0.6 1.38,1.126 2.168,1.581 0.784,0.456 1.632,0.845 2.521,1.173 0.889,0.329 1.819,0.613 2.773,0.855 l 0.012,0.098 c -0.216,0.661 -0.413,1.327 -0.62,1.997 -0.93,-0.18 -1.857,-0.416 -2.78,-0.712 -0.926,-0.295 -1.806,-0.677 -2.657,-1.143 -0.852,-0.467 -1.645,-1.036 -2.394,-1.707 -0.745,-0.673 -1.407,-1.47 -1.976,-2.399 -0.57,-0.932 -1.031,-2.001 -1.365,-3.269 -0.047,-0.184 -0.091,-0.362 -0.131,-0.562 -0.019,-0.101 -0.039,-0.203 -0.059,-0.305 L -7.741,12.313 -7.754,12.214 -7.782,12.005 -7.807,11.74 -7.828,11.553 C -7.839,11.43 -7.85,11.307 -7.861,11.182 -7.881,10.932 -7.896,10.678 -7.907,10.418 -7.928,9.898 -7.93,9.359 -7.914,8.803 -7.893,8.257 -7.873,7.735 -7.798,7.242 -7.721,6.749 -7.626,6.282 -7.514,5.844 -7.29,4.966 -7.017,4.189 -6.698,3.519 -6.354,2.85 -5.964,2.284 -5.55,1.822 -5.134,1.359 -4.708,0.991 -4.273,0.715 -4.58,0.162 -4.847,-0.462 -5.016,-1.148 c -0.181,-0.689 -0.309,-1.414 -0.385,-2.171 -0.038,-0.379 -0.063,-0.76 -0.074,-1.145 -0.007,-0.383 0.02,-0.764 0.05,-1.149 0.065,-0.77 0.181,-1.512 0.349,-2.222 0.191,-0.884 0.538,-1.631 0.92,-2.266 0.388,-0.632 0.804,-1.133 1.248,-1.501 0.221,-0.183 0.446,-0.336 0.672,-0.457 0.236,-0.118 0.471,-0.205 0.708,-0.26 0.475,-0.113 0.915,-0.099 1.322,0.035 0.376,0.123 0.707,0.341 0.996,0.649 0.289,0.308 0.506,0.715 0.694,1.231 0.417,-0.328 0.857,-0.523 1.281,-0.6 0.424,-0.077 0.824,-0.053 1.2,0.071 0.408,0.134 0.769,0.376 1.086,0.721 0.158,0.172 0.299,0.364 0.42,0.575 0.128,0.213 0.242,0.447 0.337,0.699 0.191,0.506 0.296,1.083 0.314,1.732 0.026,0.651 -0.102,1.342 -0.264,2.112 -0.206,0.881 -0.49,1.693 -0.854,2.445 C 4.659,-1.894 4.299,-1.201 3.863,-0.583 3.647,-0.273 3.421,0.018 3.186,0.29 2.95,0.562 2.699,0.815 2.463,1.055 1.979,1.529 1.478,1.921 0.959,2.224 c 0.31,0.537 0.592,1.18 0.847,1.926 0.073,0.44 0.2,0.882 0.334,1.323"
       style="fill:#ffffff;fill-opacity:1;fill-rule:nonzero;stroke:none"
       transform="matrix(1.3333333,0,0,-1.3333333,24.9312,250.75093)"
       clip-path="url(#clipPath30)" />
    <path
       id="path31"
       d="m 0,0 c 0.365,-0.963 0.825,-1.885 1.249,-2.821 l 10.706,4.952 c 0.186,0.086 0.39,0.104 0.612,0.055 C 12.79,2.137 13.015,2.031 13.242,1.87 13.468,1.708 13.684,1.5 13.89,1.242 14.105,0.991 14.307,0.701 14.481,0.365 l 0.301,-0.572 1.289,0.673 c -0.268,0.519 -0.55,1.031 -0.808,1.555 L 14.53,3.612 C 14.41,3.873 14.236,4.052 14.01,4.148 13.783,4.245 13.555,4.244 13.325,4.143 L 13.253,4.111 c 0.02,0.168 0.031,0.34 0.032,0.515 0.004,0.176 0.009,0.359 -10e-4,0.543 -0.016,0.371 -0.055,0.732 -0.115,1.086 -0.061,0.354 -0.137,0.686 -0.231,0.997 -0.093,0.311 -0.186,0.582 -0.279,0.811 L 12.438,8.704 11.07,8.209 11.296,7.554 C 11.438,7.203 11.532,6.865 11.578,6.538 11.624,6.212 11.626,5.915 11.584,5.646 11.542,5.379 11.463,5.147 11.345,4.955 11.227,4.762 11.074,4.625 10.885,4.546 Z"
       style="fill:#ffffff;fill-opacity:1;fill-rule:nonzero;stroke:none"
       transform="matrix(1.3333333,0,0,-1.3333333,21.768533,277.05173)"
       clip-path="url(#clipPath32)" />
    <path
       id="path33"
       d="M 0,0 C 0.039,0.863 -0.021,1.744 -0.182,2.644 -0.22,2.869 -0.272,3.089 -0.318,3.319 -0.363,3.55 -0.415,3.78 -0.474,4.01 -0.59,4.47 -0.734,4.93 -0.905,5.389 -1.076,5.849 -1.28,6.297 -1.519,6.736 -1.748,7.182 -1.992,7.631 -2.281,8.064 -2.62,8.579 -3.018,9.075 -3.479,9.559 c -0.237,0.239 -0.454,0.472 -0.683,0.683 -0.229,0.212 -0.463,0.404 -0.705,0.575 -0.483,0.346 -0.971,0.58 -1.466,0.705 -0.495,0.124 -0.954,0.072 -1.374,-0.164 C -8.023,11.181 -8.264,10.924 -8.428,10.584 -8.592,10.245 -8.677,9.857 -8.684,9.42 -8.69,8.983 -8.622,8.512 -8.477,8.007 c 0.144,-0.504 0.359,-1.011 0.685,-1.489 0.305,-0.463 0.649,-0.874 1.029,-1.23 0.38,-0.354 0.762,-0.637 1.142,-0.843 0.376,-0.211 0.763,-0.312 1.118,-0.339 0.357,-0.024 0.658,0.053 0.905,0.229 0.22,0.157 0.378,0.372 0.474,0.642 0.097,0.27 0.149,0.544 0.157,0.824 l 0.203,-0.043 c 0.24,-0.751 0.389,-1.525 0.45,-2.322 0.03,-0.4 0.046,-0.799 0.047,-1.199 0,-0.2 -0.004,-0.401 -0.009,-0.599 C -2.277,1.441 -2.282,1.246 -2.291,1.05 -2.326,0.265 -2.406,-0.512 -2.531,-1.278 -2.657,-2.045 -2.8,-2.79 -2.961,-3.512 -3.129,-4.24 -3.266,-4.896 -3.427,-5.526 -3.585,-6.155 -3.727,-6.719 -3.853,-7.218 L -2.622,-8.589 7.403,0.729 7.68,0.419 7.972,0.123 8.557,-0.469 9.726,-1.652 10.746,-0.615 8.726,1.432 6.81,3.571 C 6.652,3.751 6.485,3.923 6.335,4.109 L 5.885,4.667 4.982,5.781 C 4.685,6.156 4.368,6.516 4.087,6.902 L 3.242,8.059 2.395,9.214 C 2.25,9.404 2.116,9.602 1.988,9.803 l -0.393,0.598 -0.787,1.196 c -0.264,0.397 -0.533,0.792 -0.765,1.209 l -1.453,2.464 -1.326,2.532 -1.3,-0.653 c 0.685,-1.284 1.32,-2.594 2.09,-3.832 0.373,-0.625 0.732,-1.258 1.114,-1.878 L 0.371,9.615 0.971,8.702 C 1.181,8.404 1.401,8.113 1.615,7.818 L 2.906,6.054 C 3.113,5.754 3.358,5.482 3.583,5.195 L 4.273,4.346 4.961,3.496 5.306,3.07 5.671,2.662 -0.264,-2.472 -0.334,-2.394 C -0.161,-1.673 -0.038,-0.863 0,0"
       style="fill:#ffffff;fill-opacity:1;fill-rule:nonzero;stroke:none"
       transform="matrix(1.3333333,0,0,-1.3333333,46.1748,298.89027)"
       clip-path="url(#clipPath34)" />
    <path
       id="path35"
       d="M 0,0 C -0.602,0.203 -1.15,0.405 -1.698,0.517 -2.242,0.634 -2.733,0.659 -3.172,0.595 -3.611,0.53 -3.934,0.321 -4.136,-0.034 c -0.133,-0.236 -0.176,-0.477 -0.13,-0.725 0.047,-0.247 0.152,-0.484 0.313,-0.712 0.161,-0.227 0.368,-0.444 0.623,-0.651 0.254,-0.206 0.52,-0.386 0.798,-0.537 0.396,-0.227 0.839,-0.386 1.303,-0.518 0.464,-0.13 0.917,-0.217 1.356,-0.257 0.439,-0.041 0.844,-0.028 1.213,0.038 0.369,0.067 0.666,0.199 0.895,0.397 C 2.434,-3.227 2.598,-3.472 2.728,-3.731 2.857,-3.992 2.951,-4.254 3.007,-4.519 3.063,-4.782 3.083,-5.043 3.068,-5.298 3.054,-5.555 2.999,-5.794 2.902,-6.019 2.733,-6.413 2.441,-6.732 2.021,-6.977 1.602,-7.22 1.083,-7.371 0.465,-7.429 c -0.618,-0.055 -1.301,0.032 -2.072,0.205 -0.768,0.183 -1.598,0.476 -2.461,0.917 -1.132,0.617 -2.122,1.387 -2.948,2.3 -0.81,0.938 -1.441,2.002 -1.91,3.131 -0.477,1.117 -0.741,2.362 -0.838,3.647 -0.096,1.288 -0.017,2.574 0.233,3.864 L -9.6,6.682 c -0.714,0.163 -1.42,0.353 -2.139,0.536 -0.107,-0.365 -0.2,-0.795 -0.277,-1.291 -0.077,-0.495 -0.125,-1.039 -0.14,-1.634 -0.009,-0.297 -0.007,-0.606 0.01,-0.923 0.02,-0.311 0.052,-0.633 0.097,-0.964 0.088,-0.663 0.242,-1.35 0.464,-2.063 0.222,-0.712 0.513,-1.447 0.886,-2.187 0.385,-0.719 0.865,-1.434 1.441,-2.142 0.576,-0.706 1.243,-1.411 2.044,-2.035 0.793,-0.634 1.7,-1.241 2.726,-1.787 1.235,-0.602 2.407,-1.032 3.504,-1.284 0.272,-0.067 0.542,-0.112 0.806,-0.143 0.264,-0.034 0.52,-0.058 0.768,-0.072 0.495,-0.03 0.96,-0.022 1.392,0.023 0.866,0.089 1.586,0.316 2.167,0.679 0.587,0.378 0.988,0.856 1.211,1.428 0.14,0.356 0.204,0.742 0.199,1.156 -0.006,0.414 -0.083,0.834 -0.219,1.281 -0.138,0.441 -0.345,0.887 -0.619,1.335 -0.275,0.447 -0.617,0.877 -1.026,1.289 0.481,0.224 0.88,0.499 1.2,0.821 0.319,0.322 0.56,0.679 0.725,1.067 C 5.835,0.276 5.914,0.818 5.867,1.395 5.819,1.971 5.634,2.542 5.313,3.104 5.149,3.381 4.962,3.675 4.737,3.958 4.512,4.242 4.252,4.521 3.956,4.795 3.66,5.069 3.326,5.329 2.952,5.575 2.767,5.7 2.566,5.813 2.363,5.937 2.162,6.065 1.951,6.189 1.73,6.311 0.918,6.757 0.094,7.088 -0.751,7.311 -1.573,7.572 -2.349,7.723 -3.081,7.764 -3.81,7.81 -4.477,7.725 -5.042,7.566 -5.611,7.403 -6.038,7.115 -6.314,6.697 -6.512,6.4 -6.607,6.072 -6.601,5.713 -6.592,5.356 -6.513,4.981 -6.332,4.636 -6.156,4.284 -5.909,3.946 -5.592,3.621 -5.275,3.296 -4.911,3.007 -4.5,2.756 -4.116,2.528 -3.753,2.34 -3.379,2.253 -3.008,2.159 -2.668,2.12 -2.36,2.136 c 0.307,0.016 0.574,0.083 0.801,0.199 0.228,0.116 0.394,0.273 0.501,0.471 0.118,0.214 0.157,0.452 0.121,0.713 -0.037,0.259 -0.13,0.521 -0.279,0.783 -0.149,0.261 -0.349,0.512 -0.6,0.751 C -2.07,5.287 -2.334,5.52 -2.637,5.699 -2.7,5.738 -2.76,5.774 -2.814,5.808 -2.869,5.842 -2.925,5.872 -2.983,5.9 L -3.009,6.043 C -2.731,6.09 -2.432,6.096 -2.108,6.06 -1.786,6.023 -1.459,5.955 -1.115,5.876 -0.774,5.792 -0.434,5.681 -0.089,5.541 0.255,5.402 0.583,5.247 0.896,5.075 1.168,4.926 1.416,4.767 1.64,4.596 1.864,4.427 2.075,4.265 2.256,4.08 2.622,3.716 2.896,3.335 3.083,2.937 3.269,2.538 3.368,2.136 3.38,1.73 3.391,1.325 3.317,0.948 3.156,0.601 3.02,0.309 2.838,0.042 2.61,-0.195 2.383,-0.434 2.063,-0.596 1.65,-0.681 1.144,-0.441 0.594,-0.215 0,0"
       style="fill:#ffffff;fill-opacity:1;fill-rule:nonzero;stroke:none"
       transform="matrix(1.3333333,0,0,-1.3333333,80.922133,324.152)"
       clip-path="url(#clipPath36)" />
    <path
       id="path37"
       d="M 0,0 C 0.494,-0.13 0.953,-0.302 1.379,-0.515 1.804,-0.735 2.211,-0.96 2.598,-1.233 2.984,-1.506 3.391,-1.819 3.817,-2.172 3.229,-2.231 2.647,-2.33 2.069,-2.469 1.779,-2.544 1.494,-2.6 1.213,-2.668 0.932,-2.735 0.654,-2.809 0.38,-2.889 c -0.55,-0.159 -1.078,-0.34 -1.59,-0.543 -0.51,-0.201 -0.995,-0.416 -1.451,-0.598 -0.014,0.314 -0.077,0.626 -0.189,0.934 -0.112,0.309 -0.299,0.594 -0.562,0.854 -0.262,0.261 -0.603,0.485 -1.022,0.675 -0.209,0.093 -0.446,0.173 -0.712,0.24 -0.265,0.065 -0.56,0.115 -0.878,0.175 -0.385,0.063 -0.786,0.106 -1.205,0.126 -0.419,0.019 -0.817,0.023 -1.194,0.012 0.33,0.241 0.732,0.454 1.203,0.643 0.472,0.188 0.995,0.337 1.57,0.444 0.576,0.117 1.202,0.219 1.872,0.255 0.671,0.042 1.365,0.013 2.09,-0.065 C -1.057,0.219 -0.495,0.131 0,0 m -7.828,-10.578 c -0.499,0.153 -0.935,0.329 -1.306,0.528 -0.372,0.199 -0.658,0.418 -0.86,0.655 -0.202,0.239 -0.277,0.487 -0.23,0.747 0.026,0.136 0.09,0.276 0.195,0.419 0.104,0.143 0.254,0.289 0.448,0.436 l 0.011,0.059 -0.958,0.642 -0.938,0.687 -0.102,0.021 c -0.431,-0.237 -0.765,-0.499 -1.002,-0.785 -0.238,-0.287 -0.39,-0.581 -0.456,-0.884 -0.087,-0.4 -0.033,-0.818 0.172,-1.258 0.203,-0.438 0.545,-0.865 1.032,-1.279 0.483,-0.428 1.111,-0.766 1.87,-1.084 0.76,-0.314 1.643,-0.555 2.645,-0.72 0.811,-0.103 1.692,-0.149 2.636,-0.153 0.471,0.003 0.943,0.006 1.417,0.009 0.473,0.003 0.948,0.05 1.423,0.079 0.948,0.067 1.861,0.126 2.74,0.174 0.44,0.015 0.855,0.06 1.244,0.074 0.391,0.018 0.757,0.023 1.099,0.015 0.769,-0.019 1.484,-0.111 2.15,-0.278 0.641,-0.158 1.172,-0.344 1.663,-0.577 0.486,-0.23 0.901,-0.49 1.245,-0.776 0.344,-0.287 0.594,-0.563 0.753,-0.827 h 1.709 v 14.33 h 3.555 V 1.131 H 7.996 v -4.355 h -0.1 C 7.646,-2.94 7.359,-2.622 7.032,-2.269 6.704,-1.916 6.326,-1.562 5.897,-1.205 5.684,-1.032 5.462,-0.854 5.232,-0.67 5.004,-0.491 4.765,-0.314 4.513,-0.14 4.01,0.209 3.454,0.522 2.847,0.8 2.542,0.94 2.224,1.062 1.889,1.18 1.556,1.31 1.206,1.428 0.842,1.533 0.112,1.744 -0.682,1.879 -1.548,1.938 -2.256,2.018 -2.958,2.051 -3.659,2.022 -4.01,2.01 -4.355,1.984 -4.695,1.949 -4.865,1.931 -5.033,1.91 -5.201,1.887 -5.367,1.87 -5.531,1.854 -5.695,1.832 -6.349,1.748 -6.973,1.62 -7.566,1.447 -8.16,1.278 -8.7,1.062 -9.176,0.834 -9.651,0.613 -10.055,0.357 -10.384,0.068 c -0.329,-0.29 -0.559,-0.606 -0.689,-0.95 0.378,-0.503 0.762,-1.008 1.154,-1.514 0.179,0.045 0.39,0.076 0.635,0.091 0.243,0.014 0.491,0.016 0.741,0.007 0.251,-0.008 0.488,-0.024 0.714,-0.048 0.225,-0.024 0.407,-0.049 0.549,-0.072 0.468,-0.078 0.855,-0.202 1.165,-0.375 0.308,-0.179 0.555,-0.346 0.734,-0.561 0.179,-0.21 0.301,-0.436 0.366,-0.676 0.065,-0.241 0.083,-0.472 0.055,-0.695 -0.019,-0.15 -0.057,-0.287 -0.112,-0.41 -0.056,-0.123 -0.131,-0.238 -0.226,-0.346 -0.227,-0.16 -0.387,-0.307 -0.473,-0.443 l 1.798,-1.08 c 0.154,0.115 0.398,0.275 0.732,0.482 0.335,0.212 0.731,0.411 1.196,0.669 0.463,0.252 0.98,0.508 1.547,0.769 0.567,0.261 1.166,0.495 1.797,0.702 0.315,0.097 0.638,0.206 0.966,0.305 0.328,0.097 0.661,0.183 1.002,0.26 0.679,0.152 1.371,0.233 2.078,0.243 0.497,-0.532 0.975,-1.071 1.408,-1.644 0.434,-0.57 0.849,-1.103 1.243,-1.598 v -4.77 H 7.912 c -0.372,0.185 -0.728,0.34 -1.066,0.465 -0.339,0.125 -0.677,0.227 -1.016,0.307 l -0.256,0.055 -0.274,0.052 c -0.185,0.032 -0.37,0.059 -0.56,0.08 -0.377,0.041 -0.787,0.067 -1.23,0.077 -0.462,0.011 -0.913,0.008 -1.355,-0.011 -0.441,-0.019 -0.874,-0.053 -1.296,-0.074 -0.845,-0.057 -1.671,-0.126 -2.476,-0.208 -0.404,-0.038 -0.804,-0.076 -1.197,-0.113 -0.395,-0.016 -0.785,-0.032 -1.169,-0.047 -0.772,-0.025 -1.534,0.007 -2.282,0.096 -0.271,0.033 -0.538,0.071 -0.799,0.124 -0.26,0.06 -0.515,0.129 -0.764,0.205"
       style="fill:#ffffff;fill-opacity:1;fill-rule:nonzero;stroke:none"
       transform="matrix(1.3333333,0,0,-1.3333333,122.07573,329.15853)"
       clip-path="url(#clipPath38)" />
    <path
       id="path39"
       d="M 0,0 C -0.649,0.458 -1.38,0.882 -2.192,1.271 -3.005,1.66 -3.862,2 -4.765,2.291 -5.668,2.581 -6.542,2.795 -7.389,2.934 H 4.053 V -7.021 H 3.951 c -0.722,0.455 -1.474,0.853 -2.259,1.197 -0.784,0.343 -1.586,0.644 -2.403,0.905 -0.818,0.261 -1.648,0.491 -2.488,0.692 -0.841,0.202 -1.679,0.388 -2.514,0.56 v 0.218 c 0.282,0.118 0.711,0.27 1.287,0.455 0.574,0.184 1.207,0.376 1.896,0.574 0.687,0.197 1.386,0.389 2.098,0.574 0.71,0.185 1.348,0.333 1.912,0.446 C 1.142,-0.926 0.648,-0.459 0,0 M 6.829,-10.763 V 2.934 h 3.554 V 4.389 H -13.059 V 2.934 h 3.216 V 1.638 c 0.44,-0.075 0.968,-0.164 1.583,-0.268 0.614,-0.105 1.255,-0.246 1.921,-0.421 0.665,-0.175 1.325,-0.39 1.981,-0.647 0.654,-0.258 1.235,-0.568 1.743,-0.931 -1.107,-0.297 -2.148,-0.61 -3.123,-0.94 -0.976,-0.33 -1.87,-0.654 -2.683,-0.97 v -2.128 c 0.699,-0.099 1.47,-0.244 2.311,-0.436 0.84,-0.191 1.703,-0.423 2.589,-0.697 0.885,-0.273 1.768,-0.586 2.649,-0.935 0.88,-0.35 1.707,-0.734 2.479,-1.153 0.773,-0.419 1.467,-0.869 2.082,-1.351 0.615,-0.482 1.109,-0.99 1.481,-1.524 z"
       style="fill:#ffffff;fill-opacity:1;fill-rule:nonzero;stroke:none"
       transform="matrix(1.3333333,0,0,-1.3333333,157.00933,333.50227)"
       clip-path="url(#clipPath40)" />
    <path
       id="path41"
       d="m 0,0 c -0.384,-0.214 -0.863,-0.321 -1.438,-0.321 -0.226,0 -0.441,0.016 -0.644,0.05 -0.203,0.033 -0.384,0.081 -0.542,0.142 -0.157,0.064 -0.282,0.136 -0.372,0.218 -0.09,0.083 -0.136,0.174 -0.136,0.272 0,0.086 0.04,0.182 0.118,0.287 0.08,0.106 0.201,0.204 0.365,0.292 0.164,0.089 0.376,0.164 0.634,0.223 0.26,0.06 0.577,0.089 0.949,0.089 0.316,0 0.651,-0.022 1.006,-0.065 C 0.296,1.146 0.586,1.091 0.812,1.024 0.654,0.557 0.383,0.215 0,0 M 10.611,0.03 C 10.149,0.251 9.607,0.479 8.986,0.713 8.366,0.947 7.684,1.18 6.938,1.41 6.194,1.642 5.413,1.848 4.595,2.029 3.776,2.211 2.936,2.357 2.073,2.47 1.21,2.582 0.35,2.638 -0.509,2.638 -1.479,2.638 -2.285,2.566 -2.929,2.425 -3.571,2.283 -4.088,2.104 -4.478,1.886 -4.866,1.668 -5.143,1.426 -5.307,1.158 -5.47,0.891 -5.552,0.632 -5.552,0.381 c 0,-0.329 0.113,-0.623 0.339,-0.88 0.226,-0.258 0.53,-0.476 0.913,-0.653 0.384,-0.179 0.824,-0.314 1.321,-0.407 0.497,-0.091 1.01,-0.138 1.541,-0.138 0.53,0 1.057,0.045 1.582,0.134 0.524,0.088 1.012,0.227 1.463,0.416 0.453,0.187 0.853,0.425 1.203,0.711 0.349,0.288 0.608,0.629 0.778,1.025 0.688,-0.132 1.323,-0.282 1.904,-0.45 0.581,-0.168 1.131,-0.351 1.65,-0.549 0.519,-0.198 1.012,-0.406 1.481,-0.624 0.468,-0.217 0.94,-0.442 1.413,-0.673 l 1.659,1.168 c -0.259,0.158 -0.621,0.349 -1.084,0.569"
       style="fill:#ffffff;fill-opacity:1;fill-rule:nonzero;stroke:none"
       transform="matrix(1.3333333,0,0,-1.3333333,161.28547,350.07653)"
       clip-path="url(#clipPath42)" />
    <path
       id="path43"
       d="m 0,0 c -0.327,0.297 -0.564,0.572 -0.711,0.826 -0.146,0.254 -0.22,0.49 -0.22,0.708 0,0.461 0.287,0.848 0.864,1.157 0.575,0.311 1.337,0.561 2.284,0.753 0.948,0.191 2.023,0.327 3.224,0.41 1.203,0.083 2.429,0.125 3.682,0.125 1.455,0 2.922,-0.047 4.4,-0.139 1.478,-0.093 2.919,-0.213 4.325,-0.361 1.404,-0.149 2.744,-0.316 4.019,-0.5 1.276,-0.185 2.438,-0.37 3.487,-0.554 1.049,-0.185 1.963,-0.362 2.742,-0.53 0.778,-0.168 1.371,-0.308 1.777,-0.42 L 31.261,2.88 C 30.832,2.992 30.215,3.136 29.407,3.311 28.601,3.484 27.652,3.67 26.563,3.864 25.476,4.059 24.265,4.255 22.934,4.453 21.602,4.651 20.194,4.827 18.711,4.982 17.227,5.138 15.689,5.265 14.099,5.363 12.508,5.463 10.905,5.512 9.292,5.512 8.209,5.512 7.14,5.484 6.084,5.428 5.029,5.372 4.028,5.283 3.08,5.161 2.132,5.038 1.252,4.882 0.439,4.69 -0.373,4.499 -1.074,4.267 -1.667,3.993 -2.26,3.719 -2.723,3.402 -3.056,3.043 -3.388,2.684 -3.555,2.276 -3.555,1.821 -3.555,1.55 -3.492,1.265 -3.368,0.965 -3.244,0.664 -3.046,0.343 -2.775,0 H -6.33 v -1.455 h 3.555 V -14.756 H 0 V -1.455 H 3.537 V 0 Z"
       style="fill:#ffffff;fill-opacity:1;fill-rule:nonzero;stroke:none"
       transform="matrix(1.3333333,0,0,-1.3333333,177.71387,327.6508)"
       clip-path="url(#clipPath44)" />
    <path
       id="path45"
       d="m 0,0 c -0.146,0.002 -0.266,0.004 -0.355,0.005 -0.576,0 -1.146,-0.044 -1.709,-0.133 -0.565,-0.089 -1.07,-0.223 -1.516,-0.401 -0.445,-0.178 -0.807,-0.4 -1.083,-0.663 -0.276,-0.264 -0.414,-0.571 -0.414,-0.92 0,-0.251 0.073,-0.469 0.22,-0.654 0.146,-0.184 0.337,-0.339 0.575,-0.464 0.237,-0.126 0.511,-0.218 0.821,-0.278 0.311,-0.059 0.629,-0.089 0.956,-0.089 0.372,0 0.767,0.036 1.185,0.109 0.418,0.073 0.821,0.181 1.21,0.327 0.389,0.144 0.758,0.328 1.109,0.549 0.349,0.22 0.643,0.48 0.88,0.777 0.632,-0.39 1.098,-0.791 1.396,-1.203 0.299,-0.412 0.449,-0.816 0.449,-1.212 0,-0.37 -0.13,-0.721 -0.39,-1.054 C 3.074,-5.638 2.693,-5.928 2.192,-6.175 1.689,-6.423 1.08,-6.619 0.364,-6.764 c -0.717,-0.145 -1.532,-0.217 -2.446,-0.217 -0.981,0 -1.946,0.129 -2.894,0.39 -0.948,0.261 -1.856,0.624 -2.725,1.089 -0.869,0.465 -1.688,1.02 -2.454,1.662 -0.768,0.644 -1.47,1.348 -2.107,2.113 -0.637,0.766 -1.197,1.578 -1.676,2.435 -0.48,0.857 -0.861,1.735 -1.142,2.633 h -0.085 L -17.18,2.489 c 0.147,-0.686 0.421,-1.431 0.822,-2.236 0.4,-0.805 0.92,-1.611 1.557,-2.42 0.637,-0.809 1.39,-1.587 2.26,-2.336 0.868,-0.748 1.847,-1.413 2.936,-1.993 1.088,-0.581 2.288,-1.045 3.596,-1.391 1.31,-0.346 2.72,-0.519 4.232,-0.519 1.275,0 2.406,0.11 3.393,0.331 0.988,0.221 1.817,0.516 2.488,0.886 0.671,0.369 1.179,0.799 1.524,1.292 0.344,0.491 0.517,1.003 0.517,1.538 0,0.679 -0.263,1.361 -0.789,2.044 C 4.832,-1.633 4,-1.011 2.86,-0.45 c 0.226,0.277 0.407,0.55 0.541,0.816 0.136,0.268 0.238,0.533 0.306,0.797 0.226,0.185 0.49,0.352 0.795,0.5 0.305,0.149 0.629,0.273 0.974,0.371 0.343,0.099 0.705,0.175 1.083,0.228 0.378,0.052 0.753,0.079 1.125,0.079 0.452,0 0.88,-0.04 1.287,-0.119 0.406,-0.079 0.766,-0.202 1.083,-0.371 0.315,-0.168 0.567,-0.382 0.753,-0.643 0.186,-0.261 0.279,-0.569 0.279,-0.926 0,-0.204 -0.067,-0.415 -0.203,-0.633 l -0.169,0.02 c 0,0.132 -0.045,0.273 -0.136,0.426 C 10.488,0.246 10.35,0.388 10.163,0.52 9.978,0.652 9.74,0.761 9.452,0.847 9.165,0.933 8.818,0.975 8.412,0.975 8.04,0.975 7.701,0.937 7.396,0.861 7.092,0.785 6.832,0.684 6.618,0.555 6.403,0.426 6.237,0.275 6.118,0.104 6,-0.067 5.941,-0.245 5.941,-0.431 c 0,-0.137 0.044,-0.299 0.135,-0.484 0.09,-0.185 0.26,-0.359 0.508,-0.524 0.248,-0.165 0.586,-0.304 1.016,-0.416 0.428,-0.113 0.981,-0.168 1.659,-0.168 0.586,0 1.136,0.062 1.649,0.188 0.514,0.125 0.965,0.298 1.355,0.52 0.388,0.22 0.696,0.484 0.922,0.791 0.225,0.307 0.338,0.641 0.338,1.004 0,0.575 -0.18,1.071 -0.542,1.49 C 12.62,2.389 12.149,2.733 11.568,3.004 10.987,3.274 10.324,3.476 9.58,3.607 8.835,3.739 8.084,3.806 7.328,3.806 6.686,3.806 6.048,3.746 5.416,3.627 4.784,3.509 4.186,3.324 3.622,3.073 3.453,3.495 3.174,3.885 2.784,4.241 2.396,4.598 1.907,4.902 1.32,5.156 0.733,5.41 0.051,5.608 -0.728,5.75 -1.506,5.892 -2.369,5.963 -3.317,5.963 -4.39,5.963 -5.413,5.872 -6.39,5.69 -7.365,5.51 -8.226,5.254 -8.971,4.924 c -0.744,-0.33 -1.34,-0.731 -1.785,-1.202 -0.446,-0.473 -0.669,-0.995 -0.669,-1.569 0,-0.403 0.111,-0.756 0.33,-1.059 0.221,-0.304 0.528,-0.559 0.923,-0.767 0.395,-0.208 0.866,-0.365 1.413,-0.471 0.547,-0.105 1.143,-0.158 1.785,-0.158 0.745,0 1.358,0.063 1.837,0.189 0.48,0.125 0.855,0.278 1.126,0.46 0.271,0.181 0.456,0.374 0.558,0.579 0.101,0.204 0.152,0.386 0.152,0.544 0,0.205 -0.064,0.401 -0.194,0.589 -0.13,0.188 -0.313,0.353 -0.55,0.495 C -4.282,2.695 -4.569,2.808 -4.908,2.89 -5.247,2.973 -5.619,3.014 -6.025,3.014 -6.466,3.014 -6.846,2.966 -7.168,2.87 -7.489,2.774 -7.755,2.654 -7.963,2.509 -8.172,2.364 -8.327,2.207 -8.429,2.039 -8.53,1.871 -8.581,1.714 -8.581,1.569 l -0.187,-0.02 c -0.079,0.119 -0.137,0.234 -0.177,0.347 -0.039,0.112 -0.059,0.227 -0.059,0.346 0,0.329 0.157,0.633 0.474,0.91 0.315,0.278 0.724,0.518 1.226,0.723 0.503,0.204 1.073,0.362 1.71,0.475 0.638,0.112 1.278,0.169 1.921,0.169 0.745,0 1.416,-0.07 2.015,-0.208 C -1.061,4.172 -0.55,3.98 -0.127,3.736 0.296,3.492 0.623,3.205 0.854,2.875 1.086,2.545 1.202,2.189 1.202,1.807 1.202,1.516 1.135,1.218 0.999,0.911 0.863,0.604 0.648,0.292 0.355,-0.024 0.265,-0.012 0.146,-0.003 0,0 m -19.549,6.418 h 35.222 v 1.455 h -35.222 z"
       style="fill:#ffffff;fill-opacity:1;fill-rule:nonzero;stroke:none"
       transform="matrix(1.3333333,0,0,-1.3333333,206.9156,338.14813)"
       clip-path="url(#clipPath46)" />
    <path
       id="path47"
       d="m 0,0 c -0.316,0.283 -0.548,0.553 -0.694,0.807 -0.147,0.254 -0.22,0.493 -0.22,0.716 0,0.39 0.217,0.735 0.651,1.036 0.435,0.299 1.03,0.551 1.785,0.756 0.756,0.205 1.646,0.36 2.666,0.465 0.255,0.027 0.516,0.05 0.782,0.07 0.259,0.017 0.523,0.035 0.793,0.052 0.482,0.039 0.983,0.066 1.501,0.077 0.671,0.02 1.316,0.004 1.935,-0.009 0.617,0.006 1.209,-0.012 1.778,-0.051 0.567,-0.037 1.114,-0.097 1.634,-0.153 0.52,-0.038 1.016,-0.091 1.491,-0.158 0.474,-0.066 0.925,-0.142 1.353,-0.227 0.214,-0.045 0.423,-0.089 0.625,-0.132 0.201,-0.036 0.397,-0.076 0.586,-0.117 0.757,-0.167 1.422,-0.334 1.989,-0.5 0.329,0.535 0.656,1.044 0.964,1.596 C 19.252,4.341 18.658,4.513 17.864,4.672 17.467,4.755 17.032,4.829 16.56,4.894 16.324,4.927 16.079,4.957 15.824,4.984 15.568,5.022 15.303,5.062 15.027,5.102 14.478,5.178 13.899,5.239 13.294,5.286 12.99,5.31 12.681,5.328 12.362,5.346 12.043,5.379 11.717,5.408 11.383,5.436 10.715,5.488 10.032,5.514 9.332,5.512 8.982,5.502 8.626,5.526 8.267,5.528 7.905,5.533 7.541,5.531 7.172,5.521 6.838,5.514 6.511,5.5 6.188,5.48 6.027,5.47 5.868,5.458 5.71,5.447 5.529,5.437 5.352,5.426 5.175,5.416 4.449,5.371 3.751,5.305 3.08,5.215 1.737,5.037 0.575,4.781 -0.406,4.448 -1.389,4.115 -2.158,3.716 -2.717,3.251 -3.275,2.786 -3.555,2.267 -3.555,1.692 -3.555,1.164 -3.295,0.601 -2.776,0 H -6.33 v -1.455 h 3.554 V -14.756 H 0 v 13.301 h 3.537 l 0,1.455 z"
       style="fill:#ffffff;fill-opacity:1;fill-rule:nonzero;stroke:none"
       transform="matrix(1.3333333,0,0,-1.3333333,247.3336,327.6508)"
       clip-path="url(#clipPath48)" />
    <path
       id="path49"
       d="m 0,0 c -0.828,0.316 -1.674,0.652 -2.527,0.942 -0.855,0.29 -1.718,0.543 -2.595,0.757 -0.879,0.247 -1.75,0.47 -2.615,0.654 -0.433,0.091 -0.864,0.175 -1.293,0.251 -0.43,0.073 -0.86,0.174 -1.288,0.247 l -0.008,0.217 c 0.269,0.111 0.633,0.258 1.092,0.445 0.455,0.204 0.962,0.422 1.517,0.653 0.553,0.226 1.137,0.463 1.753,0.714 l 0.458,0.181 0.455,0.197 c 0.302,0.126 0.603,0.252 0.903,0.377 0.598,0.244 1.174,0.458 1.729,0.643 0.557,0.175 1.05,0.342 1.491,0.45 L 0.107,0.018 Z M -1.177,8.342 C -1.446,8.268 -1.716,8.189 -1.983,8.106 L -2.792,7.881 C -3.329,7.723 -3.864,7.546 -4.398,7.35 -4.665,7.249 -4.93,7.148 -5.194,7.049 -5.457,6.946 -5.72,6.84 -5.982,6.752 -6.506,6.565 -7.024,6.371 -7.536,6.168 -8.049,5.965 -8.55,5.759 -9.039,5.55 -9.161,5.498 -9.283,5.446 -9.404,5.395 -9.525,5.348 -9.646,5.301 -9.766,5.254 c -0.24,-0.096 -0.476,-0.191 -0.71,-0.283 -0.945,-0.386 -1.807,-0.738 -2.588,-1.056 l 0.004,-2.128 c 0.717,-0.082 1.51,-0.221 2.382,-0.415 0.437,-0.097 0.881,-0.205 1.333,-0.324 0.452,-0.113 0.912,-0.213 1.381,-0.337 0.939,-0.241 1.886,-0.522 2.846,-0.84 0.958,-0.286 1.873,-0.593 2.749,-0.946 0.875,-0.345 1.685,-0.753 2.418,-1.128 0.734,-0.391 1.352,-0.815 1.847,-1.274 l 1.809,0.304 -2.547,13.458 c 1.088,0.222 2.172,0.467 3.258,0.696 L 4.083,12.398 1.58,11.857 C 1.372,11.814 1.164,11.763 0.954,11.726 l -0.632,-0.105 -1.263,-0.21 -1.263,-0.212 c -0.42,-0.078 -0.848,-0.106 -1.272,-0.163 l -2.545,-0.303 -2.559,-0.18 c -0.427,-0.025 -0.853,-0.074 -1.28,-0.08 l -1.285,-0.03 -1.283,-0.03 c -0.429,-0.01 -0.842,-0.025 -1.322,-0.02 h -2.784 V 8.938 h 1.993 c 0.662,0 1.344,-0.005 1.95,0.016 l 1.872,0.044 c 0.624,0.014 1.249,0.021 1.87,0.077 l 1.868,0.133 0.933,0.065 c 0.311,0.022 0.619,0.07 0.929,0.104 l 1.857,0.22 0.929,0.108 c 0.309,0.046 0.615,0.103 0.923,0.152 z"
       style="fill:#ffffff;fill-opacity:1;fill-rule:nonzero;stroke:none"
       transform="matrix(1.3333333,0,0,-1.3333333,272.51453,341.50747)"
       clip-path="url(#clipPath50)" />
    <path
       id="path51"
       d="M 0,0 C 0.479,0.454 0.959,0.898 1.438,1.333 1.68,1.548 1.919,1.763 2.158,1.978 2.393,2.2 2.627,2.423 2.859,2.645 L 5.166,-1.699 5.069,-1.752 C 4.626,-1.756 4.154,-1.805 3.623,-1.836 3.097,-1.877 2.52,-1.948 1.896,-2.05 1.271,-2.152 0.593,-2.285 -0.141,-2.449 -0.886,-2.584 -1.691,-2.752 -2.554,-2.956 l -0.127,0.301 C -1.866,-1.766 -0.949,-0.933 0,0 M 3.816,13.152 1.353,11.645 C 0.519,11.163 -0.336,10.718 -1.178,10.249 L 0.34,7.392 C -0.208,7.595 -0.746,7.757 -1.311,7.949 -1.87,8.133 -2.422,8.265 -2.968,8.345 -3.515,8.424 -4.05,8.44 -4.577,8.393 -5.099,8.333 -5.624,8.231 -6.127,8.013 -6.535,7.838 -6.906,7.614 -7.241,7.342 -7.578,7.07 -7.888,6.767 -8.184,6.452 -8.483,6.147 -8.77,5.827 -9.04,5.491 -9.312,5.154 -9.582,4.827 -9.85,4.509 c -0.466,0.04 -0.954,0.063 -1.473,0.101 -0.523,0.049 -1.041,0.08 -1.556,0.093 -0.514,0.013 -1.009,0 -1.484,-0.038 C -14.838,4.618 -15.28,4.562 -15.681,4.457 -17.05,4.099 -18.41,3.702 -19.803,3.434 l 0.313,-1.421 c 0.586,0.133 1.178,0.24 1.758,0.391 l 1.739,0.465 c 0.47,0.125 0.946,0.198 1.43,0.221 0.48,0.036 0.93,0.061 1.357,0.05 0.427,-0.01 0.81,-0.036 1.149,-0.076 0.34,-0.041 0.595,-0.076 0.764,-0.105 -0.823,-0.69 -1.472,-1.282 -1.934,-1.769 -0.232,-0.241 -0.431,-0.473 -0.605,-0.669 -0.175,-0.197 -0.317,-0.376 -0.43,-0.54 -0.222,-0.326 -0.348,-0.591 -0.373,-0.795 -0.024,-0.206 -0.018,-0.374 0.018,-0.507 0.08,-0.293 0.242,-0.535 0.489,-0.726 0.246,-0.19 0.539,-0.329 0.878,-0.416 0.341,-0.094 0.705,-0.117 1.099,-0.091 0.392,0.025 0.775,0.097 1.147,0.215 0.24,0.076 0.507,0.186 0.799,0.327 0.291,0.141 0.572,0.314 0.841,0.517 0.27,0.197 0.506,0.459 0.721,0.735 0.214,0.281 0.378,0.593 0.493,0.939 l 0.094,0.035 c 0.278,-0.199 0.588,-0.336 0.932,-0.408 0.343,-0.074 0.69,-0.105 1.043,-0.093 0.351,0.012 0.691,0.047 1.006,0.139 0.318,0.086 0.598,0.18 0.842,0.284 0.4,0.172 0.759,0.385 1.074,0.637 0.314,0.253 0.568,0.518 0.763,0.794 0.195,0.274 0.317,0.559 0.371,0.848 0.054,0.287 0.026,0.547 -0.082,0.78 -0.134,0.287 -0.375,0.5 -0.72,0.641 -0.343,0.136 -0.773,0.257 -1.268,0.32 -0.497,0.068 -1.049,0.106 -1.654,0.116 -0.301,0.004 -0.608,0.008 -0.923,0.013 -0.312,10e-4 -0.631,0.003 -0.962,0.024 0.223,0.269 0.422,0.532 0.605,0.767 0.184,0.235 0.353,0.442 0.508,0.62 0.311,0.36 0.605,0.598 0.887,0.719 0.321,0.137 0.733,0.169 1.243,0.1 0.507,-0.062 1.077,-0.175 1.731,-0.369 0.654,-0.193 1.368,-0.448 2.148,-0.761 0.779,-0.319 1.594,-0.652 2.449,-1 L 2.071,4.131 C 1.914,3.99 1.757,3.85 1.599,3.709 1.442,3.563 1.283,3.422 1.119,3.287 0.796,3.012 0.471,2.728 0.146,2.437 -0.506,1.856 -1.146,1.243 -1.8,0.645 -2.462,0.063 -3.11,-0.526 -3.745,-1.124 c -0.318,-0.303 -0.632,-0.601 -0.942,-0.897 -0.317,-0.284 -0.63,-0.565 -0.94,-0.842 l 0.762,-1.988 c 1.144,0.192 2.308,0.437 3.544,0.625 0.617,0.095 1.224,0.174 1.824,0.237 0.59,0.082 1.168,0.153 1.74,0.205 0.571,0.052 1.125,0.084 1.66,0.096 0.533,0.019 1.058,-0.004 1.543,-0.005 0.98,-0.019 1.796,-0.161 2.441,-0.433 l 1.646,0.903 -7.748,13.434 2.814,1.715 z"
       style="fill:#ffffff;fill-opacity:1;fill-rule:nonzero;stroke:none"
       transform="matrix(1.3333333,0,0,-1.3333333,302.94173,329.8604)"
       clip-path="url(#clipPath52)" />
    <path
       id="path53"
       d="m 0,0 c -0.399,0.054 -0.725,0.145 -0.979,0.271 -0.255,0.125 -0.447,0.279 -0.578,0.462 -0.226,0.316 -0.271,0.714 -0.141,1.19 0.129,0.473 0.396,0.993 0.802,1.553 0.202,0.28 0.434,0.567 0.696,0.86 0.26,0.297 0.53,0.624 0.841,0.947 0.306,0.325 0.636,0.652 0.988,0.977 0.176,0.163 0.356,0.327 0.544,0.49 0.187,0.162 0.364,0.345 0.556,0.517 0.489,0.452 0.973,0.87 1.453,1.254 0.238,0.195 0.481,0.375 0.713,0.557 0.225,0.188 0.451,0.367 0.674,0.539 0.45,0.343 0.89,0.66 1.322,0.953 0.215,0.147 0.429,0.287 0.641,0.421 0.206,0.14 0.406,0.276 0.603,0.407 0.791,0.522 1.54,0.956 2.242,1.302 0.358,0.168 0.661,0.351 0.967,0.501 0.302,0.155 0.585,0.295 0.849,0.418 -0.101,0.617 -0.209,1.229 -0.322,1.832 -0.368,-0.139 -0.905,-0.41 -1.603,-0.806 C 9.917,14.448 9.553,14.213 9.15,13.961 8.738,13.717 8.303,13.442 7.846,13.14 7.389,12.837 6.919,12.504 6.439,12.143 5.935,11.802 5.415,11.434 4.885,11.036 4.619,10.838 4.354,10.631 4.093,10.417 3.96,10.312 3.834,10.197 3.697,10.093 3.561,9.987 3.424,9.881 3.286,9.774 2.739,9.342 2.197,8.878 1.659,8.38 1.539,8.267 1.419,8.154 1.301,8.043 1.182,7.933 1.058,7.83 0.939,7.724 0.7,7.512 0.47,7.299 0.248,7.085 -0.197,6.657 -0.61,6.225 -0.993,5.787 -1.79,4.952 -2.435,4.158 -2.91,3.375 -3.145,2.978 -3.357,2.625 -3.52,2.272 -3.682,1.922 -3.799,1.581 -3.87,1.251 c -0.142,-0.659 -0.061,-1.232 0.258,-1.71 0.293,-0.439 0.798,-0.777 1.529,-1.006 l -1.348,-0.918 c -0.455,-0.298 -0.925,-0.57 -1.387,-0.856 l 0.764,-1.239 c 0.471,0.292 0.951,0.571 1.415,0.874 l 1.375,0.937 7.487,-10.994 c 0.841,0.58 1.701,1.135 2.506,1.765 L 0.86,-1.173 2.183,-0.177 C 2.622,0.157 3.072,0.478 3.488,0.842 L 2.576,1.975 C 2.168,1.618 1.727,1.304 1.296,0.977 Z"
       style="fill:#ffffff;fill-opacity:1;fill-rule:nonzero;stroke:none"
       transform="matrix(1.3333333,0,0,-1.3333333,313.20987,308.7484)"
       clip-path="url(#clipPath54)" />
    <path
       id="path55"
       d="M 0,0 C -0.866,-0.276 -1.714,-0.587 -2.545,-0.932 -2.96,-1.104 -3.371,-1.285 -3.777,-1.476 -4.181,-1.668 -4.61,-1.842 -5.02,-2.04 c -0.826,-0.389 -1.623,-0.797 -2.393,-1.228 -0.378,-0.221 -0.78,-0.418 -1.163,-0.631 -0.386,-0.212 -0.765,-0.43 -1.138,-0.654 l -0.146,0.161 c 0.131,0.261 0.31,0.613 0.534,1.056 0.222,0.442 0.491,0.91 0.749,1.461 0.268,0.536 0.552,1.103 0.85,1.699 0.153,0.293 0.304,0.584 0.455,0.873 0.153,0.287 0.309,0.57 0.449,0.865 0.289,0.58 0.58,1.123 0.875,1.629 0.294,0.506 0.578,0.937 0.854,1.295 L 0.071,0.081 Z M -6.336,5.546 C -6.992,4.647 -7.587,3.7 -8.129,2.699 -8.26,2.444 -8.405,2.206 -8.546,1.964 -8.685,1.72 -8.823,1.477 -8.96,1.235 -9.231,0.748 -9.492,0.259 -9.744,-0.232 c -0.125,-0.248 -0.248,-0.494 -0.37,-0.735 -0.128,-0.236 -0.254,-0.47 -0.379,-0.701 -0.249,-0.463 -0.487,-0.922 -0.715,-1.375 -0.229,-0.455 -0.447,-0.892 -0.656,-1.308 -0.206,-0.422 -0.435,-0.793 -0.635,-1.166 l 1.381,-1.618 c 0.306,0.195 0.644,0.38 0.991,0.585 0.344,0.209 0.711,0.421 1.103,0.635 0.782,0.429 1.621,0.84 2.509,1.25 0.863,0.436 1.757,0.848 2.687,1.24 0.463,0.199 0.932,0.375 1.384,0.555 0.447,0.183 0.892,0.354 1.336,0.511 0.887,0.313 1.747,0.556 2.576,0.727 0.207,0.044 0.411,0.079 0.607,0.111 0.194,0.036 0.383,0.064 0.569,0.085 0.37,0.044 0.723,0.062 1.059,0.051 L 4.865,0.05 -5.869,8.556 -5.347,9.2 c 0.177,0.214 0.33,0.445 0.496,0.665 l 0.98,1.34 -1.182,0.85 C -9,6.534 -13.816,1.605 -19.171,-2.604 l 0.896,-1.147 c 3.921,3.058 7.544,6.517 10.772,10.293 z"
       style="fill:#ffffff;fill-opacity:1;fill-rule:nonzero;stroke:none"
       transform="matrix(1.3333333,0,0,-1.3333333,341.06933,303.544)"
       clip-path="url(#clipPath56)" />
    <path
       id="path57"
       d="m 0,0 c -0.054,0.785 -0.114,1.679 -0.183,2.682 -0.032,0.496 -0.057,0.999 -0.076,1.509 -0.036,0.522 -0.067,1.05 -0.092,1.587 -0.025,0.536 -0.038,1.07 -0.04,1.601 -0.006,0.533 0.023,1.053 0.013,1.595 0,1.074 0.088,2.087 0.27,3.047 C 0.353,11.288 0.916,10.642 1.586,10.093 2.255,9.544 2.953,9.096 3.685,8.761 4.183,8.531 4.723,8.388 5.308,8.334 5.893,8.279 6.486,8.3 7.09,8.396 c 0.597,0.099 1.209,0.256 1.771,0.5 0.567,0.244 1.088,0.531 1.561,0.86 -0.099,0.781 -0.202,1.554 -0.31,2.318 C 9.6,11.839 9.11,11.645 8.644,11.489 8.176,11.334 7.715,11.23 7.261,11.178 6.806,11.125 6.346,11.134 5.88,11.203 5.413,11.271 4.921,11.414 4.403,11.629 4.001,11.796 3.611,12.012 3.232,12.273 2.854,12.535 2.495,12.837 2.155,13.177 1.815,13.517 1.504,13.894 1.221,14.305 0.937,14.715 0.689,15.149 0.475,15.606 -0.127,15.153 -0.724,14.711 -1.316,14.277 -1.405,13.895 -1.48,13.487 -1.544,13.056 -1.627,12.632 -1.697,12.183 -1.756,11.708 -1.815,11.233 -1.864,10.749 -1.904,10.256 -1.945,9.763 -1.968,9.256 -2.021,8.758 -2.107,7.752 -2.161,6.744 -2.184,5.732 -2.187,5.222 -2.223,4.752 -2.232,4.291 -2.246,3.833 -2.25,3.393 -2.246,2.972 L -2.298,2.883 -7.482,5.956 c 2.48,4.185 4.517,8.626 6.06,13.232 L -2.801,19.65 -3.235,18.384 C -3.38,17.961 -3.516,17.536 -3.692,17.125 L -4.687,14.639 C -5.042,13.819 -5.432,13.015 -5.8,12.201 -6.152,11.38 -6.59,10.6 -7,9.806 L -7.62,8.617 C -7.719,8.417 -7.832,8.224 -7.947,8.032 L -8.288,7.455 -8.969,6.299 -9.308,5.721 -9.478,5.431 -9.661,5.15 -11.137,2.907 c -0.236,-0.381 -0.514,-0.732 -0.776,-1.095 l -0.793,-1.085 1.167,-0.868 1.397,1.914 1.301,1.98 7.039,-4.533 0.878,0.336 c 0.294,0.112 0.589,0.225 0.869,0.351 z"
       style="fill:#ffffff;fill-opacity:1;fill-rule:nonzero;stroke:none"
       transform="matrix(1.3333333,0,0,-1.3333333,350.42213,289.6064)"
       clip-path="url(#clipPath58)" />
    <path
       id="path59"
       d="M 0,0 1.586,-0.5 1.891,0.549 C 2.208,1.646 2.354,2.621 2.329,3.46 2.281,4.306 2.101,5.025 1.824,5.61 1.544,6.196 1.182,6.654 0.737,6.989 0.293,7.323 -0.178,7.541 -0.674,7.648 -1.055,7.731 -1.422,7.753 -1.775,7.717 -2.13,7.68 -2.479,7.614 -2.822,7.52 -3.166,7.425 -3.506,7.319 -3.841,7.203 -4.176,7.088 -4.517,6.987 -4.861,6.901 -5.206,6.816 -5.561,6.764 -5.924,6.744 c -0.364,-0.019 -0.744,0.022 -1.14,0.119 -0.245,0.061 -0.51,0.161 -0.8,0.3 -0.289,0.138 -0.554,0.339 -0.795,0.601 -0.24,0.261 -0.43,0.595 -0.57,1.002 -0.139,0.406 -0.173,0.906 -0.112,1.505 l 0.432,2.404 -1.435,0.242 -0.254,-1.414 c -0.09,-0.471 -0.154,-0.945 -0.276,-1.409 l -0.651,-2.798 -0.79,-2.762 c -0.069,-0.229 -0.124,-0.463 -0.204,-0.688 l -0.234,-0.679 -0.466,-1.359 1.372,-0.484 c 0.269,0.802 0.56,1.597 0.815,2.403 l 0.699,2.439 c 0.271,-0.487 0.611,-0.897 1.021,-1.226 0.411,-0.329 0.863,-0.568 1.357,-0.711 0.373,-0.109 0.742,-0.162 1.107,-0.157 0.366,0.005 0.725,0.042 1.077,0.113 0.354,0.07 0.704,0.158 1.05,0.264 0.346,0.106 0.689,0.201 1.029,0.284 0.338,0.082 0.675,0.138 1.009,0.166 0.33,0.03 0.661,0.002 0.993,-0.084 C -1.435,4.75 -1.152,4.631 -0.844,4.459 -0.538,4.286 -0.271,4.058 -0.037,3.77 0.196,3.481 0.362,3.131 0.459,2.716 0.557,2.301 0.525,1.813 0.365,1.258 Z"
       style="fill:#ffffff;fill-opacity:1;fill-rule:nonzero;stroke:none"
       transform="matrix(1.3333333,0,0,-1.3333333,363.84533,267.17933)"
       clip-path="url(#clipPath60)" />
    <path
       id="path61"
       d="m 0,0 0.196,1.53 0.097,0.765 0.048,0.383 0.031,0.384 -11.74,1.15 c -0.203,0.02 -0.391,0.108 -0.561,0.264 -0.17,0.155 -0.315,0.36 -0.434,0.615 -0.119,0.255 -0.206,0.545 -0.261,0.872 -0.055,0.325 -0.066,0.677 -0.037,1.054 0.014,0.215 0.04,0.429 0.045,0.645 l -1.453,0.072 -0.264,-3.496 c -0.032,-0.286 0.016,-0.526 0.158,-0.724 0.14,-0.198 0.335,-0.312 0.584,-0.34 l 0.078,-0.01 c -0.214,-0.269 -0.403,-0.567 -0.568,-0.896 -0.165,-0.33 -0.308,-0.662 -0.427,-0.998 -0.059,-0.169 -0.111,-0.335 -0.161,-0.499 -0.057,-0.162 -0.106,-0.321 -0.149,-0.478 -0.088,-0.314 -0.154,-0.593 -0.198,-0.835 l -0.12,-0.669 1.431,-0.265 0.123,0.683 c 0.066,0.372 0.168,0.709 0.304,1.013 0.141,0.302 0.279,0.561 0.446,0.772 0.166,0.211 0.348,0.37 0.544,0.477 0.197,0.107 0.396,0.148 0.6,0.121 z"
       style="fill:#ffffff;fill-opacity:1;fill-rule:nonzero;stroke:none"
       transform="matrix(1.3333333,0,0,-1.3333333,369.97947,249.76013)"
       clip-path="url(#clipPath62)" />
    <path
       id="path63"
       d="M 0,0 -0.989,1.912 C -1.106,1.793 -1.221,1.665 -1.329,1.525 -1.437,1.386 -1.529,1.238 -1.603,1.082 c -0.322,0.399 -0.58,0.844 -0.788,1.335 -0.205,0.491 -0.342,0.978 -0.413,1.465 -0.072,0.531 -0.087,1.054 -0.018,1.576 0.068,0.521 0.212,0.965 0.431,1.333 l 8.693,1.48 C 6.151,9.237 5.956,10.189 5.783,11.148 L -7.287,8.681 c -0.199,1.129 -0.444,2.251 -0.677,3.375 l -1.424,-0.301 c 0.872,-4.097 1.575,-8.227 2.081,-12.343 0.247,-2.052 0.455,-4.12 0.572,-6.109 0.013,-0.245 0.032,-0.502 0.04,-0.733 l 0.023,-0.596 -0.038,-1.42 c -0.033,-0.995 -0.024,-1.994 -0.127,-2.984 l 1.452,-0.096 c 0.026,0.384 0.069,0.768 0.081,1.153 l 0.03,1.158 0.056,2.235 -0.018,0.486 -0.029,0.565 c -0.023,0.385 -0.041,0.763 -0.072,1.156 -0.053,0.776 -0.123,1.561 -0.196,2.346 -0.296,3.145 -0.735,6.314 -1.277,9.466 l 2.39,0.407 C -4.557,5.59 -4.531,4.687 -4.391,3.726 -4.279,2.95 -4.076,2.213 -3.791,1.509 -3.516,0.805 -3.148,0.213 -2.688,-0.27 l 0.012,-0.1 c -0.282,-0.605 -0.499,-1.273 -0.62,-2.006 -0.12,-0.733 -0.16,-1.512 -0.085,-2.341 0.075,-0.969 0.249,-1.824 0.513,-2.563 0.064,-0.181 0.137,-0.365 0.209,-0.528 0.035,-0.073 0.072,-0.137 0.109,-0.208 0.035,-0.067 0.07,-0.159 0.106,-0.235 0.143,-0.319 0.306,-0.627 0.489,-0.901 0.365,-0.552 0.791,-0.983 1.277,-1.291 0.488,-0.308 0.991,-0.477 1.512,-0.498 0.448,-0.017 0.883,0.07 1.304,0.272 0.422,0.201 0.797,0.522 1.125,0.969 0.164,0.224 0.313,0.48 0.447,0.768 0.134,0.293 0.257,0.586 0.357,1.002 0.019,0.115 0.038,0.232 0.058,0.351 0.015,0.098 0.03,0.198 0.046,0.299 0.027,0.198 0.049,0.407 0.062,0.622 0.023,0.42 0.025,0.879 -0.009,1.358 -0.06,0.828 -0.178,1.505 -0.366,2.023 -0.182,0.52 -0.385,0.922 -0.617,1.203 -0.232,0.282 -0.469,0.47 -0.708,0.567 C 2.294,-1.41 2.082,-1.372 1.898,-1.391 1.682,-1.414 1.479,-1.508 1.292,-1.672 1.104,-1.836 0.947,-2.059 0.821,-2.34 0.694,-2.623 0.598,-2.953 0.54,-3.33 0.479,-3.707 0.478,-4.121 0.508,-4.575 0.544,-5.064 0.628,-5.482 0.754,-5.835 0.877,-6.189 1.024,-6.479 1.196,-6.707 1.368,-6.933 1.546,-7.105 1.74,-7.213 1.933,-7.324 2.111,-7.375 2.276,-7.37 L 2.305,-7.564 C 2.111,-7.785 1.905,-7.98 1.661,-8.078 1.421,-8.178 1.176,-8.227 0.925,-8.227 0.601,-8.226 0.293,-8.14 -0.011,-7.97 c -0.307,0.168 -0.584,0.403 -0.834,0.722 -0.244,0.318 -0.46,0.706 -0.627,1.162 -0.17,0.456 -0.284,0.982 -0.327,1.58 -0.078,0.832 0.041,1.629 0.311,2.4 0.273,0.772 0.782,1.439 1.501,2.005 z"
       style="fill:#ffffff;fill-opacity:1;fill-rule:nonzero;stroke:none"
       transform="matrix(1.3333333,0,0,-1.3333333,360.23067,224.31027)"
       clip-path="url(#clipPath64)" />
    <path
       id="path65"
       d="M 0,0 C 0.118,0.151 0.206,0.337 0.265,0.559 0.324,0.781 0.352,1.032 0.348,1.312 0.345,1.591 0.303,1.885 0.224,2.194 0.146,2.503 0.04,2.78 -0.1,3.023 -0.237,3.267 -0.387,3.471 -0.55,3.634 -0.712,3.796 -0.882,3.914 -1.06,3.986 -1.238,4.059 -1.413,4.071 -1.585,4.023 -1.756,3.976 -1.898,3.875 -2.014,3.721 -2.128,3.568 -2.212,3.381 -2.267,3.161 -2.321,2.94 -2.344,2.692 -2.335,2.418 c 0.012,-0.274 0.053,-0.564 0.13,-0.869 0.077,-0.305 0.182,-0.578 0.312,-0.821 0.13,-0.243 0.275,-0.447 0.432,-0.61 0.158,-0.165 0.325,-0.285 0.501,-0.361 0.177,-0.076 0.351,-0.092 0.523,-0.049 C -0.264,-0.249 -0.118,-0.151 0,0 m -10.282,2.87 c -0.267,-0.743 -0.48,-1.549 -0.639,-2.418 -0.15,-0.866 -0.287,-1.769 -0.346,-2.691 -0.068,-0.926 -0.048,-1.796 -0.002,-2.628 -0.208,0.9 -0.454,1.793 -0.678,2.69 l -0.344,1.344 c -0.116,0.448 -0.249,0.891 -0.372,1.337 l -0.754,2.671 -0.818,2.653 9.502,2.973 0.031,-0.1 C -4.917,7.855 -5.071,7.002 -5.163,6.139 -5.256,5.275 -5.337,4.402 -5.358,3.532 -5.387,2.66 -5.371,1.792 -5.349,0.918 -5.332,0.042 -5.302,-0.826 -5.26,-1.683 L -5.471,-1.736 C -5.656,-1.49 -5.91,-1.109 -6.232,-0.595 -6.559,-0.082 -6.89,0.487 -7.269,1.099 -7.646,1.71 -8.021,2.333 -8.392,2.965 -8.763,3.597 -9.073,4.168 -9.341,4.675 -9.697,4.218 -10.017,3.613 -10.282,2.87 m 8.228,9.823 -13.004,-4.299 -1.106,3.267 -1.371,-0.485 C -16.32,7.62 -15.133,4.05 -14.151,0.421 l 0.382,-1.356 0.352,-1.364 c 0.229,-0.91 0.473,-1.818 0.692,-2.73 l 0.635,-2.743 c 0.215,-0.914 0.389,-1.834 0.585,-2.751 l 1.426,0.291 -0.318,1.524 -0.159,0.763 -0.176,0.759 1.265,0.285 c -0.025,0.436 -0.054,0.958 -0.09,1.568 -0.036,0.609 -0.028,1.256 -0.028,1.93 0.008,0.675 0.057,1.357 0.146,2.047 0.085,0.688 0.252,1.326 0.464,1.905 0.573,-0.981 1.122,-1.907 1.687,-2.768 0.569,-0.86 1.083,-1.656 1.574,-2.378 l 2.071,0.485 c -0.066,0.714 -0.089,1.513 -0.124,2.386 -0.026,0.874 -0.019,1.784 0.02,2.731 0.023,0.473 0.047,0.947 0.071,1.424 0.028,0.476 0.065,0.955 0.11,1.438 0.088,0.964 0.236,1.893 0.407,2.778 0.165,0.882 0.383,1.701 0.653,2.455 0.271,0.755 0.603,1.401 0.995,1.938 -0.166,0.557 -0.357,1.105 -0.543,1.655"
       style="fill:#ffffff;fill-opacity:1;fill-rule:nonzero;stroke:none"
       transform="matrix(1.3333333,0,0,-1.3333333,363.36347,196.0908)"
       clip-path="url(#clipPath66)" />
    <path
       id="path67"
       d="m 0,0 c 0,0 3.541,-8.408 1.106,-17.038 4.426,2.877 12.835,5.532 15.269,3.762 -0.222,2.213 -2.272,4.249 -7.155,3.194 0,0 3.768,3.617 3.889,7.746 0,0 -4.672,-0.271 -6.3,-4.25 0,0 0.248,7.747 -6.809,6.586"
       style="fill:#1a6f45;fill-opacity:1;fill-rule:nonzero;stroke:none"
       transform="matrix(1.3333333,0,0,-1.3333333,48.485333,119.18267)"
       clip-path="url(#clipPath68)" />
    <path
       id="path69"
       d="m 0,0 c 0,0 -3.541,-8.408 -1.106,-17.038 -4.426,2.877 -12.834,5.532 -15.269,3.762 0.222,2.213 2.271,4.249 7.154,3.194 0,0 -3.767,3.617 -3.888,7.746 0,0 4.672,-0.271 6.299,-4.25 0,0 -0.247,7.747 6.81,6.586"
       style="fill:#1a6f45;fill-opacity:1;fill-rule:nonzero;stroke:none"
       transform="matrix(1.3333333,0,0,-1.3333333,335.82707,119.18267)"
       clip-path="url(#clipPath70)" />
    <path
       id="path71"
       d="m 0,0 c -22.557,0 -38.276,-5.486 -38.276,-10.41 0,-4.923 15.719,-10.409 38.276,-10.409 22.558,0 38.277,5.486 38.277,10.409 C 38.277,-5.486 22.558,0 0,0 m 0,-22.965 c -19.596,0 -40.423,4.4 -40.423,12.555 0,8.156 20.827,12.556 40.423,12.556 19.597,0 40.424,-4.4 40.424,-12.556 0,-8.155 -20.827,-12.555 -40.424,-12.555"
       style="fill:#ed1c24;fill-opacity:1;fill-rule:nonzero;stroke:none"
       transform="matrix(1.3333333,0,0,-1.3333333,191.63573,179.9248)"
       clip-path="url(#clipPath72)" />
    <path
       id="path73"
       d="m 0,0 c -0.54,0 -1.014,-0.114 -1.414,-0.345 -2.143,-1.237 -2.428,-6.043 -0.763,-12.857 1.815,-7.424 5.682,-16.479 10.888,-25.496 11.28,-19.538 23.892,-30.408 28.153,-27.944 2.143,1.236 2.428,6.043 0.763,12.856 -1.814,7.425 -5.682,16.48 -10.888,25.497 C 16.52,-10.587 5.206,0 0,0 m 35.416,-69.149 c -7.559,0 -19.822,14.237 -28.564,29.378 -5.305,9.188 -9.251,18.443 -11.113,26.06 -1.99,8.141 -1.377,13.406 1.775,15.225 7.061,4.08 21.285,-11.759 31.085,-28.73 5.304,-9.188 9.251,-18.443 11.112,-26.06 1.99,-8.141 1.377,-13.406 -1.774,-15.225 -0.762,-0.44 -1.607,-0.648 -2.521,-0.648"
       style="fill:#ed1c24;fill-opacity:1;fill-rule:nonzero;stroke:none"
       transform="matrix(1.3333333,0,0,-1.3333333,168.00293,149.14613)"
       clip-path="url(#clipPath74)" />
    <path
       id="path75"
       d="m 0,0 c -5.205,0 -16.52,-10.586 -26.739,-28.289 -5.206,-9.017 -9.074,-18.072 -10.888,-25.497 -1.665,-6.813 -1.38,-11.62 0.763,-12.856 0.4,-0.232 0.875,-0.345 1.414,-0.345 5.205,-0.002 16.519,10.586 26.739,28.289 5.206,9.017 9.073,18.072 10.888,25.496 1.665,6.814 1.38,11.62 -0.763,12.857 C 1.014,-0.114 0.539,0 0,0 m -35.416,-69.149 c -0.914,0 -1.759,0.208 -2.521,0.648 -3.151,1.819 -3.764,7.084 -1.774,15.225 1.861,7.617 5.808,16.872 11.112,26.06 9.798,16.97 24.023,32.811 31.085,28.73 3.152,-1.819 3.765,-7.084 1.775,-15.225 -1.862,-7.617 -5.808,-16.872 -11.113,-26.06 -8.741,-15.14 -21.005,-29.378 -28.564,-29.378"
       style="fill:#ed1c24;fill-opacity:1;fill-rule:nonzero;stroke:none"
       transform="matrix(1.3333333,0,0,-1.3333333,215.26973,149.14613)"
       clip-path="url(#clipPath76)" />
    <path
       id="path77"
       d="m 0,0 h 0.009 z m 21.608,14.44 c -0.224,0 -0.448,-0.067 -0.639,-0.202 L 0.205,-0.293 c -0.318,-0.223 -0.496,-0.587 -0.475,-0.975 0.021,-0.387 0.236,-0.73 0.577,-0.918 l 81.242,-44.752 v 30.41 L 22.123,14.314 c -0.162,0.085 -0.339,0.126 -0.515,0.126 M 81.906,-47.9 c -0.059,0 -0.119,0.014 -0.173,0.044 L -0.039,-2.813 c -0.558,0.308 -0.911,0.872 -0.945,1.507 -0.035,0.637 0.257,1.235 0.779,1.599 l 20.764,14.531 c 0.56,0.394 1.285,0.441 1.894,0.125 l 59.618,-30.942 c 0.118,-0.062 0.193,-0.184 0.193,-0.318 v -31.232 c 0,-0.127 -0.067,-0.243 -0.176,-0.308 -0.056,-0.033 -0.119,-0.049 -0.182,-0.049"
       style="fill:#231f20;fill-opacity:1;fill-rule:nonzero;stroke:none"
       transform="matrix(1.3333333,0,0,-1.3333333,82.9248,242.2132)"
       clip-path="url(#clipPath78)" />
    <path
       id="path79"
       d="m 0,0 c -0.052,0 -0.104,0.011 -0.153,0.034 l -86.128,40.778 c -0.179,0.084 -0.255,0.297 -0.17,0.476 0.085,0.179 0.298,0.256 0.476,0.17 L 0.153,0.681 C 0.332,0.596 0.408,0.383 0.323,0.204 0.262,0.075 0.134,0 0,0"
       style="fill:#231f20;fill-opacity:1;fill-rule:nonzero;stroke:none"
       transform="matrix(1.3333333,0,0,-1.3333333,192.13307,306.0804)"
       clip-path="url(#clipPath80)" />
    <path
       id="path81"
       d="m 0,0 c -0.044,0 -0.089,0.008 -0.133,0.025 l -88.123,35.232 c -0.183,0.073 -0.272,0.281 -0.199,0.465 0.072,0.182 0.279,0.274 0.465,0.199 L 0.133,0.689 C 0.316,0.616 0.405,0.408 0.332,0.225 0.276,0.085 0.142,0 0,0"
       style="fill:#231f20;fill-opacity:1;fill-rule:nonzero;stroke:none"
       transform="matrix(1.3333333,0,0,-1.3333333,192.13307,306.0804)"
       clip-path="url(#clipPath82)" />
    <path
       id="path83"
       d="m 0,0 c -0.037,0 -0.074,0.006 -0.112,0.018 l -89.824,29.569 c -0.187,0.061 -0.289,0.264 -0.227,0.452 0.061,0.188 0.26,0.285 0.452,0.228 L 0.112,0.697 C 0.3,0.636 0.401,0.434 0.34,0.245 0.29,0.095 0.15,0 0,0"
       style="fill:#231f20;fill-opacity:1;fill-rule:nonzero;stroke:none"
       transform="matrix(1.3333333,0,0,-1.3333333,192.13307,306.0804)"
       clip-path="url(#clipPath84)" />
    <path
       id="path85"
       d="m 0,0 -56.068,30.872 0.115,0.209 L 0.115,0.209 Z"
       style="fill:#231f20;fill-opacity:1;fill-rule:nonzero;stroke:none"
       transform="matrix(1.3333333,0,0,-1.3333333,186.41173,271.9788)"
       clip-path="url(#clipPath86)" />
    <path
       id="path87"
       d="M 0,0 -60.887,34.128 -60.77,34.335 0.117,0.207 Z"
       style="fill:#231f20;fill-opacity:1;fill-rule:nonzero;stroke:none"
       transform="matrix(1.3333333,0,0,-1.3333333,186.4104,281.62467)"
       clip-path="url(#clipPath88)" />
    <path
       id="path89"
       d="m 0,0 -67.238,37.625 0.117,0.209 L 0.117,0.209 Z"
       style="fill:#231f20;fill-opacity:1;fill-rule:nonzero;stroke:none"
       transform="matrix(1.3333333,0,0,-1.3333333,186.4104,291.5948)"
       clip-path="url(#clipPath90)" />
    <path
       id="path91"
       d="m 0,0 v -30.409 l 81.241,44.752 c 0.341,0.187 0.556,0.53 0.576,0.918 0.022,0.387 -0.156,0.752 -0.474,0.974 L 60.58,30.767 c -0.342,0.239 -0.785,0.269 -1.155,0.076 z m -0.357,-31.372 c -0.063,0 -0.126,0.017 -0.182,0.05 -0.109,0.064 -0.176,0.18 -0.176,0.307 V 0.218 c 0,0.134 0.074,0.256 0.193,0.317 l 59.617,30.943 c 0.609,0.314 1.334,0.267 1.895,-0.125 L 81.753,16.821 c 0.521,-0.364 0.813,-0.962 0.779,-1.598 -0.034,-0.636 -0.387,-1.2 -0.945,-1.507 L -0.185,-31.328 c -0.053,-0.029 -0.113,-0.044 -0.172,-0.044"
       style="fill:#231f20;fill-opacity:1;fill-rule:nonzero;stroke:none"
       transform="matrix(1.3333333,0,0,-1.3333333,192.6096,264.25093)"
       clip-path="url(#clipPath92)" />
    <path
       id="path93"
       d="m 0,0 c -0.134,0 -0.262,0.075 -0.323,0.204 -0.085,0.179 -0.009,0.392 0.17,0.477 l 86.127,40.777 c 0.177,0.086 0.39,0.009 0.476,-0.17 0.085,-0.179 0.009,-0.392 -0.17,-0.476 L 0.153,0.034 C 0.104,0.011 0.052,0 0,0"
       style="fill:#231f20;fill-opacity:1;fill-rule:nonzero;stroke:none"
       transform="matrix(1.3333333,0,0,-1.3333333,192.13307,306.0804)"
       clip-path="url(#clipPath94)" />
    <path
       id="path95"
       d="m 0,0 c -0.142,0 -0.276,0.085 -0.332,0.225 -0.073,0.183 0.016,0.391 0.199,0.464 l 88.122,35.232 c 0.185,0.075 0.392,-0.017 0.465,-0.199 0.073,-0.184 -0.016,-0.392 -0.199,-0.465 L 0.133,0.025 C 0.089,0.008 0.044,0 0,0"
       style="fill:#231f20;fill-opacity:1;fill-rule:nonzero;stroke:none"
       transform="matrix(1.3333333,0,0,-1.3333333,192.13307,306.0804)"
       clip-path="url(#clipPath96)" />
    <path
       id="path97"
       d="m 0,0 c -0.15,0 -0.29,0.095 -0.34,0.245 -0.061,0.189 0.04,0.391 0.228,0.452 l 89.822,29.57 c 0.187,0.057 0.39,-0.04 0.452,-0.228 0.062,-0.188 -0.04,-0.391 -0.227,-0.452 L 0.112,0.018 C 0.075,0.006 0.037,0 0,0"
       style="fill:#231f20;fill-opacity:1;fill-rule:nonzero;stroke:none"
       transform="matrix(1.3333333,0,0,-1.3333333,192.13307,306.0804)"
       clip-path="url(#clipPath98)" />
    <path
       id="path99"
       d="m 0,0 -0.115,0.209 56.068,30.872 0.115,-0.209 z"
       style="fill:#231f20;fill-opacity:1;fill-rule:nonzero;stroke:none"
       transform="matrix(1.3333333,0,0,-1.3333333,197.85307,271.9788)"
       clip-path="url(#clipPath100)" />
    <path
       id="path101"
       d="M 0,0 -0.117,0.207 60.77,34.335 60.887,34.128 Z"
       style="fill:#231f20;fill-opacity:1;fill-rule:nonzero;stroke:none"
       transform="matrix(1.3333333,0,0,-1.3333333,197.8544,281.62467)"
       clip-path="url(#clipPath102)" />
    <path
       id="path103"
       d="m 0,0 -0.117,0.209 67.238,37.625 0.117,-0.209 z"
       style="fill:#231f20;fill-opacity:1;fill-rule:nonzero;stroke:none"
       transform="matrix(1.3333333,0,0,-1.3333333,197.8544,291.5948)"
       clip-path="url(#clipPath104)" />
    <path
       id="path105"
       d="M 0,0 -2.16,1.292 C -2.534,1.516 -2.795,1.891 -2.874,2.32 l -0.438,2.364 c -0.003,0.022 -0.012,0.042 -0.025,0.06 l -54.101,76.548 c -0.027,0.037 -0.035,0.082 -0.024,0.125 0.308,1.174 4.26,17.453 -12.313,20.582 -0.071,0.013 -0.123,0.074 -0.123,0.146 v 11.089 c 0,3.279 -2.659,5.936 -5.937,5.936 -3.278,0 -5.936,-2.657 -5.936,-5.936 v -11.089 c 0,-0.072 -0.052,-0.133 -0.123,-0.146 -16.573,-3.129 -12.622,-19.408 -12.313,-20.582 0.011,-0.043 0.002,-0.088 -0.023,-0.125 L -148.332,4.744 c -0.013,-0.018 -0.022,-0.038 -0.025,-0.06 l -0.438,-2.364 c -0.079,-0.429 -0.34,-0.804 -0.715,-1.028 L -151.669,0 c -0.018,-0.011 -0.034,-0.025 -0.046,-0.042 l -20.373,-28.827 c -0.11,-0.155 0.11,-0.329 0.235,-0.185 l 22.863,26.185 c 0.008,0.01 0.014,0.02 0.019,0.03 l 1.582,3.056 c 0.137,0.264 0.338,0.491 0.585,0.658 l 2.622,1.772 c 0.011,0.007 0.021,0.016 0.03,0.025 l 63.121,72.3 c 2.749,3.149 7.644,3.149 10.392,0 l 63.122,-72.3 c 0.009,-0.009 0.019,-0.018 0.03,-0.025 L -4.866,0.875 C -4.619,0.708 -4.417,0.481 -4.28,0.216 l 1.581,-3.055 c 0.006,-0.01 0.012,-0.02 0.02,-0.03 l 22.862,-26.185 c 0.126,-0.144 0.346,0.03 0.236,0.185 L 0.046,-0.042 C 0.033,-0.025 0.019,-0.011 0,0"
       style="fill:#231f20;fill-opacity:1;fill-rule:nonzero;stroke:none"
       transform="matrix(1.3333333,0,0,-1.3333333,296.09147,211.2712)"
       clip-path="url(#clipPath106)" />
    <path
       id="path107"
       d="m 0,0 0.003,-0.002 z m -75.685,77.75 h 0.001 c 2.061,0 4.02,-0.89 5.375,-2.442 l 63.122,-72.3 2.605,-1.757 c 0.28,-0.189 0.51,-0.447 0.664,-0.747 l 1.581,-3.055 21.722,-24.876 -19.372,27.41 -2.145,1.283 c -0.433,0.26 -0.735,0.693 -0.826,1.19 l -0.438,2.363 -54.086,76.514 c -0.066,0.09 -0.089,0.208 -0.061,0.32 0.215,0.822 1.991,8.165 -1.637,13.899 -2.102,3.323 -5.632,5.474 -10.489,6.391 -0.184,0.035 -0.317,0.195 -0.317,0.381 v 11.089 c 0,3.142 -2.557,5.698 -5.699,5.698 -3.141,0 -5.697,-2.556 -5.697,-5.698 v -11.089 c 0,-0.186 -0.134,-0.346 -0.317,-0.381 -4.861,-0.918 -8.391,-3.069 -10.493,-6.396 -3.627,-5.74 -1.849,-13.073 -1.634,-13.891 0.028,-0.113 0.007,-0.229 -0.059,-0.322 L -147.987,4.785 -148.41,2.456 c -0.092,-0.497 -0.393,-0.931 -0.827,-1.19 l -2.159,-1.292 -19.355,-27.397 21.731,24.89 1.57,3.038 c 0.155,0.3 0.384,0.557 0.663,0.746 l 2.622,1.772 63.104,72.285 c 1.356,1.552 3.316,2.442 5.376,2.442 m -96.129,-106.917 c -0.084,0 -0.169,0.028 -0.242,0.084 -0.166,0.131 -0.198,0.359 -0.076,0.531 l 20.373,28.826 c 0.03,0.044 0.072,0.082 0.121,0.111 l 2.157,1.29 c 0.316,0.189 0.536,0.505 0.602,0.867 l 0.438,2.364 c 0.009,0.055 0.033,0.11 0.066,0.156 l 54.077,76.514 c -0.259,1.003 -1.981,8.397 1.703,14.226 2.165,3.427 5.778,5.645 10.737,6.596 v 11.015 c 0,3.404 2.769,6.174 6.173,6.174 3.406,0 6.175,-2.77 6.175,-6.174 v -11.015 c 4.957,-0.95 8.569,-3.168 10.734,-6.591 3.68,-5.819 1.966,-13.214 1.706,-14.231 L -2.992,5.06 C -2.96,5.016 -2.937,4.961 -2.927,4.905 L -2.489,2.542 C -2.423,2.181 -2.203,1.865 -1.887,1.675 L 0.271,0.384 C 0.316,0.358 0.355,0.323 0.388,0.279 l 20.376,-28.831 c 0.122,-0.171 0.09,-0.399 -0.076,-0.53 -0.166,-0.129 -0.395,-0.11 -0.535,0.049 L -2.756,-2.778 -4.342,0.286 C -4.46,0.514 -4.635,0.711 -4.85,0.856 l -2.693,1.835 -63.125,72.303 c -1.265,1.449 -3.093,2.279 -5.016,2.28 h -0.001 c -1.922,0 -3.752,-0.831 -5.016,-2.28 l -63.142,-72.323 -0.053,-0.042 -2.624,-1.773 c -0.213,-0.144 -0.388,-0.341 -0.506,-0.57 l -1.631,-3.13 -22.865,-26.189 c -0.079,-0.089 -0.184,-0.134 -0.292,-0.134"
       style="fill:#231f20;fill-opacity:1;fill-rule:nonzero;stroke:none"
       transform="matrix(1.3333333,0,0,-1.3333333,295.89093,211.50947)"
       clip-path="url(#clipPath108)" />
    <path
       id="path109"
       d="m 0,0 c -1.081,3.307 -4.191,5.704 -7.854,5.704 h -8.03 c -1.928,0 -3.495,1.568 -3.495,3.496 v 2.119 H 11.153 L 11.153,0 Z m 13.538,16.089 h -35.302 c -1.316,0 -2.384,-1.068 -2.384,-2.385 V 9.2 c 0,-4.557 3.708,-8.265 8.264,-8.265 h 8.03 c 1.927,0 3.496,-1.568 3.496,-3.496 v -1.21 c 0,-1.928 -1.569,-3.497 -3.496,-3.497 h -13.91 c -1.316,0 -2.384,-1.068 -2.384,-2.384 0,-1.317 1.068,-2.385 2.384,-2.385 h 13.91 c 4.218,0 7.704,3.18 8.199,7.267 h 10.808 v -4.882 c 0,-1.317 1.069,-2.385 2.385,-2.385 1.316,0 2.385,1.068 2.385,2.385 v 23.356 c 0,1.317 -1.069,2.385 -2.385,2.385"
       style="fill:#ed1c24;fill-opacity:1;fill-rule:nonzero;stroke:none"
       transform="matrix(1.3333333,0,0,-1.3333333,133.3492,407.0036)"
       clip-path="url(#clipPath110)" />
    <path
       id="path111"
       d="m 0,0 h 33.93 c 1.316,0 2.384,1.068 2.384,2.385 0,6.82 -5.548,12.369 -12.368,12.369 H -5.441 c -1.317,0 -2.385,-1.068 -2.385,-2.385 0,-1.316 1.068,-2.385 2.385,-2.385 h 29.387 c 3.358,0 6.214,-2.189 7.216,-5.214 H 0 c -4.315,0 -7.826,-3.511 -7.826,-7.827 v -12.075 c 0,-4.535 3.689,-8.224 8.223,-8.224 h 26.316 c 4.534,0 8.224,3.689 8.224,8.224 0,4.534 -3.69,8.224 -8.224,8.224 H 6.762 c -1.317,0 -2.385,-1.069 -2.385,-2.385 0,-1.316 1.068,-2.385 2.385,-2.385 h 19.951 c 1.904,0 3.454,-1.55 3.454,-3.454 0,-1.905 -1.55,-3.455 -3.454,-3.455 H 0.397 c -1.904,0 -3.454,1.55 -3.454,3.455 V -3.057 C -3.057,-1.371 -1.686,0 0,0"
       style="fill:#ed1c24;fill-opacity:1;fill-rule:nonzero;stroke:none"
       transform="matrix(1.3333333,0,0,-1.3333333,247.72027,391.9112)"
       clip-path="url(#clipPath112)" />
    <path
       id="path113"
       d="m 0,0 h -45.389 c -1.316,0 -2.384,-1.068 -2.384,-2.385 v -25.923 c 0,-5.405 4.397,-9.802 9.802,-9.802 h 22.701 c 1.317,0 2.385,1.068 2.385,2.384 0,1.317 -1.068,2.385 -2.385,2.385 h -22.701 c -2.775,0 -5.033,2.258 -5.033,5.033 V -4.77 h 40.619 v -5.198 h -8.879 c -0.876,0 -1.68,-0.48 -2.097,-1.251 l -0.44,-0.812 -0.428,0.793 c -0.416,0.772 -1.221,1.254 -2.098,1.254 h -15.189 c -5.013,0 -9.092,-4.079 -9.092,-9.093 v -0.134 c 0,-5.014 4.079,-9.093 9.092,-9.093 h 7.377 c 1.317,0 2.385,1.069 2.385,2.385 0,1.316 -1.068,2.385 -2.385,2.385 h -7.377 c -2.383,0 -4.323,1.939 -4.323,4.323 v 0.134 c 0,2.384 1.94,4.323 4.323,4.323 h 13.765 l 1.563,-2.898 v -8.267 c 0,-1.316 1.068,-2.385 2.384,-2.385 1.317,0 2.385,1.069 2.385,2.385 v 8.266 l 1.577,2.916 h 7.457 v -20.989 c 0,-1.316 1.069,-2.384 2.385,-2.384 1.316,0 2.385,1.068 2.385,2.384 V -2.385 C 2.385,-1.068 1.316,0 0,0"
       style="fill:#ed1c24;fill-opacity:1;fill-rule:nonzero;stroke:none"
       transform="matrix(1.3333333,0,0,-1.3333333,228.27627,372.23933)"
       clip-path="url(#clipPath114)" />
    <path
       id="path115"
       d="m 0,0 h -35.033 c -6.821,0 -12.369,-5.549 -12.369,-12.369 v -23.357 c 0,-1.316 1.068,-2.384 2.384,-2.384 1.317,0 2.385,1.068 2.385,2.384 v 23.357 c 0,4.19 3.409,7.599 7.6,7.599 H 0 c 1.316,0 2.385,1.069 2.385,2.385 C 2.385,-1.068 1.316,0 0,0"
       style="fill:#ed1c24;fill-opacity:1;fill-rule:nonzero;stroke:none"
       transform="matrix(1.3333333,0,0,-1.3333333,151.4,372.23933)"
       clip-path="url(#clipPath116)" />
  </g>
</svg>
